<svg width="3769" height="1038" viewBox="0 0 3769 1038" fill="none" xmlns="http://www.w3.org/2000/svg">
<g clip-path="url(#clip0_269_14)" filter="url(#filter0_d_269_14)">
<path d="M846 0C858.15 2.2 870.41 3.89 882.41 6.7C960.59 24.97 1022.41 92.81 1033.01 171.86C1034.41 182.469 1035.11 193.159 1035.1 203.86C1035.22 411.29 1034.42 618.72 1035.54 826.14C1036.05 920.32 970.46 1007.52 871.05 1026.14C858.63 1028.47 845.72 1029.08 833.05 1029.14C624.303 1029.31 415.553 1029.34 206.8 1029.23C105.74 1029.21 23.3 958.69 6.89 858.76C6 853.21 5 847.67 4 842.13V189.38C4.73 186.48 5.82 183.61 6.14 180.66C15.46 94.37 76.48 25.44 161 6.1C171.68 3.66 182.56 2 193.36 0H846ZM458.45 175.34C450.17 173.04 444.21 169.8 438.45 170.08C423.787 170.711 409.186 172.355 394.75 175C378.13 178.14 360.87 180.84 345.67 187.69C332.25 193.69 320.53 193.27 308.23 188.42C300.92 185.54 297.37 187.42 293.58 193.68C289.79 199.94 285.58 206.33 279.97 210.6C268.23 219.54 261.85 230.51 260.2 245.19C259.65 250.09 256.07 255.43 252.38 259.03C244.53 266.68 233.73 271.97 227.71 280.68C216.38 297 207.24 315 198 332.71C196.19 336.21 197.19 341.98 198.55 346.16C202.9 359.58 201.78 372.54 197.16 385.53C193.98 394.53 187.03 401.43 194.3 413.53C199.22 421.73 201.91 431.46 209.42 438.53C214.79 443.58 221.22 448.35 224.42 454.64C235.88 476.9 257.3 486.39 277.26 497.74C280.65 499.66 285.61 499.69 289.72 499.31C300.61 498.31 311.44 496.69 322.28 495.18C332.12 493.82 342.01 492.64 351.75 490.73C361.49 488.82 371.16 485.85 380.94 483.73C387.12 482.42 392.12 484.43 394.94 490.63C399.19 499.97 405.94 502.27 416.23 500.54C432.94 497.73 438.43 504.4 435.04 520.95C434.37 524.22 434.04 527.64 432.94 530.74C427.49 545.46 430.94 557.74 442.81 567.68C455.52 578.33 461.65 592.68 465.66 608.16C467.33 614.61 466.99 621.79 469.59 627.76C473.83 637.5 470.21 644.53 465.72 652.96C453.18 676.52 448.72 700.16 464.65 725.14C471.96 736.61 476.43 750.66 479.06 764.14C482.74 783.04 487.06 800.69 498.74 816.91C505.79 826.69 509.89 839.91 511.43 852.05C513.67 869.81 521.56 877.34 539.2 874.22C552.34 871.9 565.62 870.22 578.91 868.85C591.73 867.54 603.32 863.85 611.69 853.6C623.12 839.6 634.9 825.75 645.09 810.85C649.56 804.33 651.88 795.51 652.62 787.5C653.26 780.5 655.94 776.4 661.87 775.21C672.1 773.21 675.87 766.27 676.04 757.29C676.22 749.38 674.4 741.44 674.04 733.49C673.85 728.69 673.04 721.93 675.64 719.37C683.64 711.66 692.43 704.09 702.28 699.21C714.73 693.04 727.84 678.77 724.15 660.43C722.93 654.37 724.32 647.79 724.43 641.43C724.48 638.43 725.56 634.51 724.08 632.74C715.73 622.68 713.53 610.51 711.67 598.35C710.88 593.18 710.82 586.94 713 582.44C725.93 555.82 746.68 535.67 770 518.44C795.68 499.52 807.14 471.66 819.72 444.29C820.79 441.96 820.72 439.03 820.86 436.36C821.34 426.61 818.21 424.9 808.93 427.21C793.39 431.1 777.65 434.31 761.84 436.88C758.53 437.42 751.94 434.59 751.34 432.2C747.5 416.71 733.88 409.87 724.46 399.32C719.28 393.52 715.46 386.51 710.88 380.16C700.88 366.33 693.54 351.41 690.69 334.44C690.43 332.89 689.04 331.55 688.23 330.09C681 316.76 673.52 303.4 666.2 290C663.37 284.81 663.03 280.63 667.11 274.72C674.63 263.83 671.51 251.58 666.81 240.05C666.36 238.96 665.13 237.51 664.14 237.41C651.88 236 639 232 627.5 234.49C616.5 237.063 605.014 236.663 594.22 233.33C584.05 230.26 572.86 228.91 563.96 223.67C548.52 214.58 533.8 219.29 529.86 236.32C529.24 239 525.12 243.4 523.86 243C514.69 240.08 503.2 238.46 497.51 232C489.61 223 480.51 221.41 470.51 219.07C462.75 217.26 455.34 213.95 447.78 211.31L445.78 208.24C464.93 201.32 447.26 186.1 458.45 175.34ZM811.17 675L810.29 674.73C810.07 671.05 810.82 666.95 809.42 663.8C806.97 658.31 803.2 653.41 799.99 648.26C796.09 651.92 791.72 655.21 788.4 659.33C781.89 667.41 778.99 678.09 767.45 682.33C751.21 688.33 747.91 695.33 748.81 712.95C749.09 718.43 748.97 724.59 746.81 729.41C741.51 741.08 742.33 752.06 747.38 763.28C750.74 770.73 754.23 778.74 763.62 779.13C769.015 779.337 774.324 777.73 778.699 774.565C783.073 771.4 786.26 766.86 787.75 761.67C793.32 743.12 798.5 724.46 803.6 705.77C806.35 695.54 808.65 685.23 811.17 675Z" fill="#DBDBDB"/>
<path d="M1583.34 0C1608.71 5.89 1619.92 25 1630.01 46.89C1695.83 189.557 1762.03 332.07 1828.61 474.43C1853.06 526.977 1877.47 579.547 1901.84 632.14C1912.03 654.22 1907.61 677.84 1891.2 692.02C1875.2 705.85 1850.57 708.17 1833.43 695.44C1825.15 689.236 1818.44 681.172 1813.84 671.9C1785.69 612.95 1758.42 553.58 1730.91 494.32C1686.18 397.993 1641.46 301.66 1596.77 205.32C1590.77 192.43 1584.69 179.59 1577.28 163.82C1568.76 182.13 1561.57 197.42 1554.5 212.76C1510.07 309.22 1465.64 405.68 1421.19 502.14C1412.66 520.6 1398.82 532.14 1377.39 531.81C1356.39 531.47 1340.73 521.97 1331.39 503.14C1324.57 489.43 1327.2 475.73 1333.33 462.46C1352.73 420.46 1372.16 378.503 1391.63 336.59C1437.63 237.5 1483.8 138.53 1529.27 39.21C1537.84 20.48 1549.48 6.51 1569.27 0.01L1583.34 0Z" fill="#DBDBDB"/>
<path d="M3765 50.3698C3681.67 256.883 3598.35 463.393 3515.05 669.9C3506.64 690.75 3491.96 703.56 3468.99 704.46C3448.51 705.26 3431.71 692.71 3422.67 670.46C3365.89 530.846 3309.2 391.2 3252.59 251.52C3243.3 228.59 3249.32 205.76 3267.28 192.93C3285.93 179.61 3311.22 179.5 3326.65 194.58C3333.79 201.58 3339.24 211.14 3343.08 220.52C3383.23 318.453 3423.12 416.493 3462.73 514.64C3464.1 518 3465.73 521.27 3468.27 526.92C3471.89 518.38 3474.77 511.82 3477.47 505.19C3541.38 348.19 3605.29 191.19 3669.19 34.1898C3676.84 15.4098 3689.66 2.78979 3711.05 1.68979C3731.64 0.629791 3747.61 9.01979 3758.17 26.6898C3761.35 32.0198 3762.77 38.3998 3765 44.2898V50.3698Z" fill="#DBDBDB"/>
<path d="M3088.06 536C3086.44 585.78 3049.06 642.08 2978.26 676.28C2922.76 703.07 2864.05 708.66 2803.62 701.05C2745.62 693.75 2692.32 674.54 2646.94 636.53C2638.74 629.67 2630.73 622.29 2624.01 614.02C2601.66 586.51 2615.47 547.12 2649.82 538.68C2667.95 534.23 2683.05 537.77 2696.42 551.68C2725.16 581.68 2761.87 596.28 2801.96 603.68C2847.9 612.11 2892.96 609.55 2935.96 590.42C2972.11 574.31 2992.81 546.82 2992.4 505.57C2992.18 483.01 2983.9 463.94 2964.68 452.9C2943.95 440.98 2921.93 430.34 2899.22 423.02C2852.73 408.02 2805.22 396.21 2758.46 382.02C2723.87 371.52 2691.87 355.48 2664.39 331.4C2623.66 295.69 2608.51 249.86 2608.53 196.74C2608.53 108.85 2666.26 47.5699 2736.86 20.8499C2775.53 6.2099 2815.73 -0.440096 2857.16 2.2199C2882.4 3.8399 2901.28 25.9499 2900.58 52.3199C2899.92 76.8399 2880.2 96.1699 2854.87 96.3799C2821.29 96.6699 2789.05 102.54 2758.18 116.32C2709 138.32 2696.86 189.17 2708.72 228.91C2716.37 254.54 2736.97 267.91 2759.55 278.75C2799.72 297.93 2842.92 307.64 2885.66 318.86C2927.83 329.93 2969.66 342.08 3007.46 364.78C3061 397 3089.19 443.64 3088.06 536Z" fill="#DBDBDB"/>
<path d="M2488.84 231.05C2488 281.93 2477.6 329.63 2445.02 370.42C2420.02 401.76 2387.07 422.31 2350.34 436.35C2318.19 448.63 2284.74 457.46 2252.42 469.35C2225.16 479.35 2197.42 489.35 2172.19 503.35C2132.6 525.29 2112.45 561.85 2106.71 606.25C2104.6 622.51 2103.55 638.96 2103.01 655.36C2102.12 682.76 2084.01 702.51 2057.83 703.54C2030.64 704.62 2008.05 686.86 2007.45 659.67C2005.87 587.47 2019.3 519.43 2070.07 463.67C2104.26 426.13 2147.68 403.46 2194.88 387.37C2226.23 376.69 2258.22 367.87 2289.46 356.9C2306.46 350.9 2322.73 342.77 2338.84 334.64C2368.6 319.64 2384.55 294.78 2389.93 262.06C2394.43 234.69 2393.34 207.86 2384.77 181.64C2371.6 141.39 2340.93 119.64 2302.77 106.46C2247.26 87.3202 2195.66 95.9902 2148.29 129.73C2117.12 151.92 2105.64 184.42 2103.57 221.21C2103.16 228.57 2103.26 236.11 2101.57 243.21C2096.34 265.54 2075.57 279.36 2050.51 277.97C2029.03 276.79 2009.97 259.85 2008.43 237.75C2004.28 178.17 2021 125.22 2061.2 80.2602C2100.37 36.4502 2150.65 13.7702 2207.45 4.93023C2287.67 -7.55977 2359.03 13.2902 2420.39 66.4402C2458 99.0002 2478.89 140.9 2485.35 190C2487.15 203.6 2487.71 217.36 2488.84 231.05Z" fill="#DBDBDB"/>
<path d="M2985.62 119C2985.53 91.8202 3006.07 71.0002 3032.99 70.9502C3060.79 70.9502 3081.62 91.4502 3081.64 118.95C3081.64 145.57 3060.44 166.61 3033.56 166.64C3006.52 166.71 2985.7 146 2985.62 119Z" fill="#DBDBDB"/>
<path d="M2487.87 656C2487.87 683.28 2467.67 703.41 2440.17 703.6C2413.3 703.79 2391.95 682.93 2391.75 656.3C2391.55 629.67 2413.39 607.93 2440.53 608.04C2467.67 608.15 2487.89 628.6 2487.87 656Z" fill="#DBDBDB"/>
<path d="M3222.54 2.2C3249.93 2.29 3269.8 22.29 3269.89 49.85C3269.98 76.85 3249.44 97.2 3222.05 97.15C3195.05 97.1 3173.51 76 3173.63 49.84C3173.77 22.45 3194.65 2.11 3222.54 2.2Z" fill="#DBDBDB"/>
<path d="M1296.56 606.87C1302.91 606.772 1309.21 607.937 1315.1 610.297C1320.99 612.656 1326.35 616.163 1330.87 620.613C1335.4 625.064 1338.99 630.369 1341.45 636.22C1343.9 642.072 1345.17 648.353 1345.18 654.699C1345.18 661.045 1343.93 667.329 1341.48 673.185C1339.04 679.041 1335.45 684.353 1330.94 688.812C1326.42 693.271 1321.07 696.788 1315.18 699.158C1309.29 701.529 1303 702.705 1296.65 702.62C1269.97 702.68 1249.04 681.62 1248.94 654.62C1248.84 627.62 1269.51 606.85 1296.56 606.87Z" fill="#DBDBDB"/>
<path d="M1261.13 987.34C1261.61 984.767 1262.26 982.228 1263.08 979.74C1280.02 937.52 1296.92 895.29 1314.22 853.22C1315.42 850.32 1319.79 846.78 1322.47 846.94C1325.87 847.15 1330.82 850.12 1332.06 853.15C1349.99 896.76 1367.41 940.58 1384.9 984.37C1385.23 985.21 1384.9 986.31 1384.9 987.59C1377.73 990.52 1373.06 988.93 1370.55 981C1368.14 973.36 1364.71 966 1362.13 958.44C1360.13 952.51 1356.57 950.15 1350.13 950.27C1332.04 950.61 1313.93 950.66 1295.84 950.27C1288.9 950.11 1285.48 952.9 1283.39 959.16C1280.85 966.77 1277.39 974.09 1274.8 981.67C1272.5 988.44 1268.4 990.44 1261.13 987.34ZM1354.06 938.64C1343.77 912.48 1333.99 887.64 1324.21 862.79L1321.54 863.19C1311.79 887.93 1302.05 912.68 1291.82 938.64H1354.06Z" fill="#DBDBDB"/>
<path d="M2331.31 962.41C2346.42 975.25 2363.5 980.41 2382.75 977.75C2395.97 975.94 2405.75 967.46 2407.51 956.27C2409.43 944.08 2403.87 934.93 2389.84 929.41C2379.92 925.5 2369.41 923.1 2359.33 919.54C2336.84 911.59 2327.26 898.74 2329.48 880.16C2331.88 859.98 2345.48 846.16 2368.38 845.43C2381.23 845 2394.38 849.65 2407.17 853.08C2413.92 854.9 2414.66 860.08 2409.8 865.36C2400.54 862.58 2391.53 858.79 2382.16 857.36C2374.79 856.26 2366.75 857.13 2359.44 858.91C2354.33 860.187 2349.78 863.095 2346.47 867.194C2343.17 871.292 2341.29 876.357 2341.12 881.62C2340.93 892.34 2345.86 900.72 2355.91 904.62C2368.68 909.53 2381.99 913 2394.83 917.75C2416.33 925.69 2425.18 944.05 2416.59 965.31C2413.46 972.582 2408.07 978.656 2401.23 982.64C2376.95 995.89 2353.49 991.31 2331.23 976.43C2324.42 971.88 2328.21 967.65 2331.31 962.41Z" fill="#DBDBDB"/>
<path d="M3522.85 940.51C3524.25 956.14 3530.1 968.16 3543.64 974.51C3560.58 982.44 3576.25 979.05 3589.64 965.79C3596.64 970.17 3595.98 974.2 3590.51 979.19C3570.98 997.01 3534.06 991.64 3520.1 968.27C3508.68 949.14 3507.97 928.68 3516.5 908.4C3524.5 889.4 3543.83 878.49 3562.43 881.14C3581.43 883.84 3597.95 900.75 3601.34 920.93C3604.43 939.32 3604.43 939.32 3585.74 939.32C3569.3 939.32 3552.86 939.25 3536.42 939.38C3532.18 939.4 3528 940.06 3522.85 940.51ZM3589.26 929.26C3589.83 924.794 3589.48 920.259 3588.24 915.933C3586.99 911.606 3584.88 907.579 3582.02 904.099C3579.17 900.619 3575.63 897.759 3571.63 895.694C3567.63 893.629 3563.25 892.402 3558.76 892.09C3541.71 890.97 3522.91 907.09 3523.12 923.17C3523.12 925.22 3526.06 928.96 3527.69 928.99C3548.28 929.39 3568.87 929.26 3589.26 929.26Z" fill="#DBDBDB"/>
<path d="M3339.19 987.48C3324.98 991.96 3329.71 980.87 3327.27 974.14C3317.27 984.55 3305.82 989.87 3291.64 989.06C3272.64 987.97 3260.94 976.94 3260.96 959.06C3260.96 940.48 3271.83 929.72 3291.31 929.24C3300.31 929.02 3309.43 928.77 3318.45 929.31C3326.69 929.79 3328.17 925.59 3327.5 918.81C3325.23 896 3306.35 886 3283 895.62C3278.1 897.62 3273.63 900.62 3268.24 903.62L3263.78 895.53C3280.12 880.25 3303.03 876.72 3321.97 885.92C3334.08 891.81 3338.53 902.71 3338.97 914.72C3339.75 938.79 3339.19 962.9 3339.19 987.48ZM3306.85 938.48C3306.85 938.19 3306.77 937.9 3306.74 937.61C3299.15 938.61 3291.26 938.55 3284.05 940.75C3270.64 944.85 3267.44 964.49 3278.16 973.56C3292.79 985.94 3319.71 978.56 3326.07 960.38C3331.9 943.76 3328.24 938.49 3310.87 938.48H3306.85Z" fill="#DBDBDB"/>
<path d="M1782.91 902.7C1777.51 897.48 1779.17 893.39 1785.91 889.47C1800.29 881.16 1815.4 878.47 1831.34 883.25C1843.73 886.96 1852.13 895.81 1852.63 908.55C1853.63 934.55 1852.93 960.7 1852.93 987.16C1845.22 989.6 1845.22 989.6 1842 974.71C1831.61 985.57 1819.7 990.71 1804.92 988.94C1785.77 986.59 1775.65 975.8 1776.27 957.06C1776.84 940.14 1788.17 929.71 1806.71 929.28C1815.77 929.07 1824.84 928.94 1833.88 929.28C1842.28 929.59 1844.36 925.62 1843.21 918.04C1840.21 898.2 1826.8 888.55 1807.37 893.39C1799.46 895.37 1792 899.19 1782.91 902.7ZM1822.21 938.38L1822.12 937.62C1814.88 938.53 1807.5 938.87 1800.43 940.52C1792.43 942.38 1788.15 948.24 1787.43 956.4C1786.65 964.72 1789.43 971.54 1796.79 975.97C1812.88 985.65 1836.41 976.54 1841.79 958.63C1846.79 941.8 1844.39 938.38 1827.29 938.38H1822.21Z" fill="#DBDBDB"/>
<path d="M3120.37 847.42C3128.37 844.57 3132.61 847.19 3135.6 855.11C3148.85 890.19 3162.6 925.11 3176.25 960.01C3177.42 963.01 3178.88 965.88 3181.38 971.42C3187.5 956 3192.65 943.17 3197.69 930.29C3207.57 905.02 3217.55 879.8 3227.12 854.42C3229.76 847.42 3233.58 844.67 3241.89 847.73C3234.83 865.86 3227.82 883.85 3220.89 901.85C3210.6 928.39 3200.52 955.01 3189.82 981.38C3188.55 984.51 3184.16 987.86 3180.88 988.25C3178.24 988.56 3173.52 985.17 3172.4 982.36C3155 938.82 3138 895.1 3121 851.4C3120.65 850.098 3120.44 848.765 3120.37 847.42Z" fill="#DBDBDB"/>
<path d="M2197.18 935.85C2197.26 974.26 2166.18 998.62 2132.86 986.37C2112.97 979.06 2099.59 955.02 2101.81 930.61C2103.99 906.56 2116.72 888.87 2135.98 883.13C2166.43 874.05 2194.98 895.33 2197.16 928.81C2197.32 931.15 2197.18 933.5 2197.18 935.85ZM2186.72 934.85C2185.13 928.1 2184.37 921.31 2181.92 915.2C2176.32 901.26 2165.7 892.91 2150.51 892.36C2135.7 891.81 2124.82 899.07 2118.44 912.43C2111.07 927.9 2110.95 943.65 2118.85 958.89C2125.37 971.48 2136.05 978.76 2150.52 978.07C2165.57 977.36 2176.57 969.58 2181.98 955.39C2184.45 948.9 2185.18 941.77 2186.72 934.83V934.85Z" fill="#DBDBDB"/>
<path d="M2764.22 934.33C2764.22 907.94 2777.63 888.2 2799.03 882.86C2827.43 875.77 2854.22 893.35 2857.7 922.44C2858.9 932.55 2858.7 943.44 2856.19 953.26C2849.75 978.72 2830.13 991.39 2804.19 988.75C2783.44 986.64 2765.95 966.82 2764.25 943.39C2764 940.39 2764.22 937.35 2764.22 934.33ZM2847.43 935.1C2847.28 932.68 2847.43 928.93 2846.76 925.34C2843.76 909.84 2836.24 897.98 2820.02 893.5C2813.7 891.737 2806.99 891.906 2800.77 893.986C2794.54 896.065 2789.08 899.961 2785.09 905.17C2772.28 921.35 2771.76 948.01 2784.09 964.32C2790.49 972.76 2798.9 977.62 2809.76 977.91C2831.82 978.5 2846.93 961.86 2847.43 935.1Z" fill="#DBDBDB"/>
<path d="M3722.66 881.52C3715.14 900.69 3708.01 918.92 3700.85 937.14C3691.92 959.87 3683.23 982.71 3673.94 1005.3C3666.74 1022.8 3655.94 1030.37 3640.75 1029.06C3636.46 1028.59 3632.31 1027.27 3628.54 1025.16C3621.17 1021.16 3621.26 1020.23 3627.46 1011.82C3629.88 1013.21 3632.29 1014.82 3634.89 1016.05C3642.18 1019.48 3649.17 1019.12 3655.54 1013.8C3665.4 1005.57 3669.43 989.8 3664.73 977.89C3653.54 949.59 3642.35 921.29 3631.17 892.99C3630.08 890.24 3629.26 887.38 3628.17 884.13C3636.06 879.73 3639.38 883.98 3641.81 890.19C3651.2 914.19 3660.6 938.16 3669.99 962.1C3671.18 965.1 3672.64 968.03 3674.99 973.19C3677.47 967.72 3679.18 964.35 3680.55 960.85C3689.55 937.85 3698.7 914.8 3707.45 891.65C3709.94 885 3713.64 881.08 3722.66 881.52Z" fill="#DBDBDB"/>
<path d="M2915 898.32C2920.75 893.74 2925.47 888.73 2931.21 885.63C2955.36 872.63 2981.85 885.36 2987.59 912.34C2988.39 915.927 2988.83 919.585 2988.89 923.26C2989.01 944.65 2988.95 966.04 2988.95 988.01L2977.74 988.69C2977.74 971.69 2977.87 955.38 2977.68 939.05C2977.73 931.36 2977.27 923.676 2976.28 916.05C2974.28 903.05 2966.7 895.05 2953.28 893.05C2940.19 891.15 2928.61 894.64 2921.9 906.05C2917.68 913.581 2915.23 921.973 2914.73 930.59C2913.65 947.3 2914.62 964.13 2914.17 980.9C2914.1 983.52 2911.4 987.72 2909.17 988.3C2903.37 989.81 2903.06 985.08 2903.04 980.79C2902.97 951.59 2902.76 922.39 2902.9 893.19C2902.9 889.19 2900.5 882.33 2908.16 882.95C2910.16 883.12 2911.84 889.08 2913.42 892.49C2914.11 894.385 2914.64 896.335 2915 898.32Z" fill="#DBDBDB"/>
<path d="M1985.08 857.71V846.91C1989.42 846.71 1993.65 846.37 1997.88 846.36C2023.68 846.26 2049.48 846.213 2075.29 846.22C2079.82 846.22 2085.42 844.96 2085.13 852.51C2084.85 859.69 2079.29 857.51 2075.39 857.59C2067.35 857.982 2059.3 857.958 2051.27 857.52C2042.59 856.86 2040.27 860.78 2040.36 868.71C2040.67 903.56 2040.62 938.42 2040.69 973.27C2040.69 975.95 2041.41 978.93 2040.46 981.27C2039.33 984.02 2036.76 986.19 2034.82 988.61C2032.9 986.22 2029.45 983.91 2029.34 981.44C2028.77 969.07 2029.07 956.65 2029.07 944.26C2029.07 919.46 2028.64 894.65 2029.28 869.86C2029.54 859.86 2025.97 856.96 2016.53 857.59C2006.26 858.24 1995.92 857.71 1985.08 857.71Z" fill="#DBDBDB"/>
<path d="M1732.74 907.19C1718.61 892.19 1705.47 888.79 1690.1 895.67C1675.81 902.07 1666.26 920.6 1668.01 938.54C1670.54 964.35 1685.89 980 1708.37 977.2C1717.23 976.09 1725.46 969.92 1736.44 964.94C1740.71 966.69 1741.72 970.42 1735.74 976.69C1716.74 996.62 1681.88 992.93 1665.74 968.98C1644.08 936.77 1659.06 890.54 1694.2 882.08C1709.97 878.28 1723.97 882.59 1735.71 893.98C1741.73 899.77 1741.5 904.13 1732.74 907.19Z" fill="#DBDBDB"/>
<path d="M2727.53 965.14C2732.91 967.37 2731.65 971.71 2726.19 977.32C2709.44 994.53 2676.19 992.96 2660.44 973.98C2643.27 953.25 2642.69 919.27 2659.15 898.25C2676.54 876.04 2713.15 874.86 2728.35 896.25C2729.72 898.19 2728.69 901.82 2728.78 904.66C2726.15 904.48 2722.47 905.36 2721.06 903.95C2708.25 891.15 2693.98 888.53 2678.06 897.22C2664.83 904.46 2656.65 923.82 2659.06 940.88C2662.5 965.23 2677.41 979.88 2698.64 977.2C2707.59 976.09 2715.9 970.19 2727.53 965.14Z" fill="#DBDBDB"/>
<path d="M1464.82 892.33C1458.54 892.33 1452.54 892.66 1446.59 892.25C1438.59 891.69 1435.97 895.35 1436.03 902.95C1436.25 929.09 1436.11 955.24 1436.03 981.38C1436.03 983.38 1435.69 985.32 1435.49 987.38C1427.31 990.5 1424.49 987.96 1424.63 979.52C1424.96 954.73 1424.49 929.92 1424.82 905.12C1424.93 896.93 1424.06 891.19 1413.7 892.2C1411.96 892.37 1409.87 888.98 1407.94 887.2C1409.94 885.59 1412.12 882.42 1413.94 882.61C1424.71 883.75 1425 877.46 1424.83 869.47C1424.33 846.93 1435.53 835.1 1455.47 836.56C1457.76 836.72 1460.56 836.83 1462.16 838.14C1465.03 840.48 1467.16 843.73 1469.61 846.6C1466.17 846.89 1462.42 848.23 1459.37 847.28C1451.49 844.84 1443.97 846.4 1441.12 853.28C1438 860.8 1438.21 869.76 1437.5 878.14C1437.44 878.91 1441.18 880.61 1443.26 880.82C1447.91 881.294 1452.59 881.391 1457.26 881.11C1464.68 880.71 1467.28 883.73 1464.82 892.33Z" fill="#DBDBDB"/>
<path d="M3401.37 987.79C3393.98 990.3 3391.13 987.33 3391.14 980.3C3391.14 935.3 3391.04 890.38 3391.41 845.42C3391.41 842.72 3395.25 840.05 3397.3 837.36C3399.02 839.61 3402.21 841.86 3402.22 844.12C3402.47 890.75 3402.37 937.39 3402.28 984.03C3402.13 985.315 3401.82 986.578 3401.37 987.79Z" fill="#DBDBDB"/>
<path d="M2539.61 912.88C2539.61 934.99 2539.85 957.11 2539.34 979.22C2539.27 982.38 2535.62 985.46 2533.63 988.58C2531.77 985.41 2528.31 982.26 2528.28 979.07C2527.92 935.18 2528 891.29 2528.1 847.39C2528.1 843.39 2526.81 837.15 2533.64 838.39C2536.1 838.83 2539.27 844.3 2539.35 847.55C2539.85 869.31 2539.61 891.1 2539.61 912.88Z" fill="#DBDBDB"/>
<path d="M3466.92 914.76C3466.92 936.52 3467.12 958.29 3466.68 980.04C3466.62 982.92 3463.31 985.73 3461.5 988.58C3459.5 985.72 3455.97 982.91 3455.88 979.99C3455.33 962.99 3455.6 945.86 3455.6 928.78C3455.6 901.68 3455.41 874.58 3455.86 847.49C3455.92 844.27 3459.53 841.12 3461.5 837.93C3463.44 841.12 3467 844.27 3467.07 847.49C3467.56 869.91 3467.33 892.34 3467.33 914.76H3466.92Z" fill="#DBDBDB"/>
<path d="M1525.9 898.88C1535.9 887.77 1545.76 880.88 1559.48 881.36C1562.02 888.36 1561.34 892.55 1552.75 894.21C1537.07 897.21 1527.33 908.75 1526.51 925.31C1525.61 943.37 1525.85 961.47 1525.27 979.55C1525.17 982.55 1524.18 987.04 1522.21 988.02C1517.91 990.15 1514.46 988.08 1514.46 982.54C1514.46 951.38 1514.33 920.21 1514.67 889.05C1514.67 886.86 1518.13 884.7 1519.98 882.52C1521.64 884.83 1523.71 886.96 1524.84 889.52C1525.71 891.49 1525.42 894 1525.9 898.88Z" fill="#DBDBDB"/>
<path d="M2604.13 988.23H2592.13C2592.13 977.23 2592.13 966.56 2592.13 955.94C2592.13 934.46 2591.88 912.94 2592.35 891.51C2592.42 888.26 2595.35 882.73 2597.72 882.32C2604.59 881.1 2604.17 886.89 2604.17 891.72C2604.11 923.54 2604.13 955.36 2604.13 988.23Z" fill="#DBDBDB"/>
<path d="M1601.77 935.85C1601.77 921.11 1601.51 906.37 1601.98 891.65C1602.08 888.54 1604.36 883.35 1606.51 882.85C1612.59 881.44 1613.01 886.37 1613 891.14C1612.91 920.953 1612.91 950.76 1613 980.56C1613 984.77 1613 989.75 1607.2 988.28C1604.82 987.68 1602.04 982.98 1601.94 980.05C1601.4 965.33 1601.69 950.59 1601.69 935.85H1601.77Z" fill="#DBDBDB"/>
<path d="M2474.91 935.62C2474.91 950.38 2474.91 965.14 2474.91 979.9C2474.91 984.33 2474.91 989.9 2468.49 988.36C2466.19 987.82 2463.49 982.85 2463.42 979.87C2463.05 950.33 2463.05 920.79 2463.42 891.25C2463.42 888.25 2466.8 885.39 2468.62 882.46C2470.47 885.41 2473.82 888.3 2473.94 891.32C2474.5 906.07 2474.19 920.85 2474.19 935.62H2474.91Z" fill="#DBDBDB"/>
<path d="M2610.43 846.05C2604.78 850.83 2601.55 855.68 2598.62 855.5C2595.39 855.3 2590.09 850.5 2590.01 847.66C2589.92 844.51 2594.31 839.4 2597.62 838.55C2600.31 837.87 2604.28 842.22 2610.43 846.05Z" fill="#DBDBDB"/>
<path d="M2481.17 847.33C2475.23 851.46 2471.54 855.96 2468.64 855.51C2465.47 855.01 2460.69 849.77 2460.88 846.87C2461.08 843.73 2465.88 838.99 2469.25 838.53C2472 838.14 2475.52 842.91 2481.17 847.33Z" fill="#DBDBDB"/>
<path d="M1619.47 847.14C1613.47 851.42 1609.82 856 1607.02 855.52C1603.7 854.95 1598.77 849.95 1598.87 847.01C1598.97 843.91 1603.87 839.12 1607.23 838.53C1610 838.06 1613.58 842.76 1619.47 847.14Z" fill="#DBDBDB"/>
</g>
<defs>
<filter id="filter0_d_269_14" x="0" y="0" width="3769" height="1037.35" filterUnits="userSpaceOnUse" color-interpolation-filters="sRGB">
<feFlood flood-opacity="0" result="BackgroundImageFix"/>
<feColorMatrix in="SourceAlpha" type="matrix" values="0 0 0 0 0 0 0 0 0 0 0 0 0 0 0 0 0 0 127 0" result="hardAlpha"/>
<feOffset dy="4"/>
<feGaussianBlur stdDeviation="2"/>
<feComposite in2="hardAlpha" operator="out"/>
<feColorMatrix type="matrix" values="0 0 0 0 0 0 0 0 0 0 0 0 0 0 0 0 0 0 0.25 0"/>
<feBlend mode="normal" in2="BackgroundImageFix" result="effect1_dropShadow_269_14"/>
<feBlend mode="normal" in="SourceGraphic" in2="effect1_dropShadow_269_14" result="shape"/>
</filter>
<clipPath id="clip0_269_14">
<rect width="3761" height="1029.35" fill="white" transform="translate(4)"/>
</clipPath>
</defs>
</svg>
