<svg id="Layer_1" data-name="Layer 1" xmlns="http://www.w3.org/2000/svg" viewBox="0 0 3761 1029.35"><title>A2SV Logo</title><path d="M842,0c12.15,2.2,24.41,3.89,36.41,6.7,78.18,18.27,140,86.11,150.6,165.16a241.82,241.82,0,0,1,2.09,32c.12,207.43-.68,414.86.44,622.28.51,94.18-65.08,181.38-164.49,200-12.42,2.33-25.33,2.94-38,3q-313.12.25-626.25.09C101.74,1029.21,19.3,958.69,2.89,858.76,2,853.21,1,847.67,0,842.13V189.38c.73-2.9,1.82-5.77,2.14-8.72C11.46,94.37,72.48,25.44,157,6.1,167.68,3.66,178.56,2,189.36,0ZM454.45,175.34c-8.28-2.3-14.24-5.54-20-5.26A318.34,318.34,0,0,0,390.75,175c-16.62,3.14-33.88,5.84-49.08,12.69-13.42,6-25.14,5.58-37.44.73-7.31-2.88-10.86-1-14.65,5.26s-8,12.65-13.61,16.92c-11.74,8.94-18.12,19.91-19.77,34.59-.55,4.9-4.13,10.24-7.82,13.84-7.85,7.65-18.65,12.94-24.67,21.65C212.38,297,203.24,315,194,332.71c-1.81,3.5-.81,9.27.55,13.45,4.35,13.42,3.23,26.38-1.39,39.37-3.18,9-10.13,15.9-2.86,28,4.92,8.2,7.61,17.93,15.12,25,5.37,5.05,11.8,9.82,15,16.11,11.46,22.26,32.88,31.75,52.84,43.1,3.39,1.92,8.35,1.95,12.46,1.57,10.89-1,21.72-2.62,32.56-4.13,9.84-1.36,19.73-2.54,29.47-4.45s19.41-4.88,29.19-7c6.18-1.31,11.18.7,14,6.9,4.25,9.34,11,11.64,21.29,9.91,16.71-2.81,22.2,3.86,18.81,20.41-.67,3.27-1,6.69-2.1,9.79-5.45,14.72-2,27,9.87,36.94,12.71,10.65,18.84,25,22.85,40.48,1.67,6.45,1.33,13.63,3.93,19.6,4.24,9.74.62,16.77-3.87,25.2-12.54,23.56-17,47.2-1.07,72.18,7.31,11.47,11.78,25.52,14.41,39,3.68,18.9,8,36.55,19.68,52.77,7.05,9.78,11.15,23,12.69,35.14,2.24,17.76,10.13,25.29,27.77,22.17,13.14-2.32,26.42-4,39.71-5.37,12.82-1.31,24.41-5,32.78-15.25,11.43-14,23.21-27.85,33.4-42.75,4.47-6.52,6.79-15.34,7.53-23.35.64-7,3.32-11.1,9.25-12.29,10.23-2,14-8.94,14.17-17.92.18-7.91-1.64-15.85-2-23.8-.19-4.8-1-11.56,1.6-14.12,8-7.71,16.79-15.28,26.64-20.16,12.45-6.17,25.56-20.44,21.87-38.78-1.22-6.06.17-12.64.28-19,.05-3,1.13-6.92-.35-8.69-8.35-10.06-10.55-22.23-12.41-34.39-.79-5.17-.85-11.41,1.33-15.91,12.93-26.62,33.68-46.77,57-64,25.68-18.92,37.14-46.78,49.72-74.15,1.07-2.33,1-5.26,1.14-7.93.48-9.75-2.65-11.46-11.93-9.15-15.54,3.89-31.28,7.1-47.09,9.67-3.31.54-9.9-2.29-10.5-4.68-3.84-15.49-17.46-22.33-26.88-32.88-5.18-5.8-9-12.81-13.58-19.16-10-13.83-17.34-28.75-20.19-45.72-.26-1.55-1.65-2.89-2.46-4.35C677,316.76,669.52,303.4,662.2,290c-2.83-5.19-3.17-9.37.91-15.28,7.52-10.89,4.4-23.14-.3-34.67-.45-1.09-1.68-2.54-2.67-2.64C647.88,236,635,232,623.5,234.49a63.66,63.66,0,0,1-33.28-1.16c-10.17-3.07-21.36-4.42-30.26-9.66-15.44-9.09-30.16-4.38-34.1,12.65-.62,2.68-4.74,7.08-6,6.68-9.17-2.92-20.66-4.54-26.35-11-7.9-9-17-10.59-27-12.93-7.76-1.81-15.17-5.12-22.73-7.76l-2-3.07C460.93,201.32,443.26,186.1,454.45,175.34ZM807.17,675l-.88-.27c-.22-3.68.53-7.78-.87-10.93-2.45-5.49-6.22-10.39-9.43-15.54-3.9,3.66-8.27,6.95-11.59,11.07-6.51,8.08-9.41,18.76-20.95,23-16.24,6-19.54,13-18.64,30.62.28,5.48.16,11.64-2,16.46-5.3,11.67-4.48,22.65.57,33.87,3.36,7.45,6.85,15.46,16.24,15.85a24.14,24.14,0,0,0,24.13-17.46c5.57-18.55,10.75-37.21,15.85-55.9C802.35,695.54,804.65,685.23,807.17,675Z"/><path d="M1579.34,0c25.37,5.89,36.58,25,46.67,46.89q98.73,214,198.6,427.54,36.67,78.82,73.23,157.71c10.19,22.08,5.77,45.7-10.64,59.88-16,13.83-40.63,16.15-57.77,3.42a66.08,66.08,0,0,1-19.59-23.54c-28.15-58.95-55.42-118.32-82.93-177.58q-67.1-144.49-134.14-289c-6-12.89-12.08-25.73-19.49-41.5-8.52,18.31-15.71,33.6-22.78,48.94q-66.64,144.69-133.31,289.38c-8.53,18.46-22.37,30-43.8,29.67-21-.34-36.66-9.84-46-28.67-6.82-13.71-4.19-27.41,1.94-40.68q29.1-63,58.3-125.87c46-99.09,92.17-198.06,137.64-297.38,8.57-18.73,20.21-32.7,40-39.2Z"/><path d="M3761,50.37Q3636,360.14,3511.05,669.9c-8.41,20.85-23.09,33.66-46.06,34.56-20.48.8-37.28-11.75-46.32-34q-85.17-209.42-170.08-418.94c-9.29-22.93-3.27-45.76,14.69-58.59,18.65-13.32,43.94-13.43,59.37,1.65,7.14,7,12.59,16.56,16.43,25.94q60.23,146.9,119.65,294.12c1.37,3.36,3,6.63,5.54,12.28,3.62-8.54,6.5-15.1,9.2-21.73q95.87-235.5,191.72-471c7.65-18.78,20.47-31.4,41.86-32.5,20.59-1.06,36.56,7.33,47.12,25,3.18,5.33,4.6,11.71,6.83,17.6Z"/><path d="M3084.06,536c-1.62,49.78-39,106.08-109.8,140.28-55.5,26.79-114.21,32.38-174.64,24.77-58-7.3-111.3-26.51-156.68-64.52-8.2-6.86-16.21-14.24-22.93-22.51-22.35-27.51-8.54-66.9,25.81-75.34,18.13-4.45,33.23-.91,46.6,13,28.74,30,65.45,44.6,105.54,52,45.94,8.43,91,5.87,134-13.26,36.15-16.11,56.85-43.6,56.44-84.85-.22-22.56-8.5-41.63-27.72-52.67-20.73-11.92-42.75-22.56-65.46-29.88-46.49-15-94-26.81-140.76-41-34.59-10.5-66.59-26.54-94.07-50.62-40.73-35.71-55.88-81.54-55.86-134.66,0-87.89,57.73-149.17,128.33-175.89,38.67-14.64,78.87-21.29,120.3-18.63,25.24,1.62,44.12,23.73,43.42,50.1-.66,24.52-20.38,43.85-45.71,44.06-33.58.29-65.82,6.16-96.69,19.94-49.18,22-61.32,72.85-49.46,112.59,7.65,25.63,28.25,39,50.83,49.84,40.17,19.18,83.37,28.89,126.11,40.11,42.17,11.07,84,23.22,121.8,45.92C3057,397,3085.19,443.64,3084.06,536Z"/><path d="M2484.84,231.05c-.84,50.88-11.24,98.58-43.82,139.37-25,31.34-57.95,51.89-94.68,65.93-32.15,12.28-65.6,21.11-97.92,33-27.26,10-55,20-80.23,34-39.59,21.94-59.74,58.5-65.48,102.9-2.11,16.26-3.16,32.71-3.7,49.11-.89,27.4-19,47.15-45.18,48.18-27.19,1.08-49.78-16.68-50.38-43.87-1.58-72.2,11.85-140.24,62.62-196,34.19-37.54,77.61-60.21,124.81-76.3,31.35-10.68,63.34-19.5,94.58-30.47,17-6,33.27-14.13,49.38-22.26,29.76-15,45.71-39.86,51.09-72.58,4.5-27.37,3.41-54.2-5.16-80.42-13.17-40.25-43.84-62-82-75.18-55.51-19.14-107.11-10.47-154.48,23.27-31.17,22.19-42.65,54.69-44.72,91.48-.41,7.36-.31,14.9-2,22-5.23,22.33-26,36.15-51.06,34.76-21.48-1.18-40.54-18.12-42.08-40.22-4.15-59.58,12.57-112.53,52.77-157.49,39.17-43.81,89.45-66.49,146.25-75.33,80.22-12.49,151.58,8.36,212.94,61.51C2454,99,2474.89,140.9,2481.35,190,2483.15,203.6,2483.71,217.36,2484.84,231.05Z"/><path d="M2981.62,119c-.09-27.18,20.45-48,47.37-48.05,27.8,0,48.63,20.5,48.65,48,0,26.62-21.2,47.66-48.08,47.69C3002.52,166.71,2981.7,146,2981.62,119Z"/><path d="M2483.87,656c0,27.28-20.2,47.41-47.7,47.6-26.87.19-48.22-20.67-48.42-47.3s21.64-48.37,48.78-48.26S2483.89,628.6,2483.87,656Z"/><path d="M3218.54,2.2c27.39.09,47.26,20.09,47.35,47.65.09,27-20.45,47.35-47.84,47.3-27-.05-48.54-21.15-48.42-47.31C3169.77,22.45,3190.65,2.11,3218.54,2.2Z"/><path d="M1292.56,606.87a47.88,47.88,0,1,1,.09,95.75c-26.68.06-47.61-21-47.71-48S1265.51,606.85,1292.56,606.87Z"/><path d="M1257.13,987.34a59.49,59.49,0,0,1,1.95-7.6c16.94-42.22,33.84-84.45,51.14-126.52,1.2-2.9,5.57-6.44,8.25-6.28,3.4.21,8.35,3.18,9.59,6.21,17.93,43.61,35.35,87.43,52.84,131.22.33.84,0,1.94,0,3.22-7.17,2.93-11.84,1.34-14.35-6.59-2.41-7.64-5.84-15-8.42-22.56-2-5.93-5.56-8.29-12-8.17-18.09.34-36.2.39-54.29,0-6.94-.16-10.36,2.63-12.45,8.89-2.54,7.61-6,14.93-8.59,22.51C1268.5,988.44,1264.4,990.44,1257.13,987.34Zm92.93-48.7c-10.29-26.16-20.07-51-29.85-75.85l-2.67.4c-9.75,24.74-19.49,49.49-29.72,75.45Z"/><path d="M2327.31,962.41c15.11,12.84,32.19,18,51.44,15.34,13.22-1.81,23-10.29,24.76-21.48,1.92-12.19-3.64-21.34-17.67-26.86-9.92-3.91-20.43-6.31-30.51-9.87-22.49-7.95-32.07-20.8-29.85-39.38,2.4-20.18,16-34,38.9-34.73,12.85-.43,26,4.22,38.79,7.65,6.75,1.82,7.49,7,2.63,12.28-9.26-2.78-18.27-6.57-27.64-8-7.37-1.1-15.41-.23-22.72,1.55a24.2,24.2,0,0,0-18.32,22.71c-.19,10.72,4.74,19.1,14.79,23,12.77,4.91,26.08,8.38,38.92,13.13,21.5,7.94,30.35,26.3,21.76,47.56a37,37,0,0,1-15.36,17.33c-24.28,13.25-47.74,8.67-70-6.21C2320.42,971.88,2324.21,967.65,2327.31,962.41Z"/><path d="M3518.85,940.51c1.4,15.63,7.25,27.65,20.79,34,16.94,7.93,32.61,4.54,46-8.72,7,4.38,6.34,8.41.87,13.4-19.53,17.82-56.45,12.45-70.41-10.92-11.42-19.13-12.13-39.59-3.6-59.87,8-19,27.33-29.91,45.93-27.26,19,2.7,35.52,19.61,38.91,39.79,3.09,18.39,3.09,18.39-15.6,18.39-16.44,0-32.88-.07-49.32.06C3528.18,939.4,3524,940.06,3518.85,940.51Zm66.41-11.25a33.06,33.06,0,0,0-30.5-37.17c-17.05-1.12-35.85,15-35.64,31.08,0,2.05,2.94,5.79,4.57,5.82C3544.28,929.39,3564.87,929.26,3585.26,929.26Z"/><path d="M3335.19,987.48c-14.21,4.48-9.48-6.61-11.92-13.34-10,10.41-21.45,15.73-35.63,14.92-19-1.09-30.7-12.12-30.68-30,0-18.58,10.87-29.34,30.35-29.82,9-.22,18.12-.47,27.14.07,8.24.48,9.72-3.72,9.05-10.5C3321.23,896,3302.35,886,3279,895.62c-4.9,2-9.37,5-14.76,8l-4.46-8.09c16.34-15.28,39.25-18.81,58.19-9.61,12.11,5.89,16.56,16.79,17,28.8C3335.75,938.79,3335.19,962.9,3335.19,987.48Zm-32.34-49c0-.29-.08-.58-.11-.87-7.59,1-15.48.94-22.69,3.14-13.41,4.1-16.61,23.74-5.89,32.81,14.63,12.38,41.55,5,47.91-13.18,5.83-16.62,2.17-21.89-15.2-21.9Z"/><path d="M1778.91,902.7c-5.4-5.22-3.74-9.31,3-13.23,14.38-8.31,29.49-11,45.43-6.22,12.39,3.71,20.79,12.56,21.29,25.3,1,26,.3,52.15.3,78.61-7.71,2.44-7.71,2.44-10.93-12.45-10.39,10.86-22.3,16-37.08,14.23-19.15-2.35-29.27-13.14-28.65-31.88.57-16.92,11.9-27.35,30.44-27.78,9.06-.21,18.13-.34,27.17,0,8.4.31,10.48-3.66,9.33-11.24-3-19.84-16.41-29.49-35.84-24.65C1795.46,895.37,1788,899.19,1778.91,902.7Zm39.3,35.68-.09-.76c-7.24.91-14.62,1.25-21.69,2.9-8,1.86-12.28,7.72-13,15.88-.78,8.32,2,15.14,9.36,19.57,16.09,9.68,39.62.57,45-17.34,5-16.83,2.6-20.25-14.5-20.25Z"/><path d="M3116.37,847.42c8-2.85,12.24-.23,15.23,7.69,13.25,35.08,27,70,40.65,104.9,1.17,3,2.63,5.87,5.13,11.41,6.12-15.42,11.27-28.25,16.31-41.13,9.88-25.27,19.86-50.49,29.43-75.87,2.64-7,6.46-9.75,14.77-6.69-7.06,18.13-14.07,36.12-21,54.12-10.29,26.54-20.37,53.16-31.07,79.53-1.27,3.13-5.66,6.48-8.94,6.87-2.64.31-7.36-3.08-8.48-5.89C3151,938.82,3134,895.1,3117,851.4A19.68,19.68,0,0,1,3116.37,847.42Z"/><path d="M2193.18,935.85c.08,38.41-31,62.77-64.32,50.52-19.89-7.31-33.27-31.35-31.05-55.76,2.18-24.05,14.91-41.74,34.17-47.48,30.45-9.08,59,12.2,61.18,45.68C2193.32,931.15,2193.18,933.5,2193.18,935.85Zm-10.46-1c-1.59-6.75-2.35-13.54-4.8-19.65-5.6-13.94-16.22-22.29-31.41-22.84-14.81-.55-25.69,6.71-32.07,20.07-7.37,15.47-7.49,31.22.41,46.46,6.52,12.59,17.2,19.87,31.67,19.18,15.05-.71,26.05-8.49,31.46-22.68C2180.45,948.9,2181.18,941.77,2182.72,934.83Z"/><path d="M2760.22,934.33c0-26.39,13.41-46.13,34.81-51.47,28.4-7.09,55.19,10.49,58.67,39.58,1.2,10.11,1,21-1.51,30.82-6.44,25.46-26.06,38.13-52,35.49-20.75-2.11-38.24-21.93-39.94-45.36C2760,940.39,2760.22,937.35,2760.22,934.33Zm83.21.77c-.15-2.42,0-6.17-.67-9.76-3-15.5-10.52-27.36-26.74-31.84a32.88,32.88,0,0,0-34.93,11.67c-12.81,16.18-13.33,42.84-1,59.15,6.4,8.44,14.81,13.3,25.67,13.59C2827.82,978.5,2842.93,961.86,2843.43,935.1Z"/><path d="M3718.66,881.52c-7.52,19.17-14.65,37.4-21.81,55.62-8.93,22.73-17.62,45.57-26.91,68.16-7.2,17.5-18,25.07-33.19,23.76a32.08,32.08,0,0,1-12.21-3.9c-7.37-4-7.28-4.93-1.08-13.34,2.42,1.39,4.83,3,7.43,4.23,7.29,3.43,14.28,3.07,20.65-2.25,9.86-8.23,13.89-24,9.19-35.91q-16.79-42.45-33.56-84.9c-1.09-2.75-1.91-5.61-3-8.86,7.89-4.4,11.21-.15,13.64,6.06q14.09,36,28.18,71.91c1.19,3,2.65,5.93,5,11.09,2.48-5.47,4.19-8.84,5.56-12.34,9-23,18.15-46.05,26.9-69.2C3705.94,885,3709.64,881.08,3718.66,881.52Z"/><path d="M2911,898.32c5.75-4.58,10.47-9.59,16.21-12.69,24.15-13,50.64-.27,56.38,26.71a54.3,54.3,0,0,1,1.3,10.92c.12,21.39.06,42.78.06,64.75l-11.21.68c0-17,.13-33.31-.06-49.64a169.75,169.75,0,0,0-1.4-23c-2-13-9.58-21-23-23-13.09-1.9-24.67,1.59-31.38,13a57,57,0,0,0-7.17,24.54c-1.08,16.71-.11,33.54-.56,50.31-.07,2.62-2.77,6.82-5,7.4-5.8,1.51-6.11-3.22-6.13-7.51-.07-29.2-.28-58.4-.14-87.6,0-4-2.4-10.86,5.26-10.24,2,.17,3.68,6.13,5.26,9.54A35.74,35.74,0,0,1,2911,898.32Z"/><path d="M1981.08,857.71v-10.8c4.34-.2,8.57-.54,12.8-.55q38.7-.15,77.41-.14c4.53,0,10.13-1.26,9.84,6.29-.28,7.18-5.84,5-9.74,5.08a233.77,233.77,0,0,1-24.12-.07c-8.68-.66-11,3.26-10.91,11.19.31,34.85.26,69.71.33,104.56,0,2.68.72,5.66-.23,8-1.13,2.75-3.7,4.92-5.64,7.34-1.92-2.39-5.37-4.7-5.48-7.17-.57-12.37-.27-24.79-.27-37.18,0-24.8-.43-49.61.21-74.4.26-10-3.31-12.9-12.75-12.27C2002.26,858.24,1991.92,857.71,1981.08,857.71Z"/><path d="M1728.74,907.19c-14.13-15-27.27-18.4-42.64-11.52-14.29,6.4-23.84,24.93-22.09,42.87,2.53,25.81,17.88,41.46,40.36,38.66,8.86-1.11,17.09-7.28,28.07-12.26,4.27,1.75,5.28,5.48-.7,11.75-19,19.93-53.86,16.24-70-7.71-21.66-32.21-6.68-78.44,28.46-86.9,15.77-3.8,29.77.51,41.51,11.9C1737.73,899.77,1737.5,904.13,1728.74,907.19Z"/><path d="M2723.53,965.14c5.38,2.23,4.12,6.57-1.34,12.18-16.75,17.21-50,15.64-65.75-3.34-17.17-20.73-17.75-54.71-1.29-75.73,17.39-22.21,54-23.39,69.2-2,1.37,1.94.34,5.57.43,8.41-2.63-.18-6.31.7-7.72-.71-12.81-12.8-27.08-15.42-43-6.73-13.23,7.24-21.41,26.6-19,43.66,3.44,24.35,18.35,39,39.58,36.32C2703.59,976.09,2711.9,970.19,2723.53,965.14Z"/><path d="M1460.82,892.33c-6.28,0-12.28.33-18.23-.08-8-.56-10.62,3.1-10.56,10.7.22,26.14.08,52.29,0,78.43,0,2-.34,3.94-.54,6-8.18,3.12-11,.58-10.86-7.86.33-24.79-.14-49.6.19-74.4.11-8.19-.76-13.93-11.12-12.92-1.74.17-3.83-3.22-5.76-5,2-1.61,4.18-4.78,6-4.59,10.77,1.14,11.06-5.15,10.89-13.14-.5-22.54,10.7-34.37,30.64-32.91,2.29.16,5.09.27,6.69,1.58,2.87,2.34,5,5.59,7.45,8.46-3.44.29-7.19,1.63-10.24.68-7.88-2.44-15.4-.88-18.25,6-3.12,7.52-2.91,16.48-3.62,24.86-.06.77,3.68,2.47,5.76,2.68a86.73,86.73,0,0,0,14,.29C1460.68,880.71,1463.28,883.73,1460.82,892.33Z"/><path d="M3397.37,987.79c-7.39,2.51-10.24-.46-10.23-7.49,0-45-.1-89.92.27-134.88,0-2.7,3.84-5.37,5.89-8.06,1.72,2.25,4.91,4.5,4.92,6.76.25,46.63.15,93.27.06,139.91A16,16,0,0,1,3397.37,987.79Z"/><path d="M2535.61,912.88c0,22.11.24,44.23-.27,66.34-.07,3.16-3.72,6.24-5.71,9.36-1.86-3.17-5.32-6.32-5.35-9.51-.36-43.89-.28-87.78-.18-131.68,0-4-1.29-10.24,5.54-9,2.46.44,5.63,5.91,5.71,9.16C2535.85,869.31,2535.61,891.1,2535.61,912.88Z"/><path d="M3462.92,914.76c0,21.76.2,43.53-.24,65.28-.06,2.88-3.37,5.69-5.18,8.54-2-2.86-5.53-5.67-5.62-8.59-.55-17-.28-34.13-.28-51.21,0-27.1-.19-54.2.26-81.29.06-3.22,3.67-6.37,5.64-9.56,1.94,3.19,5.5,6.34,5.57,9.56.49,22.42.26,44.85.26,67.27Z"/><path d="M1521.9,898.88c10-11.11,19.86-18,33.58-17.52,2.54,7,1.86,11.19-6.73,12.85-15.68,3-25.42,14.54-26.24,31.1-.9,18.06-.66,36.16-1.24,54.24-.1,3-1.09,7.49-3.06,8.47-4.3,2.13-7.75.06-7.75-5.48,0-31.16-.13-62.33.21-93.49,0-2.19,3.46-4.35,5.31-6.53,1.66,2.31,3.73,4.44,4.86,7C1521.71,891.49,1521.42,894,1521.9,898.88Z"/><path d="M2600.13,988.23h-12c0-11,0-21.67,0-32.29,0-21.48-.25-43,.22-64.43.07-3.25,3-8.78,5.37-9.19,6.87-1.22,6.45,4.57,6.45,9.4C2600.11,923.54,2600.13,955.36,2600.13,988.23Z"/><path d="M1597.77,935.85c0-14.74-.26-29.48.21-44.2.1-3.11,2.38-8.3,4.53-8.8,6.08-1.41,6.5,3.52,6.49,8.29q-.13,44.72,0,89.42c0,4.21,0,9.19-5.8,7.72-2.38-.6-5.16-5.3-5.26-8.23-.54-14.72-.25-29.46-.25-44.2Z"/><path d="M2470.91,935.62c0,14.76,0,29.52,0,44.28,0,4.43,0,10-6.42,8.46-2.3-.54-5-5.51-5.07-8.49q-.55-44.31,0-88.62c0-3,3.38-5.86,5.2-8.79,1.85,2.95,5.2,5.84,5.32,8.86.56,14.75.25,29.53.25,44.3Z"/><path d="M2606.43,846.05c-5.65,4.78-8.88,9.63-11.81,9.45-3.23-.2-8.53-5-8.61-7.84-.09-3.15,4.3-8.26,7.61-9.11C2596.31,837.87,2600.28,842.22,2606.43,846.05Z"/><path d="M2477.17,847.33c-5.94,4.13-9.63,8.63-12.53,8.18-3.17-.5-7.95-5.74-7.76-8.64.2-3.14,5-7.88,8.37-8.34C2468,838.14,2471.52,842.91,2477.17,847.33Z"/><path d="M1615.47,847.14c-6,4.28-9.65,8.86-12.45,8.38-3.32-.57-8.25-5.57-8.15-8.51.1-3.1,5-7.89,8.36-8.48C1606,838.06,1609.58,842.76,1615.47,847.14Z"/></svg>