<svg width="578" height="542" viewBox="0 0 578 542" fill="none" xmlns="http://www.w3.org/2000/svg">
<g filter="url(#filter0_d_284_2)">
<path d="M475.029 357.517L474.982 357.536L474.891 357.515L474.873 357.4L474.989 357.379L475.029 357.517Z" fill="black"/>
<path d="M542.696 418.105L541.871 418.302L540.944 418.234L540.585 417.862L540.515 417.705L540.825 417.558L540.806 417.078L540.96 416.319L541.158 416.008L541.617 415.73L541.806 415.119L542.202 414.712L542.731 414.66L543.258 415.414L543.616 416.207L543.542 417.005L543.178 417.295L543.057 417.757L542.696 418.105Z" fill="black"/>
<path d="M530.574 424.078L529.649 424.286L529.005 424.211L527.731 423.617L527.391 423.221L526.883 422.11L526.995 421.719L527.395 421.031L528.304 420.759L529.259 420.86L529.688 421.047L530.194 421.852L530.846 422.671L530.737 423.645L530.574 424.078Z" fill="black"/>
<path d="M256.907 327.354L256.816 327.459L256.165 327.751L255.465 328.023L254.546 329.132L254.081 329.611L253.946 329.731L253.525 329.996L253.221 330.224L253.231 330.348L253.434 330.494L253.641 330.734L253.62 332.545L253.531 334.33L253.417 334.48L252.834 334.539L252.058 334.664L251.811 334.744L251.724 334.567L251.464 333.914L251.61 333.294L251.767 332.831L251.591 331.889L251.196 331.051L250.777 329.986L250.649 329.782L251.002 329.439L251.532 328.687L251.754 328.297L252.369 328.211L252.597 327.938L252.76 327.501L252.823 327.247L253.517 327.041L254.349 326.672L254.81 326.268L255.277 326.009L255.573 326L255.768 326.106L256.302 326.806L256.757 327.247L256.907 327.354ZM321.524 368.602L321.656 369.476L321.784 370.691L321.875 371.565L321.968 371.957L322 372.166L321.896 372.392L321.812 372.915L321.645 373.381L321.552 373.705L321.63 374.301L321.567 375.157L321.501 376.061L321.48 376.932L321.702 378.492L321.67 378.972L321.393 379.789L321.184 380.409L321.049 381.128L321.024 381.504L321.531 382.566L321.501 382.777L321.112 382.843L320.791 382.862H319.561H317.798H316.036H314.273H312.652H311.1H309.733V383.91V386.071V388.234V390.4V392.571V394.744V396.919V399.097V401.279V402.855L310.09 404.951L310.745 407.234L311.001 407.446L311.661 407.866L312.576 408.726L313.089 409.377L314.133 410.507L315.522 411.949L316.86 413.243L318.041 414.385L316.188 414.787L313.552 415.355L311.775 415.741L309.617 416.208L308.179 416.502L306.389 416.866L306.104 416.859L305.624 416.607L304.589 416.558L303.371 416.906L302.405 417L301.691 416.84L300.993 416.537L300.313 416.089L299.136 415.924L297.46 416.046L295.845 415.96L294.289 415.664L293.177 415.546L292.507 415.61L291.789 415.514L291.022 415.258L290.381 414.823L289.612 413.907L289.01 413.033L288.853 412.909L288.663 412.775L288.475 412.735L286.767 412.711L285.146 412.69L284.218 412.688L281.948 412.685L279.678 412.683L277.408 412.678L275.138 412.676L272.868 412.671L270.598 412.669L268.328 412.664L266.058 412.662L264.854 412.66L263.734 412.73L262.497 412.806L262.32 412.773L262.026 412.667L261.825 412.474L261.159 411.979L260.58 411.603L259.792 410.969L259.282 410.276L258.853 410.055L258.095 409.93L257.524 409.808L257.059 409.78L256.241 410.106L255.624 410.431L255.184 410.743L254.421 411.1L253.779 411.457L252.659 411.41L252.415 411.462L251.792 411.439L251.204 411.126L250.608 411.154L249.947 411.551L249 411.706L249.22 409.115L249.45 407.971L249.457 406.604L249.321 403.071L249.159 402.585L249.049 402.016L249.634 401.584L249.932 401.253L250.336 400.668L250.623 399.848L250.961 398.044L252.191 393.902L252.775 389.855L253.515 387.942L253.791 385.8L255.85 383.04L256.357 381.346L257.423 380.517L258.929 379.633L260.003 378.062L260.523 376.974L261.115 374.89L261.109 372.717L261.485 369.821L261.402 368.989L260.84 367.838L260.737 367.016L260.215 366.208L259.657 365.597L259.394 364.507L258.426 362.79L258.162 361.646L257.699 360.824L257.625 359.811L257.382 358.74L256.909 357.683L256.467 356.473V356.095L256.755 355.639L257.027 355.491L256.936 355.721L256.755 355.992L256.799 356.201L258.608 354.082L258.722 353.668L258.661 353.206L258.653 352.639L258.724 351.982L257.017 348.08L255.662 344.457L255.432 342.627L253.639 340.224L252.933 338.662L252.532 337.567L252.23 337.154L252.344 336.945L252.804 336.891L253.832 336.637L255.239 336.36L256.539 335.726L256.886 335.444L257.575 335.387L258.276 335.556L258.536 335.434L258.684 335.425H260.331L261.016 335.383L262.286 335.394L263.087 335.446L263.543 335.517L264.776 335.627L266.314 335.601L266.857 335.545L268.874 335.507L270.865 335.469L272.655 335.436L274.633 335.443L276.146 335.448L276.835 335.676L277.461 336.108L277.746 336.5L277.882 336.674L278.068 337.088L278.41 337.417L278.533 337.924L278.433 338.612L278.482 339.442L278.681 340.409L279.097 341.424L279.727 342.491L280.002 343.337L279.919 343.964L280.114 344.626L280.583 345.324L280.925 345.693L281.124 345.972L281.657 347.043L282.644 348.754L283.383 350.036L283.643 350.189L284.022 350.135L284.825 350.008L285.619 349.982L286.188 350.245L286.416 350.201L287.272 349.691L288.122 349.536L289.01 349.325L289.472 349.108H290.011L291.463 349.52L291.738 349.541H292.913L294.088 349.31L294.262 347.591L294.272 347.25L294.556 346.604L294.915 346.04L294.959 345.502L294.938 344.767L295.198 343.877L295.986 343.167L297.261 342.831L297.986 342.766L299.129 342.568L300.862 342.368L301.503 342.394L301.553 342.495L301.186 343.726L301.179 344.128L301.313 344.534L301.606 344.755L303.405 344.779L305.062 344.802L306.962 344.88L308.387 344.936L308.568 344.998L308.712 345.089L308.923 345.7L308.877 346.893L308.56 348.636L308.683 350.267L309.247 351.784L309.304 354.117L309.105 355.51L308.854 357.267L308.756 359.262L309.014 360.096L309.56 360.967L310.392 361.881L311.037 363.063L311.494 364.517L311.658 365.433L311.536 365.811L311.544 366.464L311.686 367.394L311.527 368.012L311.071 368.315L310.919 368.733L311.149 369.537L311.206 370.267L311.386 370.547L311.517 370.749L311.732 370.78L312.195 370.519L312.749 370.033L313.193 369.828L313.818 369.854L314.698 369.993L316.249 370.042L316.727 369.955L318.17 369.3L318.549 369.251L319.119 369.312L319.929 369.507L320.745 369.547L321.142 369.345L321.178 369.079L321.305 368.734L321.524 368.602Z" fill="black"/>
<path d="M360.423 312.569L360.301 312.74L359.741 313.961L359.632 314.146L359.693 314.258L359.933 314.49L359.791 314.876L359.736 314.979L359.629 315.337L359.688 315.667L359.824 315.788L360.188 315.947L360.733 316.062L361.376 316.338L361.81 316.387L361.913 316.586L361.893 316.939L361.998 317.246L362 317.795L361.871 318.28L361.208 318.507L360.866 318.755L360.774 318.881L360.857 319.026L360.901 319.22L360.277 319.704L359.636 320.334L359.483 320.757L359.355 321.26L359.167 321.581L358.679 322.044L358.179 322.975L357.935 323.579L356.712 325.029L355.623 325.754L355.307 326L353.381 325.958L353.235 324.98L352.943 323.644L352.28 322.439L352.21 321.934L352.241 320.961L352.243 319.594L352.199 318.86L352.215 318.324L352.298 317.393L352.287 316.836L351.853 316.195L351.312 315.512L351.015 315.177L351 314.908L351.002 314.658L351.089 314.295L351.301 313.89L351.539 313.846L352.123 314.007L352.732 314.351L353.054 315.126L353.303 315.236L353.752 315.233L354.901 315.133L355.187 315.144L355.708 314.96L356.227 314.634L356.378 314.297L356.498 313.537L356.607 312.173L356.873 312.159L357.597 312.643L357.754 312.676L357.904 312.66L358.157 312.419L358.465 312.222L358.694 312.227L359.536 312L359.987 312.412L360.271 312.54L360.423 312.569Z" fill="black"/>
<path d="M328.944 415.044L328.829 415.383L328.739 415.876L328.848 416.245L329.081 416.74L329.42 417.173L329.678 417.43L329.985 418.068L330.294 418.867L330.699 419.488L331.887 420.914L332.019 421.426L332.184 421.933L332.931 422.907L333.048 423.232L332.998 423.893L333.766 425.884L334.271 427.048L334.699 427.263L336.067 428.504L337.261 429.504L338.658 430.18L339.683 430.624L340.19 430.948L340.445 431.259L340.649 431.858L340.756 432.9L340.791 433.573L341.894 433.547L342.806 433.608L343.125 433.743L343.244 433.935L343.217 434.379L343.23 435.043L343.271 435.578L343.177 436.148L343.113 436.821L343.069 437.658L343.209 437.982L344.092 439.036L344.461 439.719L344.856 440.754L345.086 441.086L345.271 441.219L346.069 441.331L348.121 441.766L349.386 442.163L350.39 442.572L350.81 442.679L351.013 442.789L351.081 442.889L350.956 443.791L351 444.084L351.113 444.345L351.284 444.551L351.491 444.677L352.253 444.775L352.712 445.324L353 445.579L351.624 445.717L350.942 446.175L350.547 446.998L349.925 447.603L349.079 447.988L348.186 448.252L347.242 448.397L346.236 449.105L345.169 450.379L344.624 451.18L344.601 451.512L344.363 451.797L343.906 452.038L343.647 452.33L343.589 452.669L343.344 452.83L342.919 452.816L342.618 453.066L342.445 453.576L342.069 453.887L341.484 453.996L340.981 454.284L340.557 454.751L340.234 454.989L340.004 454.996L339.647 455.377L339.069 456.279L338.973 456.698L338.18 460.105L337.745 460.509L336.906 461.212L336.225 462.056L335.933 462.554L335.614 462.776L334.052 463.192L333.474 463.414L332.77 463.736L332.595 464.026L332.422 465.087L331.937 466.606L331.545 467.73L331.29 468.709L330.848 469.927L330.463 470.336L330.027 470.71L329.455 470.894L328.676 471.011L327.969 470.978L327.422 470.994L326.662 471.424L325.952 471.455L324.825 471.205L323.912 470.964L323.505 470.915L322.699 470.118L322.182 470.132L321.39 470.069L320.946 469.887L320.534 469.48L319.639 468.681L318.764 468.033L317.99 467.65L317.267 467.473L316.58 467.631L316.046 467.802L315.839 467.886L315.424 468.22L315 468.854L314.647 469.844L314.514 470.452L314.121 471.744L313.601 473.296L313.353 473.742L313.065 474.074L312.61 474.369L311.125 475.605L310.382 477L309.914 477.406L309.351 477.596L308.873 477.715L308.61 477.948L308.315 478.654L308.061 478.904L307.779 479L306.929 478.916L306.658 478.843L304.407 478.981L303.72 478.759L303.234 478.668L302.468 478.963L302.146 478.769L301.889 478.182L301.764 477.004L301.804 476.004L302.221 475.249L302.568 474.698L302.908 473.976L302.952 473.653L302.883 473.364L302.816 472.772L302.779 472.165L302.296 470.842L301.704 469.092L300.904 467.145L300.656 466.61L300.154 465.767L298.301 464.163L298.017 463.946V463.768V462.217L298.015 460.165L298.013 458.116L298.01 456.073L298.008 454.033L298.006 452L298.004 449.969V447.943L298.002 445.922L298 444.216H299.336H300.987H302.952H303.82L303.871 443.947V442.697L303.866 439.837L303.862 436.983L303.858 434.139L303.856 431.302L303.852 428.475L303.848 425.652L303.843 422.838L303.841 420.027L303.839 418.644L305.355 418.559L307.094 418.277L309.917 417.819L312.545 417.248L314.261 416.917L316.294 416.522L316.994 416.454L317.184 416.508L317.459 416.643L318.403 418.04L318.992 419.106L319.111 419.564L319.223 419.613L319.501 419.538L319.814 419.368L320.772 418.304L320.973 418.026L321.585 417.512L322.326 416.986L322.998 416.615L323.672 416.306L323.983 416.383L324.351 416.65L324.676 416.816L326.209 415.528L326.894 415.231L328.693 415L328.944 415.044Z" fill="black"/>
<path d="M342.051 264.326L342.266 264.784L342.572 265.253L343.599 266.047L343.924 266.488L344.176 266.978L344.334 267.361L344.651 267.667L345.095 267.863L345.475 268.096L345.707 268.44L346.056 268.797L346.727 269.282L347.055 269.294L347.433 269.362L347.767 269.49L348.124 269.453L348.701 269.135L349.381 268.603L349.9 268.274L351.157 268.39L351.859 268.659L352.416 269.035L352.851 269.011L353.8 268.316L354.303 267.576L354.791 267.417L355.53 267.739L356.14 268.43L356.677 269.434L357.055 269.817L357.573 270.41L358.601 271.687L359.941 272.326L360.46 272.641L360.629 272.957L360.729 273.377L360.762 273.832L360.925 274.021L361.286 273.956L361.595 273.89L361.935 274.021L362.171 274.352L362.29 274.611L362.419 274.889L362.754 275.067L362.82 275.424L362.59 275.858L362.353 276.248L362.066 277.023L361.916 277.817L362.11 278.08L362.315 278.3L362.425 278.522L362.49 278.781L362.465 279.084L362.009 280.186L361.774 281.148L361.766 281.636L362.368 281.995L363.15 281.977L363.397 282.196L363.644 282.546L363.861 282.726L364.191 282.721L364.419 282.843L364.51 283.09L364.776 283.356L365 283.65L364.892 284.026L364.873 284.313L364.316 285.112L363.035 286.669L360.281 289.556L360.279 289.559L359.349 289.907L358.87 290.443L358.53 291.286L357.727 292.001L357.108 292.29L357.042 292.46L356.994 293.235L357.057 294.372L356.768 294.893L356.347 295.906L356.13 296.539L355.961 296.662L355.773 296.98L355.655 298.012L355.574 298.359L355.272 300.495L355.359 301.105L355.124 302.12L355.114 302.718L355.017 303.395L354.85 303.981L354.86 304.919L354.955 306.45L354.939 306.654L354.706 306.796L354.292 307.176L353.901 307.431L353.603 307.496L353.107 308.173L352.685 308.815L352.368 309.441L352.285 309.728L352.351 310.538L352.395 311.498L352.298 311.911L352.15 312.156L351.457 312.677L351.001 313.05L350.785 313.246L350.674 313.547L350.874 314.257L350.889 314.775L351.054 315.081L351.603 315.328L351.601 315.578L351.616 315.847L351.903 316.18L352.427 316.862L352.847 317.502L352.858 318.057L352.777 318.986L352.763 319.521L352.805 320.254L352.803 321.617L352.773 322.588L352.841 323.093L353.483 324.295L353.766 325.628L353.908 326.604L353.914 326.914L353.696 328.037L353.449 329.127L353.434 329.54L353.551 330.091L354.009 331.352L354.343 332.269L354.503 332.822L354.734 333.467L355.04 334.454L355.116 334.923L355.053 335.274L354.427 336.513L354.364 336.903L354.518 337.865L354.723 338.794L355.019 339.321L355.724 340.778L356.25 341.271L357.22 341.999L358.075 342.732L358.405 343.113L358.707 343.537L359.303 344.625L359.666 345.51L359.858 346.311L360.325 347.406L360.76 348.421L361.322 349.663L361.719 350.541L361.899 351.127L360.872 351.302L359.387 351.551L357.75 351.829L356.06 352.114L354.385 352.399L352.797 352.667L351.354 352.91L350.914 353.045L351.13 353.736L351.031 354.462L350.745 355.025L350.293 355.716L350.088 355.992L349.628 356.531L349.243 356.911L348.46 357.551L347.965 357.917L347.961 358.249L348.793 359.799L349.172 360.912L349.326 361.919L349.317 362.498L349.286 363.688L349.248 365.105L349.191 365.663L349.417 366.674L349.376 367.463L348.817 368.345L348.66 369.211L348.377 370.381L347.987 372.006L347.708 372.86L347.862 373.416L348.001 373.789L348.149 374.291L348.449 375.047L348.8 375.493L348.996 375.685L350.15 376.639L350.629 377.099L351.36 378.014L351.901 378.621L352.653 378.764L353.555 378.992L354.053 379.17L354.396 379.084L354.512 378.869L354.495 378.411L354.436 378.075L354.531 377.816L354.837 377.646L355.621 377.617L355.961 377.389L356.231 377.332L356.233 378.336V379.298L356.236 380.468V381.81L356.238 382.912V384.084L356.24 385.438L356.233 385.589L356.113 385.895L355.802 386L355.382 385.736L355.357 385.458L355.253 384.961L355.059 384.707L354.803 384.627L354.372 384.756L353.781 385.122L353.023 385.444L352.714 385.629L352.18 385.605L351.601 385.43L351.176 385.017L351.054 384.398L350.68 383.763L350.173 382.844L349.917 382.468L349.579 382.038L349.237 381.989L348.855 381.87L348.62 381.242L348.401 380.449L348.265 380.143L348.037 379.748L347.71 379.508L346.996 379.19L345.999 378.749L344.744 378.194L344.148 378.165L343.481 378.072L343.062 377.808L342.824 377.598L342.549 376.828L342.173 375.927L341.073 374.855L340.825 373.669L340.604 373.499L340.225 373.595L339.934 373.742L339.818 374.061L339.524 375.131L339.361 375.623L339.252 375.761L339.011 375.919L338.618 376.064L338.058 376.137L337.268 376.108L336.279 375.95L335.747 375.831L334.304 375.653L333.886 375.567L333.297 375.334L332.872 375.1L331.474 374.596L330.838 374.657L330.532 374.3L330.255 374.125L329.875 373.788L329.706 373.328L329.48 372.341L329.534 371.813L329.697 371.225L329.515 371.062H329.262L328.899 371.265L328.254 371.379L327.073 371.639L326.655 371.783L326.193 371.895L325.838 371.995L324.951 372.563L324.642 372.624L324.116 372.42L323.863 372.117L324.116 371.774L324.224 371.347L324.044 370.513L323.772 370.128L322.986 369.852L322.684 369.827L322.557 369.36L322.34 368.935L321.892 368.853L321.676 368.804L321.452 368.935L321.326 369.278L321.29 369.542L320.89 369.743L320.075 369.703L319.266 369.512L318.698 369.449L318.32 369.498L316.875 370.149L316.399 370.235L314.849 370.186L313.97 370.049L313.345 370.025L312.901 370.228L312.348 370.711L311.885 370.971L311.672 370.943L311.541 370.739L311.359 370.464L311.302 369.736L311.072 368.939L311.224 368.522L311.68 368.223L311.839 367.607L311.697 366.682L311.689 366.033L311.811 365.657L311.646 364.747L311.19 363.302L310.546 362.128L309.714 361.22L309.169 360.353L308.911 359.525L309.008 357.543L309.259 355.799L309.458 354.415L309.401 352.097L308.837 350.589L308.714 348.969L309.033 347.236L309.08 346.051L308.869 345.444L308.725 345.353L308.543 345.292L307.117 345.233L305.218 345.156L303.562 345.133L301.765 345.109L301.471 344.89L301.338 344.486L301.344 344.087L301.712 342.863L301.659 342.763L301.021 342.737L299.289 342.936L298.146 343.132L297.421 343.197L296.148 343.531L295.36 344.236L295.102 345.121L295.123 345.852L295.079 346.386L294.72 346.944L294.437 347.586L294.426 347.925L294.253 349.633L293.078 349.862H291.904L291.629 349.841L290.178 349.433L289.639 349.43L289.179 349.645L288.289 349.855L287.44 350.009L286.585 350.516L286.356 350.56L285.788 350.297L284.994 350.322L284.189 350.448L283.813 350.504L283.553 350.35L282.814 349.076L281.83 347.379L281.295 346.314L281.097 346.036L280.754 345.67L280.285 344.977L280.091 344.318L280.173 343.695L279.899 342.855L279.267 341.797L278.851 340.789L278.652 339.825L278.604 339.003L278.703 338.316L278.583 337.812L278.238 337.488L278.053 337.075L277.917 336.904L277.632 336.514L277.005 336.085L276.316 335.858L274.804 335.854L272.829 335.847L271.039 335.879L269.049 335.917L267.034 335.954L266.491 336.01L264.953 336.036L263.722 335.927L263.266 335.856L262.463 335.803L261.195 335.791L260.509 335.833L258.865 335.836L258.715 335.845L258.456 335.966L257.754 335.798L257.066 335.854L256.681 335.667L255.836 335.784L255.426 335.938L254.769 336.482L253.783 336.764L253.417 336.741L253.175 336.65L252.602 336.052L252.158 335.478L252 335.158L252.247 335.079L253.022 334.958L253.605 334.899L253.72 334.748L253.808 332.973L253.829 331.174L253.622 330.935L253.42 330.791L253.411 330.667L253.713 330.441L254.134 330.177L254.269 330.058L254.733 329.582L255.652 328.48L256.352 328.209L257.002 327.92L257.093 327.815L257.18 327.6L257.471 327.616L257.564 327.719L257.708 327.952L257.963 328.279L258.426 328.667L258.891 329.085L259.123 329.138L259.497 328.926L259.932 328.611L260.572 328.382L260.724 328.167L260.807 327.707L260.857 327.217L260.912 326.638L261.043 326.559L261.274 326.502L261.698 326.666L261.892 326.836H262.241L262.463 326.682L262.868 326.398L263.384 326.283L263.935 326.008L264.465 325.658L264.715 325.625L264.979 326.085L265.215 326.405L265.258 326.605L265.021 326.988L264.757 327.493L264.979 328.12L265.032 328.73L265.025 329.099L265.205 329.248L265.327 329.318L265.517 329.232L265.896 329.258L266.35 329.449L266.787 329.428L267.209 329.192L267.997 328.277L269.149 326.681L270.103 325.679L270.858 325.271L271.369 324.794L271.637 324.246L272.076 323.875L272.993 323.578L273.69 323.242L274.387 322.147L275.317 320.177L275.577 318.419L275.735 317.35L275.644 313.664L275.583 312.455L275.725 311.796L276.071 311.343L277.017 310.384L277.653 309.597L278.139 308.678L279.071 306.579L279.481 305.902L279.664 305.598L280.226 305.041L281.014 304.548L282.028 304.125L283.593 302.664L284.838 301.193L284.669 299.426L284.96 297.96L285.638 296.097L285.86 294.125L285.628 292.045L285.725 290.343L286.375 288.366L286.646 287.63L286.737 286.428L286.732 284.516L287.558 281.902L288.34 280.333L289.215 278.582L289.548 277.522L289.992 276.108L289.922 274.971L289.842 273.664L290.062 271.866L289.979 270.809L289.669 269.889L289.827 269.308L290.455 269.072L291.236 268.152L292.639 265.75L294.151 264.578L295.203 264.207L296.3 264.247L297.016 264.457L297.345 264.835L298.176 265.402L299.502 266.152L300.495 267.09L301.044 268.035L301.471 268.549L301.999 268.726L302.863 268.649L303.828 268.871L304.834 269.401L305.453 269.597L305.681 269.459L306.167 269.536L307.278 269.971L308.163 269.733L309.475 269.912L312.521 270.687L312.684 270.557L312.755 270.526L313.015 270.213L313.676 268.661L314.236 267.706L314.498 267.347L315.145 266.842L315.905 266.714L316.634 266.758L317.244 266.98L317.802 267.237L318.419 267.239L319.051 266.992L319.988 266.537L320.977 266.24L321.826 265.913L323.225 265.341L323.772 265.078L324.467 264.975L326.414 265.498L327.676 265.152L328.191 265.253L329.283 264.882L329.482 264.632L330.177 263.369L330.916 263L332.036 263.187L332.665 263.383L334.761 263.922L337.481 264.485L338.282 264.571L338.607 264.634L338.89 264.545L339.784 263.836L340.086 263.735L340.342 263.747L342.051 264.326Z" fill="black"/>
<path d="M315.033 225.505L315.452 226.326L315.653 226.614L317.383 228.553L317.717 229.013L318.574 230.42L319.098 231.369L319.701 232.733L319.758 233.475L319.68 234.108L319.559 235.905L319.403 236.421L318.644 237.388L318.61 237.823L318.768 238.186L318.997 238.334L319.141 238.513L319.054 239.35L319.327 239.678L319.896 239.897L321.336 240.046L322.085 240.166L322.675 240.334L322.956 240.415L323.111 240.71L322.869 241.675L323.037 242.277L323.529 242.786L324.029 243.003L324.507 243.128L326.173 243.442L326.865 243.795L327.778 244.925L328.925 245.953L329.204 246.497L329.153 246.992L328.813 247.592L328.866 247.839L329.392 248.441L329.995 249.055L331.099 249.738L333.011 250.81L333.889 251.526L334.187 252.068L334.678 252.658L335.361 253.198L335.82 253.614L335.503 254.788L335.598 255.174L335.769 255.509L336.169 255.972L336.327 256.564L336.723 257.306L337.195 257.643L337.984 257.769L338.398 258.113L339.265 258.703L340.103 259.212L340.46 259.561L340.682 259.873L340.873 260.24L340.968 260.607L340.987 261.4L341.131 262.384L341.581 263.056L342 263.558L340.289 262.981L340.033 262.97L339.731 263.07L338.836 263.777L338.553 263.865L338.227 263.802L337.425 263.716L334.701 263.156L332.603 262.619L331.973 262.423L330.852 262.238L330.111 262.605L329.416 263.863L329.217 264.111L328.123 264.481L327.607 264.381L326.345 264.725L324.394 264.205L323.699 264.307L323.151 264.569L321.751 265.139L320.9 265.465L319.911 265.76L318.972 266.213L318.339 266.46L317.722 266.457L317.163 266.202L316.552 265.981L315.822 265.937L315.061 266.065L314.414 266.567L314.151 266.925L313.591 267.876L312.929 269.422L312.669 269.733L312.597 269.764L312.434 269.894L309.384 269.122L308.071 268.943L307.184 269.18L306.072 268.748L305.585 268.671L305.357 268.808L304.737 268.613L303.731 268.085L302.764 267.864L301.899 267.941L301.37 267.764L300.943 267.253L300.393 266.311L299.399 265.376L298.071 264.63L297.239 264.065L296.91 263.688L296.193 263.479L295.095 263.44L294.042 263.809L292.527 264.976L291.123 267.369L290.34 268.285L289.712 268.52L289.553 269.099L289.864 270.015L289.947 271.068L289.727 272.858L289.807 274.16L289.473 273.953L289.152 273.344L289.001 273.221L288.073 273.495L287.593 273.742L287.337 273.984L287.14 274.021L286.846 273.688L286.614 273.628L286.25 273.688L285.875 273.684L285.634 273.64L285.474 273.67L285.036 273.472L283.441 272.97L283.168 272.803L282.849 272.821L282.022 273.258L281.584 273.379L280.264 273.651L278.851 273.783L278.31 273.79L277.938 273.986L277.699 274.258L277.536 274.864L277.259 275.911L277.142 276.192L277.164 276.608L277.081 277.308L277.041 277.936L277.094 278.357L276.694 279.205L276.21 280.233L275.808 281.114L275.402 282L275.12 281.393L274.947 280.682L274.879 279.866L274.917 279.649L274.81 279.408L274.801 279.354L274.666 278.738L274.803 278.308L274.691 277.859L274.361 277.417L274.063 277.078L273.889 276.773L273.748 276.643L273.42 276.597L272.978 276.439L272.392 275.774L271.825 275.127L271.098 274.3L270.516 273.583L269.801 272.707L269.141 271.896L268.746 271.114L268.585 270.666L268.777 270.621L269.063 270.612L269.184 270.531L269.19 270.321L268.896 269.705L268.756 268.919L268.513 268.44L267.745 267.703L267.014 267.143L266.781 266.855L266.65 266.443L266.368 263.844L266.244 263.104L266.013 262.781L265.846 262.63L265.783 262.447L265.812 261.984L265.909 261.57L265.905 261.407L266.104 261.045V258.636L265.996 258.513L265.867 258.303L265.662 258.32L265.427 258.299L265.195 257.948L265 257.506L265.057 257.192L265.26 256.932L265.482 256.702L265.764 256.511L266.595 256.125L266.83 255.932L266.978 255.695L267.075 255.374L267.557 254.133L268.276 252.896L268.583 252.64L268.89 251.821L269.31 250.819L269.48 250.352L269.604 249.887L269.837 249.513L270.628 248.894L271.227 247.811L271.876 247.869L272.54 248.041L273.392 248.127L274.061 247.918L274.494 247.494L275.448 247.157L276.563 246.767L276.713 246.185L277.041 245.881L277.419 245.611L277.551 245.576L277.578 245.769L277.809 246.376L278.28 246.974L278.972 247.634L279.169 247.592L279.598 247.092L280.677 246.783L280.949 246.646L281.715 245.918L282.637 245.451L282.84 245.409L283.172 245.286L284.103 244.802L284.765 244.867L285.829 244.791L287.603 244.563L288.885 244.486L289.534 244.396L289.695 244.298L289.947 243.598L290.139 243.4L290.622 243.098L291.565 242.042L292.185 241.15L292.358 240.852L292.373 240.829L292.5 240.773L292.766 240.396L292.502 240.008L291.444 239.215L291.459 239.108L291.4 238.973L291.457 238.864L291.861 238.541L292.405 238.174L292.984 238.037L294.496 238.065L295.786 237.985L296.087 238.004L297.094 237.816L297.781 237.648L298.487 237.267L300.088 237.307L301.421 236.335L301.806 236.163L301.973 236.011L302.024 235.863L302.648 235.477L303.346 234.679L303.898 233.961L304.048 233.454L305.558 231.736L306.085 231.771L306.343 231.559L306.941 230.411L307.127 230.201L307.409 230.129L307.749 229.999L308.045 229.659L308.301 229.152L308.303 228.527L308.187 228.025V227.781L308.331 227.557L308.572 227.332L309.718 226.713L310.01 226.414L310.184 226.144L310.505 226.095L310.856 226.123L311.078 225.956L311.328 225.674L312.123 225.295L312.859 225L313.633 225.123L314.263 225.276L314.779 225.455L315.033 225.505Z" fill="black"/>
<path d="M289.929 274.373L290 275.517L289.551 276.941L289.212 278.008L288.326 279.771L287.534 281.35L286.698 283.982L286.702 285.906L286.61 287.117L286.336 287.857L285.677 289.847L285.578 291.561L285.814 293.655L285.589 295.64L284.902 297.516L284.607 298.991L284.778 300.77L283.517 302.251L281.931 303.722L280.904 304.147L280.106 304.643L279.537 305.205L279.35 305.51L278.935 306.192L277.991 308.305L277.499 309.23L276.855 310.022L275.896 310.988L275.545 311.444L275.402 312.107L275.464 313.324L275.556 317.035L275.395 318.111L275.132 319.881L274.19 321.864L273.484 322.966L272.778 323.305L271.849 323.603L271.404 323.977L271.132 324.529L270.614 325.009L269.85 325.42L268.883 326.428L267.716 328.035L266.918 328.957L266.49 329.194L266.047 329.215L265.587 329.022L265.204 328.996L265.011 329.083L264.887 329.013L264.705 328.862L264.711 328.491L264.658 327.878L264.433 327.245L264.701 326.738L264.94 326.352L264.898 326.15L264.658 325.828L264.39 325.365L264.138 325.398L263.601 325.751L263.042 326.028L262.52 326.143L262.109 326.43L261.884 326.585H261.531L261.334 326.413L260.904 326.249L260.671 326.305L260.538 326.385L260.482 326.968L260.431 327.461L260.347 327.924L260.193 328.141L259.545 328.371L259.104 328.688L258.725 328.902L258.49 328.848L258.019 328.427L257.55 328.037L257.291 327.708L257.146 327.473L257.052 327.37L256.756 327.354L256.668 327.57L256.521 327.469L256.061 327.025L255.517 326.324L255.32 326.216L255.02 326.228L254.545 326.487L254.079 326.888L253.238 327.26L252.536 327.467L252.471 327.72L252.307 328.158L252.076 328.43L251.453 328.515L251.228 328.905L250.691 329.657L250.336 330L250.241 329.854L250.025 329.671L249.584 329.088L249.148 328.362L249.032 328.033L248.908 327.845L248.889 327.117L248.232 326.252L246.584 324.715L246.408 324.257L245 322.851L245.36 321.838L245.627 321.368L245.95 321.044L247.247 320.25L247.444 320.28L248.339 321.312L248.623 321.394L248.942 321.366L249.319 321.408L249.505 321.206L249.533 320.94L249.261 320.642L249.22 320.322L249.413 319.977L249.52 319.591L249.8 319.14L249.83 318.926L249.535 318.694L248.929 318.339L248.516 317.996L248.358 317.669L248.471 317.251L248.803 316.91L248.784 316.724L248.491 316.419L248.277 316.092L248.058 315.888L247.448 315.766L247.566 315.326L247.789 314.678L247.844 314.182L247.675 312.88L247.688 312.645L247.855 312.525L248.217 312.669L248.583 312.866L249.58 312.584L249.927 312.539L250.216 312.788L250.612 312.983L252.906 312.44L252.951 311.888L253.081 311.388L253.099 311.014L253.004 310.772L252.891 310.591L252.822 310.215L252.82 309.813L253.041 309.623L253.773 309.143L254 309.16L254.511 309.423L254.99 309.832L255.419 310.692L255.712 311.435L256.185 312.332L257.184 312.699L258.378 312.932L259.025 312.87L259.947 312.104L260.469 311.507L260.638 311.185L260.942 311.352L261.287 312.137L261.507 312.443L261.563 312.734L261.409 313.096L261.559 313.329L262.201 313.495L262.764 313.338L263.016 313.019L263.438 312.6L263.442 312.248L263.215 312.02V311.705L263.451 311.458L263.678 310.781L263.748 310.288L263.971 309.973L264.392 309.754L264.544 309.557L264.78 308.387L264.658 307.964V307.613L264.925 307.165L264.975 306.431L264.861 305.231L264.786 304.406L264.705 303.541L264.91 302.406L265.124 301.224L265.086 300.93L264.788 300.57L264.422 300.244L263.481 299.974L263.13 299.543L262.856 299.088L262.657 298.942L261.625 298.763L261.398 298.505L261.49 297.767L261.582 296.679L261.546 295.924L261.728 295.313L261.935 294.855L262.391 294.371L262.631 293.8L262.764 293.659L263.626 293.563L263.939 293.325L264.185 293.083L264.29 292.759L264.585 292.221L264.846 291.857L264.876 291.61L264.82 291.267L264.559 290.592L264.247 290.031L264.059 289.828L263.678 288.508L263.324 288.198L262.635 288.028L261.345 287.878L260.564 288.115L259.376 288.559L258.468 288.867L257.878 289.041L257.531 288.994L257.373 288.792L257.604 288.62L257.717 288.219L257.569 287.643L257.34 287.116L257.21 286.374L257.266 285.455L257.488 284.59L257.965 283.467L257.995 283.009L259.436 283.023L260.874 283.037L262.445 283.025L263.962 283.016L265.146 283.053L265.715 282.762L266.257 283.204L266.522 283.3L266.612 283.265L266.819 283.575L267.494 283.542L267.601 283.612L267.658 283.988L268.283 283.979L268.591 284.061L268.842 284.052L269.206 283.836L269.467 283.906L269.942 284.188L270.28 284.43L270.753 284.35L271.849 284.393L272.699 284.625L273.54 285.269L274.103 285.641L274.608 286.191L274.794 286.092L274.969 285.941L275.068 285.875L275.061 285.405L274.779 284.604L274.67 283.925L274.732 283.368L274.946 282.966L275.312 282.724L275.348 282.348L275.352 282.296L275.763 281.401L276.17 280.51L276.66 279.472L277.065 278.614L277.011 278.188L277.052 277.554L277.135 276.847L277.114 276.426L277.232 276.142L277.512 275.084L277.677 274.471L277.919 274.196L278.295 273.998L278.843 273.991L280.273 273.857L281.608 273.583L282.051 273.461L282.888 273.019L283.211 273L283.487 273.169L285.101 273.677L285.544 273.877L285.707 273.846L285.951 273.891L286.33 273.895L286.698 273.834L286.933 273.895L287.231 274.232L287.43 274.194L287.689 273.949L288.174 273.7L289.114 273.423L289.266 273.547L289.591 274.163L289.929 274.373Z" fill="black"/>
<path d="M270.863 247.784L270.27 248.873L269.486 249.494L269.255 249.87L269.132 250.337L268.964 250.807L268.547 251.813L268.243 252.635L267.939 252.892L267.226 254.135L266.749 255.382L266.652 255.705L266.506 255.943L266.273 256.137L265.449 256.524L265.17 256.716L264.95 256.947L264.749 257.208L264.693 257.524L264.885 257.968L265.116 258.32L265.349 258.341L265.552 258.325L265.68 258.535L265.787 258.659V261.079L265.59 261.443L265.594 261.606L265.497 262.022L265.468 262.487L265.531 262.671L265.697 262.823L265.925 263.148L266.049 263.891L266.327 266.502L266.457 266.915L266.688 267.205L267.413 267.768L268.174 268.508L268.415 268.989L268.553 269.779L268.844 270.398L268.838 270.608L268.719 270.69L268.436 270.699L268.245 270.743L268.404 271.194L268.796 271.979L269.45 272.794L270.159 273.675L270.735 274.394L271.456 275.226L272.018 275.875L272.598 276.543L273.036 276.702L273.361 276.748L273.501 276.879L273.673 277.185L273.969 277.526L274.296 277.97L274.407 278.421L274.271 278.853L274.405 279.472L274.413 279.525L274.52 279.768L274.482 279.985L274.549 280.805L274.721 281.52L275 282.13L274.996 282.181L274.96 282.555L274.602 282.795L274.392 283.195L274.331 283.748L274.438 284.423L274.715 285.22L274.721 285.687L274.625 285.752L274.453 285.902L274.271 286L273.776 285.453L273.225 285.084L272.401 284.444L271.569 284.213L270.496 284.171L270.033 284.251L269.702 284.01L269.236 283.73L268.981 283.66L268.624 283.875L268.379 283.884L268.077 283.802L267.465 283.811L267.409 283.438L267.304 283.367L266.644 283.4L266.441 283.092L266.353 283.127L266.093 283.031L265.562 282.592L265.005 282.882L263.846 282.844L262.36 282.854L260.822 282.865L259.413 282.851L258.003 282.837L257.862 282.429L257.571 282.218L257.045 282.2L255.496 282.282L254.31 282.216L253.93 282.162L253.509 282.057L252.52 281.961L251.296 282.039L251.017 282.018L250.038 282.032L247.8 281.922L246.561 281.938L246.591 282.188L246.511 282.366L246.446 282.8L245.08 282.798H243.281H241.584H240.435H238.511L237.866 282.501L237.671 282.31L237.631 282.095L237.608 281.95L237.457 281.908L237.581 280.376L237.851 279.1L237.956 277.916L238.327 276.858L238.13 275.81L237.901 275.352L236.7 273.866L237.252 273.306L236.526 273.383L236.371 272.829L236.019 272.168L236.235 272.061L236.443 271.699L237.099 271.808L237.078 271.631L236.512 271.075L236.566 270.795L236.799 270.482L236.686 270.349L236.279 270.676L235.986 270.664L235.759 270.454L235.592 270.419L235.692 270.844L235.464 271.224L235.248 271.358L234.879 271.334L234.577 271.238L234.496 271.026L234.213 270.865L233.416 270.582L232.748 270.25L232.614 269.344L232.347 268.954L232.238 268.513L232.175 268.008L232.268 267.233L232.096 267.109L231.903 267.067L231.614 267.104L231.348 267.062L231.029 266.633L230.75 266.467L230.922 267.256L230.725 267.478L230.245 267.415L230.04 267.116L230 266.892L230.22 265.939L230.134 265.918L230.306 265.411L230.633 264.794L231.075 264.012L231.576 263.026L231.92 261.286L232.152 260.2L232.364 259.21L232.731 258.315L233.102 257.717L234.152 256.559L234.944 255.683L235.349 255.33L235.629 255.034L236.124 254.695L236.629 254.291L237.017 253.518L237.333 252.796L237.574 252.64L237.891 252.514L238.859 251.738L239.473 251.245L239.616 251.491L239.721 251.794L239.838 251.934L240.354 252.03L241.06 252.026L241.466 251.937L241.682 251.68L241.902 250.977L242.03 250.844L242.196 250.809L242.967 251.299L243.608 251.998L244.241 252.689L244.562 252.934L244.702 253.205L244.979 254.464L245.138 254.777L245.413 254.908L245.907 254.824L246.421 254.602L246.874 254.28L247.32 253.862L247.624 253.485L247.756 253.208L247.823 252.178L247.924 251.951L248.379 251.54L249.141 250.853L249.577 250.458L249.54 250.318L249.267 249.898L249.026 249.435L249.271 248.959L249.525 248.592L250.487 247.352L250.491 246.941L250.541 246.444L251.311 245.033L251.753 243.16L251.765 242.798L252.224 241.894L252.767 240.735L253.821 240.548L254.226 240.259L254.693 239.747L254.995 239.271L255.138 238.818L255.242 237.942L255.429 236.944L255.544 236.069L255.861 235.258L256.389 234.849L257.307 234.508L257.445 234.35L257.577 233.812L257.68 232.696L257.709 232.023L257.745 231.731L257.862 231.227L258.713 230.332L259.09 228.931L259.426 227.462L260.392 225.684L261.524 223.914L262.048 223.438L262.49 223.218L263.001 223.194L263.349 223.064L264.567 222.181L265.076 221.882L265.451 221.576L265.541 221.307L265.579 220.917L265.462 220.002L265.671 219.331L265.795 218.287L265.845 217.474L265.801 217.192L265.611 216.802L265.575 216.718L265.21 216.211L264.6 215.905L263.762 215.821L263.318 215.641L263.244 215.216L263.202 214.971L263.158 214.704L263.098 214.113L262.534 211L263.599 211.009L264.873 211.381L265.194 211.661L265.363 212.726L265.824 213.331L266.635 213.826L267.141 214.851L267.338 216.402L267.784 217.33L267.887 217.477L268.392 218.815L268.518 219.226L268.555 220.032L268.499 220.576L268.756 221.249L268.367 222.398L268.249 223.101L268.216 224.089L268.444 225.831L268.817 227.174L269.222 228.26L269.664 229.103L270.391 230.033L271.169 230.881L271.892 231.416L271.221 231.729L269.922 231.768L269.176 231.589L268.819 231.579L268.461 231.691L267.074 231.852L265.673 231.778L264.376 231.565L263.588 231.6L262.98 232.116L262.486 232.892L262.025 233.506L262.186 234.186L262.534 234.562L263.205 235.388L263.804 236.19L264.112 236.727L265.311 237.904L266.468 238.955L266.694 239.13L267.019 239.319L267.22 239.396L267.851 239.999L268.723 240.987L269.524 242.533L270.092 244.103L270.645 245.628L270.888 245.885L271.274 246.048L271.32 246.375L271.29 246.859L271.171 247.253L270.863 247.784Z" fill="black"/>
<path d="M258.015 282.926L257.986 283.387L257.518 284.517L257.3 285.387L257.245 286.311L257.373 287.058L257.598 287.588L257.742 288.167L257.631 288.571L257.405 288.743L257.56 288.947L257.9 288.994L258.478 288.819L259.368 288.509L260.531 288.063L261.297 287.824L262.561 287.975L263.236 288.145L263.582 288.457L263.956 289.786L264.14 289.989L264.446 290.554L264.702 291.232L264.757 291.578L264.727 291.826L264.472 292.192L264.182 292.733L264.079 293.06L263.838 293.303L263.532 293.542L262.687 293.639L262.557 293.78L262.322 294.355L261.876 294.842L261.672 295.303L261.494 295.917L261.53 296.676L261.439 297.77L261.349 298.512L261.571 298.772L262.582 298.952L262.777 299.099L263.046 299.557L263.39 299.99L264.312 300.261L264.671 300.59L264.962 300.952L265 301.247L264.79 302.436L264.589 303.578L264.669 304.448L264.742 305.277L264.853 306.485L264.805 307.222L264.543 307.674V308.026L264.662 308.451L264.432 309.629L264.283 309.827L263.87 310.047L263.652 310.364L263.582 310.86L263.36 311.541L263.13 311.789V312.106L263.352 312.335L263.348 312.689L262.935 313.11L262.687 313.432L262.136 313.59L261.506 313.422L261.36 313.188L261.511 312.824L261.456 312.531L261.24 312.224L260.903 311.434L260.605 311.266L260.439 311.59L259.927 312.191L259.024 312.961L258.39 313.023L257.22 312.789L256.241 312.42L255.778 311.517L255.49 310.77L255.071 309.905L254.601 309.494L254.1 309.229L253.878 309.213L253.161 309.695L252.945 309.886L252.947 310.29L253.014 310.669L253.125 310.851L253.217 311.094L253.2 311.47L253.073 311.973L253.028 312.529L250.781 313.075L250.393 312.879L250.11 312.628L249.77 312.673L248.793 312.957L248.434 312.758L248.08 312.614L247.916 312.734L247.904 312.971L248.069 314.28L248.015 314.779L247.797 315.431L247.681 315.873L248.279 315.996L248.493 316.202L248.702 316.53L248.99 316.838L249.009 317.024L248.684 317.367L248.572 317.788L248.728 318.116L249.132 318.461L249.726 318.818L250.015 319.052L249.986 319.267L249.711 319.721L249.606 320.109L249.418 320.456L249.457 320.778L249.724 321.078L249.696 321.345L249.514 321.549L249.145 321.506L248.832 321.534L248.554 321.452L247.677 320.414L247.484 320.383L246.213 321.182L245.897 321.509L245.635 321.981L245.282 323L244.706 322.407L244.207 321.322L243.626 320.653L242.403 319.577L242.076 318.783L240.677 317.037L238.669 315.29L237.215 313.775L236.995 313.439L237.241 313.479L238.643 314.236L238.834 314.151L238.996 313.981L238.392 313.583L237.813 313.271L237.27 313.078L236.727 313.094L236.423 312.775L236.226 312.288L236.125 311.872L235.884 311.435L235.114 310.537L234.928 310.189L234.506 309.716L234.762 309.653L235.588 310.106L235.662 309.924L235.59 309.66L234.76 309.229L234.311 309.201L234.206 308.898L234.267 308.549L233.674 307.241L233.057 306.261L232.961 305.797L234.624 307.929L234.846 307.965L235.139 307.946L235.827 307.707L235.695 307.421L235.385 307.116L235.085 307.258L234.693 307.287L234.487 307.159L234.395 306.939L234.787 305.904L234.617 305.958L234.494 306.14L234.278 306.23L233.946 306.282L233.126 305.729L232.405 304.236L232.214 303.928L232.021 303.408L231.83 303.193L231 301.068L231.317 301.226L231.696 301.841L232.432 301.711L232.72 301.356L232.969 301.368L233.227 301.288L233.55 300.952L234.494 299.487L234.743 297.558L234.661 296.412L234.523 295.272L234.835 294.908L234.959 295.149L235.02 295.554L235.167 295.854L235.502 296.121L236.127 296.192L237.092 296.615L237.436 296.882L237.53 296.345L238.641 295.889L238.304 295.726L237.318 295.906L235.963 295.223L235.513 294.79L235.093 293.965L234.659 293.535L234.689 293.15L235.662 292.793L235.919 292.833L236.022 293.258L236.284 293.433L236.383 293.374L236.427 293.012L236.429 292.039L236.133 290.642L236.224 290.372L236.49 290.275L236.727 290.091L236.892 290.058L237.222 290.091L237.387 290.415L237.477 290.592L237.811 290.675L238.084 290.847L238.318 290.8L238.513 290.599L238.799 290.556L239.686 290.561L240.489 290.564L242.087 290.568L243.687 290.575L245.287 290.58L246.49 290.585L246.486 289.788L246.48 288.557L246.473 287.101L246.465 285.704L246.459 284.413L246.452 282.889L246.517 282.449L246.597 282.269L246.568 282.016L247.807 282L250.047 282.111L251.026 282.097L251.305 282.118L252.529 282.04L253.519 282.137L253.941 282.243L254.32 282.298L255.507 282.364L257.057 282.281L257.583 282.3L257.875 282.513L258.015 282.926Z" fill="black"/>
<path d="M230.873 273L231.025 273.025L231.954 273L232.206 273.341L232.177 273.841L231.222 275.302L231.043 275.917L230.674 276.441L230.353 276.482L229.252 276.176L229.066 275.989L229 275.74L229.108 275.157L229.19 274.98L229.718 274.869L229.889 274.775L230.172 274.148L230.265 273.574L230.501 273.141L230.873 273ZM246.962 283.234L246.969 284.723L246.976 285.981L246.982 287.343L246.989 288.762L246.996 289.963L247 290.739L245.729 290.735L244.042 290.73L242.355 290.726L240.671 290.721L239.824 290.719L238.891 290.716L238.588 290.758L238.382 290.954L238.135 291L237.847 290.832L237.496 290.751L237.403 290.578L237.228 290.262L236.881 290.228L236.707 290.262L236.457 290.442L236.176 290.537L236.229 290.392L235.674 290.004L235.274 289.965L234.905 289.846L235.203 288.836L235.577 287.944L236.134 287.269L236.43 287.108L236.525 286.774L236.968 285.672L237.516 284.78L237.346 283.877L237.476 282.358L237.635 282.402L237.66 282.545L237.702 282.757L237.907 282.946L238.588 283.239H240.618H241.829H243.622H245.519L246.962 283.234Z" fill="black"/>
<path d="M350.086 503.773L349.549 503.966L349.474 503.98L349.126 503.937L348.666 503.983L348.305 504.089L348.024 504.13L347.565 504.684L346.729 506.178L346.507 506.492L346.448 507.082L346.254 507.548L346.015 507.911L345.784 508L345.089 507.855L344.197 507.669L343.679 507.217L343.218 506.622L342.977 506.189L342.722 505.953L342.634 505.82L342.274 505.621L342.137 505.518L342.016 505.443L341.871 505.157L341.783 504.908L341.817 504.215L341.561 503.801L341.124 503.098L340.849 502.52L340.471 501.732L340.239 501.06L340 500.364L340.032 500.064L340.26 499.861L340.932 499.51L341.452 499.24L341.826 498.744L342.233 498.004L342.431 497.562L342.63 497.359L342.845 497.047L343.223 496.353L343.643 495.585L344.093 494.76L344.66 494.521L345.435 494.246L346.181 493.525L347.068 492.921L348.499 492.263L349.167 492.097L349.423 492L349.583 492.126L349.754 492.5L349.997 492.817L350.562 493.363L350.801 493.496L351.385 494.308L352.008 494.864L352.727 495.507L353.215 495.826L353.467 495.916L353.672 496.486L353.883 496.909L354 497.306L353.977 497.692L353.75 498.64L353.42 499.609L353.153 500.011L352.829 500.267L352.513 500.651L352.392 501.43L352.249 502.346L351.835 502.723L351.515 502.972L351.069 503.276L350.086 503.773Z" fill="black"/>
<path d="M328 78.8119L327.774 79.027L327.452 79.4851L327.249 79.8919L326.705 80.5557L326.251 81.264L326.295 82.2995L326.398 83.3514L326.703 84.3776L326.964 85.5183L326.889 86.2616L326.665 87.1756L326.398 87.9377L325.511 89.5015L325.375 89.8755L325.425 90.4014L325.964 92.2528L326.006 92.8348L326.328 94.6254L326.623 96.0793L326.95 97.2224L327 97.5356V99.2116V100.885V102.554V104.221V105.883V107.543V109.198V110.85V112.498V114.144V115.785V117.426V119.06V120.691V122.321V123.947V125.57V127.19V128.807V130.42V132.033V133.641V135.245V136.848V138.447V140.044V141.638V143.23V144.817V146.404V147.989V149.569V153.069L326.998 156.556V160.032L326.996 163.496L326.977 163.506L326.96 163.52L326.941 163.531L326.923 163.545L325.475 163.543H324.027H322.578L321.13 163.54V164.408V165.273V166.135V167L318.316 165.361L315.504 163.723L312.691 162.08L309.879 160.434L307.065 158.786L304.254 157.136L301.44 155.483L298.628 153.828L295.815 152.168L293.003 150.506L290.189 148.844L287.377 147.178L284.564 145.506L281.752 143.833L278.938 142.159L276.125 140.481L274.183 139.319L272.087 140.453L270.445 141.341L268.282 142.507L265.796 144.02L263.888 145.179L263.799 145.17L263.713 145.142L261.727 143.173L260.177 141.633L259.489 141.201L256.566 140.413L253.661 139.63L250.602 138.802L250.046 137.542L249.424 136.133L248.585 134.368L248.073 133.286L247.901 133.117L245.556 132.262L243.077 131.42L241.627 131.93L241.372 131.892L240.962 131.572L240.55 131.135L240.333 130.525L239.751 129.707L239.213 127.83L239.161 126.334L239.054 125.803L237.764 123.69L236.59 121.766L235.81 120.481L235.659 119.898L235.749 119.183L236.063 118.54L237.199 117.781L238.224 116.951L238.364 116.376L238.429 114.789L238.094 114.293L237.847 113.349L237.596 112.07L237.567 111.25L238.023 109.616L238.556 107.902L238.218 105.999L237.966 102.168L238.123 99.1388L237.996 98.0355L237.906 97.5703L237.556 96.1351L237.128 94.6507L236.935 94.1295L236.385 92.9303L235.473 91.4413L235 90.525L235.649 90.0411L236.224 89.6624L236.925 89.2627L237.918 88.8092L238.433 88.4679L238.653 88.1804L239.399 87.007L239.789 86.3571L240.32 85.4665L240.552 84.8447L240.558 84.2697L240.477 83.5731L240.063 81.9041L239.724 80.2772L239.987 79.6484L240.199 79.3492L240.661 78.5825L240.845 78.4283L241.843 78.1899L242.24 77.6803L242.546 77.0398L242.623 76.7032L243.058 76.3502L243.579 75.9973L243.899 75.5391L244.95 74.8285L245.908 74.181L247.023 73.4984L247.885 72.9702L248.067 72.5073L248.054 72.1076L247.585 71.196V70.116L247.617 69.2184L247.663 68.6878L247.87 67.2081L247.883 67L248.778 67.4932L249.696 67.6895L252.435 69.5198L253.299 69.7489L255.215 69.9663L257.472 69.2183L258.326 69.0827L259.811 69.7863L260.466 69.9851L261.566 70.0388L263.447 70.6747L263.926 70.8967L265.022 71.9112L265.547 72.2151L269.441 73.1431L269.972 73.7579L270.514 74.929L270.537 76.3829L270.836 77.4348L271.319 78.7976L271.903 79.7607L272.549 80.5625L273.292 81.0627L274.999 81.8013L276.924 82.0842L278.865 82.18L282.198 83.1969L285.024 84.368L285.721 84.9453L287.137 85.511L289.951 88.2553L291.518 89.202L292.616 89.3843L293.601 89.2183L295.352 88.2692L296.076 87.7035L297.838 85.3333L298.417 84.0944L298.647 83.2178L298.591 82.3272L298.371 81.5254L297.877 80.6839L297.532 79.5712L297.329 77.5633L297.605 76.1678L297.942 75.3309L298.473 74.4754L299.936 72.8368L301.406 71.6797L303.998 70.165L305.503 70.1487L306.126 69.9803L307.364 68.9074L307.867 68.8676L308.561 69.1295L310.603 69.0546L311.502 69.3538L312.576 70.0223L313.931 70.4361L314.887 70.8498L315.906 71.3804L316.136 72.7011L316.023 73.0939L315.998 73.6058L317.055 74.5127L320.057 74.9382L320.649 75.1813L321.475 75.8755L322.006 76.0883L324.063 76.1864L325.262 76.0392L326.404 76.2824L326.826 76.5161L327.264 77.0584L327.793 78.3721L328 78.8119Z" fill="black"/>
<path d="M317.901 414.592L319.166 414.312L320.375 414.043L321.78 413.774L322.904 413.559L323.186 413.503L325.892 413.753L327.071 413.928L327.482 414.101L328.015 414.55L329 415.641L328.747 415.599L326.932 415.831L326.242 416.128L324.696 417.415L324.367 417.249L323.997 416.983L323.683 416.906L323.003 417.214L322.325 417.586L321.577 418.112L320.96 418.626L320.758 418.904L319.792 419.968L319.476 420.138L319.196 420.213L319.082 420.164L318.962 419.706L318.368 418.64L317.416 417.243L317.139 417.107L316.947 417.053L316.242 417.121L314.191 417.516L312.46 417.848L309.809 418.418L306.962 418.876L305.208 419.159L303.679 419.243L303.681 420.627L303.683 423.439L303.687 426.253L303.692 429.076L303.696 431.904L303.698 434.741L303.702 437.585L303.706 440.439L303.71 443.3V444.55L303.66 444.819H302.784H300.802H299.137H297.789L297.791 446.525L297.793 448.547V450.573L297.796 452.604L297.798 454.637L297.8 456.678L297.802 458.72L297.804 460.77L297.806 462.822V464.374V464.552V467.573V470.787V474.012V477.249V480.5V483.763V487.037V490.328V491.373L297.2 491.359L295.98 491.763L295.203 492.289L294.867 492.936L294.42 493.329L293.86 493.469L293.614 493.799L293.681 494.322L293.464 494.722L292.969 495L292.167 494.918L291.059 494.479L289.651 494.376L287.941 494.607L286.709 494.5L285.961 494.049L285.168 493.794L284.327 493.728L283.839 493.541L282.841 493.207L282.651 492.632L282.533 492.2L282.249 491.744L282.218 491.375L282.441 491.094L282.472 490.646L282.314 490.024L282.039 489.722L281.647 489.739L281.403 489.5L281.306 489.01L281.076 488.638L280.527 488.259L279.8 488.544L279.457 488.977L279.255 489.65L279.072 489.989L278.979 490.552L278.937 490.952L278.752 491.379L278.558 491.552L278.358 491.473L277.985 491.646L277.162 492.275L276.928 492.607L276.265 492.006L274.327 489.746L273.639 489.159L272.624 487.778L270.392 483.51L270.074 482.69L269.649 480.638L269.16 479.121L269.105 478.247L269.339 477.752L269.196 477.081L268.945 476.48L268.185 475.695L267.968 473.082L267.459 471.397L267.57 470.006L267.326 468.742L267.303 467.933L267.412 466.396L267.004 464.631L266.176 462.911L265.429 460.433L265.321 459.349L265.401 456.444L265.256 455.259L265.264 453.871L264.97 452.433L264.848 451.65L265.056 451.031L265.178 451.227L265.393 451.321L265.538 450.498L265.572 449.771L265.199 447.981L264.367 446.154L262.306 443.185L261.803 442.054L261.516 441.119L259.217 437.226L258.236 434.489L257.549 432.128L256.804 431.042L253.352 423.425L252.588 422.214L251.211 420.767L250.889 420.286L250.358 418.909L249.322 417.068L249.069 415.35L249 413.405L249.126 411.919L250.07 411.765L250.729 411.367L251.32 411.342L251.906 411.652L252.527 411.676L252.769 411.624L253.885 411.669L254.525 411.313L255.286 410.958L255.724 410.645L256.338 410.325L257.153 410L257.617 410.026L258.185 410.147L258.941 410.273L259.369 410.491L259.874 411.182L260.659 411.811L261.236 412.187L261.9 412.68L262.097 412.872L262.39 412.977L262.569 413.01L263.801 412.933L264.915 412.865L266.117 412.867L268.377 412.87L270.638 412.874L272.9 412.877L275.161 412.881L277.423 412.886L279.682 412.89L281.944 412.893L284.205 412.897L285.13 412.9L286.745 412.921L288.446 412.944L288.634 412.984L288.823 413.115L288.979 413.241L289.579 414.111L290.346 415.022L290.986 415.452L291.748 415.709L292.464 415.805L293.133 415.742L294.241 415.858L295.791 416.153L297.402 416.239L299.072 416.12L300.244 416.281L300.923 416.728L301.617 417.032L302.329 417.19L303.289 417.097L304.502 416.751L305.534 416.8L306.012 417.05L306.296 417.057L308.078 416.695L309.51 416.405L311.66 415.94L313.43 415.557L316.054 414.991L317.901 414.592Z" fill="black"/>
<path d="M359.821 304.03L359.626 304.136L359.586 304.468L359.81 304.998L360.547 306.093L361.015 306.292L361.32 306.719L361.621 307.436L361.71 308.335L361.585 309.415L361.659 310.216L361.93 310.743L362 311.426L361.873 312.264L361.716 312.767L361.532 312.934L361.322 312.996L361.038 312.939L360.693 313.011L360.318 313.168L360.081 313.191L359.933 313.161L359.658 313.025L359.219 312.592L358.402 312.831L358.179 312.826L357.881 313.033L357.635 313.287L357.489 313.304L357.336 313.269L356.633 312.759L356.375 312.774L356.269 314.211L356.153 315.012L356.006 315.367L355.502 315.709L354.996 315.904L354.719 315.892L353.603 315.998L353.166 316L352.925 315.884L352.611 315.068L352.02 314.706L351.453 314.536L351.222 314.583L351.017 315.009L350.932 315.391L350.381 315.13L350.216 314.807L350.201 314.26L350 313.511L350.112 313.193L350.328 312.986L350.786 312.592L351.48 312.042L351.629 311.783L351.726 311.347L351.682 310.334L351.616 309.479L351.699 309.176L352.016 308.515L352.44 307.837L352.938 307.123L353.236 307.054L353.628 306.785L354.043 306.383L354.276 306.233L354.471 306.228L355.752 305.873L355.879 305.984L356.087 306.672L356.197 306.773L356.375 306.797L356.735 306.64L357.394 306.1L357.682 305.775L358.02 305.314L358.455 304.796L358.696 304.343L358.931 304.079L359.24 304L359.583 304.022L359.821 304.03Z" fill="black"/>
<path d="M223.824 286.876L223.598 287.051L223.329 286.903L223.258 286.638L223.605 286.126L223.77 286L223.907 286.107L223.989 286.248L224 286.454L223.824 286.876ZM219.17 296.513L218.541 297L218.315 296.874L218.176 296.534L218 295.801L218.056 295.45L218.341 295.049L218.959 294.65L219.331 294.621L219.713 295.146L219.715 295.693L219.17 296.513Z" fill="black"/>
<path d="M369.006 472.635L369.127 472.745L369.684 473.096L369.733 473.798L369.68 474.598L369.568 475.104L369.611 475.607L369.789 476.392L369.959 476.93L370 479.379L369.811 479.267L369.469 479.161L369.286 479.21L369.12 480.312L368.991 481.949L369.069 482.968L367.766 483L366.118 482.89L364.938 482.448L363.665 481.478L362.91 479.966L362.579 479.019L362.116 478.965L362.041 478.803L362 477.647L362.009 476.437L362.097 476.115L362.953 474.625L363.484 473.702L363.815 472.811L364.535 471.763L365.305 471.096L365.591 471L365.789 471.027L367.148 471.945L368.542 472.816L368.847 472.718L369.006 472.635Z" fill="black"/>
<path d="M321.981 167.569L321.983 170.638L321.985 173.7L321.987 176.752L321.989 179.797L321.991 182.836L321.994 185.864L321.996 188.887L321.998 191.904L322 192.9L321.923 193.296L321.891 193.352L321.774 193.42L320.353 193.14L319.731 193.133L318.857 193.348L317.574 193.462L316.748 193.427L316.172 193.944L315.723 194.568L315.936 196.062L315.887 196.553L315.714 197.066L315.324 197.506L314.934 197.857L314.702 198.165L314.415 198.84L314.199 199.154L314.218 199.578L314.15 200.02L313.916 200.253L313.321 200.421L312.936 200.619L312.627 200.942L312.42 201.175L312.529 201.485L312.68 201.909L312.765 202.572L312.825 202.961L313.119 203.278L313.298 203.503L313.36 203.78L313.189 204.011L312.461 204.49L312.169 204.67L311.834 204.914L311.706 205.005L311.174 205.461L310.905 205.866L310.775 206.202L310.782 206.667L311.052 207.361L311.348 207.95L311.461 208.395L311.53 208.881L311.504 209.342L311.351 209.745L311.084 210.106L310.081 210.788L309.588 211.533L309.192 212.441L309.094 212.935L309.201 213.265L309.412 213.543L309.708 213.684L310.142 213.726L310.863 213.575L311.534 213.475L312.245 213.801L312.616 214.56L312.473 215.114L312.742 216.12L312.981 217.333L312.963 217.74L313.068 217.894L313.513 217.973L313.613 218.257L313.466 220.383L313.673 220.976L313.971 221.4L314.308 221.621L314.649 221.906L314.824 222.101L315.216 222.148L315.657 222.534L315.776 223.049L315.746 223.547L315.491 224.623L315.282 225.347L315.026 225.298L314.506 225.119L313.871 224.965L313.091 224.842L312.35 225.137L311.549 225.517L311.297 225.799L311.074 225.966L310.72 225.938L310.396 225.987L310.221 226.257L309.927 226.558L308.772 227.177L308.529 227.403L308.384 227.626V227.871L308.502 228.374L308.5 229L308.242 229.507L307.943 229.847L307.6 229.978L307.317 230.05L307.129 230.26L306.526 231.41L306.267 231.622L305.736 231.587L304.215 233.307L304.063 233.815L303.507 234.534L302.804 235.333L302.175 235.719L302.124 235.868L301.956 236.02L301.568 236.192L300.226 237.165L298.613 237.125L297.901 237.507L297.209 237.675L296.194 237.863L295.892 237.845L294.592 237.924L293.069 237.896L292.485 238.033L291.937 238.401L291.53 238.725L291.473 238.834L291.532 238.969L291.517 239.076L292.583 239.87L292.849 240.259L292.581 240.636L292.453 240.692L292.438 240.715L292.263 241.013L291.639 241.907L290.689 242.964L290.203 243.267L290.009 243.465L289.755 244.166L289.593 244.264L288.939 244.355L287.648 244.431L285.86 244.659L284.789 244.736L284.122 244.671L283.184 245.155L282.85 245.278L282.645 245.32L281.716 245.788L280.945 246.517L280.67 246.654L279.583 246.964L279.151 247.464L278.952 247.506L278.256 246.845L277.78 246.247L277.548 245.639L277.521 245.446L277.388 245.481L277.007 245.751L276.677 246.056L276.525 246.638L275.403 247.029L274.442 247.367L274.005 247.79L273.331 248L272.473 247.914L271.804 247.742L271.15 247.683L271.463 247.155L271.584 246.761L271.614 246.279L271.567 245.954L271.175 245.791L270.928 245.535L270.365 244.014L269.788 242.45L268.974 240.908L268.088 239.924L267.446 239.323L267.242 239.246L266.911 239.058L266.681 238.883L265.505 237.835L264.286 236.662L263.973 236.126L263.364 235.328L262.682 234.504L262.328 234.129L262.164 233.451L262.633 232.839L263.136 232.066L263.754 231.551L264.555 231.516L265.874 231.728L267.297 231.803L268.708 231.642L269.072 231.531L269.434 231.54L270.193 231.719L271.514 231.68L272.196 231.368L271.461 230.835L270.67 229.989L269.931 229.063L269.481 228.222L269.07 227.14L268.691 225.801L268.458 224.064L268.493 223.079L268.612 222.379L269.008 221.233L268.746 220.563L268.804 220.02L268.765 219.217L268.637 218.807L268.124 217.473L268.019 217.326L267.566 216.402L267.365 214.856L266.852 213.834L266.027 213.341L265.558 212.738L265.386 211.676L265.06 211.397L263.764 211.026L262.682 211.017L261.896 209.818L260.886 208.274L259.946 206.84L259.345 203.963L259 202.314L259.39 201.814L260.161 200.638L261.146 198.384L263.364 194.894L264.499 193.104L266.764 190.426L269.547 187.13L271.115 185.267L271.369 181.868L271.638 178.264L271.84 175.533L272.091 172.285L272.304 169.566L272.458 167.58L272.675 164.76L272.861 164.218L273.954 161.999L274.039 161.701L273.836 161.329L272.277 159.438L271.791 159.017L271.51 158.032L271.91 157.48L270.035 154.295L269.571 153.904L269.366 153.515L269.343 152.938L269.309 150.726L268.81 147.245L268.154 143.176L270.357 142.014L272.03 141.129L274.165 140L276.142 141.157L279.008 142.829L281.874 144.496L284.737 146.163L287.603 147.827L290.467 149.487L293.333 151.143L296.197 152.798L299.062 154.451L301.926 156.1L304.792 157.746L307.656 159.389L310.522 161.031L313.385 162.67L316.251 164.306L319.115 165.938L321.981 167.569Z" fill="black"/>
<path d="M247.814 67.3164L247.801 67.5224L247.592 69.0036L247.545 69.5348L247.513 70.4356V71.5167L247.987 72.4293L248 72.8294L247.816 73.2928L246.942 73.8216L245.814 74.5048L244.845 75.153L243.783 75.8644L243.457 76.323L242.93 76.6763L242.49 77.0297L242.41 77.369L242.101 78.0078L241.699 78.5179L240.69 78.7589L240.504 78.9109L240.036 79.6784L239.82 79.9779L239.554 80.6074L239.896 82.236L240.315 83.9067L240.398 84.6017L240.391 85.1797L240.157 85.8021L239.619 86.6913L239.226 87.3441L238.47 88.5165L238.248 88.8066L237.728 89.1483L236.723 89.5999L236.014 90L235.654 88.2123L235.345 86.6843L235.091 85.4207L234.645 83.1907L234.264 81.2907L233.885 79.3929L233.54 77.6661L233.193 75.9228L233.045 75.6677L232.006 74.8441L231.05 74.0836L230.053 73.2178L228.974 72.2795L228.801 71.0954L228.247 69.303L227.663 68.3015L227.442 68.0394L226.264 67.3913L225.585 66.9139L225.399 66.6355L225.267 65.9031L224.783 64.4429L224.231 63.1138L224.028 62.2129L224 61.078L224.108 60.2567L224.349 59.9057L225.5 58.8808L226.033 57.6477L226.693 57.1843L227.265 56.8357L227.728 56.4285L228.139 55.7757L228.452 55.0784L228.505 54.3226L228.636 53.1222L228.845 52.2821L229.332 51.3298L229.127 50.5623L228.869 49.7339L228.943 48.2948L228.877 47.7098L228.668 47.1927L228.454 46.5282L228.447 45.9736L228.653 44.5158L228.809 43.3996L229.059 41.9465L228.97 41.5393L228.784 41.2352L228.225 40.9146L228.219 40.7204L228.354 40.5051L229.18 39.7938L229.622 38.7478L229.992 38.5301L230.555 38.1511L230.534 37.7439L230.407 37.3064L231.873 36.8126L233.269 35.5163L233.762 35.198L237.004 34L237.425 34.0817L237.897 34.2572L237.761 34.7042L237.575 35.0575L237.85 35.6823L238.244 35.3009L238.144 35.0458L238.121 34.7065L238.788 34.676L239.378 34.7298L240.025 35.1019L239.981 36.5128L240.844 37.8911L240.601 38.5767L241.308 38.9815L241.936 38.4948L242.251 37.7764L243.409 37.3599L244.509 36.3022L245.118 36.1947L245.256 37.0628L245.55 37.821L245.133 38.0877L244.604 38.8927L243.599 40.9284L242.674 41.5251L241.98 42.3067L241.756 42.8612L241.688 43.5071L241.862 44.663L242.368 45.8353L242.952 46.542L243.514 46.762L244.824 47.8758L244.803 48.5357L244.985 49.3196L245.055 50.2719L245.51 51.0324L244.536 52.6844L244.003 53.8755L242.962 55.5135L242.035 56.5758L240.051 58.1506L239.564 58.6724L239.247 59.2129L239.101 59.7769L239.154 60.4391L239.807 62.0654L240.677 63.0224L241.561 63.5395L243.1 63.3312L243.047 63.956L243.157 64.7024L243.781 64.6673L244.2 64.5504L244.553 63.8227L245.304 64.3211L245.696 65.8374L246.333 66.31L246.407 66.4856L246.182 66.6024L246.007 66.7756L246.195 66.8995L246.811 67.0866L247.183 66.9674L247.814 67.3164ZM246.468 54.9286L245.552 55.5019L245.728 55.0035L246.333 54.3998L246.489 54.5448L246.468 54.9286ZM244.566 63.0857L244.409 63.1232L244.122 63.3362L243.969 63.3597L243.538 63.1187L243.373 63.121L243.165 62.9525L243.235 62.0352L243.303 61.7755L244.352 61.7404L244.921 62.2902L245.015 62.4353L245.038 62.5919L244.773 62.8985L244.566 63.0857Z" fill="black"/>
</g>
<defs>
<filter id="filter0_d_284_2" x="-34" y="-16" width="625" height="574" filterUnits="userSpaceOnUse" color-interpolation-filters="sRGB">
<feFlood flood-opacity="0" result="BackgroundImageFix"/>
<feColorMatrix in="SourceAlpha" type="matrix" values="0 0 0 0 0 0 0 0 0 0 0 0 0 0 0 0 0 0 127 0" result="hardAlpha"/>
<feOffset/>
<feGaussianBlur stdDeviation="17"/>
<feColorMatrix type="matrix" values="0 0 0 0 0.67451 0 0 0 0 0.415686 0 0 0 0 1 0 0 0 1 0"/>
<feBlend mode="normal" in2="BackgroundImageFix" result="effect1_dropShadow_284_2"/>
<feBlend mode="normal" in="SourceGraphic" in2="effect1_dropShadow_284_2" result="shape"/>
</filter>
</defs>
</svg>
