<svg width="578" height="506" viewBox="0 0 578 506" fill="none" xmlns="http://www.w3.org/2000/svg">
<g filter="url(#filter0_d_284_2)">
<path d="M475.029 339.517L474.982 339.536L474.891 339.515L474.873 339.4L474.989 339.379L475.029 339.517Z" fill="black"/>
<path d="M542.696 400.105L541.871 400.302L540.944 400.234L540.585 399.862L540.515 399.705L540.825 399.558L540.806 399.078L540.96 398.319L541.158 398.008L541.617 397.73L541.806 397.119L542.202 396.711L542.731 396.66L543.258 397.414L543.616 398.207L543.542 399.005L543.178 399.295L543.057 399.756L542.696 400.105Z" fill="black"/>
<path d="M530.574 406.078L529.649 406.286L529.005 406.211L527.731 405.617L527.391 405.221L526.883 404.11L526.995 403.719L527.395 403.031L528.304 402.759L529.259 402.86L529.688 403.047L530.194 403.852L530.846 404.671L530.737 405.645L530.574 406.078Z" fill="black"/>
<path d="M261.09 269.75L260.999 270.063L260.994 270.618L260.878 271.496L260.738 272.547L261.306 273.225L261.987 273.956L262.168 274.239L261.987 274.957L262.115 275.379L262.474 276.081L263.084 276.973L263.711 277.888L264.144 278.007L264.557 278.082L264.808 278.246L265.174 278.405L265.54 278.508L265.857 278.709L266.059 278.906L266.323 279.47L267.029 279.842L267.523 280.209L267.325 280.396L266.71 280.322L266.132 280.16L266.055 280.432L266.031 281.466L266.122 282.325L266.258 282.44L266.84 282.599L268.226 283.715L269.48 284.773L269.902 285.047L270.594 285.15L271.372 285.194L271.705 285.096L272.458 284.565L272.858 284.506L273.229 284.52L273.429 284.604L273.79 285.04L274.128 285.695L274.224 286.179L274.193 286.439L274.079 286.537L273.462 286.661L273.194 286.76L273.129 286.9L273.224 287.225L273.343 287.436L274.016 288.379L274.99 289.652L275.291 289.978L275.121 290.357L274.625 291.349L274.254 291.764L272.616 293.168L271.815 293.002L270.13 293.285L269.878 292.962L269.485 292.92L268.998 292.976L268.821 293.098L268.767 293.236L268.592 293.43L268.28 293.987L268.04 294.127L267.742 294.214L267.374 294.202L267.159 294.275V294.551L267.094 294.79L266.845 294.911L266.74 295.178L266.758 295.443L266.614 295.564L266.297 295.499L266.108 295.424L265.931 295.765L265.712 295.997L265.556 295.995L263.872 296.063L263.259 296.245L262.891 296.25L262.877 296.095L262.832 296.004L260.707 295.487L259.219 295.18L257.709 294.841L257.623 295.159L257.406 295.365L257.08 295.379L256.854 295.33L256.702 295.576L256.451 295.901L256.101 296.058L255.759 296.259L255.565 296.435L255.425 296.437L255.081 296.025L254.622 295.983L253.764 296.051L253.377 295.939L252.851 295.885L251.607 295.969L249.619 295.801L249.293 295.892L249.207 295.967L247.238 295.985L245.073 296.006L243.261 296.025L241.674 296.041L241.671 295.971L241.161 295.962L241.105 296.1L240.656 297.757L240.607 298.658L240.847 299.217L241.115 299.573L241.415 299.72L241.445 299.922L241.203 300.181L241.224 300.446L241.508 300.72L241.578 301.01L241.434 301.312L241.469 302.037L241.678 303.187L241.685 303.931L241.485 304.27L241.581 304.853L241.97 305.675L242.04 306.021L241.9 306.183L241.576 306.396L241.247 306.389L240.865 305.892L240.698 305.67L240.39 305.164L240.127 304.659L239.773 304.437L239.423 304.231L238.999 303.587L238.589 303.28L238.156 303.367L237.524 303.247L236.25 303.088L234.88 303.135L234.311 303.283L233.75 303.517L232.326 304.034L231.764 304.287L231.338 304.933L230.853 304.919L230.371 304.713L230.068 304.42L229.418 304.483L228.791 304.2L228.186 303.641L227.738 303.456L227.167 303.051L227.011 302.279L226.65 301.738L226.319 300.984L225.825 300.647L225.257 300.467L224.472 300.505L223.957 300.203L223.549 299.763L223.656 299.381L223.84 298.838L223.861 298.316L223.982 297.469L223.908 296.409L223.766 295.669L224.199 295.36L224.7 295.084L225.012 294.581L225.336 293.45L225.471 292.474L225.371 292.112L225.205 291.824L225.073 291.403L224.996 290.888L225.087 290.438L225.466 290.022L225.942 289.675L226.28 289.507L227.174 289.333L228.293 289.076L228.938 288.781L229.409 288.488L229.672 288.254L229.94 287.779L230.373 287.41L230.709 287.035L230.755 285.998L230.753 285.406L230.504 285.078L230.369 284.8L232.025 283.985L232.037 283.412L231.806 282.771L231.482 282.253L231.361 281.809L231.82 281.282L232.228 280.887L232.524 280.552L233.176 280.042L233.857 279.908L234.469 280.1L236.285 281.303L236.599 281.381L236.977 281.289L237.457 280.971L238.076 280.723L238.305 279.918L238.284 278.734L238.426 278.191L238.752 278.092L239.796 278.319L240.068 278.331L240.371 278.256L240.593 278.048L240.583 277.664L240.534 277.324L240.875 276.224L241.497 275.396L242.753 274.361L243.144 274.153L243.598 274.048L245.849 274.759L246.215 274.584L246.765 272.819L247.375 272.65L248.107 272.62L248.582 272.468L248.829 272.346L249.901 271.675L251.788 270.762L252.804 270.369L253.002 270.221L253.729 269.573L254.694 268.829L255.309 268.679L256.159 268.625L256.695 268.747L256.84 268.958L257.017 269.065L258.126 268.749L259.715 269.252L261.09 269.75Z" fill="black"/>
<path d="M283.178 291.317L282.908 291.746L282.493 292.63L282.474 293.321L283.462 294.777L283.576 294.924L283.83 295.151L283.968 295.422L284.087 296.139L284.154 296.946L284.233 297.489L284.711 298.252L284.741 298.559L284.41 299.698L284.331 299.82L284.245 299.85L283.732 299.752L283.513 299.876L283.234 300.262L283.064 300.648L283.054 300.81L283.509 301.526L283.222 302.558L282.929 303.202L282.402 303.569L281.931 303.655L281.603 303.829L281.412 304.056L281.44 304.793L280.745 305.465L280.361 305.935L280.175 306.218L280.254 307.084L280.007 307.96L279.578 308.65L278.618 308.8L277.812 308.884L277.537 310.642L277.551 311.753L277.476 312.889L277.344 313.352L277.4 314.003L277.339 315.475L277.232 316.633L277.374 316.945L277.455 317.626L277.451 318.33L277.656 318.819L277.88 319.248L277.873 319.468L277.754 319.606L277.654 319.786V321.443L277.695 321.939L277.635 322.253L277.462 322.515L277.53 323.353L277.67 323.887L277.81 324.28L277.674 324.607L277.556 325.04L277.376 326.145L277.365 326.529L274.622 326.798L271.556 327.24L270.277 327.528L270.202 327.306L271.293 327.018L271.067 326.154L270.386 325.134L270.121 324.947L269.983 324.439L270.149 324.107L270.069 323.882L270.013 323.194L269.678 322.433L270.291 322.403V319.957V317.607V315.604V314.017L270.172 312.114L270.156 310.717L270.13 308.872L269.909 308.297L268.981 307.321L268.727 306.815L268.683 306.143L268.476 305.453L268.464 304.243L268.448 302.834L268.364 302.607L267.357 301.935L265.934 300.983L264.848 300.257L264.769 300.203L264.659 300.025L264.818 297.877L265.041 297.596L265.388 296.711L265.556 295.995L265.712 295.997L265.931 295.765L266.108 295.424L266.297 295.499L266.614 295.564L266.759 295.443L266.74 295.178L266.845 294.912L267.094 294.79L267.159 294.551V294.275L267.374 294.202L267.742 294.214L268.04 294.127L268.28 293.987L268.592 293.43L268.767 293.236L268.821 293.098L268.998 292.976L269.485 292.92L269.878 292.962L270.13 293.285L271.815 293.002L272.616 293.168L274.254 291.764L274.625 291.35L275.121 290.357L275.291 289.978L275.445 289.295L275.121 288.033L275.139 287.808L275.815 287.537L276.659 287.326L276.985 287.31L277.202 287.202L277.509 286.928L278.01 286.73L278.306 286.795L278.488 286.835L280.263 288.504L281.034 289.346L281.239 289.777L281.638 290.088L282.225 290.28L282.761 290.708L283.178 291.317Z" fill="black"/>
<path d="M223.549 299.764L223.957 300.204L224.474 300.506L225.259 300.469L225.828 300.649L226.319 300.988L226.65 301.739L227.011 302.28L227.167 303.052L227.738 303.457L228.185 303.642L228.791 304.202L229.418 304.487L230.066 304.421L230.369 304.714L230.853 304.92L231.338 304.934L231.764 304.288L232.328 304.033L233.752 303.518L234.313 303.284L234.882 303.137L236.252 303.09L237.526 303.249L238.158 303.368L238.591 303.279L239.001 303.586L239.425 304.229L239.772 304.435L240.127 304.658L240.39 305.166L240.697 305.669L240.865 305.891L241.247 306.387L241.576 306.394L241.9 306.179L242.04 306.02L242.102 306.348L241.974 306.879L242 307.209L242.179 307.335L242.082 307.759L241.706 308.48L241.704 308.906L242.077 309.039L242.342 309.491L242.501 310.263L242.662 310.521L242.678 310.68L242.948 312.55L243.281 314.424L243.069 314.668L242.778 314.74L242.589 314.827L242.536 315.002L242.659 315.257L242.578 315.492L242.214 315.653L241.424 316.248L241.371 316.484L241.161 316.99L240.986 317.298L240.728 317.872L240.318 319.389L240.166 320.645L240.143 321.034L239.985 321.303L239.805 321.694L238.948 322.768L238.51 323.646L238.566 324.027L238.587 324.411L238.456 324.687L238.479 325.429L238.584 326.05L238.738 326.658L239.36 328.381L239.684 329.427L239.884 330.269L240.061 330.836L240.227 331.065L240.294 331.283L241.217 331.44L241.399 331.564L241.65 332.661L241.604 333.158L241.422 333.347L241.427 333.766L241.385 334.288L241.25 334.494L240.732 334.52L240.381 334.716L239.919 334.637L239.875 334.508L239.626 334.461L238.941 334.164L239.053 333.211L238.736 333.172L238.491 333.298L238.004 334.44L237.771 334.636L234.351 334.047L233.607 333.571L232.717 333.464L231.166 333.518L229.886 333.66L229.521 333.948L232.75 333.78L233.097 333.813L233.26 333.986L229.178 334.363L227.622 334.587L227.16 334.526L226.811 334.161L225.119 334.117L224.772 334.236L224.562 334.505L225.229 334.446L226.28 334.432L226.561 334.638L223.272 334.908L220.99 335.423L220.024 335.804L216.841 337.056L214.9 337.646L214.392 337.864L213.509 338.477L212.374 338.863L211.102 339.584L210.326 339.746L210.151 339.516L210.13 338.299L210.023 336.668L210.063 336.043L210.165 335.455L210.168 334.969L210.554 334.786L210.657 334.582L210.715 333.948L211.076 333.37L211.083 332.364L211.191 332.155L211.272 331.888L211.118 331.228L210.918 329.983L210.82 329.901L210.732 329.955L210.529 329.979L209.73 329.548L209.112 329.473L208.679 329.105L208.648 328.687L208.439 328.441L208.292 327.956L208.075 327.402L207.467 327.065L206.896 326.983L206.491 327.055L206.016 327.035L205.47 326.847L205.093 326.637L204.736 326.229L204.406 325.906L204.142 325.946L203.821 325.869L203.504 325.722L203.401 325.607L204.725 324.31L205.174 323.676L205.223 323.288L205.228 322.897L205.373 322.496L205.41 321.886L204.678 319.662L204.492 318.974L204.296 318.773L204.17 318.695L204.541 318.41L205.051 318.485L205.834 318.707L206.004 318.487L206.596 317.364L206.579 316.947L206.521 316.659L206.868 315.889L207.143 315.592L207.285 315.271L207.241 314.831L207.034 314.668L206.759 314.698L206.43 314.591L205.929 314.338L205.675 314.113L205.755 313.095L205.801 312.779L205.978 312.596L206.253 312.547L207.029 312.517L207.658 312.634L208.21 312.702H208.504L208.742 313.004L209.059 313.313L209.338 313.31L209.436 313.081L209.371 312.077L209.184 311.545L208.763 311.033L207.672 310.595L207.647 309.984L207.756 309.322L207.991 309.076L208.802 308.655L208.66 308.428L208.402 308.187L207.887 307.944L208.005 307.15L208.031 306.441L207.595 306.521L207.148 306.563L206.771 306.345L206.454 305.914L206.395 304.73V303.361L206.335 302.755L206.456 302.432L206.84 302.134L207.26 301.748L207.409 301.503L207.602 301.498L208.106 301.351L208.562 301.013L208.989 300.311L209.564 299.747L210.212 299.789L210.403 299.687L210.631 299.668L210.902 300.04L211.174 300.323L211.368 300.33L211.512 300.866L212.693 301.091L213.199 301.238L213.625 301.629L213.774 301.638L213.954 301.556L214.094 301.421L214.122 301.271L213.938 300.92L214.019 300.604L214.21 300.321L214.515 300.302L214.974 300.223H215.501L215.892 300.274L216.049 299.991L215.899 299.195L215.939 298.755L216.002 298.385L216.149 298.236L216.734 298.702L217.269 298.87L217.654 298.884L217.761 298.795L217.598 298.287L217.642 298.135L217.784 298.046L218.036 297.994L218.719 297.788L218.789 297.828L218.917 298.629L218.859 298.891L219.003 299.434L219.18 299.937L219.166 300.143L219.019 300.454L218.847 300.74L218.866 300.857L219.138 301.051L219.66 301.252L220.201 301.299L220.501 301.007L220.813 300.768L221.03 300.555L221.105 300.239L221.447 300.007L222.426 299.717L223.325 299.672L223.549 299.764ZM239.484 334.668L239.304 334.927L238.437 334.761L238.642 334.543L239.484 334.668Z" fill="black"/>
<path d="M315.751 108.271L315.888 108.706L315.912 109.113L315.292 109.493L314.884 109.713L314.395 110.759L313.488 111.468L313.337 111.683L313.344 111.878L313.959 112.198L314.164 112.502L314.26 112.91L313.985 114.366L313.812 115.48L313.586 116.938L313.596 117.492L313.829 118.157L314.059 118.674L314.132 119.259L314.05 120.699L314.332 121.53L314.558 122.295L314.02 123.248L313.789 124.088L313.645 125.288L313.586 126.044L313.239 126.742L312.787 127.395L312.277 127.802L311.648 128.153L310.923 128.614L310.336 129.848L309.066 130.873L308.801 131.224L308.682 132.043L308.712 133.178L308.936 134.079L309.544 135.409L310.077 136.869L310.222 137.602L310.427 137.88L311.177 138.358L312.475 139.004L312.715 139.268L313.358 140.27L313.968 142.063L314.159 143.247L315.348 144.188L316.445 145.054L317.498 145.814L318.642 146.638L318.808 146.891L319.188 148.635L319.567 150.362L319.982 152.26L320.402 154.161L320.895 156.391L321.175 157.653L321.513 159.181L321.911 160.969L321.271 161.348L320.548 161.833L321.075 162.75L322.091 164.241L322.704 165.442L322.918 165.964L323.396 167.45L323.785 168.887L323.885 169.353L324.027 170.457L323.852 173.491L324.132 177.327L324.509 179.232L323.915 180.947L323.407 182.583L323.44 183.405L323.719 184.685L323.994 185.631L324.367 186.127L324.295 187.716L324.139 188.292L322.997 189.123L321.732 189.883L321.382 190.527L321.282 191.243L321.45 191.826L322.319 193.113L323.626 195.039L325.064 197.155L325.183 197.686L325.241 199.184L325.84 201.064L326.487 201.883L326.73 202.494L327.189 202.931L327.645 203.252L327.93 203.29L329.544 202.779L332.305 203.622L334.917 204.479L335.108 204.647L335.679 205.731L336.614 207.498L337.306 208.909L337.925 210.171L334.54 212.343L331.152 214.51L327.767 216.673L324.381 218.828L320.996 220.981L317.608 223.13L314.222 225.274L310.837 227.411L308.591 228.827L307.163 230.076L305.371 231.638L303.679 233.187L302.349 234.406L300.625 235.979L299.755 236.773L297.833 238.526L297.255 238.837L294.709 239.354L292.372 239.827L290.214 240.265L288.739 240.564L287.311 240.852L285.235 241.259L283.753 241.552L282.155 241.865L281.905 241.919L281.617 241.931L281.4 241.919L280.957 241.746L280.424 241.336L280.067 241.126L279.979 240.803L280.186 240.372L280.445 239.986L280.542 239.682L280.719 239.45L280.948 239.263L280.957 238.998L280.768 238.563L280.603 237.961L280.61 236.868L280.615 236.503V236.372L280.137 235.953L279.235 235.49L278.406 235.218L278.028 235.125L277.113 234.961L275.847 234.668L275.402 234.467L274.582 233.449L274.179 233.189L272.28 233.016L271.649 232.847L271.132 232.606L270.689 232.278L270.44 231.719L270.365 231.263L270.2 231.045L268.105 229.94L267.571 229.566L267.289 229.217L267.28 228.7L267.336 228.066L267.247 227.502L267.159 227.225L266.201 226.556L264.06 225.053L261.919 223.551L259.778 222.046L257.636 220.539L255.495 219.029L253.354 217.517L251.213 216.003L249.071 214.486L246.93 212.965L244.786 211.446L242.647 209.92L240.506 208.394L238.365 206.866L236.221 205.333L234.08 203.797L231.939 202.259L230.128 200.961L228.132 199.584L226.647 198.576L225.175 197.569L223.591 196.49L222.561 195.821L221.333 195.02L220.103 194.218L218.872 193.415L217.642 192.612L216.412 191.809L215.182 191.004L213.954 190.199L212.723 189.392L211.493 188.584L210.265 187.777L209.035 186.969L207.805 186.159L206.575 185.35L205.344 184.537L204.114 183.725L202.886 182.913V181.41V180.186V178.384V176.816V175.248V174.167V173.039L202.919 172.528L203.04 172.311L203.704 171.943L204.743 171.105L205.128 170.733L205.619 170.356L207.36 169.221L207.721 168.903L209.413 167.595L209.809 167.403L210.717 167.274L211.097 167.028L211.607 166.504L212.358 165.905L212.845 165.619L212.961 165.568L213.273 165.526L214.837 165.704L215.494 165.837L216.279 165.949L216.524 165.872L216.733 165.685L217.029 165.266L217.092 164.767L217.111 164.332L217.157 164.143L217.295 164.056L217.637 164.089L218.094 164.148L219.028 164.129L219.345 164.068L220.405 163.974L221.904 163.691L223.092 163.321L224.038 163.028L225.051 162.258L225.795 161.446L226.566 160.234L227.179 159.181L228.421 158.523L229.457 158.123L230.052 157.966L231.398 157.409L232.538 156.567L233.607 155.775L234.425 155.67L235.459 155.539L235.69 155.392L235.951 155.111L235.965 154.615L235.653 154.266L235.275 154.083L235.007 153.882L234.742 153.845L234.6 153.606L234.679 153.166L234.719 152.759L234.889 152.351L234.842 151.776L234.576 151.2L234.495 150.786L234.513 150.374L234.644 150.053L235.026 149.84L235.471 149.758L236.096 149.861L237.174 149.723L239.935 148.726L240.126 148.419L240.304 147.729L240.502 147.123L240.788 146.919L240.944 146.874L241.865 146.711L243.167 146.481L243.656 146.448L245.078 146.514L246.112 146.563L247.785 146.643L248.973 146.683L250.008 146.718L251.327 146.765L251.651 146.624V146.182L251.413 145.358L251.557 144.843L252.065 144.366L252.699 143.832L252.403 143.181L251.898 142.746L251.192 142.222L250.826 142.009L250.185 141.375L249.794 140.651L249.528 139.125L249.041 138.269L248.687 137.211L249.001 135.266L248.531 134.089L248.458 133.578L248.454 132.977L248.598 131.935L248.505 130.468L247.951 128.951L248.211 128.434L248.333 128.165L248.293 127.933L247.787 127.451L247.573 127.051L247.685 126.676L247.948 126.131L247.925 125.902L247.107 125.237L245.728 124.158L245.341 123.685L245.152 123.093L246.473 123.245L247.156 123.173L248.722 122.461L249.966 121.499L250.933 121.01L251.783 119.954L252.555 119.287L253.668 118.566L256.881 117.01L257.373 116.998L258.431 117.352L259.351 117.242L259.98 116.697L260.658 115.381L261.709 114.578L263.035 113.773L264.838 113.003L266.02 112.294L267.888 111.679L272.579 111.288L274.988 110.939L276.626 111.019L278.28 109.891L279.107 109.518L282.688 109.432L284.378 108.606H290.78L291.563 108.882L292.332 109.326L293.642 110.396L294.294 110.63L295.14 110.408L297.106 109.394L299.324 108.865L300.531 108.262L301.044 107.379L302.083 107.054L302.668 107.733L304.968 108.416L306.38 108.219L306.999 108.013L306.776 107L308.269 107.269L309.416 107.758L310.616 108.737L311.394 108.931L312.81 108.491L315.751 108.271Z" fill="black"/>
<path d="M202.886 182.913L202.888 184.138V185.591L202.891 187.04L202.893 188.687V190.326V191.517V192.346H201.563H200.344H199.126H197.909H196.691H195.472H194.254H193.035H191.816H190.598H189.379H188.161H186.942H185.723H184.505H183.289H182.07H181.091V193.214V194.199V195.187V196.172V197.158V198.141V199.124V200.104V201.085V202.063V203.042V204.02V204.994V205.969V206.943V207.917V208.888V209.754L181.045 210.529L180.653 210.758L179.719 211.17L178.759 211.594L177.54 211.788L177.14 211.926L176.362 212.483L175.339 213.215L174.453 213.85L173.868 214.674L173.656 215.125L173.57 215.6L173.638 216.054L173.957 216.963L174.043 217.421L174.092 218.219L174.146 219.085L174.204 220.019L174.262 220.953L174.323 221.943L174.386 222.935L174.449 223.93L174.495 224.67L174.553 225.601L173.563 225.604H172.065L170.565 225.606L169.064 225.608L167.566 225.611L166.068 225.613L164.567 225.615H163.067L161.568 225.618L160.068 225.62L158.57 225.622L157.072 225.625L155.571 225.627L154.071 225.629H152.572L151.072 225.632L149.574 225.634L148.735 225.636L148.465 226.945L148.225 227.883L148.085 228.648L148.187 229.294L147.856 228.941L148.439 225.299L148.481 224.993L148.956 221.625L149.853 219.794L150.569 218.987L151.678 218.568L152.696 216.724L153.052 215.022L153.721 214.238L153.931 213.625L153.667 213.157L154.299 212.237L155.063 210.828L155.417 209.922L156.31 208.52L156.419 208.209L156.34 207.858L155.988 208.155L155.613 208.675L155.168 209.084L155.35 208.581L155.699 207.842L156.494 207.065L157.747 206.21L160.348 203.301L161.326 202.798L162.207 201.569L162.521 200.476L162.608 197.962L162.922 196.633L163.495 195.596L164.18 193.703L164.702 192.858L165.042 191.126L165.413 190.468L166.077 190.152L167.018 189.289L168.433 188.753L170.108 187.627L170.893 186.953L171.417 185.946L171.979 183.938L172.983 181.82L173.498 180.219L202.003 180.186L202.008 180.189L202.886 180.186V181.41V182.913Z" fill="black"/>
<path d="M259.219 295.181L259.636 295.582L259.729 295.811L259.577 296.675L259.27 297.276L259.076 297.843L259.104 298.123L259.291 298.407L259.927 298.849L260.251 299.137L260.638 299.572L261.08 299.998L261.837 300.553L262.159 300.653L262.143 300.808L262.038 301.021L261.968 303.085L261.91 303.619L261.856 303.888L261.784 304.658L261.705 304.768L261.563 304.759L261.43 304.789L261.397 304.941L261.451 305.1L261.907 305.21L261.807 305.327L261.469 305.432L261.311 305.664L261.381 305.928L261.192 306.141L261.246 306.284L261.367 306.387L261.56 306.349L262.094 305.994L262.317 305.956L262.595 306.029L263.105 306.572L263.126 306.836L262.919 307.742L262.716 308.442L262.679 309.376L262.893 309.898L262.863 310.186L262.63 310.434L262.103 310.794L262.143 311.04L262.383 311.499L262.828 312.009L263.697 312.641L264.153 313.462L264.165 313.797L263.9 314.132L263.585 314.422L263.482 314.841L263.625 317.593L262.937 318.787L262.93 319.129L263 319.522L263.182 319.763L263.531 319.828L263.818 320.058L263.718 320.896L263.566 321.748L263.541 322.162L263.457 322.359L263.184 322.518L263.086 322.787L263.156 323.119L263.105 323.365L263.249 323.683L263.564 324.079L264.067 325.062L264.258 325.139L264.347 325.347L264.291 325.547L264.487 325.982L265.046 326.417L265.633 326.796L266.108 326.85L266.22 327.189L266.532 327.622L266.758 327.812L267.12 327.936L267.415 328.002L267.432 328.367L266.896 328.615L266.535 328.992L266.26 329.565L265.878 330.197L264.564 330.525L264.06 330.527L261.365 330.543L258.841 331.784L257.387 332.226L256.493 332.924L255.29 333.42L254.451 334.024L252.706 334.312L249.847 335.257L248.953 335.634L248.049 336.292L246.578 337.062L245.998 337.052L244.847 336.331L243.98 335.971L241.86 335.419L240.278 335.203L239.514 334.967L239.304 334.927L239.484 334.667L239.926 334.651L240.388 334.728L240.739 334.532L241.254 334.506L241.39 334.298L241.431 333.778L241.427 333.357L241.606 333.17L241.653 332.673L241.399 331.576L241.219 331.449L240.297 331.295L240.227 331.075L240.061 330.846L239.884 330.279L239.684 329.437L239.36 328.391L238.738 326.668L238.584 326.057L238.479 325.437L238.456 324.695L238.584 324.419L238.566 324.035L238.507 323.651L238.945 322.773L239.803 321.697L239.982 321.308L240.143 321.039L240.166 320.651L240.318 319.396L240.728 317.879L240.986 317.306L241.161 316.995L241.371 316.489L241.424 316.253L242.214 315.656L242.578 315.497L242.659 315.261L242.536 315.005L242.589 314.83L242.778 314.744L243.069 314.673L243.281 314.427L242.948 312.553L242.678 310.683L242.662 310.524L242.503 310.266L242.345 309.494L242.077 309.04L241.704 308.909L241.706 308.483L242.082 307.76L242.179 307.338L242 307.212L241.974 306.882L242.102 306.351L242.04 306.023L241.97 305.677L241.581 304.855L241.485 304.272L241.685 303.933L241.678 303.189L241.469 302.04L241.434 301.314L241.578 301.012L241.508 300.722L241.224 300.448L241.203 300.184L241.445 299.924L241.415 299.723L241.115 299.575L240.847 299.219L240.607 298.66L240.656 297.759L241.105 296.102L241.161 295.964L241.671 295.973L241.674 296.043L243.26 296.027L245.073 296.009L247.238 295.988L249.207 295.969L249.293 295.894L249.619 295.803L251.607 295.971L252.851 295.887L253.377 295.941L253.764 296.053L254.622 295.985L255.081 296.027L255.425 296.439L255.565 296.437L255.759 296.261L256.101 296.06L256.451 295.904L256.702 295.578L256.854 295.333L257.08 295.382L257.406 295.368L257.623 295.162L257.709 294.843L259.219 295.181Z" fill="black"/>
<path d="M224.786 114.576L224.765 114.686L224.777 114.766L224.76 114.986L224.716 114.981L224.642 114.869L224.649 114.717L224.721 114.677L224.672 114.583L224.786 114.576Z" fill="black"/>
<path d="M150.049 282.178L150.012 281.611L149.648 280.319L150.135 279.755L150.664 279.421L151.021 279.687L151.128 280.214L151.403 280.575L152.34 280.799L153.265 280.638L153.831 280.713L153.814 280.42L154.006 280.032L155.131 279.866L156.319 279.756L157.542 279.522L158.5 279.531L158.784 279.468L158.717 279.367L157.857 279.254L156.023 279.521L154.157 279.601L152.743 280.305L152.162 280.24L151.575 279.535L151.366 278.667L153.022 278.604L155.031 278.632L157.219 278.66L158.248 278.674L158.789 277.728L159.819 277.312L160.872 277.157L161.422 277.197L162 277.338L163.111 278.117L163.803 278.297L164.388 278.473L164.805 278.852L165.469 279.229L165.991 279.329L166.301 279.273L166.818 279.128L167.158 279.011L168.267 278.962L169.083 279.397L169.253 279.872L169.118 280.359L168.023 280.619L166.506 281.026L165.252 280.804L163.726 280.249L162.834 279.851L162.463 279.69L161.907 279.437L161.42 279.165L160.951 278.988L160.592 278.875L160.327 279.018L160.194 279.355L159.982 279.73L159.709 279.952L158.43 280.083L157.281 280.221L156.666 280.338L156.254 280.427L156.126 281.557L154.826 281.546L153.549 281.532L152.223 281.553L150.799 281.574L150.434 281.805L150.049 282.178Z" fill="black"/>
<path d="M185.19 286.59L185.004 286.77L184.81 287.161L184.633 287.643L184.454 287.966L184.517 288.176L185.027 288.598L185.742 289.188L186.033 289.265L186.367 289.124L186.891 288.656L187.308 288.151L187.706 287.905L188.175 287.921L188.547 288.277L189.002 289.064L189.417 289.777L189.47 289.85L189.638 289.967L189.848 289.962L190.067 289.789L190.227 289.684L190.421 289.356L191.229 288.366L191.837 288.095L192.054 288.022L192.478 287.872L193.184 288.106L194.207 288.514L195.449 289.007L195.885 289.092L196.141 289.007L196.511 288.338L196.973 288.074L197.632 287.765L198.168 287.608L198.473 287.587L198.59 287.404L198.648 287.131L198.585 286.847L198.24 286.339L198.231 286.19L198.429 286.091L198.853 286.017L199.405 286.068L200.027 286.288L200.533 286.604L200.822 286.981L201.136 287.786L201.379 288.568L202.003 289.808L201.991 290.578L201.977 291.47L202.257 291.639L202.56 291.709L202.702 291.84L203.005 292.526L203.292 292.725L203.634 292.772L204.277 293.209L204.69 293.383L204.748 293.514L204.734 293.696L204.573 293.926L204.324 294.085L203.953 294.384L203.646 294.775L203.012 295.714L202.993 295.889L203.129 296.015L203.389 296.039L203.669 295.973L204.252 295.631L204.708 295.753L205.149 296.015L205.309 296.287L205.351 296.642L205.251 297.103L205.235 297.616L205.382 298.491L205.612 299.367L205.841 299.685L207.306 300.455L207.448 300.743L207.521 301.068L207.416 301.511L207.264 301.759L206.845 302.145L206.46 302.442L206.339 302.767L206.4 303.374V304.743L206.458 305.929L206.775 306.358L207.152 306.578L207.6 306.536L208.033 306.456L208.008 307.165L207.891 307.959L208.404 308.204L208.665 308.445L208.807 308.672L207.994 309.094L207.758 309.339L207.649 310.002L207.674 310.615L208.767 311.05L209.189 311.563L209.375 312.094L209.44 313.098L209.343 313.328L209.061 313.33L208.744 313.021L208.508 312.721H208.213L207.66 312.653L207.034 312.536L206.258 312.569L205.983 312.618L205.806 312.799L205.759 313.115L205.68 314.133L205.934 314.355L206.435 314.608L206.763 314.715L207.036 314.685L207.246 314.849L207.29 315.286L207.148 315.607L206.873 315.907L206.526 316.674L206.584 316.965L206.6 317.379L206.006 318.502L205.838 318.722L205.053 318.5L204.543 318.427L204.172 318.711L203.939 318.533L203.664 318.273L203.569 317.931L203.382 317.858L203.04 317.856L202.723 318.05L202.583 318.404L202.562 318.811L202.513 319.125L202.325 319.314L201.94 319.808L201.761 320.262L201.537 320.658L201.218 320.634L201.071 320.578L200.969 320.683L200.472 320.903L200.046 320.964L199.934 320.737L199.685 320.555L199.408 320.192L199.093 319.902L198.492 319.696L198.254 319.789L197.97 319.764L197.784 319.649L197.809 319.474L198.124 319.031L198.303 318.624L198.403 318.179L198.401 317.753L198.233 317.156L197.963 316.681L197.895 316.408L197.928 316.014L197.865 315.649L197.777 315.46L197.735 315.099L197.651 314.769L197.49 314.643L197.401 314.091L197.427 313.522L197.194 313.309L196.826 313.152L196.609 312.928L196.476 312.682L196.344 312.609L196.229 312.625L196.127 312.777L196.006 312.81L195.791 312.279L195.703 312.258L195.554 312.38L193.855 312.969L193.781 312.74L193.638 312.469L193.312 312.377L192.751 312.581L192.425 312.604L191.921 312.536L191.698 312.632L191.029 313.416L190.628 313.723L190.325 313.697L190.008 313.627L189.785 313.683L189.619 313.594L189.684 313.402L189.848 313.163L190.167 312.309L190.987 311.45L191.003 311.268L190.668 310.767L190.316 310.081V309.346L190.248 308.815L189.524 308.665L189.391 308.576L189.372 308.396L189.559 307.921L189.78 307.478L189.813 307.293L189.761 307.127L189.316 306.659L188.622 305.791L187.979 304.829L187.427 304.005L186.979 303.628L186.553 303.083L186.392 302.736L185.947 302.612L184.652 302.619L183.093 302.629L181.779 302.633L181.702 303.101L180.267 303.413L179.381 303.054L178.398 303.265L177.918 303.502L177.769 303.998L177.55 304.543L177.34 304.768L177.252 305.011L177.13 305.234L176.937 305.491L176.723 306.004L176.254 306.736L175.763 307.209L174.929 307.464L174.668 308.234L174.477 308.522L174.155 308.744L173.81 308.892L173.493 308.803L173.128 308.742L172.745 308.88L172.68 308.688L172.897 308.077L172.724 307.761L172.07 307.127L172.007 306.822L171.806 306.427L170.942 305.61L170.138 305.661L170.362 304.978L170.353 304.07L170.078 303.574L170.148 303.068L169.998 303.099L169.73 303.447L169.297 303.335L168.416 302.795L167.976 302.273L167.925 301.826L167.825 301.652L167.557 301.746L167.007 301.737L165.327 300.941L164.134 298.942L164.108 298.491L164.278 297.714L164.239 297.503L163.691 298.018L163.586 297.671L163.167 296.869L163.046 296.405L162.645 296.199L162.321 296.164L162.072 296.318L161.743 297.257L161.499 297.252L161.245 297.051L161.298 296.349L161.587 296.002L161.944 295.471L163.025 293.252L163.409 292.744L163.654 292.566L164.164 292.546L165.161 292.248L165.977 291.759L166.385 291.56L167.319 291.612L168.426 291.527L169.868 291.052L169.894 290.397L169.882 289.559L169.833 289.227L169.32 288.927L169.022 288.667L168.766 288.337L168.454 288.101L168.465 287.855L168.857 287.642L169.104 287.535L169.691 287.539L169.884 287.418L170.031 287.205L170.196 286.664L170.255 286.095L169.868 285.33L169.889 284.789L172.007 284.867L172.221 284.925L173.167 285.019H173.754L174.115 285.059L174.267 285.183L174.239 285.41L174.136 285.709L174.258 286.018L174.581 286.1L174.752 286.006L174.917 285.857L175.113 285.738L175.39 285.817L175.984 286.274L176.536 286.397L177.137 286.646L177.704 286.784L178.207 286.765L178.589 287.02L179.295 287.102L180.204 286.777L180.921 286.634L181.926 286.599L182.455 286.704L183.985 286.444L184.75 286.503L185.19 286.59Z" fill="black"/>
<path d="M169.889 284.79L169.868 285.33L170.255 286.096L170.199 286.664L170.031 287.203L169.884 287.416L169.691 287.54L169.104 287.535L168.857 287.643L168.465 287.853L168.456 288.101L168.768 288.338L169.025 288.668L169.323 288.928L169.836 289.227L169.884 289.56L169.898 290.397L169.87 291.053L168.428 291.528L167.321 291.612L166.385 291.56L165.977 291.76L165.162 292.249L164.167 292.546L163.656 292.567L163.412 292.745L163.025 293.253L161.946 295.471L161.59 296.003L161.301 296.349L160.97 295.879L161.226 295.008L160.949 295.02L160.399 295.724L160.131 295.745L160.166 294.912L159.861 294.881L159.507 294.94L159.013 294.505L158.964 294.179L159.003 293.725L159.304 293.435L159.262 293.314L158.971 293.278L158.645 293.356L158.444 293.218L158.775 292.628L159.931 292.134L160.511 292.083L161.107 291.97L160.781 291.544L160.075 291.376L159.511 291.493L159.229 291.799L158.882 291.851L158.3 291.128L158.309 290.765L158.526 290.334L158.864 290.14L160.203 290.145L160.711 289.901L160.916 289.857L161.11 289.637L161.068 289.49L160.849 289.483L160.348 289.77L158.735 289.663L158.221 289.836L157.323 290.498L156.219 290.864L155.418 290.709L155.674 289.822L155.56 289.703L155.308 289.556L154.134 289.839L153.246 289.434L152.894 288.945L152.955 288.329L153.374 287.913L153.439 287.704L152.997 287.664L152.181 287.924L150.385 286.918L150.744 286.854L151.629 286.96L152.316 286.833L152.801 286.62L153.46 286.328L154.096 286.232L156.089 286.363L157.82 286.012L159.106 285.352L160.294 284.743L161.834 284.75L163.484 284.757L165.83 284.767L167.69 284.774L169.889 284.79ZM155.131 290.079L154.791 290.896L154.371 290.805L154.078 290.318L154.045 290.112L154.898 290.046L155.131 290.079ZM157.962 292.378L157.901 292.532L157.529 292.401L158.071 291.839L158.426 291.741L158.414 292.171L158.141 292.263L157.962 292.378ZM155.683 292.853L155.376 293.061L155.059 292.963L154.889 292.775L154.914 292.441L155.273 291.968L155.595 292.029L155.683 292.853ZM156.839 294.519V294.793L156.562 294.741L156.48 294.66L156.645 294.166L156.888 293.946L157.186 293.981L157.275 294.047L157.216 294.236L157.086 294.393L156.839 294.519ZM154.294 295.558L153.77 295.657L153.533 295.326L153.498 295.198L153.77 295.088L153.894 295.083L154.101 294.842L154.357 294.683L154.472 294.632L154.604 294.644L154.7 295.172L154.574 295.395L154.294 295.558ZM155.723 295.404L155.662 295.589L155.278 295.561L155.364 295.373L155.28 295.32L155.39 294.758L155.448 294.671L155.634 294.88L155.66 294.966L155.723 295.404Z" fill="black"/>
<path d="M204.173 318.71L204.301 318.788L204.496 318.989L204.683 319.677L205.414 321.898L205.377 322.511L205.233 322.912L205.228 323.302L205.179 323.691L204.732 324.323L203.408 325.62L203.511 325.734L203.825 325.882L204.149 325.956L204.413 325.917L204.743 326.24L205.1 326.647L205.477 326.86L206.023 327.045L206.498 327.066L206.903 326.993L207.474 327.075L208.082 327.412L208.299 327.967L208.446 328.451L208.655 328.697L208.686 329.116L209.117 329.483L209.734 329.558L210.533 329.989L210.736 329.966L210.825 329.912L210.923 329.994L211.123 331.239L211.279 331.899L211.195 332.168L211.09 332.376L211.083 333.383L210.72 333.959L210.662 334.593L210.561 334.797L210.175 334.979L210.172 335.466L210.067 336.053L210.028 336.676L210.135 338.31L210.156 339.524L210.331 339.754L209.578 339.653L207.365 338.724L205.661 338.192L199.951 335.15L198.366 333.928L196.535 332.109L192.469 328.442L191.542 327.855L190.372 327.569L189.65 327.255L189.14 326.916L188.725 325.9L187.707 325.294L185.831 324.433L184.419 323L184.766 322.705L185.274 321.762L185.987 320.856L186.651 320.318L187.178 319.763L187.737 319.34L188.534 318.844L189.757 317.54L190.041 317.388L190.237 316.485L190.544 315.335L190.899 314.977L191.73 314.764L191.924 314.565L192.217 313.753L192.408 312.81L192.425 312.604L192.751 312.58L193.313 312.376L193.639 312.468L193.781 312.739L193.855 312.969L195.554 312.379L195.703 312.257L195.792 312.278L196.006 312.809L196.127 312.777L196.23 312.625L196.344 312.608L196.477 312.681L196.609 312.927L196.826 313.151L197.194 313.308L197.427 313.521L197.402 314.09L197.49 314.642L197.651 314.768L197.735 315.098L197.777 315.459L197.865 315.648L197.928 316.013L197.896 316.407L197.963 316.681L198.233 317.156L198.401 317.752L198.404 318.178L198.303 318.623L198.124 319.03L197.809 319.473L197.784 319.648L197.97 319.763L198.254 319.789L198.492 319.695L199.093 319.901L199.408 320.191L199.685 320.554L199.934 320.736L200.046 320.963L200.473 320.902L200.969 320.682L201.071 320.577L201.218 320.633L201.537 320.657L201.761 320.261L201.94 319.807L202.325 319.313L202.514 319.124L202.563 318.81L202.584 318.403L202.723 318.05L203.04 317.855L203.383 317.858L203.569 317.93L203.665 318.272L203.94 318.532L204.173 318.71Z" fill="black"/>
<path d="M245.152 123.093L245.341 123.685L245.728 124.158L247.107 125.237L247.925 125.902L247.948 126.131L247.685 126.676L247.573 127.051L247.787 127.451L248.293 127.933L248.333 128.165L248.211 128.434L247.95 128.951L248.505 130.468L248.598 131.935L248.454 132.977L248.458 133.578L248.531 134.089L249.001 135.266L248.687 137.211L249.041 138.269L249.528 139.125L249.794 140.651L250.185 141.375L250.826 142.009L251.192 142.222L251.897 142.746L252.403 143.182L252.699 143.832L252.065 144.366L251.557 144.843L251.413 145.358L251.651 146.182V146.624L251.327 146.765L250.008 146.718L248.973 146.683L247.785 146.643L246.112 146.563L245.078 146.514L243.656 146.449L243.167 146.481L241.865 146.711L240.944 146.874L240.788 146.919L240.502 147.123L240.303 147.729L240.126 148.419L239.935 148.726L237.174 149.723L236.096 149.861L235.471 149.758L235.026 149.84L234.644 150.053L234.513 150.373L234.495 150.785L234.576 151.2L234.842 151.775L234.889 152.351L234.718 152.758L234.679 153.166L234.6 153.606L234.742 153.844L235.007 153.882L235.275 154.083L235.653 154.266L235.965 154.615L235.951 155.111L235.69 155.392L235.459 155.539L234.425 155.67L233.607 155.775L232.538 156.566L231.398 157.409L230.052 157.966L229.457 158.123L228.421 158.523L227.179 159.181L226.566 160.234L225.795 161.446L225.051 162.258L224.038 163.028L223.092 163.321L221.904 163.691L220.405 163.974L219.345 164.068L219.028 164.129L218.094 164.147L217.637 164.089L217.295 164.056L217.157 164.142L217.111 164.332L217.092 164.767L217.029 165.266L216.733 165.685L216.524 165.872L216.279 165.949L215.494 165.837L214.837 165.703L213.273 165.526L212.961 165.568L212.845 165.619L212.358 165.905L211.607 166.504L211.097 167.028L210.717 167.274L209.809 167.403L209.412 167.594L207.721 168.903L207.36 169.221L205.619 170.356L205.128 170.733L204.743 171.105L203.704 171.943L203.04 172.311L202.919 172.528L202.886 173.038V174.167V175.248V176.816V178.384V180.186H202.008H202.003L173.498 180.219L173.507 180.191L174.393 179.348L174.992 178.281L176.007 177.806L178.132 177.577L181.29 176.69L184.123 175.349L184.924 174.815L185.782 173.743L187.208 172.346L189.871 170.665L191.096 169.724L192.965 167.363L194.207 165.404L195.239 164.14L195.952 163.017L196.453 161.877L196.735 160.037L196.546 159.316L195.759 158.137L195.232 157.821L195.09 157.264L195.372 156.281L195.367 154.586L195.526 151.871L196.402 149.674L198.543 146.783L198.942 145.592L199.186 143.696L199.207 143.024L201.887 140.319L203.455 138.238L204 137.728L205.384 136.775L210.216 134.69L212.947 133.194L214.541 132.104L215.491 130.809L218.124 125.709L220.708 118.463L220.925 117.621L222.081 117.377L222.898 117.272L223.558 117.005L224.373 116.458L225.156 116.678L224.765 117.05V117.949L225.319 118.999L226.284 120.179L228.036 121.675L229.401 122.274L231.352 122.634L233.626 121.979L234.898 121.967L235.515 121.684L236.189 122.098L237.468 122.232L238.703 122.014L239.637 121.387L240.231 120.663L240.324 121.019L240.352 121.403L240.534 121.628L240.902 122.545L241.096 122.903L241.806 122.845L242.424 123.025L243.817 122.938L245.152 123.093Z" fill="black"/>
<path d="M287.311 240.852L287.316 242.06L287.32 243.878L287.327 245.903L287.332 247.766L287.339 249.886L287.346 251.588L287.351 253.598L287.358 255.595L287.15 255.824L287.073 256.945L287.015 258.42L286.617 259.946L285.92 261.069L285.669 262.136L285.477 262.747L285.216 263.079L285.156 263.477L285.018 264.039L284.797 264.402L284.625 264.589L283.923 264.809L282.688 265.883L282.581 266.742L281.174 266.506L279.678 266.262L279.478 266.279L279.352 266.391L279.291 266.845L277.255 266.92L275.498 266.986L273.322 267.061L271.826 267.112L269.929 267.215L268.17 267.311L267.001 268.299L265.945 269.24L265.861 269.272L264.365 269.457L262.499 269.293L261.539 269.284L261.162 269.396L261.089 269.75L259.715 269.253L258.126 268.75L257.017 269.066L256.84 268.959L256.695 268.748L256.159 268.626L255.309 268.68L254.694 268.83L253.729 269.574L253.002 270.222L252.804 270.37L251.788 270.763L249.901 271.676L248.829 272.348L248.582 272.469L248.107 272.621L247.375 272.652L246.765 272.82L246.215 274.585L245.849 274.76L243.598 274.049L243.144 274.154L242.752 274.363L241.497 275.397L240.874 276.226L240.534 277.326L240.583 277.665L240.593 278.049L240.371 278.257L240.068 278.332L239.796 278.321L238.752 278.094L238.426 278.192L238.284 278.735L238.305 279.919L238.076 280.724L237.456 280.972L236.976 281.291L236.599 281.382L236.284 281.305L234.469 280.102L233.857 279.91L233.176 280.043L232.524 280.553L232.228 280.888L231.82 281.284L231.361 281.81L231.482 282.255L231.806 282.772L232.037 283.413L232.025 283.987L230.369 284.801L230.504 285.08L230.753 285.407L230.755 286L230.709 287.036L230.373 287.411L229.94 287.781L229.672 288.256L229.409 288.49L228.938 288.782L228.293 289.077L227.174 289.335L226.279 289.508L225.942 289.677L225.466 290.023L225.086 290.44L224.996 290.889L225.073 291.404L225.205 291.825L225.371 292.113L225.471 292.476L225.336 293.452L225.012 294.582L224.7 295.085L224.199 295.362L223.765 295.671L223.908 296.41L223.982 297.47L223.861 298.318L223.84 298.84L223.656 299.383L223.549 299.764L223.332 299.67L222.433 299.715L221.454 300.005L221.112 300.237L221.037 300.553L220.82 300.766L220.508 301.004L220.207 301.297L219.667 301.25L219.145 301.049L218.872 300.855L218.856 300.738L219.026 300.452L219.173 300.141L219.187 299.935L219.01 299.429L218.865 298.886L218.924 298.627L218.796 297.826L218.726 297.786L218.041 297.992L217.791 298.044L217.649 298.133L217.603 298.285L217.768 298.793L217.661 298.879L217.276 298.868L216.74 298.699L216.156 298.233L216.009 298.385L215.946 298.755L215.906 299.193L216.055 299.989L215.899 300.272L215.508 300.22L214.981 300.223L214.522 300.3L214.217 300.319L214.028 300.602L213.947 300.92L214.131 301.271L214.103 301.421L213.961 301.557L213.781 301.639L213.632 301.629L213.208 301.238L212.7 301.093L211.519 300.869L211.377 300.335L211.181 300.326L210.909 300.045L210.638 299.673L210.41 299.691L210.219 299.797L209.571 299.755L208.996 300.319L208.569 301.021L208.113 301.358L207.609 301.505L207.416 301.51L207.521 301.067L207.448 300.742L207.306 300.454L205.841 299.684L205.612 299.366L205.382 298.491L205.235 297.615L205.251 297.103L205.351 296.642L205.31 296.286L205.149 296.014L204.708 295.752L204.252 295.631L203.669 295.972L203.39 296.038L203.129 296.015L202.994 295.888L203.012 295.713L203.646 294.774L203.953 294.383L204.324 294.084L204.573 293.925L204.734 293.695L204.748 293.513L204.69 293.382L204.277 293.209L203.634 292.771L203.292 292.724L203.005 292.525L202.702 291.839L202.56 291.708L202.257 291.638L201.978 291.469L201.992 290.578L202.003 289.808L201.379 288.567L201.137 287.785L200.822 286.98L200.533 286.603L200.027 286.287L199.405 286.067L198.853 286.016L198.429 286.091L198.231 286.189L198.24 286.339L198.585 286.847L198.648 287.13L198.59 287.404L198.473 287.586L198.168 287.607L197.632 287.764L196.973 288.073L196.512 288.337L196.141 289.007L195.885 289.091L195.449 289.007L194.207 288.513L193.184 288.106L192.478 287.872L192.054 288.021L191.838 288.094L191.229 288.366L190.421 289.356L190.228 289.683L190.067 289.789L189.848 289.962L189.638 289.966L189.47 289.85L189.417 289.777L189.002 289.063L188.548 288.277L188.175 287.921L187.706 287.905L187.308 288.15L186.891 288.656L186.367 289.124L186.034 289.264L185.742 289.187L185.027 288.597L184.517 288.176L184.454 287.965L184.633 287.642L184.81 287.16L185.004 286.769L185.19 286.589L185.237 286.091L184.803 285.737L184.789 285.566L184.834 285.098L185.027 284.108L185.008 283.731L185.183 282.994L184.899 282.662L184.834 282.416L184.514 282.023L184.149 281.466L184.065 281.019L183.937 280.663L183.585 280.127L183.328 280.043L182.779 279.961L182.688 280.146L182.485 280.412L182.299 280.49L181.998 280.162L181.884 279.881L181.886 279.626L181.478 279.179L180.845 278.36L180.91 277.683L181.301 277.318L181.418 277.042L181.453 276.733L181.276 276.359L181.066 276.064L181.124 275.411L181.073 274.503L180.751 274.049L180.46 273.716L180.052 273.358L179.705 272.806L179.845 272.048L179.978 271.526L179.363 270.442L180.514 270.87L180.665 270.73L181.057 270.468L181.586 269.915L182.028 269.183L182.229 268.277L182.317 267.495L182.515 266.833L182.767 266.271L183.317 265.686L183.834 265.272L184.449 264.841L184.761 264.919L185.346 265.52L186.63 266.725L187.69 267.643L188.077 268.13L188.419 268.134L188.946 267.245L189.491 266.48L189.722 266.292L190.44 266.208L191.05 266.175L191.584 266.189L192.562 266.337L193.01 266.472L193.429 266.554L194.659 266.622L195.878 266.435L197.036 266.194L197.893 266.051L197.937 265.689L197.889 265.26L198.026 264.935L198.296 264.633L198.525 264.565L198.622 265.595L198.895 265.749L199.659 265.794H200.901H202.234H203.567H204.902H206.235H207.567H208.902H210.235H211.57H212.903H214.236H215.568H216.904H218.236H219.571H220.904H222.239H223.621L223.994 263.807L224.334 261.983L224.618 260.453L223.64 259.371L222.861 258.51L222.68 256.867L222.496 255.17L222.309 253.471L222.12 251.77L221.936 250.066L221.75 248.36L221.564 246.651L221.377 244.94L221.191 243.227L221.004 241.509L220.818 239.791L220.632 238.071L220.445 236.346L220.261 234.619L220.075 232.889L219.886 231.155L219.702 229.42L219.515 227.681L219.329 225.94L219.143 224.196L218.956 222.448L218.77 220.7L218.583 218.944L218.397 217.189L218.211 215.429L218.027 213.667L217.84 211.9L217.654 210.13L217.467 208.356L217.281 206.58L217.095 204.801L216.908 203.017L216.722 201.229L216.547 199.589H218.556L220.697 199.586H222.782L225.841 199.584H228.132L230.129 200.96L231.939 202.259L234.08 203.797L236.221 205.332L238.365 206.865L240.506 208.394L242.648 209.92L244.787 211.446L246.93 212.964L249.071 214.486L251.213 216.002L253.354 217.517L255.495 219.029L257.636 220.538L259.778 222.046L261.919 223.55L264.06 225.053L266.201 226.556L267.159 227.225L267.248 227.501L267.336 228.065L267.28 228.7L267.29 229.217L267.571 229.566L268.105 229.94L270.2 231.045L270.365 231.262L270.44 231.719L270.689 232.278L271.132 232.606L271.649 232.847L272.28 233.015L274.179 233.189L274.582 233.448L275.403 234.467L275.848 234.668L277.113 234.961L278.028 235.124L278.406 235.218L279.235 235.49L280.137 235.953L280.615 236.372V236.503L280.61 236.868L280.603 237.961L280.769 238.563L280.957 238.998L280.948 239.263L280.72 239.45L280.543 239.682L280.445 239.986L280.186 240.372L279.979 240.803L280.067 241.126L280.424 241.336L280.957 241.746L281.4 241.919L281.617 241.931L281.906 241.919L282.155 241.865L283.753 241.552L285.235 241.259L287.311 240.852Z" fill="black"/>
<path d="M228.132 199.585H225.842L222.782 199.587H220.697H218.556H216.55L216.724 201.228L216.911 203.016L217.097 204.799L217.283 206.58L217.47 208.357L217.656 210.131L217.843 211.9L218.029 213.665L218.215 215.427L218.402 217.185L218.588 218.94L218.775 220.696L218.961 222.446L219.147 224.195L219.334 225.941L219.52 227.682L219.707 229.421L219.893 231.158L220.079 232.89L220.266 234.619L220.452 236.346L220.639 238.071L220.825 239.792L221.011 241.51L221.198 243.225L221.384 244.938L221.571 246.649L221.757 248.358L221.943 250.064L222.13 251.768L222.316 253.469L222.503 255.169L222.689 256.865L222.871 258.508L223.649 259.37L224.628 260.451L224.341 261.982L224.001 263.805L223.628 265.792H222.246H220.911H219.579H218.246H216.913H215.578H214.245H212.912H211.58H210.247H208.912H207.579H206.246H204.914H203.578H202.246H200.913H199.671L198.907 265.745L198.634 265.591L198.536 264.563L198.308 264.629L198.038 264.931L197.898 265.259L197.947 265.687L197.903 266.05L197.045 266.192L195.887 266.436L194.669 266.623L193.438 266.555L193.019 266.471L192.574 266.335L191.595 266.188L191.062 266.176L190.451 266.209L189.731 266.291L189.501 266.48L188.958 267.245L188.431 268.132L188.089 268.128L187.702 267.641L186.642 266.724L185.358 265.516L184.773 264.917L184.463 264.839L183.848 265.27L183.331 265.684L182.781 266.269L182.532 266.831L182.334 267.493L182.245 268.273L182.045 269.181L181.6 269.914L181.073 270.466L180.682 270.726L180.53 270.868L179.379 270.438L179.235 270.384L178.54 269.897L178.205 269.319L177.657 268.884L176.898 268.591L176.404 268.259L176.173 267.884L175.894 267.636L175.598 267.507L175.57 267.374L175.64 267.189L175.57 266.847L175.125 266.084L174.71 265.733L174.356 265.79L174.155 265.696L174.034 265.527L173.985 265.282L173.743 265.069L173.324 264.975L172.986 264.408L172.732 263.367L172.401 262.555L171.995 261.972L171.704 261.754L171.49 261.714L171.418 261.623L171.359 261.454L171.043 261.393L170.597 261.569L170.197 261.51L170.001 261.225L169.728 261.199L169.381 261.433L168.997 261.365L168.577 260.993L168.344 260.623L168.3 260.256L167.575 259.523L166.173 258.423L164.644 257.908L162.99 257.976L162.063 257.925L161.86 257.751L161.657 257.765L161.452 257.967L161.236 258.011L161.005 257.899L160.86 257.983L160.805 258.264L160.222 258.409L159.115 258.411L158.221 258.585L157.54 258.926L156.576 259.074L155.327 259.027L154.574 258.901L154.318 258.699L153.959 258.65L153.498 258.758L153.083 259.303L152.717 260.284L152.417 260.843L152.177 260.981L151.92 261.711L151.776 262.933L151.559 263.469L151.557 260.422L151.913 259.282L152.03 258.28L152.794 256.064L153.705 254.248L154.546 251.832L154.863 249.487L154.756 247.186L154.507 245.136L154.08 243.779L153.668 241.81L153.06 240.771L151.946 239.863L151.697 239.332L151.955 239.133L152.633 238.997L153.064 238.288L152.151 238.562L153.206 236.385L153.535 234.901L153.484 233.925L153.684 233.321L152.878 232.013L152.251 230.363L151.927 230.103L151.592 229.965L151.561 230.354L151.38 230.7L150.988 230.492L150.296 229.291L149.329 227.334L148.989 227.133L148.707 227.402L148.53 227.659L148.204 229.293L148.099 228.645L148.241 227.882L148.481 226.941L148.752 225.633H149.59L151.091 225.63L152.591 225.628H154.092L155.592 225.626L157.093 225.623L158.591 225.621H160.092L161.592 225.619L163.093 225.616H164.593L166.094 225.614L167.594 225.612H169.092L170.593 225.609L172.093 225.607H173.592H174.582L174.524 224.676L174.477 223.936L174.414 222.941L174.351 221.951L174.291 220.959L174.232 220.025L174.174 219.091L174.12 218.225L174.071 217.429L173.985 216.971L173.666 216.06L173.599 215.609L173.685 215.131L173.897 214.682L174.482 213.858L175.367 213.224L176.388 212.491L177.166 211.932L177.564 211.794L178.783 211.599L179.743 211.176L180.677 210.764L181.068 210.535L181.115 209.76V208.894V207.923V206.949V205.975V204.999V204.023V203.047V202.069V201.091V200.112V199.132V198.149V197.166V196.18V195.195V194.207V193.22V192.354H182.094H183.312H184.528H185.747H186.966H188.184H189.403H190.621H191.84H193.059H194.277H195.496H196.714H197.933H199.149H200.368H201.586H202.917V191.525V190.334L202.914 188.696V187.048L202.912 185.597V184.143L202.91 182.919L204.14 183.731L205.37 184.544L206.6 185.356L207.831 186.166L209.061 186.975L210.291 187.783L211.519 188.59L212.749 189.398L213.98 190.205L215.21 191.01L216.44 191.815L217.67 192.618L218.9 193.421L220.131 194.224L221.361 195.027L222.589 195.827L223.619 196.496L225.201 197.575L226.676 198.579L228.132 199.585ZM152.601 236.95L152.181 237.624L151.995 237.367L151.923 236.925L152.295 236.29L152.473 235.963L152.796 235.843L152.601 236.95Z" fill="black"/>
<path d="M357.616 213.88L358.334 217.971L358.879 221.47L358.917 223.694L358.942 224.274L359.166 224.665L359.674 225.058L361.724 228.26L361.286 228.815L361.594 229.805L362.125 230.229L363.83 232.129L364.052 232.503L363.959 232.803L362.763 235.034L362.561 235.579L362.323 238.413L362.155 240.41L361.922 243.143L361.647 246.408L361.426 249.154L361.132 252.777L360.855 256.194L359.14 258.066L356.097 261.38L353.62 264.072L352.379 265.872L349.953 269.38L348.877 271.646L348.033 272.828L347.607 273.331L347.984 274.988L348.641 277.881L347.467 277.899L346.794 278.105L345.943 278.763L344.992 279.023L343.837 279.596L343.105 280.055L342.418 280.418L341.472 281.305L341.164 281.979L340.223 282.112L338.907 282.002L338.07 281.321L336.132 280.612L334.873 280.324L334.291 280.238L331.329 280.116L328.17 280.395L326.56 280.725L326.266 280.798L325.353 281.226L324.596 281.701L322.548 283.875L319.836 283.803L318.242 283.562L316.888 283.222L314.961 282.206L312.601 280.655L311.69 280.444L310.872 280.322L310.6 280.343L307.78 281.888L307.237 281.855L306.573 282.028L306.135 282.412L305.811 282.604L305.474 282.637L305.029 282.553L304.595 282.316L304.162 281.886L302.999 280.165L302.759 279.863L302.263 279.353L301.429 278.557L300.863 278.188L300.518 278.092L300.108 278.155L297.843 277.472L295.58 276.748L295.082 276.842L294.728 276.992L293.945 277.526L293.022 277.624L291.85 277.582L291.207 277.509L290.173 277.687L289.483 277.9L288.579 278.263L287.407 279.248L287.071 279.375L286.787 279.539L286.396 282.235L286.076 283.045L285.482 284.114L284.315 285.135L283.513 285.752L283.495 286.586L283.432 287.948L283.42 288.882L283.474 289.49L283.339 289.78L283.285 290.045L283.327 290.44L283.518 290.63L283.63 290.878L283.555 291.079L283.178 291.318L282.761 290.709L282.225 290.281L281.638 290.089L281.239 289.778L281.034 289.347L280.263 288.505L278.488 286.836L278.306 286.796L278.01 286.731L277.509 286.929L277.201 287.203L276.985 287.311L276.659 287.327L275.815 287.538L275.139 287.809L275.121 288.034L275.445 289.296L275.291 289.979L274.99 289.654L274.016 288.38L273.343 287.437L273.224 287.226L273.129 286.901L273.194 286.761L273.462 286.663L274.079 286.539L274.193 286.44L274.224 286.181L274.128 285.696L273.79 285.041L273.429 284.605L273.229 284.521L272.858 284.507L272.458 284.566L271.705 285.097L271.372 285.196L270.594 285.151L269.902 285.048L269.48 284.774L268.226 283.716L266.84 282.6L266.258 282.441L266.122 282.327L266.032 281.468L266.055 280.433L266.132 280.162L266.71 280.323L267.325 280.398L267.523 280.211L267.029 279.843L266.323 279.471L266.059 278.907L265.857 278.711L265.54 278.509L265.174 278.406L264.808 278.247L264.557 278.083L264.144 278.008L263.711 277.889L263.084 276.974L262.474 276.082L262.115 275.38L261.987 274.959L262.168 274.24L261.987 273.957L261.306 273.227L260.738 272.548L260.878 271.497L260.994 270.62L260.999 270.065L261.09 269.751L261.162 269.398L261.539 269.286L262.499 269.295L264.366 269.459L265.861 269.274L265.945 269.241L267.001 268.3L268.17 267.313L269.93 267.217L271.826 267.114L273.322 267.062L275.498 266.987L277.255 266.922L279.291 266.847L279.352 266.393L279.478 266.28L279.678 266.264L281.174 266.508L282.581 266.744L282.689 265.885L283.923 264.811L284.625 264.591L284.797 264.403L285.019 264.041L285.156 263.479L285.217 263.081L285.478 262.749L285.669 262.138L285.92 261.071L286.617 259.947L287.015 258.421L287.074 256.947L287.151 255.826L287.358 255.596L287.351 253.6L287.346 251.589L287.339 249.888L287.332 247.767L287.328 245.904L287.321 243.88L287.316 242.061L287.311 240.854L288.74 240.566L290.214 240.266L292.372 239.828L294.709 239.356L297.256 238.838L297.834 238.527L299.756 236.774L300.625 235.981L302.349 234.408L303.679 233.189L305.371 231.639L307.163 230.078L308.591 228.828L310.837 227.412L314.223 225.275L317.608 223.131L320.996 220.983L324.381 218.83L327.767 216.674L331.152 214.511L334.54 212.344L337.926 210.172L341.332 211.001L344.568 211.785L347.823 212.574L348.59 213.007L350.317 214.549L352.528 216.52L352.623 216.548L352.723 216.557L354.848 215.396L357.616 213.88Z" fill="black"/>
<path d="M348.641 277.881L349.669 279.325L350.773 280.876L351.633 282.082L352.262 285.202L352.329 285.794L352.378 286.061L352.427 286.306L352.509 286.73L353.003 286.913L353.935 286.997L354.613 287.303L355.018 287.811L355.058 287.895L355.272 288.286L355.321 288.569L355.263 289.384L355.125 290.43L354.892 291.104L355.023 292.022L354.981 292.413L354.878 292.679L354.461 292.986L353.895 293.286L352.541 294.17L352.155 294.301L351.588 294.325L351.097 294.545L350.514 295.022L349.256 296.796L348.182 298.578L347.809 300.05L347.39 301.454L346.444 302.35L346.311 302.854L346.271 303.146L346.239 303.823L346.125 304.941L345.978 305.48L345.826 305.639L344.806 305.98L344.219 306.39L343.867 307.202L343.739 308.08L343.534 309.079L343.417 309.957L343.259 310.411L342.923 310.888L342.404 311.401L341.954 311.691L340.782 311.881L340.178 313.041L339.668 313.947L339.654 314.31L339.163 316.187L338.307 317.601L338.252 318.099L338.249 318.509L337.18 319.752L336.896 320.119L336.623 320.599L336.893 321.062L337.194 321.484L337.238 321.626L336.753 322.022L335.905 322.71L335.4 323.122L335.288 323.347L335.213 324.379L335.066 324.657L334.729 325.036L334.232 325.453L333.729 325.776L333.158 326.001L332.611 326.085L332.303 325.954L332.128 325.64L331.821 324.376L331.665 324.105L331.308 323.859L330.605 323.166L329.892 322.467L329.032 321.975L328.848 322.01L328.706 322.144L328.461 322.848L328.221 323.106L327.769 323.195L326.984 323.199L326.411 323.101L326.28 322.96L326.164 322.656L326.005 322.413L325.32 322.907L324.244 323.684L323.894 323.81L323.626 323.967L323.272 324.69L322.841 325.464L322.279 325.869L321.732 326.211L321.417 326.508L320.968 326.859L320.087 327.737L318.92 328.898L318.507 329.497L318.099 330.394L317.862 331.386L317.603 332.472L317.223 334.218L316.664 335.206L316.175 335.99L315.811 336.605L315.62 337.113L315.541 337.097L315.35 337.314L314.805 337.172L314.56 336.729L314.222 336.657L313.64 336.008L313.516 336.116L314.132 337.764L313.903 338.407L312.172 338.421L310.683 338.637L309.66 338.618L309.148 338.384L308.919 337.766L308.831 337.829L308.78 338.159L308.456 338.419L307.307 338.468L306.799 338.047L306.389 337.574L305.949 337.366L306.016 337.562L306.522 338.023L306.461 338.686L305.536 339.453L304.947 339.498L304.586 339.168L304.397 338.63L304.301 337.834L304.059 337.314H303.929L304.05 337.789L304.089 338.178L304.094 338.985L304.534 339.613L303.859 339.807L303.584 339.814L303.048 339.828L302.945 339.594L302.843 339.074L302.701 338.938L302.535 339.818L302.179 339.879L301.932 339.872L300.869 340.064L300.632 340.027L300.583 339.863L300.708 339.62L300.681 339.224L300.312 339.528L300.254 340.139L300.044 340.238L299.413 340.151L298.721 339.838L298.299 339.517L297.596 339.07L296.216 337.818L295.993 337.254L295.599 336.563L295.305 335.861L294.881 334.663L295.012 334.577L295.331 334.68L295.487 334.499L294.914 334.368L294.795 334.228L294.755 333.806L294.781 333.292L295.247 333.111L295.65 333.022L295.853 332.711L295.969 332.397L294.9 332.872L293.896 332.334L293.679 332.009L293.788 331.758L294.268 331.721L294.953 331.739L295.363 331.496L295.112 331.409L294.669 331.419L294.506 331.257L294.52 330.866L294.376 330.953L294.184 331.299L293.509 331.554L293.113 331.299L293.073 330.733L292.987 330.478L292.654 330.279L291.47 328.779L289.984 327.526L288.662 326.663L286.666 326.251L282.486 326.267L282.25 326.148L282.507 325.951L282.872 325.818L284.217 325.118L283.991 325.025L282.593 325.462L282.115 325.504L281.495 326.345L277.814 326.485L277.383 326.529L277.392 326.146L277.572 325.041L277.691 324.606L277.828 324.278L277.686 323.885L277.546 323.351L277.478 322.513L277.651 322.253L277.709 321.937L277.667 321.441V319.784L277.767 319.604L277.886 319.466L277.893 319.246L277.67 318.818L277.462 318.328L277.469 317.624L277.385 316.943L277.243 316.632L277.35 315.471L277.411 314.001L277.355 313.348L277.49 312.887L277.562 311.752L277.551 310.64L277.826 308.882L278.632 308.798L279.592 308.651L280.021 307.96L280.267 307.085L280.188 306.219L280.375 305.933L280.759 305.463L281.453 304.791L281.425 304.054L281.617 303.827L281.945 303.656L282.416 303.57L282.942 303.202L283.234 302.559L283.52 301.529L283.068 300.81L283.075 300.651L283.248 300.265L283.525 299.879L283.744 299.755L284.256 299.853L284.345 299.82L284.424 299.699L284.755 298.559L284.725 298.253L284.247 297.49L284.168 296.947L284.098 296.139L283.981 295.423L283.844 295.151L283.59 294.924L283.476 294.777L282.488 293.321L282.504 292.631L282.919 291.748L283.189 291.32L283.567 291.081L283.641 290.878L283.529 290.63L283.338 290.442L283.294 290.044L283.348 289.78L283.483 289.49L283.429 288.881L283.441 287.947L283.504 286.585L283.522 285.752L284.324 285.134L285.491 284.111L286.085 283.042L286.405 282.232L286.796 279.536L287.08 279.372L287.416 279.246L288.588 278.263L289.49 277.898L290.179 277.687L291.216 277.509L291.859 277.582L293.031 277.626L293.954 277.528L294.737 276.992L295.091 276.842L295.589 276.748L297.854 277.472L300.117 278.155L300.527 278.092L300.872 278.188L301.438 278.557L302.272 279.351L302.768 279.863L303.008 280.163L304.171 281.883L304.604 282.316L305.04 282.553L305.483 282.637L305.823 282.604L306.144 282.41L306.582 282.026L307.249 281.85L307.792 281.886L310.609 280.338L310.881 280.317L311.701 280.439L312.612 280.652L314.973 282.204L316.9 283.22L318.253 283.559L319.849 283.8L322.559 283.873L324.607 281.698L325.364 281.223L326.278 280.795L326.571 280.722L328.181 280.392L331.338 280.114L334.3 280.235L334.882 280.322L336.141 280.61L338.079 281.319L338.916 282L340.23 282.112L341.171 281.976L341.479 281.302L342.425 280.415L343.112 280.055L343.841 279.594L344.997 279.02L345.948 278.763L346.798 278.105L347.471 277.897L348.641 277.881ZM307.407 339.316L306.776 339.515L306.361 339.466L306.93 338.6L307.218 338.787L307.589 338.864L307.407 339.316Z" fill="black"/>
<path d="M192.425 312.604L192.408 312.808L192.219 313.753L191.926 314.563L191.733 314.762L190.901 314.975L190.547 315.331L190.241 316.482L190.046 317.386L189.759 317.538L188.538 318.841L187.739 319.335L187.182 319.761L186.653 320.314L185.989 320.852L185.276 321.76L184.768 322.703L184.421 322.996L184.16 322.729L182.946 321.8L181.665 321.175L178.936 320.136L178.028 319.843L178.06 319.473L178.372 318.797L177.864 318.003L178.06 317.425H177.864L177.473 317.772L176.641 317.671L176.089 317.175L175.639 316.992L175.444 316.744L175.155 315.436L174.947 314.841L174.53 314.474L173.694 314.382L173.349 313.584L172.885 312.964L172.962 312.583L173.34 312.603L173.636 312.882L174.113 312.997L174.707 312.325L175.239 311.96L175.362 311.641L175.297 311.466L174.975 311.737L174.095 311.667L173.875 311.91L173.482 311.988L173.176 311.204L173.19 310.74L173.316 310.232L174.204 310.143L174.281 309.98L173.663 309.87L172.892 309.278L172.752 308.868L173.135 308.73L173.5 308.791L173.817 308.88L174.162 308.733L174.484 308.508L174.677 308.22L174.938 307.45L175.772 307.193L176.264 306.72L176.732 305.987L176.946 305.472L177.14 305.215L177.261 304.993L177.352 304.749L177.562 304.524L177.781 303.979L177.93 303.483L178.41 303.244L179.393 303.033L180.278 303.394L181.714 303.08L181.79 302.615L183.105 302.608L184.661 302.598L185.956 302.591L186.402 302.715L186.562 303.062L186.989 303.604L187.434 303.981L187.986 304.807L188.629 305.769L189.323 306.638L189.768 307.108L189.82 307.272L189.787 307.459L189.566 307.899L189.377 308.377L189.396 308.557L189.528 308.646L190.255 308.794L190.321 309.325V310.06L190.672 310.745L191.008 311.249L190.992 311.429L190.171 312.288L189.852 313.142L189.689 313.383L189.624 313.575L189.787 313.666L190.013 313.61L190.33 313.68L190.633 313.706L191.034 313.4L191.702 312.615L191.926 312.519L192.425 312.604ZM177.757 319.515L177.662 319.686L177.226 319.263L174.973 318.628L175.609 318.291L177.172 318.191L177.638 318.387L177.846 318.551L177.923 318.862L177.757 319.515Z" fill="black"/>
<path d="M179.363 270.443L179.978 271.526L179.845 272.048L179.705 272.807L180.052 273.359L180.46 273.717L180.751 274.049L181.073 274.503L181.124 275.411L181.066 276.064L181.276 276.359L181.453 276.734L181.418 277.043L181.301 277.319L180.91 277.684L180.845 278.36L181.478 279.18L181.886 279.627L181.884 279.882L181.998 280.163L182.298 280.49L182.485 280.413L182.688 280.146L182.778 279.961L183.328 280.043L183.585 280.128L183.936 280.664L184.065 281.019L184.148 281.466L184.514 282.023L184.833 282.417L184.899 282.662L185.183 282.995L185.008 283.732L185.027 284.109L184.833 285.099L184.789 285.567L184.803 285.738L185.237 286.091L185.19 286.59L184.75 286.503L183.985 286.444L182.455 286.704L181.926 286.599L180.921 286.634L180.204 286.777L179.295 287.102L178.589 287.02L178.207 286.765L177.704 286.784L177.138 286.646L176.536 286.398L175.984 286.274L175.39 285.817L175.113 285.738L174.917 285.857L174.752 286.007L174.582 286.101L174.258 286.019L174.137 285.71L174.239 285.41L174.267 285.183L174.116 285.059L173.754 285.019H173.167L172.221 284.926L172.007 284.867L169.889 284.79L167.696 284.78L165.837 284.773L163.488 284.762L161.839 284.755L160.299 284.748L159.11 285.359L157.822 286.016L156.091 286.367L154.099 286.236L153.463 286.332L152.803 286.625L152.318 286.835L151.633 286.964L150.746 286.859L150.387 286.922L150.166 286.623L149.909 286.136L150.07 285.78L150.611 285.551L151.424 285.251L151.85 285.406L152.099 285.413L152.146 285.221L152.067 285.118L151.452 284.858L151.135 284.514L150.872 284.715L150.643 285.136L150.455 285.263L150.177 285.38L150.021 285.094L149.951 284.815L150.079 284.598L150.014 283.388L150.089 282.742L150.049 282.178L150.434 281.806L150.799 281.574L152.223 281.553L153.549 281.532L154.826 281.546L156.126 281.558L156.254 280.427L156.666 280.338L157.281 280.222L158.43 280.083L159.709 279.952L159.982 279.73L160.194 279.356L160.327 279.018L160.592 278.876L160.951 278.988L161.419 279.166L161.906 279.437L162.463 279.69L162.834 279.852L163.726 280.25L165.252 280.804L166.506 281.027L168.023 280.619L169.118 280.36L169.253 279.873L169.083 279.398L168.267 278.962L167.158 279.011L166.818 279.128L166.301 279.273L165.991 279.33L165.469 279.229L164.805 278.852L164.388 278.473L163.803 278.298L163.111 278.117L162 277.338L161.422 277.198L160.872 277.158L159.819 277.312L158.789 277.729L158.248 278.674L157.218 278.66L155.031 278.632L153.022 278.604L151.366 278.667L151.198 277.982L150.806 277.434L150.168 276.968L150.028 276.533L150.242 276.154L150.86 275.845L151 275.62L150.676 275.655L150.189 275.856L149.865 275.866L149.825 275.267L149.285 274.492L148.674 273.179L147.985 272.643L147.405 271.578L146.799 271.171L146.242 270.981L145.767 271.019L145.592 271.506L145 270.806L145.809 270.555L147.54 269.678L149.527 267.164L151.31 264.18L151.54 263.475L151.759 262.939L151.901 261.718L152.158 260.99L152.398 260.849L152.701 260.29L153.064 259.309L153.479 258.764L153.94 258.656L154.301 258.706L154.558 258.907L155.31 259.033L156.557 259.08L157.521 258.933L158.202 258.593L159.096 258.42L160.203 258.415L160.788 258.273L160.844 257.992L160.988 257.908L161.219 258.018L161.438 257.973L161.641 257.772L161.846 257.76L162.049 257.933L162.976 257.985L164.63 257.917L166.156 258.432L167.559 259.529L168.284 260.262L168.328 260.629L168.561 260.999L168.98 261.371L169.362 261.439L169.712 261.205L169.984 261.231L170.18 261.517L170.581 261.575L171.026 261.4L171.343 261.461L171.401 261.629L171.476 261.721L171.69 261.76L171.979 261.976L172.387 262.559L172.718 263.371L172.972 264.412L173.309 264.979L173.726 265.07L173.971 265.283L174.018 265.531L174.141 265.7L174.342 265.793L174.696 265.737L175.11 266.088L175.558 266.851L175.628 267.193L175.558 267.378L175.583 267.513L175.882 267.642L176.161 267.89L176.39 268.265L176.884 268.597L177.643 268.89L178.191 269.325L178.526 269.903L179.221 270.39L179.363 270.443Z" fill="black"/>
<path d="M265.556 295.996L265.388 296.712L265.041 297.597L264.817 297.878L264.659 300.026L264.768 300.204L264.848 300.258L265.933 300.984L267.357 301.936L268.364 302.608L268.447 302.835L268.464 304.244L268.475 305.454L268.683 306.145L268.727 306.816L268.981 307.322L269.908 308.298L270.13 308.873L270.155 310.718L270.172 312.115L270.29 314.018V315.605V317.608V319.958V322.404L269.678 322.434L270.013 323.195L270.069 323.883L270.148 324.108L269.983 324.44L270.12 324.948L270.386 325.135L271.066 326.156L271.292 327.019L270.202 327.307L270.276 327.53L268.238 327.988L267.432 328.367L267.415 328.002L267.119 327.937L266.758 327.813L266.532 327.623L266.22 327.19L266.108 326.851L265.633 326.797L265.046 326.418L264.486 325.982L264.291 325.547L264.347 325.348L264.258 325.14L264.067 325.062L263.564 324.079L263.249 323.684L263.105 323.365L263.156 323.12L263.086 322.787L263.184 322.518L263.457 322.359L263.54 322.162L263.566 321.748L263.718 320.896L263.818 320.058L263.531 319.829L263.182 319.763L263 319.522L262.93 319.129L262.937 318.787L263.624 317.594L263.482 314.841L263.585 314.422L263.899 314.132L264.165 313.797L264.153 313.463L263.697 312.641L262.827 312.009L262.382 311.499L262.142 311.04L262.103 310.795L262.629 310.434L262.862 310.186L262.893 309.898L262.678 309.376L262.716 308.442L262.918 307.743L263.126 306.837L263.105 306.572L262.594 306.029L262.317 305.957L262.094 305.994L261.56 306.35L261.367 306.387L261.245 306.285L261.192 306.142L261.381 305.929L261.311 305.664L261.469 305.433L261.807 305.327L261.907 305.21L261.45 305.101L261.397 304.942L261.429 304.79L261.562 304.759L261.704 304.768L261.784 304.658L261.856 303.888L261.909 303.619L261.968 303.086L262.038 301.021L262.142 300.808L262.159 300.654L261.837 300.553L261.08 299.999L260.637 299.573L260.25 299.137L259.927 298.849L259.291 298.407L259.104 298.124L259.076 297.843L259.27 297.277L259.577 296.675L259.729 295.812L259.635 295.582L259.218 295.182L260.707 295.489L262.832 296.006L262.876 296.097L262.89 296.251L263.259 296.247L263.871 296.064L265.556 295.996Z" fill="black"/>
</g>
<defs>
<filter id="filter0_d_284_2" x="-34" y="-34" width="625" height="574" filterUnits="userSpaceOnUse" color-interpolation-filters="sRGB">
<feFlood flood-opacity="0" result="BackgroundImageFix"/>
<feColorMatrix in="SourceAlpha" type="matrix" values="0 0 0 0 0 0 0 0 0 0 0 0 0 0 0 0 0 0 127 0" result="hardAlpha"/>
<feOffset/>
<feGaussianBlur stdDeviation="17"/>
<feColorMatrix type="matrix" values="0 0 0 0 0.67451 0 0 0 0 0.415686 0 0 0 0 1 0 0 0 1 0"/>
<feBlend mode="normal" in2="BackgroundImageFix" result="effect1_dropShadow_284_2"/>
<feBlend mode="normal" in="SourceGraphic" in2="effect1_dropShadow_284_2" result="shape"/>
</filter>
</defs>
</svg>
