<svg width="612" height="529" viewBox="0 0 612 529" fill="none" xmlns="http://www.w3.org/2000/svg">
<g clip-path="url(#clip0_284_2)" filter="url(#filter0_d_284_2)">
<path d="M509.029 350.517L508.982 350.536L508.891 350.515L508.873 350.4L508.989 350.379L509.029 350.517Z" fill="black"/>
<path d="M576.696 411.105L575.871 411.302L574.944 411.234L574.585 410.862L574.515 410.705L574.825 410.558L574.806 410.078L574.96 409.319L575.158 409.008L575.617 408.73L575.806 408.119L576.202 407.712L576.731 407.66L577.258 408.414L577.616 409.207L577.542 410.005L577.178 410.295L577.057 410.757L576.696 411.105Z" fill="black"/>
<path d="M564.574 417.078L563.649 417.286L563.005 417.211L561.731 416.617L561.391 416.221L560.883 415.11L560.995 414.719L561.395 414.031L562.304 413.759L563.259 413.86L563.688 414.047L564.194 414.852L564.846 415.671L564.737 416.645L564.574 417.078Z" fill="black"/>
<path d="M370.176 176.521L369.61 177.413L368.885 178.555L368.063 179.851L367.548 179.861L367.149 179.786L366.874 179.566L366.311 179.325L365.674 179.308L365.069 179.533L364.043 179.812L363.116 179.903L362.368 180.057L361.751 180.237L361.192 180.139L360.709 179.978L360.602 178.597L360.49 177.099L360.502 175.926L360.672 175.28L360.823 175.028L361.7 174.136L362.002 173.771L363.002 172.291L363.862 171.021L364.502 170.073L364.701 169.885L364.971 169.703L365.162 169.757L366.411 170.672L366.63 170.646L367.047 170.363L367.424 169.384L367.69 169.026L367.804 169.036L368.606 168.762L369.33 168.451L369.423 168.774L370.519 170.089L370.88 170.735L371.245 171.919L371.054 172.577L370.768 173.007L370.346 173.389L368.881 174.328L367.252 174.924L366.213 176.12L365.439 176.038L365.558 176.49L365.845 176.542L366.297 176.455L367.194 176.109L367.988 175.942L368.848 175.931L369.626 176.08L370.176 176.521Z" fill="black"/>
<path d="M311.011 36.5487L311.107 36.7804L311.321 37.4217L311.864 39.0507L312.339 40.3239L312.919 42.0839L313.101 42.758L313.178 43.2237L314.021 45.1523L314.522 46.7321L314.888 48.0147L315.405 49.8824L315.629 50.533L315.263 50.8724L314.532 52.0824L313.751 55.9138L312.635 58.8932L312.509 60.7539L312.33 61.4233L311.799 62.3642L311.155 63.284L310.011 62.8088L308.147 61.1892L307.062 59.6492L305.897 58.6522L304.797 57.3298L304.496 56.3772L304.508 55.764L304.028 54.2684L303.672 53.5593L302.329 51.9654L301.945 51.1135L301.651 50.7367L301.356 50.1983L300.869 48.1177L300.337 46.793L299.732 47.1604L299.839 47.7174L299.31 48.4875L298.991 49.3792L299.235 50.1071L300.333 51.2141L300.554 51.6986L300.81 52.7448L300.768 54.1655L300.945 54.6453L301.768 55.6985L302.062 56.3234L302.239 56.8617L302.511 57.3485L303.327 58.2613L304.499 59.9979L305.61 61.1682L306.414 61.7322L306.754 62.2963L306.831 63.7497L306.77 64.4425L307.476 65.7461L307.737 66.4038L308.418 66.9398L308.73 67.5507L309.017 68.5454L309.448 71.478L310.039 72.1965L311.868 76.0325L313.411 78.4503L314.157 80.2524L315.296 82.4384L317.526 87.2224L318.851 88.6922L319.38 89.5184L320.34 90.1526L321.379 91.0701L320.389 90.9809L320.138 91.035L319.79 91.1917L319.625 91.7487L319.553 92.2027L319.674 94.6017L319.947 95.8235L320.818 98.1288L321.468 98.8193L321.785 99.2663L322.228 99.5916L324.294 100.378L325.504 102.035L328.22 104.127L328.486 104.706L328.493 104.839L326.347 104.841H324.201H322.055H319.909H317.766L315.617 104.844H313.474H311.328H309.182H307.036H304.89H302.747L300.601 104.846H298.455H296.309H294.163H292.94L293.149 104.219L293.277 103.776L293.133 103.467L292.716 103.39L292.443 103.489L291.803 104.802L291.467 104.853H290.705H288.207H285.707H283.21L280.712 104.851H278.214H275.716H273.219H270.721L268.223 104.849H265.723H263.225H260.728H258.23H255.732L253.232 104.846H250.734V103.264V101.677V100.088V98.4989V96.9051V95.3089V93.7103V92.1094V90.5039V88.8983V87.288V85.6731V84.0582V82.4386V80.8166V79.1923V77.5634V75.932V74.2984V72.6624V71.0194V69.3764V67.7287V66.0786V64.4239V62.7669V61.1051V59.441V57.7723V56.1012V54.4254V52.7473L250.678 52.4336L250.315 51.2892L249.986 49.8334L249.627 48.0406L249.581 47.4578L248.98 45.6041L248.924 45.0775L249.075 44.7031L250.063 43.1373L250.361 42.3743L250.611 41.4591L250.695 40.7149L250.403 39.5727L250.063 38.5452L249.949 37.492L249.9 36.4552L250.406 35.746L251.011 35.0813L251.237 34.6741L251.596 34.2154L251.848 34L252.34 34.9315L253.365 35.0905L256.706 34.262L260.394 35.0976L262.428 35.4159L265.565 36.125L267.473 37.3889L267.997 37.5479L269.369 37.5221L270.269 38.2687L273.848 38.6268L275.758 39.4483L276.842 40.1036L277.492 40.305L278.067 40.2722L278.843 40.0265L279.824 39.5654L280.889 38.9241L283.1 37.2741L283.883 36.9838L284.393 37.0611L285.015 37.0376L285.274 36.5906L285.603 36.284L285.808 35.9353L286.143 35.514L287.294 35.3971L289.598 34.6762L289.34 35.0179L287.24 35.8254L288.14 35.926L289.06 35.6498L290.111 35.4743L290.302 35.1302L290.44 34.4866L290.64 34.3955L291.367 34.5171L293.527 35.5094L294.065 35.5281L295.587 34.9874L295.91 34.8729L296.404 35.1724L297.527 36.4059L297.136 36.38L295.934 35.3221L295.826 35.8511L295.141 36.7779L295.997 37.1781L296.693 37.3278L297.066 37.8451L297.301 38.3038L297.989 38.1024L298.48 37.4775L298.224 37.1288L298.052 36.7683L298.275 36.759L298.753 37.0563L300.121 38.2429L300.582 38.4886L301.113 38.4465L302.225 38.1141L302.535 38.1656L304.026 37.7279L304.2 38.0486L304.447 38.3669L305.65 38.0111L307.535 38.0158L309.079 37.6296L310.869 36.6888L311.011 36.5487Z" fill="black"/>
<path d="M369.331 168.451L368.604 168.762L367.802 169.036L367.688 169.027L367.422 169.385L367.042 170.363L366.625 170.649L366.406 170.675L365.16 169.76L364.966 169.708L364.696 169.888L364.5 170.075L363.92 169.38L363.496 168.767L362.904 168.035L362.329 167.705L361.711 167.29L361.106 166.328L360.488 165.268L359.573 164.4L357.86 163.148L356.287 161.561L355.085 159.901L354.309 159.035L353.978 158.815L352.375 158.272L351.257 157.512L350.395 156.885L349.866 156.716L349.353 156.695L348.26 156.819L347.352 156.426H346.97L346.361 156.311L345.884 156.171L345.322 156.339L344.171 156.62L343.698 156.559L343.442 156.168L343.291 155.869L342.89 155.557H342.559L342.375 155.836L341.173 156.54L339.162 156.931L338.684 156.903L338.328 156.62L337.312 155.41L337.021 155.213L336.79 155.195L336.319 155.052L335.879 154.82L335.492 154.324L335.103 154.041L334.686 155.012L333.954 156.707L333.563 157.615L333.057 158.783L332.899 158.818L332.64 158.734L331.636 157.278L331.005 156.73L330.534 156.782L330.191 157.051L329.975 157.538L329.739 157.837L329.485 157.954L328.938 157.896L328.097 157.664L327.228 157.713L326.333 158.045L326.214 158.055L326.004 156.117L325.865 154.82L325.715 153.446L325.576 152.147L326.198 151.349L326.487 150.591L327.228 148.124L327.524 147.633L328.106 146.31L328.188 145.926L328.763 144.255L328.709 143.144L328.593 142.02L328.908 141.353L329.187 140.819L329.169 140.37L329.294 139.319L329.385 139.057L329.728 139.041L330.434 139.177L330.953 139.071H331.552L332.013 139.038L332.286 138.718L332.661 137.491L332.903 137.246L333.092 137.171L333.621 136.944L334.073 136.586L334.441 136.33L334.579 136.279L334.968 136.246L335.357 136.096L335.536 135.923L336.028 135.785L336.51 135.862L336.834 135.71L337.051 135.612L337.296 135.605L337.522 135.462L337.612 135.244L337.759 135.104L338.134 134.786L338.307 134.554L338.384 134.32L338.461 134.135L338.626 133.822L339.283 133.035L339.849 132.579L341.825 136.539L342.627 138.875L343.335 141.306L343.859 144.95L344.358 146.804L345.164 147.717L345.716 149.442L346.189 149.508L346.532 149.98L347.119 151.598L347.54 152.199L347.762 151.682L347.736 151.385L347.571 150.886L347.722 150.245L348.051 149.861L348.801 150.385L349.211 150.781L349.321 151.574L349.493 152.014L350.276 152.946L350.938 153.217L351.795 153.285L352.513 153.489L353.088 153.831L354.167 154.776L356.634 155.605L358.617 158.142L359.785 159.897L363.622 162.554L364.286 163.824L364.631 165.07L365.437 165.011L366.821 166.371L367.224 167.403L368.357 167.777L368.55 167.167L369.097 167.667L369.331 168.451ZM349.451 145.713L349.67 146.369L349.032 146.118L348.927 145.982L349.206 145.723L349.267 145.564L349.451 145.713ZM349.873 148.335L350.143 148.695L350.332 148.66L350.481 148.541L350.586 148.286L351.618 148.789L351.56 149.123L350.942 149.14L350.232 148.997L349.572 149.046L348.787 148.901L348.605 148.332L349.106 148.606L349.365 148.538L349.411 148.466L349.057 148.082L348.559 148.005L348.594 147.703L348.817 147.583L348.955 147.436L348.668 147.022L349.23 147.115L349.584 147.366L349.817 147.658L349.873 148.335Z" fill="black"/>
<path d="M338.693 156.903L339.171 156.931L341.182 156.54L342.384 155.836L342.566 155.557H342.897L343.297 155.869L343.449 156.168L343.705 156.562L344.178 156.623L345.327 156.344L345.891 156.175L346.366 156.314L346.974 156.428H347.356L348.265 156.824L349.355 156.697L349.87 156.718L350.399 156.887L351.259 157.514L352.38 158.275L353.983 158.818L354.314 159.038L355.087 159.904L356.289 161.563L357.862 163.15L359.577 164.402L360.493 165.268L361.11 166.328L361.716 167.29L362.333 167.705L362.907 168.032L363.501 168.765L363.925 169.378L364.503 170.073L363.862 171.021L363.002 172.292L362.003 173.771L361.7 174.136L360.824 175.028L360.672 175.281L360.502 175.927L360.49 177.099L360.602 178.597L360.709 179.978L361.192 180.14L361.751 180.238L362.368 180.058L363.116 179.904L364.044 179.812L365.069 179.534L365.675 179.309L366.311 179.325L366.875 179.566L367.15 179.787L367.548 179.862L368.063 179.852L367.953 180.112L367.671 180.491L367.324 180.87L367.019 181.264L366.341 182.364L366.32 182.504L366.404 182.722L366.77 183.223L367.152 184.035L367.366 184.779L367.532 185.139L367.995 185.551L368.664 186.401L369.018 186.974L369.757 187.281L369.997 188.006L370.549 189.074L371.146 189.926L371.723 190.593L372.366 190.85L372.625 190.871L373.974 192.104L375.002 193.043L375.256 193.193L377.108 193.808L379.24 194.515L380.95 195.082L383.129 195.802L385.277 196.516L387.292 197.195L390.121 198.15L392.4 198.92L394.198 199.528L394.581 199.718H396.722H398.896H401.121L399.508 201.284L397.684 203.055L395.769 204.914L394.534 206.11L392.579 208.008L390.95 209.585L389.275 211.308L387.761 212.867L385.789 215.025L384.513 216.42L382.514 218.608L381.258 219.979L381.067 220.059L379.27 219.956L377.523 219.853L375.291 219.725L375.034 219.729L374.384 219.858L373.99 219.984L372.383 220.354L372.087 220.45L370.752 221.038L369.389 221.73L368.671 222.264L368.117 223.036L367.879 223.586L367.63 223.827L367.205 224.038L364.351 224.56L363.522 224.63L362.187 225.047L361.474 225.744L361.271 226.095L360.313 226.086L358.64 226.189L357.925 226.302L357.576 226.32L356.935 226.318L356.408 226.192L356.059 226.002L355.625 225.574L354.656 224.706L353.952 224.163L352.408 224.787L351.017 225.408L349.043 226.29L347.918 226.922L347.58 227.556L346.711 228.71L345.935 229.419L345.644 229.506L343.885 229.358L343.251 229.213L342.202 229.084L340.793 228.834L339.849 228.565L338.824 228.532L337.347 228.441L336.436 228.247L335.511 227.605L334.322 226.835L333.097 226.042L331.834 225.225L330.343 224.284L328.714 223.257L328.341 223.154L328.178 223.135L326.41 223.088L324.571 223.039L323.329 223.006L322.938 222.887L322.654 222.653L322.269 221.892L321.785 221.352L321.244 220.661L321.2 219.73L321.349 218.712L321.489 218.375L321.41 218.04L321.431 217.579L321.128 217.151L319.32 216.659L319.026 216.697L318.725 216.881L318.383 217.013L318.136 216.889L317.984 216.706L317.98 216.404L318.01 216.179L317.905 216.056L317.33 215.597L316.789 214.993L316.463 214.326L316.146 213.778L315.988 212.554L315.587 211.801L315.196 210.878L314.615 209.121L314.364 208.515L313.893 208.107L313.397 207.731L312.882 206.951L311.542 206.263L311.027 205.727L310.135 204.798L309.913 204.327L309.848 203.862L309.571 203.424L309.077 202.93L307.532 201.868L307.106 201.741L306.554 201.627L305.743 201.522L304.655 201.278L303.704 200.862L303.273 200.567L303.17 200.363L303.259 200.021L303.604 199.434L304.256 198.046L304.708 197.089L305.016 196.817L305.852 196.749L306.742 196.777L307.392 196.848L308.31 196.859L309.41 196.777L309.846 196.457L310.191 196.106L310.335 195.86L310.382 195.24L310.379 194.741L310.31 192.829L310.268 191.659L310.219 190.32L310.226 190.051L310.235 189.707L310.503 188.277L310.755 187.458L310.927 187.025L311.621 185.658L311.752 185.22L311.775 184.82L311.519 182.983L311.964 182.117L312.537 181.26L313.038 180.893L313.455 180.644L313.651 180.75L314.131 181.145L314.76 181.536L315.053 181.45L315.484 181.108L315.806 180.747L315.764 180.101L316.053 178.774L315.997 178.007L316.307 177.056L316.645 175.715L316.796 174.868L316.99 174.412L317.905 173.476L318.693 172.151L319.194 171.182L320.154 169.6L320.638 169.022L321.032 168.773L321.619 168.614L322.712 168.469L323.497 168.336L323.611 168.13L323.679 167.807L323.691 167.098L323.842 165.878L324.182 164.687L324.583 163.784L324.8 163.372L325.058 162.976L325.35 162.304L325.718 160.853L325.697 159.868L326.223 158.061L326.34 158.052L327.235 157.72L328.104 157.67L328.945 157.902L329.492 157.961L329.749 157.844L329.984 157.544L330.201 157.057L330.545 156.788L331.016 156.737L331.645 157.284L332.649 158.738L332.908 158.824L333.069 158.787L333.572 157.619L333.966 156.713L334.697 155.019L335.115 154.047L335.504 154.328L335.89 154.824L336.328 155.056L336.801 155.199L337.03 155.217L337.321 155.414L338.337 156.624L338.693 156.903Z" fill="black"/>
<path d="M366.984 365.182L366.944 365.192L366.877 365.178L366.763 365.068L366.854 365.028L367.005 365.117L366.984 365.182Z" fill="black"/>
<path d="M361.271 226.095L360.467 227.246L359.502 228.627L357.725 231.166L356.373 232.503L355.353 233.514L355.257 233.696L355.262 234.822L355.273 237.575L355.294 243.077L355.315 248.577L355.336 254.077L355.346 256.827L355.35 257.752L356.247 258.908L357.123 260.039L358.281 261.532L358.904 262.332L359.006 262.599L358.973 263.135L358.02 264.256L357.24 264.766L356.189 265.01L355.875 264.963L355.462 264.804L355.301 265.073L355.18 265.492L354.947 265.403L354.773 265.279L354.877 266.023L354.985 266.391L354.824 266.882L354.314 267.315L354.267 267.683L353.162 268.642L351.594 268.747L350.77 269.225L350.404 269.616L350.124 270.47L350.222 271.778L349.784 272.785L349.702 273.29L348.892 273.943L348.533 274.543L348.267 275.153L348.037 275.42L347.762 276.787L347.384 277.618L347.282 277.894L347.188 278.142L346.897 278.629L346.706 278.966L346.569 279.186L345.613 281.316L344.868 282.278L344.283 282.168L343.894 282.54L343.852 282.716L343.644 282.617L343.158 282.264L342.153 281.541L341.149 280.817L340.145 280.094L339.141 279.371L338.136 278.648L337.132 277.925L336.128 277.201L335.124 276.478L334.534 276.055L334.276 275.804L334.071 275.306L333.973 275.182L333.705 275.025L333.39 274.99L333.299 274.894L333.302 274.653L333.409 274.306L333.779 273.644L333.819 273.253L333.747 272.811L333.633 272.102L333.532 271.94L332.866 271.568L331.473 270.791L330.079 270.014L328.686 269.237L327.29 268.46L325.897 267.683L324.504 266.906L323.11 266.129L321.717 265.352L320.321 264.575L318.928 263.797L317.532 263.02L316.139 262.243L314.746 261.466L313.352 260.689L311.959 259.912L310.563 259.135L310.039 258.843L309.568 258.597H309.07L309.049 257.485L309.207 254.656L309.189 252.17L309.331 250.925L309.946 250.136L310.23 249.563L310.433 248.762L310.754 248.109L311.484 247.578L311.614 247.285L312.388 246.398L312.851 245.259L313.201 244.87L313.639 244.512L313.946 244.322L314.454 244.133L314.853 244.025L314.925 243.934L314.96 243.749L314.827 243.042L314.997 242.811L315.268 242.338L315.577 241.898L315.857 241.617L316.013 241.329L316.085 240.833L316.097 240.48L316.095 239.904L316.006 238.595L315.678 237.5L315.475 236.274L315.624 235.871L315.365 235.153L315.237 235.113L315.028 234.956L314.757 234.277L314.555 233.659L314.429 233.505L313.553 232.964L313.117 231.689L312.628 231.406L312.362 230.137L312.311 229.777L312.588 228.51L312.56 228.22L312.267 227.953L311.444 227.68L310.778 227.158L310.864 226.975L310.913 226.786L310.561 226.659L309.54 224.494L310.852 223.193L312.183 221.875L313.881 220.207L315.44 218.674L316.787 217.349L317.989 216.167L317.959 216.392L317.963 216.691L318.112 216.874L318.359 217L318.702 216.867L319.003 216.682L319.296 216.642L321.102 217.133L321.405 217.562L321.384 218.023L321.463 218.358L321.323 218.695L321.174 219.71L321.221 220.642L321.759 221.332L322.244 221.873L322.628 222.634L322.912 222.868L323.304 222.989L324.546 223.022L326.384 223.071L328.152 223.118L328.313 223.137L328.688 223.239L330.317 224.265L331.808 225.205L333.071 226.022L334.297 226.816L335.487 227.588L336.41 228.227L337.321 228.421L338.8 228.515L339.823 228.548L340.769 228.817L342.177 229.067L343.225 229.196L343.859 229.341L345.618 229.489L345.909 229.402L346.685 228.693L347.554 227.539L347.894 226.905L349.017 226.273L350.991 225.393L352.382 224.77L353.929 224.145L354.633 224.686L355.602 225.554L356.035 225.983L356.383 226.172L356.909 226.298L357.55 226.301L357.899 226.282L358.615 226.17L360.288 226.067L361.271 226.095ZM355.453 266.154L355.211 266.211L355.336 265.836L356.054 265.356L356.345 265.464L356.401 265.571L356.385 265.672L356.264 265.771L355.453 266.154Z" fill="black"/>
<path d="M300.347 231.728L300.541 231.852L300.689 232.021L300.761 232.255V232.314L300.647 232.311L300.509 232.239L300.41 232.14L300.36 232.114L300.339 232.093L300.457 232.107L300.592 232.206L300.693 232.25V232.136L300.571 231.936L300.499 231.868L300.406 231.809L300.301 231.77L300.229 231.805L300.189 231.821L300.168 231.774L300.189 231.732L300.227 231.69L300.353 231.727L300.347 231.728ZM303.975 234.144L303.947 234.193L303.905 234.151L303.935 234.074L303.96 234.008L304 234.043L303.975 234.144ZM303.097 242.837L303.04 242.868L302.972 242.858L302.928 242.814V242.744L302.983 242.694L303.061 242.711L303.105 242.774V242.837L303.097 242.837ZM297.285 243.149L297.323 243.193L297.409 243.182L297.485 243.175L297.439 243.219L297.283 243.238L297.207 243.126L297.302 243.039L297.386 243.025V243.049V243.075H297.346L297.283 243.096V243.15L297.285 243.149ZM283.673 244.224L283.743 244.311V244.353L283.709 244.346L283.608 244.321L283.574 244.269L283.648 244.304L283.68 244.297L283.612 244.22L283.553 244.164L283.509 244.14V244.112L283.564 244.126L283.673 244.224ZM-1758.59 188L-1758.11 188.553L-1758.2 188.832L-1758.55 188.806L-1758.7 188.707L-1758.44 188.658L-1758.39 188.555L-1758.51 188.394L-1758.68 188.281H-1758.79L-1758.82 188.504L-1759 188.33L-1758.89 188.157L-1758.76 188.042L-1758.59 188ZM209.538 193.2L209.162 193.418L209.048 193.382L209.494 193.073L209.491 193.111L209.538 193.2ZM208.795 193.708L208.356 193.961L208.238 193.825L208.396 193.821L208.692 193.577L209.048 193.558L209.006 193.694L208.795 193.708ZM-1746.76 201.528L-1745.77 202.285L-1746.19 202.338L-1747.22 201.973L-1748.16 201.225L-1747.88 201.064L-1747.75 201.333L-1747.32 201.584L-1747.06 201.057L-1746.9 200.937L-1747.65 200.394L-1747.35 200.422L-1746.64 200.792L-1746.76 201.528ZM209.827 201.591L209.857 201.741L209.519 201.331L209.318 201.066L209.331 200.951L209.422 201.024L209.534 201.153L209.608 201.256L209.827 201.591ZM209.892 202.43L209.677 202.458L209.838 202.364L209.882 202.235L209.857 201.83L209.941 201.863L209.971 202.029L209.985 202.273L209.892 202.43ZM209.943 204.883L209.785 204.907L209.888 204.773L210.566 204.626L210.625 204.584L210.734 204.665L210.732 204.743L210.684 204.783L210.348 204.785L210.084 204.855L209.943 204.883ZM209.909 207.032L210.228 207.29L210.186 207.468L210.078 207.672L209.662 208.192L209.536 208.143L209.941 207.672L210.097 207.36L209.865 207.121L209.772 207.173H209.734L209.654 206.951H209.734L209.909 207.032ZM218.652 218.889L218.46 219.067L218.386 218.906L218.481 218.706L218.321 217.879L218.055 217.767L217.897 217.518H217.973L218.239 217.746L218.452 217.849L218.576 218.393L218.652 218.889ZM189.291 219.358L189.237 219.372L189.125 219.304L189.14 219.22L189.218 219.182L189.317 219.245L189.291 219.358ZM220.218 221.568L220.254 221.905L220.119 221.86L220.075 221.729L220.03 221.389L219.889 221.057L220.049 221.146L220.182 221.406L220.218 221.568ZM-1732.63 240.377L-1732.65 240.417L-1732.72 240.365L-1732.86 240.269L-1732.98 240.164L-1732.98 240.119L-1732.81 240.056L-1732.6 240.007L-1732.55 240.075L-1732.59 240.171L-1732.63 240.377ZM-1738 250.465L-1738.14 250.5H-1738.3L-1738.38 250.413L-1738.39 250.343H-1738.33L-1738.28 250.354L-1738.05 250.366L-1737.99 250.418L-1738 250.465ZM-1713.83 288.894L-1713.88 289L-1713.97 288.962L-1714.03 288.829L-1714.05 288.684L-1714.01 288.567L-1713.95 288.571L-1713.88 288.717L-1713.83 288.894Z" fill="black"/>
<path d="M371.614 330.29L371.49 330.379L370.894 329.998L370.554 329.909L370.053 329.293L370.246 327.164L370.407 326.89L370.528 326.78L370.805 326.74L371.143 327.007L371.055 328.376L371.5 329.298L371.786 330.031L371.614 330.29ZM378.222 331.493L378.55 332.416L378.548 333.111L378.408 333.331L378.115 333.186L377.574 332.633L376.546 332.095L377.019 332.05L377.294 332.104L377.586 332.055L377.767 331.751L377.805 331.571L378.061 331.426L378.222 331.493ZM373.725 332.998L374.184 333.408L372.907 333.239L372.707 332.869L372.697 332.598L373.175 332.657L373.725 332.998Z" fill="black"/>
<path d="M411.324 333.834L411.625 334.534L411.974 335.205L413.067 336.83L413.535 337.455L413.934 338.119L414.127 339.446L414.824 341.511L415.478 344.619L415.679 347.814L415.881 349.281L416.392 350.664L417.228 352.101L417.498 353.7L416.986 355.35L416.247 356.906L416.056 357.199L415.709 357.599L415.553 357.583L414.961 357.18L414.476 356.523L413.864 354.975L413.64 354.191L413.384 354.068L412.666 354.136L412.146 354.622L412.051 354.929L412.163 355.802L412.361 356.586L412.447 357.384L412.463 358.388L412.657 358.692L412.941 358.948L413.237 359.605L413.288 361.173L413.106 361.967L412.601 362.65L412.631 363.027L412.82 363.416L412.64 363.65L411.967 363.944L411.694 364.207L411.331 364.902L410.741 366.32L410.662 367.046L411.03 369.255L410.928 370.823L410.178 373.831L409.744 375.261L409.131 376.972L408.195 379.23L407.267 382.074L406.48 385.006L405.897 386.773L405.236 388.517L404.329 391.604L403.56 394.747L402.416 398.216L400.837 402.099L400.667 402.607L400.338 404.599L399.984 406.331L399.56 408.048L398.674 410.894L398.574 411.772L398.374 412.617L397.521 414.41L397.16 415.077L396.906 415.786L396.762 416.687L396.508 417.558L395.883 419.161L394.953 420.542L394.32 421.045L392.95 421.775L392.255 421.923L390.715 421.939L389.224 422.356L387.67 423.156L386.174 424.076L385.601 424.513L384.97 424.764L382.994 424.816L382.402 424.617L380.424 423.105L379.657 422.856L378.206 422.65L377.768 422.522L377.369 422.325L376.782 421.536L375.617 420.872L375.337 420.663L375.16 420.205L375.039 419.711L374.736 419.158L374.513 418.108L374.133 417.375L373.061 416.081L372.947 415.666L372.861 414.295L372.896 413.368L372.791 411.674L372.914 410.878L373.292 410.162L373.138 409.387L372.737 408.572L372.588 407.732L372.294 406.967L371.171 405.591L370.908 404.914L370.726 404.214L370.302 402.036L370.251 401.277L370.314 399.676L370.47 398.852L370.743 398.279L370.81 397.851L370.987 397.483L371.253 397.191L371.432 396.842L371.852 394.806L372.383 394.354L373.17 394.094L373.802 393.563L374.165 392.847L374.529 391.37L375.521 389.907L375.876 389.139L376.677 387.979L377.385 386.35L377.6 385.582L377.754 384.798L377.933 383.078L378.068 382.223L378.04 381.376L377.635 380.508L376.668 378.933L376.637 378.64L376.714 377.47L376.633 376.625L376.276 375.782L375.82 374.991L375.37 373.512L375.151 371.071L375.198 370.191L375.065 369.409L374.739 368.665L374.972 367.366L377.863 362.662L377.959 362.109L377.842 360.679L377.903 359.848L378.003 359.539L378.224 359.359L378.718 359.273L381.055 359.069L381.356 358.924L381.938 358.531L382.74 357.768L383.108 357.548L383.425 357.63L383.627 357.955L383.888 358.133L384.832 357.789L385.193 357.78L385.564 357.836L385.736 357.517L385.839 357.091L385.976 356.792L386.228 356.621L387.442 356.527L388.218 356.406L389.219 356.108L389.434 356.167L390.242 357.239L390.487 357.33L390.801 357.375L391.076 357.181L390.419 356.621L390.321 356.305L390.356 355.945L390.708 355.175L391.295 354.587L392.6 353.696L393.956 352.666L394.35 352.595L394.683 352.757L394.94 353.974L394.907 354.173L395.124 354.201L395.375 354.051L395.599 353.562L395.611 353.155L395.429 352.764L395.34 352.434L395.333 352.13L396.021 351.411L396.561 350.728L396.811 349.911L397.027 349.534L397.598 349.111L397.766 349.176L397.899 349.52L397.973 349.885L397.826 350.248L397.619 350.606L397.535 351.084L397.857 351.177L398.16 351.063L398.602 350.199L399.108 349.382L399.408 348.956L399.788 348.661L400.42 348.72L401.032 348.903L400.033 348.041L399.784 346.862L400.972 344.823L400.984 344.4L401.156 344.269L401.237 344.105L400.622 343.419L400.506 343.077L400.587 342.56L400.881 342.101L401.149 341.781L401.529 341.657L401.829 341.832L402.491 342.396L402.936 342.483L403.474 341.942L403.915 341.266L404.576 340.802L405.329 340.515L406.473 339.45L407.219 337.226L407.277 336.578L407.111 335.794L406.848 335.047L406.408 334.116L406.522 333.91L407.149 334.034L407.358 333.903L408.039 333.079L409.159 331.501L409.528 331.504L409.844 331.796L409.963 332.229L410.187 332.547L410.944 333.296L411.324 333.834ZM403.5 340.074L403.509 340.317L402.649 340.216L402.514 339.376L402.936 339.35L403.029 339.006L403.286 338.964L403.563 339.711L403.5 340.074ZM413.927 364.01L413.193 365.264L413.4 364.218L414.25 362.711L414.493 362.596L413.927 364.01Z" fill="black"/>
<path d="M315.99 328.135L315.121 328.119L314.028 328.205L313.76 328.416L313.679 328.881L313.336 329.841L313.145 330.194L312.742 330.84L312.174 331.751L312.055 332.048L312.073 332.355L312.409 333.593L312.761 334.894L312.873 335.404L313.122 337.136L313.262 338.363L313.283 339.084L313.402 340.048L313.714 340.57L314.042 340.897L315.277 341.094L315.645 341.335L316.344 341.951L317.873 343.654L318.712 344.743L319.45 345.7L320.769 347.481L321.794 348.867L321.922 350.168L322.092 350.357L321.748 351.324L321.522 352.885L321.685 353.922L321.617 355.694L321.428 357.583L321.193 358.259L320.89 358.514L320.173 358.718L318.597 358.954L318.362 359.177L318.159 359.544L317.84 360.417L317.465 361.297L317.346 361.674L317.418 361.763L317.756 362.212L318.092 363.361L318.152 365.334L318.036 365.482L317.57 365.568L317.069 365.542L316.862 365.43L316.675 365.21L316.54 364.789L316.869 364.496L316.985 363.981L316.775 363.541L316.354 363.443L315.818 363.038L314.676 361.72L313.721 360.796L313.166 360.03L312.6 359.726L312.437 359.539L312.299 359.216L312.297 358.75L312.348 358.408L312.171 358.022L311.598 357.428L311.337 357.098L311.323 356.705L311.566 356.325L312.055 355.862L312.425 354.923L312.558 354.317L313.25 353.098L313.346 352.04L313.36 351.195L313.318 350.563L313.141 349.269L313.017 348.375L312.164 347.205L311.887 347.095L311.079 347.198L310.38 347.368L310.037 347.612L309.517 347.624L308.154 347.827L307.726 347.914L307.479 348.124L307.334 348.169L306.477 347.265L305.724 346.289L304.767 344.632L304.494 344.433L304.145 343.946L303.853 344.068L303.453 344.41L303.236 344.504L303.124 344.494L303.052 344.408L302.963 344.19L302.653 343.565L302.306 343.118L301.938 342.945L301.637 342.739L301.77 342.54L301.91 342.397L301.849 342.25L301.682 342.035L301.029 341.723L301.02 341.59L301.596 341.321L301.959 341L302.206 340.693L302.518 340.022L302.772 339.352L302.963 339.135L303.028 338.692L302.984 338.194L303.112 337.557L303.173 336.956L302.98 336.722L302.816 336.317L303.01 335.629L303.313 335.154L304.764 334.66L305.776 334.213L305.99 334.018L306.332 333.637L306.523 333.265L306.386 333.155L305.591 333.146L305.396 333.003L304.823 331.695L305.139 330.197L305.167 329.609L305.16 328.879L305.06 328.348L304.809 328.125L304.655 327.84L304.697 327.06L304.93 326.967L305.433 325.937L305.657 325.331L305.389 324.846L305.093 324.156L304.958 323.716L304.883 323.571L305.088 323.299L305.428 323.037L305.81 322.965L306.214 322.841L307.483 321.563L307.5 321.315L307.269 320.886L306.794 320.24L306.689 319.978L306.633 319.201L306.444 318.97L305.748 318.448L305.212 317.898L305.379 317.341L305.47 316.732L305.205 316.397L304.811 316.051L304.566 315.545L304.454 315.169L304.145 315.019L303.858 315.014L303.648 315.248L303.422 315.227L303.147 315.145L303.056 314.82L303.04 314.469L302.851 314.23L302.67 313.898L302.646 313.722L302.761 313.671L303 313.64L304.023 314.307L304.643 314.338L305.333 314.462L305.922 315.049L306.228 315.126L306.617 315.044L307.73 314.983L308.178 315.068L308.753 315.412L308.979 315.459L309.34 315.472L309.403 315.379L309.441 315.175L309.378 314.763L309.459 314.541L309.678 314.3L310.286 314.581L311.806 315.863L311.852 316.029L312.821 317.303L313.136 317.841V318.127L313.434 319.241L313.499 319.762L313.432 320.16L313.444 320.479L313.56 320.933L313.52 321.125L313.865 321.792L314.031 322.353L314.066 322.901L313.968 323.437L313.663 324.216L313.611 324.53L313.679 324.816L313.877 325.127L314.205 325.461L314.452 325.864L314.62 326.339L314.762 326.555L314.939 326.55L315.266 326.623L315.527 326.901L315.829 327.367L315.93 327.903L315.99 328.135ZM313.912 331.042L313.781 331.395L313.511 331.39L313.257 331.077L313.339 330.833L313.583 330.758L313.798 330.85L313.912 331.042ZM314.42 331.688L314.189 331.741L314.045 331.622L314.08 331.266L314.161 331.009L314.389 330.969L314.548 331.037L314.657 331.154L314.66 331.344L314.592 331.538L314.42 331.688Z" fill="black"/>
<path d="M302.432 434.123L301.714 434.135L300.486 434.17L299.759 434.191L298.946 434.212L297.94 434.006L297.374 434.05L297.327 431.712L297.143 431.2L296.949 430.451L296.903 429.971L297.024 429.489L297.082 428.726L297.029 428.056L296.428 427.722L296.295 427.616L296.164 427.092L296.113 426.282L296.535 425.255L296.5 423.282L296.549 422.589L296.542 421.22L296.532 419.565L296.525 418.084L296.542 416.808L296.416 416.204L296.311 415.872L296.031 415.198L295.705 413.796L295.321 412.738L294.827 412.041L294.671 411.673L294.512 411.184L294.044 410.318L293.662 409.815L293.557 409.412L293.571 408.371L293.145 406.505L292.835 405.148L292.369 403.678L292.056 402.697L292.01 402.529L291.975 402.157L292.902 401.429L293.83 400.404L294.915 399.205L295.885 398.136L296.737 397.197L297.905 395.915L299.058 394.648L299.328 394.487L299.443 394.384L298.944 393.261L299.745 391.957L299.79 391.11L299.755 390.3L299.853 389.928L300.095 389.602L301.032 388.926L301.74 387.849L302.32 386.843L303.126 385.228L303.205 384.847L303.217 384.456L302.998 383.906L302.462 383.023L302.073 382.26L301.726 381.088L302.075 380.07L302.199 379.454V379.122L302.045 378.808L301.654 378.569L301.327 378.415L301.218 377.994L301.216 377.495L301.362 377.219L302.229 376.772L302.425 376.529L302.527 376.257L302.537 375.871L302.805 374.904L303.136 373.987L303.159 373.664L303.042 373.381L302.952 372.863L302.893 372.084L302.889 369.905L303.059 367.66L302.984 366.39L302.43 364.929L302.376 363.876L302.779 363.141L302.844 362.708L302.551 362.652L301.945 362.607L301.498 362.471L300.806 361.87L299.603 361.369L298.238 360.913L296.253 360.777L294.603 359.317L293.31 359.082L292.893 358.895L291.651 358.02L289.706 357.938L287.688 357.852L286.43 357.826L286.243 357.709L286.171 356.504L286.157 355.434L286.05 354.505L285.859 353.447L285.565 353.035L285.216 352.321L285.039 351.535L285.018 351.153L285.083 351.017L286.483 350.458L287.082 350.182L287.97 349.861L289.549 349.419L290.959 349.023L292.252 348.64L293.622 348.232L294.179 347.958L294.871 347.685L296.528 347.135L297.001 346.945L297.951 346.638L298.429 346.519L300.263 345.89L302.364 345.169L303.101 344.916L304.506 344.434L304.778 344.633L305.736 346.29L306.488 347.266L307.346 348.169L307.49 348.125L307.737 347.914L308.166 347.828L309.529 347.624L310.049 347.612L310.391 347.369L311.09 347.198L311.899 347.095L312.176 347.205L313.029 348.375L313.152 349.269L313.329 350.564L313.371 351.196L313.357 352.041L313.262 353.098L312.57 354.318L312.437 354.924L312.066 355.863L311.577 356.326L311.335 356.705L311.349 357.098L311.61 357.428L312.183 358.023L312.36 358.409L312.309 358.751L312.311 359.216L312.449 359.539L312.612 359.727L313.178 360.031L313.732 360.796L314.688 361.721L315.829 363.038L316.365 363.443L316.787 363.542L316.997 363.982L316.88 364.497L316.552 364.789L316.687 365.211L316.873 365.431L317.081 365.543L317.582 365.569L318.048 365.482L318.164 365.335L318.103 363.362L317.768 362.213L317.43 361.763L317.358 361.674L317.477 361.298L317.852 360.418L318.171 359.545L318.374 359.177L318.609 358.955L320.184 358.718L320.902 358.515L321.205 358.26L321.44 357.583L321.629 355.694L321.696 353.923L321.533 352.886L321.759 351.325L322.104 350.358L321.934 350.169L321.806 348.867L320.781 347.482L319.462 345.701L318.723 344.743L317.884 343.655L316.356 341.951L315.657 341.336L315.289 341.094L314.054 340.898L313.725 340.57L313.413 340.048L313.294 339.084L313.273 338.363L313.134 337.137L312.884 335.405L312.772 334.895L312.421 333.593L312.085 332.355L312.066 332.049L312.185 331.751L312.754 330.841L313.157 330.195L313.348 329.842L313.69 328.882L313.772 328.416L314.04 328.205L315.133 328.119L316.002 328.135L317.46 328.114L319 328.171L319.217 328.213L319.564 328.314L319.956 328.297L320.391 328.161L320.874 327.829L321.403 327.3L322.227 327.312L323.344 327.862L323.954 328.342L324.057 328.751L324.804 328.99L326.198 329.056L327.211 328.843L327.847 328.351L328.514 328.091L329.208 328.061L329.732 328.229L330.089 328.594L330.772 328.857L331.783 329.016L332.887 328.779L334.085 328.15L334.767 327.492L334.935 326.809L335.133 326.392L335.362 326.245L335.995 326.16L337.037 326.137L337.943 326.352L339.099 327.033L339.828 326.581L341.079 325.807L342.34 325.397L343.54 325.395L344.525 325.1L345.294 324.515L346.108 324.143L346.965 323.986L347.766 323.703L348.887 323.094L350.05 322.21L351.234 321.306L351.993 320.726L352.34 321.409L352.962 322.034L352.592 322.397L352.145 322.722L352.867 323.157L352.338 323.815L352.273 324.272L352.408 324.452L352.524 324.719L352.177 325.472L351.716 326.05L351.597 326.493L352.005 327.272L351.795 328.658L352.189 329.905L352.298 330.544L352.436 330.972L352.24 331.738L352.291 333.03L352.382 333.563L352.147 334.228L352.548 334.457L352.76 335.187L352.704 336.009L352.58 336.451L351.891 336.987L351.809 337.196L351.818 337.512L352.68 337.521L352.711 338.01L352.655 338.396L352.687 339.122L352.573 339.592L352.774 340.131L352.529 340.727L352.613 341.189L352.625 341.785L352.825 343.295L352.86 345.163L352.904 345.462L353.212 345.673L353.643 345.778L353.626 346.291L353.146 346.96L353.118 347.377L353.188 347.962L353.715 347.166L354.032 347.168L354.314 347.48L354.274 347.938L354.372 348.165L354.33 348.61L354.486 349.174L354.426 349.666L354.039 350.01L353.547 350.6L353.459 351.152L353.505 351.515L353.165 351.629L353.007 351.854L353.237 352.376L353.223 352.837L352.622 354.274L351.019 356.242L350.327 356.942L349.679 357.703V358.016L349.617 358.288L348.862 359.376L348.051 359.554L347.601 359.847L347.953 360.806L347.429 361.029L346.518 361.785L344.013 363.238L343.617 363.575L342.981 364.467L342.142 364.682L341.676 364.935L340.844 365.026L340.553 364.963L340.269 364.995L340.029 365.187L338.377 365.815L336.834 366.311L336.454 366.538L336.203 366.847L334.837 367.338L332.698 368.553L330.949 369.714L329.681 370.875L329.346 371.05L328.954 371.453L328.821 372.047L328.693 372.384L327.754 373.611L326.342 375.062L326.067 375.457L325.506 376.265L325.452 376.794L324.951 376.955L324.532 376.45L324.352 377.426L324.01 377.496L323.63 377.294L322.682 377.779L321.857 378.338L320.534 379.516L318.663 381.8L315.934 384.009L315.561 384.073L315.31 384.063L314.45 383.293L313.982 383.237L314.401 383.693L314.678 384.075L314.608 384.821L314.641 385.943L314.303 388.126L314.35 388.604L314.739 389.224L315.473 389.982L316.16 390.928L317.046 393.647L317.113 395.052L318.027 396.847L318.061 397.626L318.432 399.566L318.406 401.139L318.341 402.104L318.781 402.511L318.945 402.143L318.898 401.532L319.014 400.554L319.259 400.119L319.504 400.18L319.576 400.641L319.741 401.05L319.809 401.434L319.821 401.956L319.483 403.943L319.583 404.753L320.037 406.108L319.506 407.683L318.737 411.405L318.693 412.051L318.879 412.332L319.292 412.427L319.443 411.95L319.686 411.955L319.814 412.236L319.471 413.958L319.133 414.714L317.933 416.57L317.288 417.366L316.216 418.15L313.7 419.376L308.655 421.153L306.656 422.026L305.461 422.548L302.935 424.207L301.831 425.321L301.376 426.601L300.941 427.187L300.512 427.931L300.885 428.57L301.251 429.054L301.684 429.38L301.908 429.66L302.201 429.855L302.495 428.848L302.642 428.535L302.893 428.511L302.753 429.737L302.462 433.96L302.432 434.123ZM314.42 331.688L314.594 331.54L314.662 331.346L314.66 331.156L314.55 331.04L314.392 330.972L314.163 331.011L314.082 331.269L314.047 331.625L314.191 331.744L314.42 331.688ZM313.912 331.042L313.798 330.847L313.583 330.756L313.339 330.831L313.257 331.075L313.511 331.388L313.781 331.393L313.912 331.042Z" fill="black"/>
<path d="M293.149 104.219L292.94 104.846H294.163H296.309H298.455H300.601L302.747 104.844H304.89H307.036H309.182H311.328H313.474H315.617L317.766 104.842H319.909H322.055H324.201H326.347L328.493 104.839L328.565 106.445L328.854 107.725L329.865 109.553L330.718 110.536L331.026 111.077L331.054 111.327L331.014 111.561L330.755 111.292L330.317 111.109L330.257 111.964L330.357 112.57L330.462 113.71L330.821 114.931L330.562 116.059L330.597 117.969L331.049 120.254L330.958 121.709L331.697 125.098L332.414 126.975L332.808 127.437L333.253 127.685L334.106 127.844L335.362 128.796L336.357 129.803L336.711 130.329L337.191 130.905L337.522 130.802L337.724 130.648L338.048 131.113L339.626 132.118L339.859 132.583L339.29 133.04L338.635 133.826L338.47 134.14L338.393 134.325L338.316 134.559L338.144 134.79L337.769 135.109L337.619 135.247L337.531 135.467L337.305 135.609L337.058 135.616L336.844 135.715L336.52 135.864L336.037 135.787L335.546 135.925L335.366 136.098L334.975 136.25L334.586 136.283L334.448 136.335L334.08 136.59L333.628 136.948L333.099 137.175L332.913 137.25L332.671 137.496L332.295 138.722L332.021 139.043L331.559 139.076H330.96L330.441 139.181L329.735 139.045L329.392 139.061L329.301 139.324L329.176 140.374L329.192 140.826L328.912 141.357L328.6 142.024L328.714 143.148L328.768 144.26L328.195 145.931L328.113 146.315L327.533 147.637L327.235 148.131L326.494 150.598L326.205 151.356L325.585 152.154L325.725 153.453L325.874 154.827L326.014 156.123L326.224 158.059L325.697 159.866L325.718 160.851L325.35 162.302L325.059 162.974L324.8 163.37L324.583 163.782L324.182 164.685L323.842 165.876L323.691 167.096L323.679 167.805L323.612 168.128L323.497 168.334L322.712 168.467L321.619 168.612L321.032 168.771L320.639 169.019L320.154 169.598L319.194 171.18L318.693 172.149L317.905 173.473L316.99 174.41L316.796 174.866L316.645 175.713L316.307 177.054L315.997 178.005L316.053 178.772L315.764 180.099L315.806 180.745L315.485 181.106L315.054 181.447L314.76 181.534L314.131 181.143L313.651 180.748L313.455 180.642L313.038 180.89L312.537 181.258L311.964 182.114L311.519 182.98L311.775 184.818L311.752 185.218L311.621 185.656L310.927 187.022L310.755 187.455L310.503 188.275L310.235 189.705L310.226 190.049H310.219L309.003 190.044L308.982 190.037L308.963 190.016L308.944 189.986L308.923 189.941L308.877 189.754L308.851 189.461L308.893 188.956L309.028 188.354L309.45 187.509L309.471 187.439L309.476 187.399V187.355L309.436 187.203L309.387 187.072L309.364 186.875L309.436 186.435L309.443 186.299L309.434 186.126L309.401 186.014L309.107 185.281L309.01 185.164L306.179 182.831L305.661 182.197L305.605 182.155L305.536 182.122L304.098 181.588L304.028 181.534L304.037 181.457L304.082 181.356L304.254 181.047L304.277 180.968L304.303 180.844L303.655 175.91L303.658 175.814L303.686 175.749L303.709 175.709L303.795 175.604L303.87 175.496L303.956 175.304L303.977 175.234L304.068 174.349L304.061 173.577L304.438 172.287L304.48 171.737L301.358 171.697L301.339 171.725L301.337 171.761L301.344 171.798L301.349 171.84L301.346 171.927L301.323 172.086L301.316 172.172L301.318 172.256L301.367 172.568L301.449 172.799L301.46 172.877L301.465 172.961L301.456 173.122L297.11 173.141L298.83 175.079L298.851 175.119L298.881 175.224L298.893 175.303L298.925 175.985L298.834 177.061L298.853 177.754L298.953 178.203L299.419 179.088L299.389 179.254L299.282 179.463L296.199 182.089L296.113 182.213L295.684 183.308L295.277 183.942L295.097 184.125L294.382 185.016L291.57 187.813L291.108 188.001L289.708 188.078L288.967 188.099L288.883 188.12L288.757 188.167L288.68 188.239L288.59 188.293L288.499 188.265L288.394 188.187L286.665 186.622L283.58 184.644L283.284 184.824L281.539 185.676L281.18 185.896L280.98 186.053L280.97 187.005L280.665 187.488L280.115 188.017L278.606 188.351L277.82 188.637L277.016 189.065L276.886 189.173L276.578 189.468L275.97 190.064L275.905 190.528L276.003 190.944L270.8 190.928L270.458 190.596L269.735 189.135L269.703 189.121L269.171 189.213L264.428 189.042L263.75 189.194L262.393 189.798L261.711 189.899L261.007 189.622L258.512 186.711L257.973 186.362L257.775 186.175L257.407 185.665L256.874 185.361L256.694 185.14L256.636 184.829L256.652 184.188L256.478 183.788L256.084 183.696L252.729 184.373L252.249 184.295L251.545 184.417L251.303 184.536L251.018 184.92L250.96 185.318L250.97 185.721L250.883 186.116L250.627 186.558L249.672 187.546L249.46 187.977L249.504 189.063L249.441 189.613L249.297 189.868L248.882 190.284L248.73 190.526L248.661 190.865L248.637 191.581L248.563 191.916L248.041 192.758L247.917 193.056L247.887 193.662L247.803 193.847L246.286 194.326L245.72 194.633L245.373 195.106L245.289 195.307L244.639 195.139L243.814 195.017L242.227 194.867L241.601 194.647L241.3 194.317L241.396 193.475L241.237 193.295L240.986 193.145L240.811 192.78L240.848 192.342L241.685 191.368L241.857 190.849L241.99 189.04L242.076 188.403L242.013 187.656L241.349 186.283L240.771 185.328L239.828 183.912L239.459 183.448L237.553 181.496L237.332 181.206L236.871 180.38L237.099 179.652L237.379 178.571L237.411 178.07L237.281 177.553L236.799 177.164L236.37 177.117L236.179 176.921L235.806 176.635L235.438 176.413L235.112 175.987L234.886 175.39L235.046 173.253L234.937 172.967L234.45 172.888L234.336 172.733L234.354 172.324L234.093 171.104L233.8 170.093L233.956 169.536L233.551 168.773L232.772 168.446L232.038 168.546L231.251 168.698L230.776 168.656L230.452 168.513L230.221 168.235L230.104 167.903L230.212 167.406L230.645 166.494L231.183 165.745L232.281 165.059L232.572 164.696L232.74 164.291L232.768 163.828L232.693 163.339L232.57 162.892L232.246 162.299L231.95 161.602L231.943 161.134L232.085 160.797L232.379 160.39L232.961 159.931L233.101 159.84L233.467 159.594L233.786 159.414L234.583 158.931L234.769 158.7L234.702 158.421L234.506 158.194L234.184 157.876L234.119 157.485L234.026 156.818L233.86 156.392L233.742 156.081L233.968 155.847L234.305 155.521L234.727 155.322L235.377 155.154L235.634 154.92L235.708 154.475L235.687 154.049L235.922 153.733L236.237 153.054L236.491 152.745L236.917 152.392L237.344 151.95L237.533 151.435L237.586 150.941L237.353 149.438L237.845 148.811L238.474 148.292L239.378 148.327L240.781 148.212L241.736 147.997L242.416 148.004L243.97 148.285L244.098 148.217L244.133 148.16L244.217 147.762L244.215 146.761L244.213 143.727L244.21 140.689L244.208 137.644L244.206 134.59L244.203 131.529L244.201 128.46L244.199 125.383L244.196 122.298V121.432V120.568V119.702V118.834L245.809 118.836H247.423H249.036L250.648 118.839L250.669 118.825L250.69 118.813L250.709 118.799L250.73 118.79L250.732 115.321V111.841L250.734 108.349V104.845H253.232L255.732 104.848H258.23H260.728H263.225H265.723H268.223L270.721 104.85H273.219H275.716H278.214H280.712L283.21 104.852H285.707H288.207H290.705H291.467L291.803 104.801L292.443 103.488L292.716 103.389L293.133 103.466L293.277 103.775L293.149 104.219Z" fill="black"/>
<path d="M358.974 263.13L359.004 262.594L358.901 262.328L358.282 261.525L357.124 260.032L356.248 258.901L355.351 257.747L355.346 256.823L355.337 254.073L355.313 248.575L355.295 243.075L355.271 237.575L355.26 234.822L355.257 233.696L355.351 233.514L356.373 232.505L357.725 231.166L359.5 228.627L360.465 227.244L361.271 226.095L361.474 225.744L362.187 225.046L363.522 224.629L364.351 224.559L367.205 224.037L367.63 223.827L367.879 223.585L368.117 223.035L368.671 222.263L369.389 221.729L370.752 221.037L372.087 220.449L372.383 220.353L373.99 219.984L374.384 219.857L375.034 219.729L375.291 219.724L377.523 219.852L379.27 219.955L381.067 220.059L381.258 219.979L382.514 218.607L384.513 216.419L385.789 215.024L387.761 212.866L389.275 211.307L390.95 209.585L392.579 208.007L394.534 206.109L395.769 204.913L397.684 203.055L399.508 201.283L401.121 199.717H398.896H396.722H394.581L394.198 199.528L392.4 198.919L390.121 198.149L387.292 197.194L385.277 196.516L383.129 195.802L380.95 195.081L379.24 194.515L377.108 193.808L375.256 193.192L375.002 193.042L373.974 192.104L372.625 190.87L372.366 190.85L371.723 190.592L371.146 189.925L370.549 189.073L369.997 188.006L369.757 187.28L369.018 186.974L368.664 186.4L367.995 185.551L367.532 185.139L367.366 184.778L367.152 184.034L366.77 183.222L366.404 182.721L366.32 182.503L366.341 182.363L367.019 181.263L367.324 180.87L367.671 180.491L367.953 180.111L368.063 179.852L368.885 178.555L369.61 177.413L370.176 176.521L371.453 177.542L372.695 179.611L374.142 181.282L376.141 182.831L376.933 183.355L377.635 183.631L381.272 183.589L383.853 182.176L386.197 181.151L386.985 180.937L388.345 181.218L389.846 181.303L391.195 181.614L391.88 181.534L394.55 180.343L396.228 179.182L397.372 178.688L397.822 178.684L399.383 179.103L401.389 178.92L404.133 177.918L405.007 177.714L405.674 177.701L407.167 178.152L407.4 178.129L408.209 178.044L410.341 177.567L412.002 176.846L415.061 176.324L417.389 175.004L417.797 174.365L418.5 173.56L419.521 173.296L422.13 174.241L422.547 174.316L422.396 174.887L422.305 175.47L421.771 176.486L421.429 177.614L421.681 179.336L421.802 182.126L421.739 182.531L421.566 182.929L421.494 183.245L421.212 183.355L421.089 183.535L421.294 183.605L422.109 183.304L422.095 182.969L422.142 182.805L422.813 183.177L423.293 183.331L423.433 183.683L423.395 183.921L422.634 183.811L422.244 183.626L421.114 183.931L420.422 184.258L420.215 184.806L420.054 186.987L419.786 188.401L419.735 190.271L418.819 191.507L418.512 192.378L417.151 194.124L416.443 195.612L416.21 196.34L415.015 198.381L413.372 199.944L412.78 201.941L412.193 203.193L411.529 204.326L410.08 206.343L409.339 207.743L408.409 210.172L408.122 211.708L405.506 216.164L402.791 219.712L401.102 222.696L398.069 226.155L393.933 230.619L388.518 235.913L387.05 236.992L381.125 240.257L377.283 242.99L375.321 244.851L373.261 246.471L371.625 248.013L366.684 253.214L366.176 253.703L365.696 254.164L365.074 255.046L364.64 255.395L363.461 256.883L362.723 257.653L361.898 258.416L361.546 258.955L361.299 259.575L361.022 259.919L360.278 261.398L359.621 262.367L358.974 263.13Z" fill="black"/>
<path d="M309.45 187.51L309.028 188.354L308.893 188.956L308.851 189.461L308.877 189.754L308.923 189.941L308.944 189.986L308.963 190.016L308.982 190.037L309.003 190.044L310.219 190.049H310.226L310.219 190.318L310.268 191.657L310.31 192.827L310.38 194.739L310.382 195.238L310.335 195.858L310.191 196.104L309.846 196.455L309.41 196.775L308.311 196.857L307.393 196.846L306.743 196.775L305.852 196.747L305.016 196.815L304.708 197.087L304.256 198.044L303.604 199.432L303.259 200.019L303.171 200.361L303.273 200.565L303.704 200.86L304.655 201.276L305.743 201.52L306.554 201.625L307.106 201.739L307.532 201.866L309.077 202.928L309.571 203.422L309.848 203.86L309.914 204.325L310.135 204.796L311.027 205.725L311.542 206.261L312.882 206.949L313.397 207.729L313.893 208.105L314.364 208.513L314.616 209.119L315.196 210.876L315.587 211.799L315.988 212.552L316.146 213.776L316.463 214.324L316.789 214.991L317.33 215.595L317.905 216.054L318.01 216.177L316.808 217.359L315.459 218.684L313.9 220.219L312.202 221.886L310.871 223.206L309.559 224.507L308.026 226.045L306.894 227.18L306.705 227.339L306.377 227.55L305.298 227.555L304.184 227.421L303.159 226.731L302.117 227.267L301.458 227.435L301.064 227.496L300.135 227.583L298.832 227.87L298.243 228.229L297.923 228.512L297.66 229.034L297.527 229.088L297.287 229.027L296.954 228.816L296.258 228.514L295.906 227.849L295.584 227.449L295.316 227.238L294.212 227.901L293.676 228.055L293.238 228.036L292.436 227.664L291.551 227.346L291.094 227.348L290.412 227.746L289.636 228.341L289.237 228.928L289.044 229.277L288.902 228.998L288.771 228.739L288.51 228.406L288.135 228.275L287.795 228.341L287.397 228.406L287.217 228.217L287.18 227.761L287.07 227.339L286.884 227.023L286.311 226.707L284.834 226.066L283.699 224.786L283.128 224.191L282.711 223.807L282.119 222.801L281.446 222.108L280.63 221.785L280.092 221.944L279.538 222.686L278.491 223.384L278.011 223.407L277.396 223.03L276.623 222.761L275.236 222.644L274.663 222.974L273.913 223.508L273.277 223.826L272.883 223.864L272.515 223.735L272.098 223.667L271.737 223.655L270.996 223.169L270.611 222.81L270.355 222.466L269.936 222.232L269.446 222.036L269.097 221.729L268.922 221.345L268.645 220.854L268.286 220.412L267.154 219.616L266.816 219.145L266.578 218.687L266.117 218.181L265.621 217.505L265.462 216.515L265.441 215.717L265.336 215.347L265.127 214.977L264.882 214.663L264.488 214.312L263.565 213.8L262.61 213.205L262.154 212.859L261.284 212.733L260.765 212.393L260.329 211.647L260.154 211.05L259.714 210.584L259.525 210.247L259.42 209.859L259.77 208.677L259.264 208.258L258.512 207.715L257.971 207.12L257.643 206.575L256.676 205.854L254.569 204.775L253.353 204.087L252.689 203.469L252.109 202.863L252.051 202.615L252.426 202.011L252.482 201.512L252.174 200.965L250.911 199.93L249.905 198.793L249.143 198.437L247.307 198.121L246.78 197.995L246.23 197.777L245.688 197.265L245.503 196.658L245.769 195.687L245.599 195.39L245.289 195.308L245.373 195.107L245.72 194.634L246.286 194.327L247.803 193.848L247.887 193.663L247.917 193.056L248.041 192.759L248.563 191.917L248.637 191.582L248.661 190.866L248.73 190.526L248.882 190.285L249.297 189.869L249.441 189.614L249.504 189.064L249.46 187.978L249.672 187.547L250.627 186.559L250.883 186.117L250.97 185.721L250.96 185.319L251.019 184.921L251.303 184.537L251.545 184.418L252.249 184.296L252.729 184.374L256.084 183.697L256.478 183.789L256.652 184.189L256.636 184.83L256.694 185.142L256.874 185.362L257.407 185.666L257.775 186.176L257.974 186.363L258.512 186.712L261.007 189.624L261.711 189.9L262.394 189.799L263.75 189.195L264.428 189.043L269.171 189.214L269.703 189.123L269.735 189.137L270.458 190.597L270.8 190.929L276.003 190.946L275.905 190.529L275.97 190.066L276.578 189.469L276.886 189.172L277.017 189.066L277.82 188.638L278.606 188.353L280.115 188.018L280.665 187.489L280.97 187.007L280.98 186.054L281.18 185.898L281.539 185.678L283.284 184.826L283.58 184.645L286.665 186.623L288.394 188.189L288.499 188.266L288.59 188.294L288.68 188.24L288.757 188.168L288.883 188.121L288.967 188.1L289.708 188.079L291.108 188.002L291.57 187.814L294.382 185.018L295.097 184.126L295.277 183.943L295.684 183.309L296.113 182.214L296.199 182.09L299.282 179.464L299.389 179.255L299.419 179.089L298.953 178.204L298.853 177.755L298.835 177.062L298.925 175.986L298.893 175.305L298.881 175.225L298.851 175.119L298.83 175.08L297.11 173.142L301.456 173.123L301.465 172.962L301.46 172.877L301.449 172.8L301.367 172.568L301.318 172.257L301.316 172.173L301.323 172.087L301.346 171.928L301.349 171.841L301.344 171.799L301.337 171.761L301.339 171.726L301.358 171.698L304.48 171.738L304.438 172.288L304.061 173.577L304.068 174.35L303.977 175.234L303.956 175.305L303.87 175.497L303.795 175.604L303.709 175.709L303.686 175.749L303.658 175.815L303.655 175.911L304.303 180.844L304.277 180.968L304.254 181.048L304.082 181.357L304.037 181.458L304.028 181.535L304.098 181.589L305.536 182.122L305.605 182.155L305.661 182.197L306.179 182.832L309.01 185.165L309.107 185.282L309.401 186.015L309.434 186.127L309.443 186.3L309.436 186.436L309.364 186.876L309.387 187.072L309.436 187.203L309.476 187.355V187.4L309.471 187.44L309.45 187.51Z" fill="black"/>
<path d="M347.063 304.288L346.709 304.374L346.571 304.29L346.355 304.014L346.732 303.78L347.098 303.325L347.948 302.658L348.239 302.218L348.344 302.125L348.284 302.644L347.804 303.78L347.394 303.855L347.063 304.288ZM345.658 292.433L346.159 293.83L346.096 294.093L345.742 294.252L345.558 294.266L345.339 294.041L345.185 293.57L344.917 293.683L344.46 293.119L344.008 293.09L343.607 292.419L343.764 291.834L343.673 290.834L344.16 290.324L344.435 289.463L344.751 290.05L344.824 290.968L345.25 292.044L345.607 292.377L345.658 292.433ZM348.067 284.117L348.107 284.447L348.006 284.759L348.027 285.749L347.988 286.406L347.615 287.317L347.31 287.642L347.037 287.546L346.813 287.397L346.639 287.146L346.993 285.477L346.811 284.256L347.512 284.372L348.067 284.117ZM288.946 258.587L289.083 258.606H289.768H290.931H292.094H293.256H294.419H295.582H296.744H297.907H299.07H300.232H301.395H302.558H303.72H304.883H306.046H307.208H308.371H309.086H309.585L310.056 258.852L310.58 259.144L311.976 259.921L313.369 260.698L314.762 261.476L316.155 262.253L317.549 263.03L318.945 263.807L320.338 264.584L321.734 265.361L323.127 266.138L324.52 266.915L325.913 267.692L327.307 268.469L328.703 269.246L330.096 270.023L331.489 270.8L332.882 271.577L333.549 271.949L333.649 272.111L333.763 272.82L333.835 273.262L333.796 273.653L333.425 274.315L333.318 274.662L333.316 274.903L333.407 274.999L333.721 275.034L333.989 275.191L334.087 275.315L334.292 275.813L334.551 276.064L335.14 276.487L336.144 277.21L337.149 277.934L338.153 278.657L339.157 279.38L340.161 280.103L341.166 280.826L342.17 281.55L343.174 282.273L343.661 282.626L343.868 282.725L343.738 283.275L343.223 284.611L343.193 285.168L342.992 285.824L342.799 286.257L342.275 288.138L341.837 288.843L341.238 290.493L341.142 291.757L341.473 292.641L341.594 293.47L342.298 294.284L342.86 294.575L343.239 294.947L343.913 295.796L344.299 296.648L345.509 297.067L345.991 298.024L345.816 298.682L345.255 299.227L344.73 300.11L344.309 301.271L344.299 303.047L344.584 302.778L345.224 303.213L345.306 304.522L344.647 306.045L344.444 306.759L344.411 307.372L344.891 309.2L345.618 310.129L345.551 310.415L345.362 310.658L346.606 312.306L346.504 313.741L346.97 314.86L347.172 315.828L347.48 316.573L347.538 317.085L347.154 317.654L348.06 317.797L348.594 318.262L348.845 318.707L349.5 318.689L349.854 318.993L350.367 319.246L351.497 319.995L351.802 320.371L351.912 320.589L351.984 320.732L351.224 321.312L350.041 322.216L348.878 323.1L347.757 323.709L346.956 323.992L346.098 324.149L345.285 324.521L344.516 325.106L343.531 325.401L342.331 325.403L341.07 325.813L339.819 326.588L339.09 327.039L337.934 326.358L337.028 326.143L335.986 326.166L335.352 326.251L335.124 326.398L334.926 326.815L334.758 327.498L334.075 328.156L332.878 328.785L331.773 329.022L330.762 328.863L330.08 328.601L329.723 328.235L329.199 328.067L328.504 328.097L327.838 328.357L327.202 328.849L326.188 329.062L324.795 328.996L324.047 328.757L323.945 328.348L323.334 327.868L322.218 327.318L321.393 327.306L320.864 327.835L320.382 328.168L319.946 328.303L319.555 328.32L319.208 328.219L318.991 328.177L317.451 328.12L315.992 328.141L315.946 327.912L315.846 327.376L315.543 326.91L315.282 326.632L314.956 326.559L314.779 326.564L314.636 326.348L314.469 325.873L314.222 325.471L313.893 325.136L313.695 324.825L313.627 324.539L313.679 324.225L313.984 323.446L314.082 322.91L314.047 322.362L313.881 321.801L313.537 321.134L313.576 320.942L313.46 320.488L313.448 320.17L313.516 319.772L313.45 319.25L313.152 318.136V317.85L312.838 317.312L311.868 316.039L311.822 315.872L310.303 314.59L309.694 314.309L309.475 314.55L309.394 314.772L309.457 315.184L309.42 315.388L309.357 315.482L308.995 315.468L308.769 315.421L308.194 315.077L307.747 314.993L306.633 315.054L306.244 315.136L305.939 315.058L305.349 314.471L304.659 314.347L304.04 314.316L303.017 313.649L302.777 313.68L302.663 313.731L302.292 313.556L301.595 313.167L300.626 312.826L299.834 312.444L299.48 312.072L298.737 311.929L298.093 311.868L297.497 311.522L296.88 311.482L296.274 311.393L296.139 311.166L296.118 310.656L295.906 310.522L295.461 310.391L294.981 310.398L294.689 310.471L294.517 310.433L294.118 310.134L293.748 309.752L293.608 309.144L293.049 308.753L292.404 308.444L290.61 308.477L290.328 308.383L289.901 308.074L289.403 307.564L289.002 306.981L288.65 306.192L288.482 305.715L288.284 305.127L287.846 304.247L287.226 303.002L286.746 301.982L286.231 300.886L286.022 300.084L285.621 299.197L284.964 298.106L284.631 297.68L284.267 297.299L283.324 296.564L282.254 295.833L281.674 295.342L280.896 293.879L280.57 293.35L280.344 292.421L280.174 291.457L280.243 291.066L280.933 289.823L281.003 289.474L280.919 289.004L280.579 288.014L280.325 287.368L280.148 286.816L279.78 285.896L279.274 284.63L279.146 284.077L279.162 283.663L279.435 282.57L279.675 281.444L279.668 281.135L281.725 281.177L282.063 280.932L283.226 280.206L284.533 278.753L284.794 278.149L285.327 277.217L285.849 276.756L286.05 276.436L286.187 275.932L286.35 275.506L287.035 274.877L287.702 274.392L287.653 274.198L287.564 274.053L287.662 273.929L288.026 273.681L288.734 273.454L288.874 272.97L288.871 272.42L288.757 272.113L288.778 271.76L288.669 271.563L288.205 271.514L287.518 271.24L286.935 271.126L286.546 270.966L286.402 270.845L286.339 270.515L286.453 270.154L286.511 270.052L286.66 269.665L286.406 269.434L286.341 269.321L286.457 269.137L287.056 267.915L287.187 267.744L287.448 267.723L287.86 267.573L288.242 267.505L288.554 267.557L288.785 267.498L288.988 267.342L289.16 266.864L289.302 266.068L289.223 265.42L288.925 264.919L288.843 264.156L288.981 263.131L288.883 262.279L288.552 261.598L288.214 261.193L287.699 261.001L286.889 259.962L286.642 259.459L286.686 259.145L286.9 259.045L286.965 259.014L287.483 259.061L287.967 258.942L288.419 258.656L288.857 258.574L288.946 258.587Z" fill="black"/>
<path d="M309.084 258.606H308.369H307.206H306.043H304.881H303.718H302.558H301.395H300.232H299.07H297.907H296.744H295.582H294.419H293.259H292.096H290.933H289.771H289.083L288.946 258.588L288.85 258.559L288.412 258.641L287.958 258.929L287.476 259.046L286.958 259.002L286.893 259.032L286.632 259.025L286.255 259.004L285.914 259.079L285.656 259.33L285.39 259.76L284.913 260.252L284.54 260.689L284.223 260.998L283.498 261.511L283.102 261.661L282.906 261.637L282.785 261.541L282.557 260.888L282.417 260.783L281.008 261.12L280.793 261.125L280.812 260.921L280.707 259.386L280.695 258.445L280.879 257.857L280.987 257.179L280.998 256.579L281.257 255.561L281.161 254.95L281.495 252.809L281.583 252.46L281.714 251.426L281.921 251.107L282.107 250.983L282.347 250.349L282.811 249.333L283.13 248.812L283.06 247.672L283.114 246.895L283.186 246.724L283.869 246.434L284.754 245.717L285.129 244.872L285.658 244.334L286.683 243.985L286.686 243.983L289.724 241.088L291.136 239.527L291.751 238.726L291.772 238.438L291.891 238.062L291.644 237.767L291.35 237.5L291.25 237.252L290.999 237.13L290.635 237.135L290.395 236.955L290.122 236.604L289.85 236.384L288.988 236.402L288.324 236.042L288.333 235.553L288.592 234.588L289.095 233.484L289.123 233.179L289.051 232.92L288.929 232.697L288.703 232.477L288.489 232.213L288.655 231.417L288.971 230.64L289.232 230.249L289.486 229.814L289.414 229.456L289.044 229.278L289.237 228.929L289.635 228.342L290.411 227.747L291.094 227.349L291.551 227.347L292.436 227.665L293.238 228.037L293.676 228.056L294.212 227.902L295.316 227.239L295.584 227.45L295.905 227.85L296.257 228.515L296.954 228.817L297.287 229.027L297.527 229.088L297.66 229.035L297.923 228.513L298.242 228.23L298.832 227.871L300.134 227.584L301.064 227.497L301.458 227.436L302.117 227.268L303.159 226.732L304.184 227.422L305.298 227.555L306.376 227.551L306.705 227.34L306.894 227.181L308.026 226.046L309.559 224.508L310.58 226.673L310.932 226.802L310.88 226.989L310.794 227.171L311.463 227.693L312.285 227.967L312.579 228.234L312.605 228.522L312.327 229.788L312.379 230.149L312.644 231.417L313.133 231.7L313.567 232.978L314.445 233.519L314.571 233.673L314.774 234.291L315.042 234.97L315.251 235.126L315.38 235.166L315.638 235.882L315.489 236.287L315.692 237.514L316.02 238.609L316.109 239.917L316.111 240.493L316.1 240.847L316.027 241.343L315.871 241.631L315.592 241.912L315.279 242.352L315.009 242.824L314.839 243.056L314.972 243.763L314.937 243.948L314.867 244.037L314.468 244.144L313.961 244.334L313.653 244.521L313.215 244.881L312.865 245.268L312.402 246.407L311.628 247.297L311.498 247.589L310.768 248.118L310.447 248.771L310.242 249.572L309.96 250.145L309.343 250.934L309.203 252.179L309.221 254.662L309.061 257.494L309.084 258.606Z" fill="black"/>
<path d="M382.826 337.478L382.413 337.534L382.22 337.356L382.101 336.935L382.222 336.53L382.257 336.203L381.924 335.634L382.25 335.311L382.527 335.688L382.686 335.714L383.105 335.976L382.982 336.458L383.01 336.617L382.819 337.099L382.826 337.478Z" fill="black"/>
<path d="M291.98 402.155L292.014 402.527L292.061 402.695L292.373 403.676L292.839 405.146L293.149 406.503L293.576 408.369L293.562 409.41L293.666 409.813L294.049 410.316L294.517 411.182L294.675 411.671L294.831 412.039L295.325 412.736L295.71 413.794L296.036 415.196L296.316 415.87L296.42 416.202L296.546 416.806L296.53 418.082L296.537 419.563L296.546 421.218L296.553 422.587L296.504 423.28L296.539 425.253L296.118 426.28L296.169 427.09L296.299 427.615L296.127 427.696L295.798 427.79L294.289 426.959L292.816 426.082L292.604 426.056L292.294 426.147L291.46 426.784L290.679 427.781L290.321 428.633L289.745 429.513L288.818 430.931L288.722 431.238L288.713 432.394L288.757 433.496L288.839 433.651L289.34 433.702L289.698 434.606L290.519 436.047L291.896 436.974L293.175 437.395L294.96 437.501L296.372 437.47L296.29 436.497L296.43 434.935L296.609 433.887L296.807 433.84L297.178 433.941L297.383 434.049L297.949 434.004L298.956 434.21L299.769 434.189L300.496 434.168L301.724 434.133L302.441 434.121L302.199 435.814L301.262 438.47L300.943 439.692L300.144 444.071L299.1 446.287L298.515 447.205L296.824 448.829L296.353 449.159L295.936 449.37L295.195 449.557L292.296 452.857L291.218 454.453L290.258 456.787L289.305 458.072L287.904 460.819L286.653 462.947L285.453 464.894L283.377 467.581L282.455 468.36L281.832 468.716L280.183 470.282L277.86 472.81L276.082 475.056L273.423 477.617L271.883 478.74L269.572 480.957L268.927 481.284L266.322 483.351L264.448 484.61L261.417 486.073L260.212 486.483L257.335 486.103L256.135 486.305L255.131 487.189L255.038 488.463L254.618 488.654L253.984 488.598L251.974 488.067L250.883 488.168L250.247 488.849L249.735 489.71L248.22 489.754L245.522 488.863L242.348 488.32L241.615 488.259L240.077 488.921L239.541 489.017L237.302 488.874L236.06 488.458L234.872 488.455L233.96 488.799L232.856 488.921L229.871 491.32L228.329 491.322L226.998 491.601L226.339 491.591L225.104 491.254L224.645 491.278L223.942 491.428L223.238 491.851L221.635 492.034L221.013 492.397L218.305 494.599L217.688 494.51L217.189 494.367L215.782 494.339L214.191 493.167L213.58 493.242L213.743 492.891L213.792 492.268L213.454 491.828L213.228 491.631L212.604 491.669L212.271 491.14L211.315 491.091L210.984 491.224L210.525 491.252L210.486 490.716L210.521 490.379L210.493 489.862L210.379 489.228L210.008 489.026L209.724 488.942L209.048 488.987L208.582 489.055L208.363 489.24L208.114 489.705L208.112 491.119L207.776 490.714L207.394 489.867L207.27 488.963L207.408 487.898L208.133 487.494L208.077 486.775L207.923 486.152L207.114 484.561L206.8 483.833L206.115 483.342L205.581 482.157L205.045 481.729L204.822 480.9L204.297 480.24L204.12 479.197L204.409 478.6L204.866 478.272L205.332 478.789L205.912 478.588L206.735 477.834L207.222 476.692L207.252 474.869L207.126 473.734L206.474 470.808L206.166 470.136L204.694 468.051L202.986 465.268L200.826 460.903L199.794 458.291L198.23 453.049L196.853 450.097L195.162 447.354L194.945 447.176L195.203 446.844L196.114 446.212L196.527 446.041L196.748 446.121L196.963 445.947L197.17 445.519L197.217 445.119L197.319 444.552L197.522 444.213L197.745 443.539L198.125 443.106L198.929 442.818L199.537 443.2L199.791 443.572L199.896 444.063L200.166 444.302L200.6 444.286L200.905 444.588L201.082 445.21L201.047 445.66L200.8 445.94L200.835 446.308L201.15 446.764L201.28 447.2L201.49 447.775L202.594 448.11L203.135 448.297L204.064 448.361L204.943 448.618L205.77 449.067L207.131 449.175L209.025 448.943L210.584 449.046L211.807 449.486L212.695 449.568L213.245 449.29L213.485 448.889L213.41 448.365L213.683 448.035L214.3 447.895L214.794 447.502L215.167 446.853L216.027 446.327L217.376 445.922L218.047 445.936V444.889V441.594V438.315V435.048V431.792V428.551V425.323V422.105V419.079L218.361 419.296L220.433 420.902L220.992 421.747L221.269 422.283L222.159 424.232L222.821 425.985L223.359 427.31L223.401 427.916L223.478 428.508L223.555 428.801L223.506 429.124L223.126 429.847L222.739 430.4L222.273 431.156L222.229 432.155L222.369 433.335L222.655 433.922L223.014 434.116L223.872 433.824L224.415 433.915L225.181 434.14L227.693 434.002L227.996 434.074L228.944 434.159L229.261 434.06L229.545 433.81L229.874 433.103L230.167 432.869L230.701 432.75L231.332 432.558L231.854 432.151L232.681 430.754L234.338 429.515L234.846 429.221L235.167 428.888L235.447 428.441L236.027 426.887L236.465 425.595L236.614 424.987L237.006 423.994L237.479 423.36L237.942 423.025L238.175 422.941L238.772 422.77L239.538 422.611L240.345 422.789L241.209 423.173L242.185 423.819L243.185 424.619L243.644 425.026L244.14 425.209L245.023 425.272L245.601 425.258L246.5 426.054L246.955 426.103L247.973 426.344L249.231 426.592L250.021 426.564L250.869 426.134L251.48 426.115L252.27 426.15L253.139 426.033L253.775 425.848L254.262 425.474L254.69 425.064L255.184 423.845L255.469 422.867L255.907 421.741L256.445 420.217L256.638 419.157L256.834 418.864L257.617 418.541L258.262 418.319L260.005 417.902L260.362 417.68L260.688 417.181L261.447 416.337L262.384 415.632L262.869 415.23L263.754 411.817L263.861 411.396L264.504 410.492L264.903 410.111L265.159 410.104L265.523 409.865L265.995 409.397L266.557 409.107L267.207 408.999L267.629 408.688L267.822 408.178L268.158 407.93L268.635 407.944L268.908 407.782L268.973 407.443L269.262 407.15L269.772 406.909L270.038 406.621L270.064 406.291L270.672 405.489L271.862 404.213L272.983 403.504L274.036 403.359L275.036 403.094L275.979 402.708L276.671 402.102L277.114 401.278L277.876 400.817L279.412 400.681L279.495 400.674L281.364 400.347L282.928 400.614L284.812 401.367L286.576 401.634L288.221 401.414L289.559 401.365L290.586 401.486L291.397 401.748L291.98 402.155ZM275.299 458.307L276.373 457.828L276.858 457.535L277.207 457.294L277.659 456.929L277.816 456.042L277.948 455.288L278.293 454.916L278.647 454.67L278.939 454.28L279.3 453.341L279.547 452.424L279.572 452.049L279.444 451.665L279.214 451.256L278.987 450.703L278.715 450.617L278.181 450.308L277.396 449.685L276.716 449.145L276.077 448.361L275.816 448.232L275.199 447.701L274.933 447.396L274.747 447.031L274.572 446.912L274.295 447.006L273.566 447.167L272.002 447.804L271.033 448.389L270.217 449.087L269.372 449.353L268.752 449.585L268.26 450.383L267.801 451.128L267.389 451.799L267.151 452.101L266.937 452.295L266.72 452.726L266.275 453.442L265.867 453.922L265.299 454.184L264.565 454.524L264.316 454.72L264.281 455.01L264.542 455.684L264.793 456.335L265.206 457.098L265.509 457.657L265.986 458.341L266.266 458.741L266.228 459.413L266.324 459.654L266.482 459.932L266.615 460.003L266.764 460.103L267.16 460.297L267.256 460.426L267.533 460.655L267.799 461.074L268.302 461.65L268.868 462.088L269.84 462.268L270.6 462.408L270.851 462.322L271.11 461.969L271.322 461.519L271.389 460.948L271.632 460.644L272.543 459.195L273.044 458.659L273.351 458.619L273.745 458.516L274.248 458.472L274.626 458.516L274.707 458.5L275.299 458.307Z" fill="black"/>
<path d="M302.653 313.729L302.676 313.905L302.856 314.237L303.044 314.476L303.061 314.827L303.149 315.155L303.424 315.234L303.65 315.255L303.86 315.021L304.144 315.026L304.456 315.175L304.568 315.552L304.813 316.058L305.207 316.404L305.472 316.739L305.381 317.347L305.214 317.902L305.75 318.452L306.446 318.974L306.635 319.206L306.691 319.983L306.798 320.245L307.271 320.891L307.502 321.319L307.485 321.567L306.216 322.847L305.812 322.972L305.43 323.044L305.09 323.306L304.885 323.58L304.96 323.725L305.095 324.163L305.391 324.856L305.659 325.34L305.435 325.946L304.932 326.976L304.699 327.068L304.657 327.847L304.811 328.133L305.062 328.357L305.165 328.886L305.172 329.616L305.144 330.204L304.827 331.699L305.4 333.008L305.596 333.151L306.39 333.16L306.525 333.27L306.337 333.642L305.992 334.026L305.78 334.22L304.769 334.667L303.317 335.161L303.014 335.634L302.821 336.324L302.984 336.729L303.175 336.961L303.114 337.562L302.986 338.199L303.03 338.7L302.965 339.142L302.774 339.36L302.52 340.027L302.208 340.698L301.961 341.005L301.598 341.326L301.022 341.592L301.031 341.728L301.684 342.037L301.851 342.252L301.912 342.4L301.772 342.54L301.639 342.739L301.94 342.945L302.308 343.118L302.655 343.565L302.965 344.19L303.054 344.41L303.126 344.497L303.238 344.506L303.455 344.412L303.853 344.071L304.144 343.949L304.496 344.436L303.091 344.918L302.355 345.171L300.255 345.892L298.422 346.521L297.944 346.64L296.993 346.947L296.52 347.137L294.864 347.687L294.172 347.96L293.615 348.234L292.247 348.641L290.954 349.025L289.542 349.423L287.962 349.866L287.075 350.186L286.476 350.462L285.076 351.024L285.01 351.16L285.029 351.541L285.208 352.328L285.558 353.042L285.851 353.453L286.043 354.511L286.15 355.441L285.199 355.443L283.526 355.448L281.79 355.45L280.206 355.806L278.903 356.346L277.349 357.191L276.844 357.524L276.452 357.779L276.205 358.109L276.084 358.829V359.944L275.926 360.744L275.455 361.481V361.479L273.095 362.371L271.552 363.098L270.038 363.962L268.889 365.083L268.106 366.462L266.806 368.17L265.483 369.652L264.078 371.229L262.503 371.8L261.179 371.672L259.583 371.033L258.316 370.911L257.377 371.309L256.51 371.185L255.713 370.544L255.047 370.31L254.506 370.483L253.816 370.453L252.556 370.102L251.466 369.009L250.876 368.559L250.422 368.386L249.117 368.21L246.123 367.96L245.811 368.016L244.566 368.232L243.012 368.501L241.675 368.77L240.275 369.051L238.972 367.913L237.497 366.624L235.966 365.184L234.818 364.059L234.249 363.41L233.24 362.554L232.513 362.135L232.231 361.924L231.509 359.649L231.115 357.561V355.991L231.113 353.817V351.645V349.477L231.111 347.312V345.15V342.994L231.108 340.839V338.685V337.639H232.616H234.326H236.113H238.056H240H241.943H243.299L243.655 337.623L244.084 337.557L244.114 337.344L243.555 336.289L243.583 335.914L243.732 335.198L243.963 334.58L244.268 333.768L244.301 333.291L244.056 331.734L244.079 330.868L244.149 329.967L244.219 329.115L244.135 328.521L244.238 328.198L244.422 327.734L244.517 327.21L244.632 326.985L244.594 326.777L244.492 326.388L244.389 325.518L244.247 324.308L244.105 323.437L244.343 323.486L244.837 323.568L245.077 323.994L245.216 324.462L245.55 324.488L246.416 324.764L246.717 325.15L246.915 325.986L246.796 326.414L246.517 326.758L246.796 327.062L247.376 327.266L247.717 327.205L248.695 326.636L249.087 326.536L249.597 326.424L250.058 326.279L251.361 326.019L252.071 325.904L252.472 325.7H252.752L252.952 325.864L252.773 326.454L252.712 326.983L252.961 327.973L253.148 328.434L253.567 328.771L253.872 328.947L254.21 329.305L254.912 329.244L256.454 329.749L256.922 329.983L257.572 330.217L258.034 330.304L259.625 330.482L260.212 330.601L261.303 330.76L262.174 330.788L262.792 330.716L263.225 330.571L263.491 330.411L263.612 330.273L263.791 329.78L264.115 328.708L264.243 328.387L264.565 328.24L264.982 328.143L265.226 328.314L265.499 329.503L266.713 330.578L267.128 331.481L267.431 332.253L267.694 332.464L268.155 332.729L268.891 332.822L269.549 332.851L270.933 333.408L272.032 333.85L272.82 334.168L273.181 334.409L273.433 334.805L273.582 335.111L273.824 335.907L274.083 336.537L274.504 336.656L274.882 336.705L275.255 337.136L275.537 337.513L276.096 338.435L276.508 339.071L276.643 339.692L277.112 340.106L277.75 340.281L278.34 340.305L278.68 340.12L279.516 339.797L280.169 339.43L280.644 339.301L280.926 339.381L281.14 339.636L281.254 340.134L281.282 340.413L281.746 340.677L282.089 340.572L282.221 340.265L282.228 340.113L282.226 338.756V337.581L282.224 336.476V335.131L282.221 333.958V332.994L282.219 331.987L281.921 332.044L281.546 332.273L280.681 332.301L280.343 332.472L280.239 332.732L280.304 333.069L280.322 333.528L280.194 333.743L279.817 333.829L279.267 333.651L278.272 333.422L277.443 333.279L276.846 332.671L276.04 331.753L275.511 331.292L274.239 330.335L274.022 330.143L273.635 329.696L273.304 328.938L273.141 328.435L272.988 328.06L272.818 327.503L273.125 326.647L273.556 325.018L273.868 323.845L274.041 322.977L274.658 322.092L274.702 321.301L274.453 320.287L274.516 319.728L274.558 318.307L274.593 317.114L274.602 316.533L274.432 315.525L274.015 314.408L273.097 312.854L273.102 312.522L273.647 312.154L274.511 311.513L274.935 311.131L275.443 310.591L275.669 310.315L276.168 309.622L276.483 309.058L276.592 308.33L276.354 307.637L276.839 307.501L278.43 307.258L280.183 306.989L282.03 306.703L283.894 306.418L285.7 306.139L287.338 305.889L288.47 305.713L288.638 306.188L288.992 306.979L289.391 307.56L289.892 308.07L290.316 308.379L290.598 308.473L292.392 308.44L293.035 308.749L293.596 309.142L293.736 309.751L294.104 310.132L294.503 310.432L294.675 310.469L294.969 310.397L295.449 310.39L295.894 310.521L296.106 310.654L296.127 311.164L296.262 311.391L296.868 311.481L297.485 311.52L298.082 311.867L298.725 311.928L299.47 312.071L299.824 312.443L300.614 312.824L301.584 313.166L302.283 313.552L302.653 313.729Z" fill="black"/>
<path d="M291.979 402.155L291.388 401.752L290.579 401.49L289.549 401.369L288.214 401.418L286.569 401.64L284.805 401.371L282.92 400.617L281.357 400.35L279.488 400.678L279.404 400.685L279.083 400.43L278.57 399.88L277.72 399.782L277.489 399.655L277.298 399.449L277.172 399.187L277.123 398.895L277.263 397.991L277.186 397.891L276.96 397.781L276.492 397.673L275.371 397.264L273.959 396.866L271.669 396.43L270.779 396.318L270.571 396.185L270.315 395.852L269.875 394.816L269.462 394.132L268.477 393.077L268.321 392.751L268.37 391.913L268.442 391.239L268.547 390.668L268.5 390.132L268.486 389.468L268.516 389.023L268.384 388.831L268.027 388.695L267.009 388.634L265.779 388.66L265.739 387.986L265.62 386.942L265.392 386.343L265.108 386.032L264.541 385.706L263.397 385.262L261.839 384.585L260.506 383.584L258.98 382.341L258.502 382.125L257.938 380.96L257.081 378.966L257.137 378.303L257.006 377.978L256.172 377.002L255.988 376.494L255.841 375.982L254.516 374.554L254.064 373.931L253.719 373.131L253.376 372.492L253.087 372.235L252.71 371.802L252.449 371.305L252.328 370.936L252.428 370.442L252.556 370.102L253.817 370.454L254.506 370.484L255.047 370.311L255.713 370.545L256.51 371.186L257.377 371.31L258.316 370.912L259.583 371.034L261.179 371.673L262.503 371.801L264.078 371.23L265.483 369.653L266.806 368.171L268.106 366.463L268.889 365.084L270.038 363.963L271.552 363.099L273.095 362.371L275.455 361.48V361.482L275.926 360.745L276.084 359.944V358.83L276.205 358.109L276.452 357.779L276.844 357.524L277.349 357.192L278.903 356.347L280.206 355.806L281.79 355.451L283.526 355.448L285.199 355.444L286.15 355.441L286.164 356.511L286.236 357.716L286.422 357.831L287.681 357.857L289.698 357.943L291.644 358.023L292.886 358.898L293.303 359.085L294.594 359.319L296.243 360.777L298.228 360.913L299.594 361.369L300.796 361.87L301.488 362.472L301.935 362.608L302.541 362.652L302.835 362.708L302.772 363.141L302.366 363.876L302.42 364.93L302.977 366.39L303.051 367.663L302.881 369.908L302.886 372.087L302.944 372.866L303.035 373.381L303.154 373.664L303.131 373.987L302.8 374.905L302.534 375.869L302.525 376.255L302.422 376.529L302.224 376.77L301.358 377.217L301.211 377.493L301.213 377.994L301.323 378.415L301.649 378.57L302.04 378.808L302.194 379.122L302.196 379.454L302.071 380.07L301.721 381.088L302.071 382.263L302.46 383.026L302.998 383.906L303.222 384.451L303.21 384.842L303.128 385.224L302.325 386.839L301.744 387.845L301.036 388.922L300.099 389.598L299.857 389.923L299.762 390.293L299.794 391.103L299.752 391.953L298.951 393.256L299.447 394.38L299.335 394.485L299.065 394.644L297.912 395.91L296.744 397.195L295.891 398.134L294.922 399.201L293.836 400.399L292.907 401.427L291.979 402.155Z" fill="black"/>
</g>
<defs>
<filter id="filter0_d_284_2" x="0" y="-23" width="625" height="574" filterUnits="userSpaceOnUse" color-interpolation-filters="sRGB">
<feFlood flood-opacity="0" result="BackgroundImageFix"/>
<feColorMatrix in="SourceAlpha" type="matrix" values="0 0 0 0 0 0 0 0 0 0 0 0 0 0 0 0 0 0 127 0" result="hardAlpha"/>
<feOffset/>
<feGaussianBlur stdDeviation="17"/>
<feColorMatrix type="matrix" values="0 0 0 0 0.67451 0 0 0 0 0.415686 0 0 0 0 1 0 0 0 1 0"/>
<feBlend mode="normal" in2="BackgroundImageFix" result="effect1_dropShadow_284_2"/>
<feBlend mode="normal" in="SourceGraphic" in2="effect1_dropShadow_284_2" result="shape"/>
</filter>
<clipPath id="clip0_284_2">
<rect width="557" height="506" fill="white" transform="translate(34 11)"/>
</clipPath>
</defs>
</svg>
