<svg width="24" height="24" viewBox="0 0 24 24" fill="none" xmlns="http://www.w3.org/2000/svg">
<path d="M9.35728 8C9.20573 8 9.06039 8.0602 8.95322 8.16737C8.84606 8.27453 8.78585 8.41988 8.78585 8.57143V9.71429C8.78585 9.86584 8.84606 10.0112 8.95322 10.1183C9.06039 10.2255 9.20573 10.2857 9.35728 10.2857H10.5001C10.6517 10.2857 10.797 10.2255 10.9042 10.1183C11.0114 10.0112 11.0716 9.86584 11.0716 9.71429V8.57143C11.0716 8.41988 11.0114 8.27453 10.9042 8.16737C10.797 8.0602 10.6517 8 10.5001 8H9.35728ZM6.50014 10.8571C6.34859 10.8571 6.20324 10.9173 6.09608 11.0245C5.98891 11.1317 5.92871 11.277 5.92871 11.4286V12.5714C5.92871 12.723 5.98891 12.8683 6.09608 12.9755C6.20324 13.0827 6.34859 13.1429 6.50014 13.1429H7.643C7.79455 13.1429 7.93989 13.0827 8.04706 12.9755C8.15422 12.8683 8.21443 12.723 8.21443 12.5714V11.4286C8.21443 11.277 8.15422 11.1317 8.04706 11.0245C7.93989 10.9173 7.79455 10.8571 7.643 10.8571H6.50014ZM8.78585 14.2857C8.78585 14.1342 8.84606 13.9888 8.95322 13.8817C9.06039 13.7745 9.20573 13.7143 9.35728 13.7143H10.5001C10.6517 13.7143 10.797 13.7745 10.9042 13.8817C11.0114 13.9888 11.0716 14.1342 11.0716 14.2857V15.4286C11.0716 15.5801 11.0114 15.7255 10.9042 15.8326C10.797 15.9398 10.6517 16 10.5001 16H9.35728C9.20573 16 9.06039 15.9398 8.95322 15.8326C8.84606 15.7255 8.78585 15.5801 8.78585 15.4286V14.2857ZM6.50014 8C6.34859 8 6.20324 8.0602 6.09608 8.16737C5.98891 8.27453 5.92871 8.41988 5.92871 8.57143V9.71429C5.92871 9.86584 5.98891 10.0112 6.09608 10.1183C6.20324 10.2255 6.34859 10.2857 6.50014 10.2857H7.643C7.79455 10.2857 7.93989 10.2255 8.04706 10.1183C8.15422 10.0112 8.21443 9.86584 8.21443 9.71429V8.57143C8.21443 8.41988 8.15422 8.27453 8.04706 8.16737C7.93989 8.0602 7.79455 8 7.643 8H6.50014ZM6.50014 13.7143C6.34859 13.7143 6.20324 13.7745 6.09608 13.8817C5.98891 13.9888 5.92871 14.1342 5.92871 14.2857V15.4286C5.92871 15.5801 5.98891 15.7255 6.09608 15.8326C6.20324 15.9398 6.34859 16 6.50014 16H7.643C7.79455 16 7.93989 15.9398 8.04706 15.8326C8.15422 15.7255 8.21443 15.5801 8.21443 15.4286V14.2857C8.21443 14.1342 8.15422 13.9888 8.04706 13.8817C7.93989 13.7745 7.79455 13.7143 7.643 13.7143H6.50014ZM11.643 11.4286C11.643 11.277 11.7032 11.1317 11.8104 11.0245C11.9175 10.9173 12.0629 10.8571 12.2144 10.8571H13.3573C13.5088 10.8571 13.6542 10.9173 13.7613 11.0245C13.8685 11.1317 13.9287 11.277 13.9287 11.4286V12.5714C13.9287 12.723 13.8685 12.8683 13.7613 12.9755C13.6542 13.0827 13.5088 13.1429 13.3573 13.1429H12.2144C12.0629 13.1429 11.9175 13.0827 11.8104 12.9755C11.7032 12.8683 11.643 12.723 11.643 12.5714V11.4286ZM11.643 8.57143C11.643 8.41988 11.7032 8.27453 11.8104 8.16737C11.9175 8.0602 12.0629 8 12.2144 8H13.3573C13.5088 8 13.6542 8.0602 13.7613 8.16737C13.8685 8.27453 13.9287 8.41988 13.9287 8.57143V9.71429C13.9287 9.86584 13.8685 10.0112 13.7613 10.1183C13.6542 10.2255 13.5088 10.2857 13.3573 10.2857H12.2144C12.0629 10.2857 11.9175 10.2255 11.8104 10.1183C11.7032 10.0112 11.643 9.86584 11.643 9.71429V8.57143ZM8.78585 11.4286C8.78585 11.277 8.84606 11.1317 8.95322 11.0245C9.06039 10.9173 9.20573 10.8571 9.35728 10.8571H10.5001C10.6517 10.8571 10.797 10.9173 10.9042 11.0245C11.0114 11.1317 11.0716 11.277 11.0716 11.4286V12.5714C11.0716 12.723 11.0114 12.8683 10.9042 12.9755C10.797 13.0827 10.6517 13.1429 10.5001 13.1429H9.35728C9.20573 13.1429 9.06039 13.0827 8.95322 12.9755C8.84606 12.8683 8.78585 12.723 8.78585 12.5714V11.4286ZM12.2144 13.7143C12.0629 13.7143 11.9175 13.7745 11.8104 13.8817C11.7032 13.9888 11.643 14.1342 11.643 14.2857V15.4286C11.643 15.5801 11.7032 15.7255 11.8104 15.8326C11.9175 15.9398 12.0629 16 12.2144 16H13.3573C13.5088 16 13.6542 15.9398 13.7613 15.8326C13.8685 15.7255 13.9287 15.5801 13.9287 15.4286V14.2857C13.9287 14.1342 13.8685 13.9888 13.7613 13.8817C13.6542 13.7745 13.5088 13.7143 13.3573 13.7143H12.2144Z" fill="#CDD1D7"/>
<path fill-rule="evenodd" clip-rule="evenodd" d="M5.0021 4.5021C5.32359 4.18061 5.75963 4 6.21429 4H13.6429C14.0975 4 14.5335 4.18061 14.855 4.5021C15.1765 4.82359 15.3571 5.25963 15.3571 5.71429V18.2857C15.3571 18.7404 15.1765 19.1764 14.855 19.4979C14.5335 19.8194 14.0975 20 13.6429 20H6.21429C5.75963 20 5.32359 19.8194 5.0021 19.4979C4.68061 19.1764 4.5 18.7404 4.5 18.2857V5.71429C4.5 5.25963 4.68061 4.82359 5.0021 4.5021ZM14.7857 17.7143V6.28571H5.07143V17.7143H14.7857ZM10.0246 19.2381C10.3401 19.2381 10.596 18.9822 10.596 18.6666C10.596 18.3511 10.3401 18.0952 10.0246 18.0952C9.70896 18.0952 9.45312 18.3511 9.45312 18.6666C9.45312 18.9822 9.70896 19.2381 10.0246 19.2381Z" fill="#CDD1D7"/>
</svg>
