<svg width="338" height="168" viewBox="0 0 338 168" fill="none" xmlns="http://www.w3.org/2000/svg">
<path d="M19.7661 44.1692H34.2408C36.9646 44.1692 39.0934 44.9028 40.566 46.1852C42.2263 47.6738 43.1632 49.8493 43.1632 52.4586C43.1632 55.4783 42.0128 57.405 39.6725 58.5512V58.6895C42.7363 59.7889 44.4836 62.7193 44.4836 66.292C44.4836 69.6817 43.2917 72.3379 41.2914 73.9413C39.631 75.2236 37.4172 75.8659 34.5215 75.8659H19.7918V44.1692H19.7661ZM32.8117 56.582C34.3871 56.582 35.494 55.6676 35.494 53.7877C35.494 52.0014 34.3021 51.0869 32.7702 51.0869H27.7892V56.5374H32.8097L32.8117 56.582ZM33.5352 68.8567C35.2805 68.8567 36.5989 67.7126 36.5989 65.603C36.5989 63.4041 35.2153 62.3493 33.4917 62.3493H27.7872V68.8524L33.5352 68.8567ZM45.9245 44.1883H53.5029V75.9297H45.9245V44.1883Z" fill="white"/>
<path d="M55.0151 64.5991C55.0151 57.4538 59.3143 52.5988 65.9557 52.5988C72.5971 52.5988 76.8112 57.4538 76.8112 64.5991C76.8112 71.787 72.5971 76.5994 65.9557 76.5994C59.3143 76.5994 55.0151 71.7934 55.0151 64.5991ZM69.3198 64.5991C69.3198 60.6607 68.128 58.1407 65.8707 58.1407C63.6134 58.1407 62.5104 60.6139 62.5104 64.5991C62.5104 68.5844 63.6173 71.0576 65.8707 71.0576C68.128 71.1044 69.3198 68.629 69.3198 64.5991Z" fill="white"/>
<path d="M77.748 64.5991C77.748 57.4538 82.0472 52.5988 88.6886 52.5988C95.33 52.5988 99.5441 57.4538 99.5441 64.5991C99.5441 71.787 95.33 76.5994 88.6886 76.5994C82.0472 76.5994 77.748 71.7934 77.748 64.5991ZM92.0528 64.5991C92.0528 60.6607 90.8609 58.1407 88.6036 58.1407C86.3463 58.1407 85.2433 60.6139 85.2433 64.5991C85.2433 68.5844 86.3502 71.0576 88.6036 71.0576C90.8609 71.1044 92.0528 68.629 92.0528 64.5991Z" fill="white"/>
<path d="M101.078 53.2411H108.12V56.6308H108.249C109.632 53.9726 111.569 52.5542 114.574 52.5542C117.213 52.5542 119.215 53.9748 120.237 56.4459H120.365C122.069 53.4686 124.325 52.5542 126.878 52.5542C131.774 52.5542 133.86 56.4458 133.86 61.6219V75.9126H126.451V63.0893C126.451 60.7543 125.769 59.2614 123.898 59.2614C122.067 59.2614 121.13 61.0946 121.13 63.5678V75.9339H113.807V63.1106C113.807 60.7756 113.125 59.2827 111.253 59.2827C109.423 59.2827 108.486 61.1158 108.486 63.589V75.9551H101.078V53.2857V53.2411ZM143.225 72.9332H143.14V75.8636H136.115V44.1266H143.502V55.5761H143.63C145.014 53.6069 146.907 52.5563 149.633 52.5563C154.911 52.5563 157.974 57.6856 157.974 64.5077C157.974 72.2017 154.654 76.6462 149.163 76.6462C146.82 76.6462 144.478 75.4554 143.203 72.9354L143.225 72.9332ZM150.42 64.4609C150.42 60.7968 149.184 58.4639 146.929 58.4639C144.674 58.4639 143.225 60.7989 143.225 64.4609C143.225 68.0761 144.672 70.4579 146.929 70.4579C149.186 70.4579 150.42 68.1229 150.42 64.4609ZM158.804 64.5077C158.804 57.4538 163.147 52.5074 169.447 52.5074C172.597 52.5074 174.981 53.5601 176.855 55.4379C179.282 57.9579 180.389 61.9409 180.304 66.5683H166.171C166.468 69.4073 167.747 70.8279 169.96 70.8279C171.237 70.8279 172.388 70.1857 172.856 68.6758H179.966C178.731 73.8519 174.985 76.4591 169.688 76.4591C163.175 76.5059 158.789 71.787 158.789 64.5077H158.804ZM166.169 62.1727H172.896C172.767 59.4252 171.364 58.0046 169.618 58.0046C167.575 58.0046 166.468 59.5613 166.169 62.1727ZM188.691 57.1327H188.819C190.351 53.9726 192.353 52.7817 194.864 52.7817C195.461 52.7817 195.842 52.8732 196.056 53.0114V59.9738H195.886C191.543 59.1487 188.968 61.3476 188.968 66.4769V75.9126H181.559V53.2857H188.584V57.1136L188.691 57.1327Z" fill="white"/>
<path d="M196.91 75.9127H204.02C204.277 76.8739 205.212 77.8372 207 77.8372C209.384 77.8372 210.193 76.2338 210.193 73.8988V72.2507H210.023C208.831 73.7393 207.299 74.8154 204.957 74.8154C200.401 74.8154 196.485 71.2002 196.485 64.1442C196.485 57.6411 199.721 52.6011 204.617 52.6011C207.423 52.6011 209.173 53.8387 210.28 55.7611H210.408V53.2879H217.427V72.8908C217.427 76.506 216.235 79.3492 214.49 80.9973C212.659 82.7836 210.023 83.4705 207.038 83.4705C201.503 83.4705 197.59 80.9973 196.906 75.9127H196.91ZM210.489 63.7273C210.489 60.8883 209.254 58.6235 207.083 58.6235C204.998 58.6235 203.678 60.6395 203.678 63.7273C203.678 66.7471 204.998 68.9481 207.083 68.9481C209.254 68.9481 210.489 66.7045 210.489 63.7273Z" fill="white"/>
</svg>
