<svg xmlns="http://www.w3.org/2000/svg" version="1.1" xmlns:xlink="http://www.w3.org/1999/xlink" xmlns:svgjs="http://svgjs.dev/svgjs" viewBox="0 0 800 800"><defs><linearGradient x1="50%" y1="0%" x2="50%" y2="100%" id="ccchaos-grad"><stop stop-color="hsl(206, 75%, 49%)" stop-opacity="1" offset="0%"></stop><stop stop-color="hsl(331, 90%, 56%)" stop-opacity="1" offset="100%"></stop></linearGradient></defs><g stroke-width="2" stroke="url(#ccchaos-grad)" fill="none" stroke-linecap="round"><path d="M383.62 103.18C393.11 101.71 402.64 101.12 412.22 101.39 421.82 102.08 431.49 103.64 441.21 106.04 450.99 108.82 460.86 112.38 470.83 116.65 480.89 121.2 491.07 126.37 501.38 132.08 511.8 137.94 522.36 144.22 533.02 150.87 543.79 157.52 554.64 164.44 565.52 171.57 576.41 178.59 587.24 185.76 597.89 193.06 608.39 200.17 618.56 207.38 628.25 214.67 637.54 221.74 646.14 228.91 653.87 236.17 660.95 243.23 666.96 250.41 671.78 257.71 675.75 264.85 678.42 272.16 679.74 279.64 680.24 286.99 679.48 294.56 677.53 302.36 675.09 310.07 671.78 318.03 667.79 326.26 663.93 334.44 659.88 342.9 655.88 351.66 652.74 360.39 650.13 369.43 648.28 378.78 647.81 388.11 648.34 397.78 649.92 407.76 652.95 417.75 656.79 427.84 661.2 438 666.49 448.17 671.85 458.41 676.98 468.7 682.19 479 686.64 489.34 690.11 499.67 692.96 510 694.48 520.29 694.57 530.5 693.69 540.66 691.29 550.69 687.45 560.5 682.62 570.2 676.47 579.61 669.17 588.66 661.14 597.48 652.21 605.83 642.57 613.61 632.55 621.06 622.07 627.84 611.32 633.86 600.49 639.45 589.57 644.21 578.67 648.07 567.9 651.47 557.24 653.96 546.75 655.54 536.47 656.74 526.37 657.11 516.45 656.7 506.74 656.14 497.18 655.01 487.74 653.41 478.47 652.01 469.26 650.41 460.1 648.77 451.04 647.73 441.97 646.92 432.87 646.46 423.81 646.92 414.69 647.91 405.5 649.48 396.32 652.09 387.05 655.26 377.71 658.93 368.36 663.44 359.15 668.09 350.12 672.71 341.08 677.66 332.23 682.21 323.58 686.18 314.96 689.96 306.56 692.84 298.43 694.72 290.33 696.02 282.51 696.13 275 695.04 267.53 693.2 260.37 690.13 253.56 685.91 246.77 680.96 240.31 674.96 234.2 668.03 228.08 660.55 222.28 652.3 216.79 643.43 211.23 634.24 205.95 624.59 200.93 614.61 195.77 604.52 190.82 594.23 186.08 583.83 181.12 573.47 176.33 563.08 171.7 552.72 166.82 542.47 162.07 532.27 157.48 522.16 152.65 512.18 147.99 502.26 143.53 492.42 138.89 482.69 134.5 473.01 130.42 463.38 126.27 453.82 122.5 444.28 119.17 434.75 115.91 425.25 113.17 415.74 111.03 406.23 109.07 396.72 107.78 387.19 107.21 377.65 106.91 368.11 107.37 358.78 108.56 349.68 110.02 340.58 112.18 331.71 114.99 323.11 118 314.52 121.6 306.2 125.72 298.19 129.94 290.19 134.6 282.51 139.65 275.18 144.66 267.87 149.98 260.91 155.56 254.32 160.99 247.74 166.62 241.53 172.41 235.68 178 229.83 183.72 224.32 189.57 219.16 195.19 213.94 200.94 209.01 206.82 204.38 212.5 199.6 218.34 195.06 224.36 190.73 230.21 186.18 236.29 181.78 242.59 177.51 248.79 172.95 255.25 168.48 261.99 164.08 268.66 159.36 275.63 154.71 282.9 150.13 290.14 145.26 297.68 140.49 305.53 135.89 313.36 131.08 321.49 126.51 329.9 122.25 338.3 117.95 346.99 114.08 355.95 110.73 364.9 107.53 374.12 104.98 383.61 103.18" stroke-dasharray="0 3" transform="rotate(0, 400, 400)" opacity="0.05"></path><path d="M387.47 113.87C396.67 112.41 405.96 111.79 415.32 111.99 424.7 112.59 434.17 114.02 443.73 116.26 453.33 118.86 463.04 122.22 472.84 126.26 482.72 130.59 492.72 135.52 502.82 140.99 513 146.61 523.29 152.68 533.63 159.12 544.03 165.58 554.44 172.33 564.81 179.31 575.13 186.21 585.32 193.29 595.25 200.5 604.97 207.55 614.3 214.72 623.08 221.98 631.44 229.05 639.09 236.22 645.86 243.47 652 250.54 657.12 257.72 661.1 265.01 664.32 272.14 666.34 279.42 667.15 286.86 667.26 294.17 666.26 301.67 664.22 309.37 661.81 316.98 658.67 324.82 654.96 332.9 651.44 340.92 647.79 349.2 644.23 357.74 641.48 366.26 639.24 375.06 637.67 384.14 637.37 393.21 637.96 402.58 639.48 412.25 642.33 421.92 645.88 431.66 649.95 441.46 654.85 451.26 659.81 461.11 664.59 470.98 669.49 480.85 673.74 490.72 677.13 500.55 680.03 510.37 681.74 520.11 682.18 529.73 681.77 539.29 679.99 548.67 676.86 557.8 672.84 566.81 667.57 575.49 661.18 583.77 654.07 591.83 646.05 599.41 637.29 606.41 628.1 613.1 618.4 619.13 608.32 624.43 598.11 629.34 587.7 633.47 577.23 636.77 566.81 639.68 556.41 641.77 546.12 643.03 535.98 644 525.96 644.24 516.09 643.8 506.4 643.29 496.84 642.28 487.4 640.89 478.12 639.73 468.91 638.43 459.79 637.11 450.75 636.37 441.75 635.85 432.76 635.66 423.83 636.32 414.88 637.45 405.91 639.08 396.96 641.66 387.97 644.74 378.95 648.24 369.94 652.51 361.1 656.9 352.47 661.23 343.84 665.9 335.41 670.19 327.22 673.96 319.03 677.59 311.09 680.41 303.42 682.33 295.76 683.75 288.39 684.1 281.32 683.34 274.26 681.92 267.51 679.37 261.08 675.73 254.64 671.44 248.52 666.13 242.71 659.93 236.86 653.19 231.3 645.69 226.02 637.55 220.64 629.06 215.51 620.09 210.61 610.74 205.56 601.23 200.69 591.47 196 581.55 191.1 571.62 186.34 561.6 181.73 551.57 176.87 541.6 172.15 531.65 167.57 521.75 162.77 511.95 158.13 502.2 153.69 492.53 149.08 482.94 144.73 473.41 140.68 463.93 136.57 454.52 132.84 445.14 129.54 435.81 126.31 426.51 123.6 417.22 121.47 407.96 119.52 398.72 118.23 389.48 117.64 380.27 117.33 371.05 117.75 362.08 118.89 353.36 120.3 344.64 122.39 336.17 125.12 327.97 128.06 319.78 131.57 311.88 135.6 304.28 139.73 296.69 144.31 289.41 149.26 282.46 154.21 275.52 159.46 268.91 164.96 262.66 170.35 256.39 175.94 250.46 181.7 244.88 187.27 239.25 192.97 233.94 198.8 228.95 204.41 223.86 210.15 219.04 216 214.47 221.65 209.75 227.45 205.23 233.41 200.9 239.19 196.34 245.17 191.91 251.35 187.6 257.41 183.01 263.71 178.49 270.25 174.05 276.71 169.31 283.44 164.64 290.45 160.06 297.41 155.21 304.66 150.48 312.2 145.92 319.71 141.19 327.52 136.69 335.61 132.52 343.68 128.31 352.05 124.53 360.69 121.26 369.33 118.14 378.25 115.65 387.46 113.87" stroke-dasharray="7 0" transform="rotate(4.04, 400, 400)" opacity="0.09"></path><path d="M391.94 124.55C400.88 123.11 409.92 122.46 419.04 122.6 428.18 123.11 437.43 124.42 446.76 126.49 456.14 128.91 465.62 132.06 475.2 135.88 484.83 139.97 494.56 144.66 504.36 149.87 514.21 155.26 524.12 161.08 534.03 167.28 543.96 173.54 553.84 180.09 563.61 186.89 573.29 193.64 582.75 200.59 591.9 207.68 600.81 214.65 609.26 221.75 617.13 228.94 624.58 235.98 631.29 243.11 637.15 250.33 642.42 257.39 646.7 264.55 649.93 271.82 652.5 278.94 653.97 286.19 654.35 293.57 654.16 300.84 652.98 308.27 650.92 315.87 648.59 323.39 645.65 331.12 642.24 339.04 639.07 346.92 635.82 355.02 632.67 363.36 630.3 371.67 628.38 380.24 627.08 389.05 626.94 397.86 627.58 406.93 629.04 416.27 631.71 425.6 635 434.99 638.74 444.39 643.25 453.81 647.83 463.24 652.26 472.65 656.86 482.06 660.88 491.44 664.17 500.75 667.06 510.02 668.91 519.19 669.63 528.19 669.63 537.12 668.38 545.84 665.89 554.28 662.61 562.59 658.15 570.54 652.62 578.08 646.41 585.4 639.3 592.23 631.42 598.5 623.09 604.47 614.19 609.81 604.86 614.45 595.33 618.76 585.54 622.33 575.59 625.15 565.63 627.64 555.62 629.39 545.64 630.41 535.75 631.21 525.93 631.37 516.23 630.96 506.65 630.52 497.18 629.67 487.84 628.5 478.61 627.59 469.48 626.58 460.43 625.57 451.48 625.12 442.58 624.87 433.73 624.92 424.93 625.75 416.16 627 407.41 628.69 398.68 631.24 389.96 634.21 381.25 637.55 372.55 641.59 364.06 645.71 355.8 649.78 347.53 654.16 339.5 658.2 331.71 661.77 323.92 665.24 316.39 667.98 309.13 669.91 301.87 671.42 294.88 671.96 288.2 671.5 281.5 670.46 275.09 668.37 268.99 665.27 262.86 661.58 257.01 656.93 251.45 651.42 245.82 645.4 240.46 638.63 235.34 631.22 230.11 623.45 225.1 615.17 220.29 606.48 215.31 597.61 210.5 588.43 205.84 579.05 200.98 569.61 196.24 560.04 191.64 550.41 186.81 540.8 182.1 531.17 177.53 521.57 172.76 512.02 168.15 502.51 163.73 493.06 159.17 483.68 154.86 474.34 150.85 465.08 146.8 455.86 143.11 446.69 139.86 437.57 136.68 428.49 134 419.45 131.89 410.46 129.97 401.48 128.68 392.53 128.08 383.64 127.75 374.75 128.14 366.12 129.22 357.76 130.57 349.39 132.58 341.29 135.22 333.47 138.07 325.65 141.48 318.12 145.41 310.89 149.44 303.66 153.91 296.73 158.77 290.13 163.62 283.51 168.79 277.21 174.22 271.24 179.55 265.24 185.09 259.55 190.79 254.18 196.33 248.74 202.02 243.59 207.82 238.71 213.42 233.73 219.14 228.98 224.98 224.46 230.62 219.77 236.39 215.26 242.31 210.91 248.04 206.33 253.96 201.87 260.05 197.52 266 192.9 272.17 188.35 278.56 183.88 284.86 179.13 291.4 174.46 298.2 169.89 304.93 165.07 311.94 160.39 319.22 155.89 326.46 151.23 333.99 146.83 341.8 142.74 349.58 138.64 357.65 134.96 366.01 131.77 374.35 128.74 382.99 126.3 391.93 124.56" stroke-dasharray="3 9" transform="rotate(8.08, 400, 400)" opacity="0.13"></path><path d="M396.82 135.24C405.49 133.81 414.26 133.14 423.12 133.22 432 133.64 440.98 134.83 450.05 136.74 459.15 138.99 468.35 141.93 477.62 145.51 486.93 149.36 496.31 153.8 505.72 158.75 515.16 163.87 524.61 169.44 534.01 175.39 543.38 181.41 552.65 187.75 561.75 194.34 570.72 200.91 579.42 207.68 587.74 214.62 595.81 221.48 603.39 228.47 610.36 235.56 616.92 242.53 622.75 249.6 627.76 256.76 632.22 263.79 635.76 270.91 638.33 278.12 640.32 285.21 641.34 292.41 641.37 299.72 640.96 306.94 639.69 314.3 637.65 321.8 635.45 329.23 632.73 336.83 629.63 344.61 626.81 352.33 623.94 360.26 621.2 368.39 619.18 376.5 617.58 384.82 616.52 393.37 616.51 401.9 617.2 410.67 618.61 419.66 621.1 428.65 624.13 437.66 627.56 446.66 631.71 455.66 635.91 464.64 640 473.58 644.27 482.51 648.07 491.37 651.21 500.13 654.07 508.84 656 517.41 656.94 525.79 657.27 534.09 656.48 542.14 654.57 549.89 651.95 557.51 648.23 564.76 643.51 571.58 638.15 578.19 631.91 584.32 624.9 589.89 617.44 595.21 609.37 599.92 600.83 603.97 592.05 607.74 582.93 610.84 573.59 613.25 564.18 615.4 554.66 616.88 545.1 617.72 535.58 618.41 526.07 618.55 516.63 618.18 507.28 617.86 498 617.18 488.83 616.25 479.74 615.59 470.75 614.86 461.85 614.14 453.03 613.96 444.27 613.97 435.6 614.24 426.97 615.23 418.39 616.58 409.87 618.31 401.36 620.82 392.9 623.69 384.49 626.87 376.08 630.68 367.91 634.55 359.99 638.35 352.07 642.45 344.39 646.24 336.97 649.6 329.53 652.9 322.36 655.55 315.46 657.46 308.55 659.04 301.91 659.73 295.54 659.52 289.16 658.8 283.05 657.13 277.21 654.53 271.33 651.39 265.71 647.36 260.35 642.5 254.9 637.18 249.69 631.12 244.7 624.42 239.58 617.37 234.65 609.79 229.9 601.78 224.98 593.56 220.2 585.01 215.57 576.21 210.73 567.32 206.01 558.26 201.41 549.09 196.6 539.91 191.91 530.68 187.35 521.43 182.62 512.22 178.04 503.02 173.66 493.86 169.16 484.74 164.9 475.66 160.94 466.65 156.95 457.67 153.33 448.75 150.12 439.89 147 431.06 144.37 422.28 142.29 413.56 140.41 404.86 139.13 396.22 138.52 387.65 138.17 379.08 138.52 370.77 139.54 362.75 140.83 354.72 142.76 346.96 145.3 339.49 148.05 332.01 151.35 324.82 155.15 317.92 159.07 311.01 163.43 304.4 168.16 298.09 172.92 291.76 177.98 285.72 183.31 279.98 188.57 274.21 194.04 268.72 199.68 263.51 205.18 258.22 210.83 253.19 216.6 248.4 222.19 243.5 227.9 238.8 233.72 234.3 239.35 229.63 245.1 225.11 250.98 220.74 256.7 216.14 262.56 211.65 268.58 207.26 274.47 202.61 280.54 198.04 286.81 193.55 292.98 188.81 299.38 184.15 306 179.6 312.56 174.84 319.36 170.22 326.42 165.78 333.44 161.23 340.72 156.92 348.27 152.94 355.8 148.95 363.61 145.37 371.7 142.28 379.77 139.33 388.14 136.96 396.81 135.24" stroke-dasharray="2 4" transform="rotate(12.12, 400, 400)" opacity="0.16"></path><path d="M401.86 145.93C410.25 144.52 418.74 143.83 427.31 143.85 435.9 144.19 444.59 145.25 453.34 147 462.12 149.07 470.97 151.81 479.87 155.15 488.79 158.77 497.75 162.94 506.7 167.61 515.64 172.47 524.55 177.77 533.37 183.45 542.12 189.22 550.72 195.3 559.1 201.66 567.32 208.02 575.23 214.59 582.73 221.35 589.96 228.05 596.67 234.89 602.78 241.85 608.5 248.72 613.51 255.69 617.73 262.76 621.47 269.71 624.35 276.76 626.35 283.89 627.86 290.92 628.5 298.05 628.28 305.28 627.71 312.42 626.4 319.69 624.44 327.08 622.4 334.4 619.93 341.87 617.15 349.49 614.68 357.06 612.18 364.81 609.81 372.72 608.13 380.62 606.82 388.69 605.98 396.96 606.1 405.21 606.83 413.66 608.17 422.29 610.49 430.92 613.28 439.54 616.41 448.12 620.21 456.69 624.06 465.22 627.8 473.66 631.76 482.1 635.31 490.43 638.29 498.61 641.07 506.76 643.05 514.73 644.14 522.48 644.74 530.15 644.33 537.55 642.92 544.63 640.89 551.57 637.85 558.14 633.87 564.29 629.31 570.24 623.89 575.72 617.73 580.66 611.12 585.38 603.89 589.52 596.16 593.07 588.15 596.37 579.76 599.07 571.1 601.14 562.32 603.01 553.37 604.29 544.32 605.02 535.26 605.64 526.16 605.79 517.08 605.52 508.05 605.32 499.05 604.84 490.14 604.14 481.29 603.74 472.51 603.28 463.82 602.84 455.19 602.91 446.64 603.15 438.17 603.62 429.74 604.75 421.38 606.18 413.1 607.94 404.84 610.4 396.63 613.16 388.51 616.18 380.39 619.77 372.52 623.39 364.91 626.94 357.3 630.77 349.94 634.31 342.84 637.46 335.72 640.59 328.87 643.13 322.28 645.01 315.67 646.62 309.32 647.43 303.23 647.43 297.11 646.99 291.24 645.69 285.62 643.53 279.95 640.9 274.51 637.43 269.3 633.19 264 628.51 258.9 623.13 254 617.13 248.96 610.79 244.09 603.91 239.38 596.59 234.5 589.04 229.75 581.14 225.13 572.96 220.31 564.66 215.6 556.15 211.01 547.5 206.22 538.81 201.55 530.03 197.02 521.21 192.33 512.4 187.8 503.56 183.47 494.75 179.03 485.96 174.84 477.19 170.95 468.48 167.04 459.8 163.49 451.16 160.34 442.59 157.3 434.04 154.72 425.55 152.68 417.13 150.83 408.72 149.57 400.38 148.95 392.13 148.59 383.87 148.91 375.89 149.87 368.19 151.09 360.48 152.93 353.04 155.36 345.88 158 338.72 161.18 331.83 164.84 325.23 168.64 318.61 172.86 312.27 177.45 306.21 182.09 300.12 187.03 294.31 192.25 288.77 197.41 283.19 202.79 277.85 208.36 272.77 213.8 267.61 219.4 262.67 225.12 257.94 230.69 253.1 236.37 248.43 242.16 243.94 247.78 239.28 253.52 234.75 259.37 230.35 265.06 225.74 270.89 221.22 276.85 216.8 282.69 212.14 288.69 207.56 294.87 203.07 300.94 198.35 307.22 193.72 313.7 189.21 320.11 184.51 326.75 179.97 333.62 175.62 340.44 171.17 347.51 166.97 354.84 163.1 362.13 159.23 369.7 155.77 377.53 152.77 385.35 149.91 393.46 147.61 401.85 145.93" stroke-dasharray="7 3" transform="rotate(16.16, 400, 400)" opacity="0.20"></path><path d="M406.8 156.62C414.91 155.23 423.1 154.52 431.35 154.48 439.62 154.75 447.96 155.69 456.36 157.29 464.76 159.19 473.21 161.71 481.68 164.82 490.15 168.19 498.62 172.1 507.05 176.49 515.44 181.07 523.76 186.08 531.94 191.47 540.03 196.97 547.92 202.78 555.55 208.87 563.01 214.99 570.12 221.34 576.8 227.88 583.21 234.39 589.11 241.05 594.4 247.84 599.33 254.56 603.59 261.4 607.1 268.33 610.2 275.18 612.52 282.12 614.04 289.14 615.16 296.07 615.51 303.1 615.11 310.22 614.45 317.27 613.16 324.42 611.32 331.67 609.46 338.87 607.25 346.19 604.8 353.63 602.67 361.04 600.53 368.59 598.52 376.27 597.14 383.94 596.1 391.76 595.47 399.73 595.7 407.69 596.45 415.8 597.73 424.06 599.89 432.33 602.45 440.54 605.3 448.68 608.75 456.82 612.26 464.87 615.67 472.81 619.32 480.74 622.6 488.53 625.41 496.15 628.08 503.73 630.05 511.11 631.25 518.24 632.05 525.29 631.96 532.05 630.97 538.49 629.45 544.8 627.01 550.73 623.71 556.24 619.88 561.59 615.24 566.47 609.88 570.85 604.1 575.03 597.7 578.69 590.77 581.79 583.56 584.7 575.93 587.06 567.99 588.87 559.89 590.53 551.57 591.67 543.11 592.32 534.59 592.93 525.98 593.14 517.35 592.98 508.72 592.94 500.1 592.65 491.53 592.2 482.99 592.03 474.5 591.83 466.09 591.66 457.72 591.96 449.42 592.41 441.2 593.06 433.02 594.3 424.91 595.81 416.89 597.58 408.88 599.98 400.95 602.63 393.11 605.49 385.26 608.87 377.68 612.25 370.37 615.55 363.04 619.11 355.97 622.41 349.17 625.35 342.34 628.3 335.76 630.72 329.44 632.55 323.09 634.16 316.98 635.06 311.13 635.23 302.39 634.54 285.96 628.63 278.22 623.48 273.02 619.41 268.01 614.68 263.17 609.34 258.2 603.68 253.37 597.49 248.69 590.85 243.83 583.99 239.1 576.74 234.48 569.2 229.69 561.52 224.99 553.61 220.41 545.52 215.66 537.37 211.02 529.09 206.53 520.75 201.89 512.38 197.42 503.97 193.15 495.56 188.79 487.15 184.69 478.75 180.87 470.39 177.05 462.04 173.59 453.73 170.52 445.48 167.55 437.25 165.05 429.07 163.05 420.97 161.25 412.87 160.01 404.85 159.39 396.91 159.02 388.97 159.29 381.3 160.19 373.91 161.34 366.51 163.09 359.37 165.4 352.51 167.92 345.63 170.96 339.02 174.48 332.68 178.13 326.32 182.2 320.22 186.65 314.38 191.14 308.51 195.95 302.88 201.03 297.51 206.08 292.08 211.35 286.87 216.81 281.9 222.18 276.83 227.7 271.96 233.36 267.28 238.88 262.48 244.53 257.83 250.27 253.34 255.87 248.68 261.58 244.14 267.4 239.72 273.07 235.1 278.87 230.57 284.79 226.13 290.58 221.48 296.53 216.9 302.62 212.42 308.62 207.74 314.79 203.16 321.15 198.7 327.44 194.09 333.93 189.63 340.63 185.38 347.28 181.05 354.16 176.98 361.28 173.22 368.36 169.49 375.7 166.14 383.28 163.24 390.85 160.49 398.69 158.26 406.79 156.62" stroke-dasharray="11 2" transform="rotate(20.200000000000003, 400, 400)" opacity="0.24"></path><path d="M411.41 167.3C419.21 165.94 427.07 165.22 434.98 165.13 442.9 165.32 450.86 166.15 458.85 167.6 466.84 169.32 474.85 171.64 482.84 174.52 490.81 177.64 498.75 181.27 506.6 185.38 514.4 189.68 522.09 194.39 529.59 199.48 537 204.68 544.17 210.21 551.04 216.01 557.74 221.86 564.07 227.95 569.95 234.24 575.59 240.52 580.71 246.96 585.25 253.54 589.47 260.08 593.05 266.75 595.95 273.5 598.5 280.2 600.34 286.99 601.46 293.86 602.28 300.67 602.42 307.57 601.91 314.54 601.21 321.45 599.99 328.46 598.3 335.55 596.65 342.6 594.72 349.75 592.59 357 590.78 364.21 588.99 371.55 587.31 378.98 586.22 386.41 585.42 393.95 584.98 401.61 585.31 409.26 586.08 417.04 587.3 424.91 589.3 432.79 591.64 440.59 594.22 448.28 597.35 455.97 600.52 463.55 603.62 470.99 606.95 478.41 609.97 485.66 612.59 492.72 615.12 499.74 617.05 506.54 618.31 513.07 619.33 522.62 616.73 539.91 613.07 547.52 609.9 552.31 605.98 556.66 601.37 560.54 596.37 564.26 590.76 567.5 584.63 570.23 578.21 572.82 571.36 574.91 564.15 576.51 556.78 578.01 549.14 579.07 541.31 579.7 533.39 580.34 525.35 580.62 517.23 580.6 509.09 580.72 500.92 580.64 492.76 580.42 484.61 580.49 476.48 580.53 468.4 580.6 460.36 581.11 452.36 581.75 444.44 582.55 436.55 583.89 428.72 585.45 420.98 587.23 413.26 589.56 405.61 592.1 398.05 594.8 390.49 597.97 383.19 601.12 376.15 604.18 369.1 607.49 362.3 610.54 355.75 613.28 349.17 616.04 342.84 618.33 336.75 620.09 327.68 622.16 310.59 622.58 302.54 620.81 297.17 619.03 291.98 616.55 286.98 613.4 281.87 609.9 276.93 605.76 272.13 601.05 267.21 596.04 262.41 590.52 257.75 584.55 252.92 578.36 248.21 571.78 243.6 564.88 238.83 557.84 234.16 550.54 229.61 543.04 224.9 535.47 220.31 527.74 215.86 519.9 211.3 512.04 206.9 504.1 202.7 496.13 198.45 488.15 194.43 480.16 190.71 472.19 187 464.22 183.63 456.28 180.65 448.38 177.78 440.5 175.35 432.66 173.41 424.89 171.66 417.12 170.45 409.43 169.83 401.81 169.45 394.2 169.68 386.84 170.51 379.74 171.59 372.64 173.24 365.79 175.43 359.2 177.82 352.59 180.72 346.24 184.07 340.13 187.57 334 191.48 328.11 195.75 322.47 200.08 316.78 204.73 311.32 209.65 306.08 214.57 300.78 219.71 295.68 225.04 290.79 230.31 285.8 235.74 280.99 241.3 276.34 246.76 271.57 252.34 266.94 258.03 262.45 263.59 257.8 269.26 253.26 275.02 248.82 280.66 244.2 286.42 239.67 292.29 235.23 298.04 230.6 303.92 226.05 309.94 221.6 315.87 216.98 321.95 212.46 328.2 208.08 334.37 203.57 340.73 199.23 347.28 195.09 353.77 190.89 360.48 186.95 367.39 183.32 374.27 179.72 381.38 176.5 388.71 173.71 396.03 171.05 403.59 168.9 411.4 167.31" stroke-dasharray="7 4" transform="rotate(24.24, 400, 400)" opacity="0.28"></path><path d="M415.44 177.99C422.92 176.66 430.43 175.93 437.97 175.8 445.5 175.91 453.06 176.63 460.6 177.93 468.15 179.48 475.67 181.6 483.13 184.25 490.58 187.12 497.94 190.48 505.19 194.3 512.38 198.3 519.41 202.71 526.23 207.49 532.94 212.38 539.39 217.6 545.52 223.09 551.48 228.65 557.07 234.45 562.2 240.46 567.12 246.47 571.53 252.67 575.39 259 578.97 265.32 581.97 271.77 584.33 278.31 586.41 284.82 587.87 291.42 588.69 298.11 589.27 304.74 589.27 311.46 588.71 318.26 588.04 325 586.92 331.83 585.41 338.73 583.99 345.6 582.33 352.55 580.52 359.57 579.03 366.57 577.56 373.66 576.19 380.84 575.37 388 574.79 395.25 574.51 402.58 574.92 409.91 575.7 417.32 576.86 424.8 578.71 432.29 580.84 439.66 583.17 446.9 585.99 454.14 588.85 461.24 591.64 468.18 594.66 475.09 597.42 481.82 599.82 488.34 602.19 494.82 604.05 501.06 605.32 507.02 606.53 515.72 604.89 531.36 601.98 538.18 597.77 544.42 585.52 554.58 577.71 558.45 572.06 560.78 565.97 562.66 559.51 564.12 552.87 565.52 545.94 566.54 538.77 567.19 531.51 567.87 524.08 568.26 516.53 568.39 508.94 568.68 501.28 568.8 493.59 568.81 485.89 569.1 478.19 569.37 470.51 569.66 462.84 570.36 455.2 571.16 447.63 572.1 440.06 573.52 432.56 575.11 425.13 576.88 417.71 579.15 410.35 581.57 403.09 584.12 395.82 587.08 388.8 590 382.02 592.83 375.24 595.89 368.69 598.71 362.38 601.24 356.04 603.81 349.93 605.96 344.04 607.64 335.26 609.69 318.65 610.49 310.78 609.13 302.98 606.67 288.02 598.18 280.82 592.27 275.93 587.88 271.17 582.99 266.52 577.66 261.73 572.12 257.04 566.2 252.45 559.94 247.72 553.55 243.09 546.87 238.57 539.98 233.92 533 229.4 525.84 225.02 518.55 220.54 511.22 216.24 503.79 212.14 496.3 207.99 488.8 204.09 481.26 200.47 473.71 196.88 466.16 193.62 458.61 190.74 451.1 187.97 443.59 185.62 436.12 183.75 428.7 182.06 421.29 180.88 413.93 180.26 406.64 179.88 399.36 180.08 392.31 180.84 385.51 181.84 378.7 183.38 372.13 185.44 365.79 187.7 359.44 190.45 353.32 193.63 347.44 196.96 341.52 200.69 335.82 204.77 330.35 208.93 324.82 213.4 319.5 218.14 314.39 222.9 309.2 227.88 304.2 233.06 299.37 238.2 294.46 243.51 289.69 248.95 285.08 254.32 280.34 259.81 275.73 265.41 271.24 270.91 266.61 276.51 262.08 282.21 257.64 287.8 253.05 293.5 248.53 299.3 244.11 305 239.52 310.81 235.02 316.75 230.62 322.6 226.08 328.59 221.64 334.72 217.36 340.79 212.96 347.01 208.74 353.4 204.73 359.75 200.68 366.27 196.88 372.98 193.38 379.66 189.93 386.53 186.84 393.61 184.16 400.67 181.61 407.95 179.54 415.43 177.99" stroke-dasharray="8 3" transform="rotate(28.28, 400, 400)" opacity="0.32"></path><path d="M418.69 188.68C425.83 187.38 432.98 186.65 440.11 186.47 447.24 186.52 454.36 187.13 461.43 188.29 468.5 189.68 475.51 191.6 482.43 194.01 489.32 196.64 496.1 199.73 502.72 203.26 509.29 206.96 515.66 211.06 521.8 215.51 527.84 220.08 533.59 224.97 539.01 230.14 544.27 235.39 549.15 240.87 553.61 246.57 557.86 252.29 561.63 258.2 564.89 264.26 567.92 270.31 570.41 276.5 572.34 282.79 574.04 289.07 575.19 295.44 575.78 301.9 576.2 308.32 576.12 314.83 575.57 321.4 574.96 327.94 573.98 334.55 572.67 341.23 571.48 347.87 570.1 354.59 568.6 361.37 567.41 368.12 566.24 374.95 565.16 381.83 564.57 388.7 564.19 395.64 564.06 402.63 564.54 409.62 565.33 416.66 566.42 423.74 568.13 430.82 570.06 437.76 572.15 444.56 574.69 451.34 577.24 457.97 579.73 464.41 582.45 470.83 584.94 477.06 587.13 483.05 590.2 491.87 593.64 508.08 593.74 515.37 592.77 522.21 587.09 533.94 582.44 538.77 576.76 543.06 562.43 549.54 554.02 551.77 548.11 553.11 541.89 554.12 535.41 554.82 528.82 555.58 522.03 556.09 515.09 556.38 508.09 556.84 500.99 557.16 493.81 557.38 486.62 557.87 479.39 558.35 472.16 558.84 464.92 559.7 457.69 560.65 450.49 561.7 443.31 563.18 436.15 564.79 429.06 566.55 421.97 568.73 414.93 571.04 407.97 573.43 401 576.19 394.27 578.9 387.75 581.5 381.23 584.32 374.93 586.91 368.84 589.24 362.73 591.62 356.82 593.63 351.12 595.21 342.6 597.2 326.42 598.29 318.71 597.27 311.04 595.3 296.28 588.12 289.14 583.01 284.3 579.19 279.58 574.9 274.95 570.18 270.21 565.27 265.56 559.98 261.01 554.35 256.33 548.59 251.76 542.54 247.3 536.26 242.73 529.89 238.29 523.31 234 516.59 229.63 509.82 225.43 502.92 221.44 495.94 217.43 488.94 213.65 481.87 210.16 474.78 206.7 467.68 203.57 460.57 200.8 453.46 198.13 446.36 195.88 439.27 194.08 432.22 192.45 425.18 191.31 418.17 190.7 411.22 190.31 404.27 190.47 397.54 191.17 391.02 192.09 384.51 193.52 378.2 195.45 372.12 197.57 366.02 200.15 360.12 203.15 354.44 206.3 348.73 209.84 343.21 213.72 337.88 217.68 332.52 221.96 327.33 226.5 322.32 231.07 317.25 235.87 312.33 240.87 307.57 245.85 302.72 251.01 298.01 256.3 293.43 261.54 288.74 266.92 284.16 272.4 279.69 277.8 275.09 283.31 270.58 288.91 266.16 294.43 261.6 300.04 257.13 305.75 252.75 311.38 248.22 317.11 243.79 322.95 239.47 328.71 235.02 334.59 230.7 340.6 226.52 346.55 222.27 352.63 218.18 358.85 214.31 365.04 210.41 371.38 206.77 377.87 203.42 384.34 200.12 390.98 197.16 397.78 194.6 404.57 192.17 411.54 190.18 418.68 188.68" stroke-dasharray="0 10" transform="rotate(32.32, 400, 400)" opacity="0.35"></path><path d="M421.01 199.37C427.79 198.11 434.54 197.37 441.25 197.15 447.96 197.14 454.61 197.66 461.2 198.67 467.77 199.9 474.25 201.63 480.61 203.82 486.94 206.2 493.13 209.03 499.14 212.27 505.08 215.67 510.82 219.45 516.29 223.57 521.68 227.81 526.77 232.37 531.52 237.19 536.14 242.1 540.38 247.25 544.22 252.61 547.88 258.02 551.09 263.6 553.84 269.35 556.4 275.1 558.47 281 560.04 287.01 561.44 293.01 562.36 299.11 562.8 305.3 563.12 311.47 563.02 317.72 562.52 324.03 562.01 330.33 561.18 336.69 560.09 343.1 559.14 349.49 558.03 355.94 556.82 362.43 555.91 368.91 555.02 375.45 554.21 382.01 553.84 388.58 553.63 395.18 553.64 401.81 554.17 408.44 554.95 415.1 555.99 421.76 557.56 428.43 559.3 434.94 561.16 441.28 563.42 447.62 565.69 453.78 567.9 459.75 571.44 468.56 577.34 485.01 579.35 492.57 580.7 499.77 580.41 512.56 578.67 518.08 575.95 523.14 567.33 531.4 561.56 534.59 555.01 537.38 539.69 541.35 531.13 542.63 525.22 543.48 519.08 544.12 512.76 544.58 506.39 545.2 499.87 545.71 493.25 546.13 486.6 546.81 479.89 547.47 473.13 548.14 466.37 549.14 459.58 550.21 452.8 551.35 446.02 552.87 439.26 554.49 432.52 556.21 425.8 558.31 419.1 560.5 412.45 562.74 405.81 565.31 399.36 567.8 393.11 570.19 386.86 572.77 380.8 575.15 374.93 577.28 366.19 580.4 349.54 584.71 341.61 585.7 333.76 585.99 318.67 583.7 311.4 581.11 304.11 577.68 289.94 568.12 283.02 562.11 278.33 557.79 273.74 553.1 269.25 548.09 264.65 542.94 260.15 537.51 255.78 531.82 251.31 526.05 246.98 520.07 242.79 513.92 238.55 507.71 234.49 501.37 230.63 494.92 226.76 488.44 223.13 481.87 219.77 475.26 216.46 468.63 213.46 461.97 210.81 455.29 208.27 448.61 206.12 441.93 204.4 435.27 202.83 428.61 201.74 421.97 201.14 415.36 200.74 408.76 200.87 402.35 201.5 396.13 202.34 389.91 203.66 383.87 205.46 378.03 207.43 372.18 209.84 366.5 212.65 361.02 215.61 355.5 218.94 350.16 222.6 344.98 226.36 339.77 230.41 334.71 234.73 329.8 239.09 324.84 243.69 320.01 248.49 315.32 253.28 310.55 258.25 305.9 263.37 301.36 268.45 296.73 273.67 292.19 279 287.76 284.28 283.21 289.66 278.75 295.13 274.37 300.54 269.88 306.04 265.47 311.63 261.15 317.15 256.72 322.77 252.38 328.48 248.15 334.14 243.83 339.89 239.63 345.75 235.59 351.56 231.48 357.49 227.55 363.53 223.84 369.53 220.11 375.67 216.63 381.93 213.43 388.17 210.29 394.56 207.47 401.07 205.03 407.57 202.71 414.22 200.81 421 199.37" stroke-dasharray="7 2" transform="rotate(36.36, 400, 400)" opacity="0.39"></path><path d="M422.27 210.05C428.67 208.84 435.01 208.1 441.28 207.85 447.55 207.79 453.73 208.2 459.81 209.09 471.94 211.44 483.56 215.59 494.42 221.33 505.06 227.68 514.73 235.41 523.14 244.26 531.09 253.45 537.56 263.56 542.34 274.33 546.54 285.2 549.03 296.61 549.82 308.37 550.34 320.12 549.54 332.17 547.7 344.4 546.43 356.6 544.86 368.99 543.35 381.45 543.16 387.67 543.12 393.92 543.23 400.18 543.81 406.44 544.58 412.7 545.55 418.95 546.99 425.19 548.55 431.28 550.2 437.18 552.21 443.08 554.21 448.79 556.15 454.29 560.6 465.26 564.15 475.34 566.41 484.38 568.37 493.27 568.45 501.03 566.55 507.53 563.8 513.85 559.01 518.9 552.39 522.68 545 526.4 536.05 529.03 525.89 530.67 515.29 532.67 503.81 534.07 491.76 535.07 479.57 537 467.01 538.95 454.34 541.05 448 542.59 441.65 544.21 435.3 545.89 428.96 547.9 422.62 549.96 416.31 552.05 410 554.43 403.86 556.72 397.89 558.9 391.91 561.26 386.1 563.42 380.45 565.36 369.1 569.4 358.35 572.08 348.2 573.22 337.86 573.91 328 572.75 318.62 569.76 308.93 566.06 299.6 560.55 290.68 553.47 281.4 545.79 272.47 536.74 264.01 526.65 255.28 516.2 247.1 504.94 239.7 493.14 232.31 481.21 225.92 468.91 220.79 456.45 218.38 450.21 216.34 443.95 214.7 437.69 213.21 431.43 212.16 425.16 211.57 418.92 211.18 412.67 211.27 406.58 211.84 400.66 212.59 394.74 213.81 388.98 215.46 383.39 219.27 372.16 224.68 361.53 231.44 351.53 238.58 341.37 246.83 331.72 255.92 322.57 265.08 313.14 274.92 304.09 285.23 295.44 295.4 286.4 306 277.66 316.91 269.32 327.63 260.6 338.71 252.28 350.11 244.56 361.37 236.65 373.03 229.51 385.06 223.42 391.06 220.43 397.16 217.77 403.36 215.46 409.56 213.25 415.86 211.44 422.26 210.06" stroke-dasharray="5 8" transform="rotate(40.400000000000006, 400, 400)" opacity="0.43"></path><path d="M422.42 220.74C434.42 218.55 446.08 218.19 457.25 219.54 468.37 221.57 478.9 225.28 488.61 230.46 498.12 236.21 506.65 243.26 513.96 251.39 520.89 259.86 526.45 269.22 530.49 279.25 534.1 289.42 536.23 300.13 536.9 311.19 537.45 322.29 536.91 333.69 535.5 345.24 534.68 356.79 533.6 368.5 532.56 380.24 532.89 391.98 533.72 403.75 535.11 415.4 538.11 427.06 541.33 438.01 544.47 448.16 548.39 458.26 551.51 467.48 553.53 475.71 555.4 483.83 555.65 490.89 554.19 496.81 552.08 502.61 548.15 507.3 542.56 510.87 536.31 514.47 528.59 517.13 519.68 518.95 510.37 521.15 500.12 522.85 489.23 524.19 478.18 526.38 466.67 528.55 454.94 530.79 443.18 534.17 431.27 537.74 419.35 541.37 407.43 545.97 396.05 550.08 385.24 553.48 374.37 557.15 363.99 559.62 354.12 560.73 344.1 561.51 334.47 560.65 325.27 558.17 315.81 555.11 306.68 550.43 297.93 544.29 288.89 537.63 280.2 529.69 271.99 520.7 263.59 511.4 255.74 501.26 248.67 490.52 241.65 479.66 235.59 468.35 230.74 456.81 226.31 445.24 223.32 433.5 222.01 421.74 221.4 409.98 222.61 398.73 225.47 388.07 228.96 377.35 233.96 367.14 240.24 357.45 246.9 347.63 254.64 338.23 263.21 329.28 271.9 320.08 281.26 311.22 291.11 302.72 300.89 293.9 311.1 285.38 321.61 277.26 331.99 268.83 342.7 260.83 353.67 253.43 364.54 245.91 375.74 239.14 387.21 233.37 398.64 227.82 410.41 223.52 422.41 220.74" stroke-dasharray="7 4" transform="rotate(44.44, 400, 400)" opacity="0.47"></path><path d="M421.44 231.43C432.61 229.32 443.36 228.88 453.55 230.02 463.68 231.76 473.16 235.03 481.8 239.67 490.27 244.82 497.76 251.2 504.11 258.6 510.16 266.33 514.96 274.92 518.41 284.17 521.57 293.58 523.45 303.54 524.1 313.85 524.75 324.22 524.49 334.89 523.5 345.71 523.11 356.55 522.48 367.53 521.85 378.5 522.42 389.48 523.35 400.45 524.68 411.26 527.38 422.08 530.19 432.19 532.88 441.51 536.28 450.78 538.98 459.22 540.74 466.73 542.63 477.38 538.44 493.63 532.13 499.26 526.89 502.78 520.29 505.5 512.53 507.51 504.42 509.91 495.36 511.87 485.61 513.51 475.69 515.9 465.25 518.24 454.47 520.59 443.66 523.9 432.59 527.31 421.42 530.68 410.24 534.89 399.47 538.6 389.16 541.65 378.8 544.96 368.83 547.2 359.29 548.24 349.62 549.06 340.28 548.44 331.31 546.38 322.13 543.87 313.26 539.9 304.74 534.61 296.01 528.88 287.63 521.95 279.73 514.01 271.71 505.79 264.24 496.73 257.53 487.04 250.91 477.23 245.21 466.91 240.67 456.29 236.51 445.64 233.7 434.74 232.45 423.73 231.83 412.72 232.89 402.11 235.48 391.97 238.65 381.79 243.24 372.01 249.02 362.68 255.18 353.23 262.37 344.13 270.38 335.41 278.54 326.5 287.37 317.87 296.69 309.59 305.99 301.06 315.73 292.82 325.75 284.97 335.71 276.9 345.96 269.26 356.43 262.21 366.84 255.1 377.51 248.73 388.36 243.31 399.2 238.1 410.26 234.06 421.44 231.43" stroke-dasharray="7 6" transform="rotate(48.48, 400, 400)" opacity="0.51"></path><path d="M419.38 242.12C429.71 240.1 439.54 239.6 448.77 240.53 457.95 242 466.44 244.86 474.1 248.97 481.61 253.54 488.2 259.25 493.72 265.92 499.02 272.9 503.2 280.71 506.21 289.15 509.04 297.77 510.77 306.93 511.47 316.44 512.26 326.03 512.29 335.92 511.72 345.95 511.71 356.02 511.49 366.21 511.22 376.38 511.98 386.57 512.98 396.72 514.24 406.69 516.66 416.66 519.09 425.96 521.36 434.49 524.27 443 526.57 450.71 528.05 457.57 529.75 467.35 526.46 482.47 521.19 487.91 516.82 491.38 511.2 494.18 504.5 496.37 497.49 498.93 489.55 501.12 480.88 503 472.07 505.55 462.67 508.02 452.85 510.42 443 513.64 432.81 516.87 422.41 519.99 412.01 523.82 401.89 527.16 392.12 529.86 382.31 532.82 372.81 534.82 363.64 535.77 354.38 536.58 345.39 536.13 336.72 534.41 327.9 532.36 319.35 529.01 311.14 524.46 302.79 519.57 294.78 513.55 287.25 506.58 279.66 499.37 272.61 491.34 266.3 482.66 260.11 473.86 254.8 464.53 250.56 454.83 246.7 445.09 244.07 435.04 242.88 424.81 242.27 414.57 243.19 404.62 245.51 395.03 248.36 385.42 252.51 376.12 257.79 367.18 263.43 358.14 270.05 349.39 277.45 340.97 285.03 332.39 293.27 324.08 301.99 316.08 310.75 307.89 319.93 299.98 329.4 292.47 338.83 284.81 348.55 277.57 358.45 270.92 368.31 264.25 378.38 258.28 388.56 253.22 398.74 248.37 409.05 244.6 419.38 242.12" stroke-dasharray="7 10" transform="rotate(52.52, 400, 400)" opacity="0.54"></path><path d="M416.35 252.8C425.82 250.89 434.76 250.34 443.07 251.08 451.33 252.29 458.91 254.76 465.68 258.36 472.34 262.37 478.14 267.43 482.97 273.37 487.64 279.61 491.34 286.62 494.02 294.24 496.61 302.05 498.28 310.37 499.09 319.04 500.04 327.8 500.36 336.87 500.17 346.07 500.5 355.33 500.62 364.69 500.66 374.04 501.58 383.4 502.62 392.73 503.8 401.86 505.95 411 508.04 419.5 509.92 427.3 512.38 435.08 514.28 442.13 515.48 448.41 516.94 457.42 514.26 471.59 509.84 476.88 506.2 480.32 501.43 483.19 495.66 485.54 489.65 488.24 482.74 490.6 475.1 492.69 467.33 495.34 458.94 497.87 450.08 500.29 441.18 503.4 431.88 506.44 422.28 509.3 412.68 512.77 403.25 515.74 394.07 518.11 384.87 520.73 375.87 522.5 367.15 523.33 358.36 524.1 349.79 523.76 341.5 522.33 333.11 520.65 324.96 517.82 317.14 513.92 309.23 509.75 301.66 504.56 294.56 498.48 287.45 492.2 280.87 485.13 274.99 477.41 269.26 469.58 264.35 461.2 260.44 452.4 256.87 443.58 254.44 434.38 253.32 424.93 252.71 415.47 253.49 406.21 255.55 397.22 258.08 388.2 261.81 379.42 266.57 370.92 271.68 362.35 277.7 354.01 284.47 345.95 291.43 337.77 299.02 329.83 307.09 322.18 315.23 314.4 323.78 306.89 332.61 299.78 341.45 292.56 350.54 285.77 359.79 279.55 369.03 273.34 378.43 267.8 387.89 263.12 397.35 258.63 406.88 255.13 416.35 252.8" stroke-dasharray="4 4" transform="rotate(56.56, 400, 400)" opacity="0.58"></path><path d="M412.5 263.49C421.1 261.68 429.16 261.1 436.6 261.67 444.01 262.64 450.74 264.74 456.73 267.86 462.63 271.33 467.75 275.75 472 280.99 476.17 286.49 479.48 292.71 481.93 299.51 484.37 306.48 486.03 313.95 486.97 321.76 488.09 329.67 488.68 337.87 488.84 346.22 489.46 354.62 489.88 363.14 490.18 371.64 491.2 380.16 492.27 388.65 493.37 396.96 495.26 405.28 497.03 413.01 498.56 420.11 501.36 430.42 504.22 447.71 503.64 454.68 501.92 461.06 493.11 471.11 486.14 475.04 481 477.84 475.03 480.33 468.34 482.55 461.54 485.25 454.12 487.81 446.19 490.2 438.22 493.16 429.8 496 421.03 498.62 412.26 501.73 403.55 504.35 395.02 506.42 386.47 508.7 378.05 510.23 369.84 510.94 361.6 511.63 353.52 511.37 345.69 510.15 337.8 508.76 330.13 506.37 322.77 503.03 315.37 499.49 308.31 495.03 301.69 489.75 295.1 484.32 289.03 478.13 283.62 471.31 278.36 464.41 273.87 456.94 270.3 449.03 267.03 441.09 264.8 432.75 263.76 424.09 263.15 415.44 263.81 406.88 265.61 398.52 267.83 390.14 271.13 381.92 275.38 373.92 279.95 365.87 285.36 358 291.47 350.38 297.77 342.66 304.68 335.16 312.04 327.94 319.5 320.62 327.36 313.57 335.49 306.91 343.65 300.19 352.05 293.88 360.58 288.12 369.13 282.39 377.8 277.3 386.49 272.99 395.19 268.87 403.9 265.65 412.5 263.49" stroke-dasharray="5 3" transform="rotate(60.599999999999994, 400, 400)" opacity="0.62"></path><path d="M408.02 274.18C415.76 272.48 422.98 271.88 429.6 272.3 436.19 273.05 442.17 274.8 447.46 277.47 452.69 280.43 457.23 284.24 461.02 288.8 464.76 293.58 467.78 299.03 470.08 305.01 472.4 311.15 474.09 317.76 475.18 324.7 476.45 331.74 477.29 339.06 477.74 346.54 478.6 354.07 479.25 361.72 479.76 369.37 480.85 377.03 481.92 384.68 482.93 392.19 484.59 399.69 486.06 406.69 487.29 413.12 489.53 422.49 491.65 438.38 491.03 444.9 489.53 450.97 482.03 460.86 476.07 464.89 471.69 467.73 466.54 470.29 460.72 472.59 454.82 475.29 448.3 477.82 441.26 480.15 434.2 482.94 426.66 485.56 418.72 487.93 410.79 490.7 402.85 493 395 494.77 387.15 496.74 379.38 498.04 371.76 498.62 364.12 499.21 356.62 498.98 349.33 497.93 342.01 496.77 334.89 494.74 328.07 491.87 321.25 488.87 314.74 485.05 308.67 480.49 302.64 475.81 297.11 470.44 292.19 464.46 287.43 458.41 283.36 451.81 280.14 444.76 277.19 437.68 275.16 430.18 274.19 422.33 273.6 414.48 274.14 406.66 275.69 398.96 277.61 391.26 280.49 383.65 284.23 376.21 288.25 368.73 293.05 361.4 298.48 354.27 304.11 347.09 310.3 340.09 316.93 333.36 323.66 326.57 330.77 320.04 338.13 313.88 345.55 307.69 353.2 301.9 360.96 296.63 368.74 291.41 376.63 286.77 384.51 282.85 392.41 279.11 400.28 276.17 408.02 274.18" stroke-dasharray="0 11" transform="rotate(64.64, 400, 400)" opacity="0.66"></path><path d="M403.14 284.87C410.03 283.3 416.42 282.68 422.28 282.97 430.76 284.24 444.74 291.3 450.17 296.82 454.95 303.25 461.65 318.99 463.73 327.94 465.14 334.11 466.17 340.54 466.87 347.15 467.91 353.79 468.75 360.57 469.4 367.37 470.53 374.18 471.57 380.99 472.49 387.7 473.93 394.41 475.14 400.69 476.08 406.49 477.82 414.95 479.23 429.51 478.55 435.62 477.18 441.38 470.7 451.02 465.59 455.08 459.65 459.19 444.47 466.67 435.45 470.13 429.24 472.73 422.56 475.12 415.48 477.24 408.39 479.69 401.25 481.67 394.14 483.17 387.03 484.84 379.96 485.91 372.99 486.36 366.03 486.85 359.17 486.62 352.49 485.69 345.81 484.7 339.32 482.97 333.11 480.51 326.91 477.96 321.01 474.7 315.52 470.77 310.1 466.76 305.13 462.12 300.72 456.92 296.47 451.67 292.84 445.89 289.97 439.66 287.33 433.41 285.52 426.74 284.63 419.7 284.06 412.67 284.48 405.61 285.8 398.61 287.42 391.62 289.9 384.67 293.14 377.84 296.63 371 300.81 364.26 305.57 357.7 310.5 351.11 315.96 344.69 321.82 338.51 327.78 332.29 334.11 326.33 340.67 320.72 347.3 315.1 354.14 309.85 361.08 305.09 368.06 300.39 375.12 296.22 382.17 292.7 389.23 289.33 396.26 286.68 403.14 284.87" stroke-dasharray="10 1" transform="rotate(68.68, 400, 400)" opacity="0.70"></path><path d="M398.1 295.55C410.2 292.89 420.53 293.56 428.81 297.06 437.03 301.32 443.26 308.18 447.41 316.89 451.84 326.06 454.73 336.75 456.24 348.17 458.85 359.75 460.82 371.83 462.06 383.69 464.88 395.54 466.53 405.99 466.76 414.78 467.56 423.66 466.15 431.1 462.44 437.04 458.58 443.46 452.19 448.86 443.58 453.18 434.79 458.48 423.94 463.08 411.45 466.55 398.97 471.03 386.15 473.62 373.65 474.2 361.19 474.96 349.06 473.2 337.93 469.02 326.93 464.63 317.1 457.77 309.23 448.83 301.9 439.75 296.91 428.77 295.07 416.32 294.26 403.87 296.83 391.2 302.13 378.9 308.24 366.57 316.73 354.54 326.79 343.41 337.25 332.25 348.96 322.04 361.12 313.52 373.42 305.25 386.01 298.99 398.1 295.55" stroke-dasharray="10 10" transform="rotate(72.72, 400, 400)" opacity="0.73"></path><path d="M393.16 306.24C403.62 303.82 412.6 304.23 419.87 307.05 427.13 310.46 432.78 316.09 436.76 323.37 441.02 331 444.02 340.01 445.82 349.74 448.49 359.6 450.47 369.99 451.62 380.3 453.96 390.62 455.13 399.85 455.02 407.77 455.41 415.77 453.97 422.66 450.63 428.31 447.27 434.36 441.8 439.53 434.43 443.71 426.96 448.63 417.66 452.81 406.86 455.87 396.05 459.68 384.85 461.78 373.89 462.13 362.98 462.66 352.35 461.09 342.61 457.48 333.04 453.76 324.52 447.95 317.74 440.31 311.42 432.58 307.12 423.14 305.5 412.32 304.71 401.49 306.79 390.35 311.21 379.48 316.27 368.61 323.41 357.97 331.94 348.13 340.81 338.31 350.82 329.36 361.27 321.92 371.85 314.73 382.7 309.27 393.16 306.24" stroke-dasharray="2 3" transform="rotate(76.76, 400, 400)" opacity="0.77"></path><path d="M388.56 316.93C397.42 314.77 405.11 314.97 411.44 317.18 417.79 319.82 422.88 324.33 426.65 330.25 430.67 336.43 433.67 343.83 435.63 351.93 438.24 360.13 440.15 368.87 441.18 377.68 443.08 386.48 443.85 394.51 443.49 401.52 443.53 408.62 442.05 414.86 439.06 420.11 436.1 425.66 431.43 430.48 425.2 434.39 418.91 438.84 411.07 442.55 401.91 445.18 392.76 448.36 383.23 450.01 373.87 450.16 364.57 450.49 355.51 449.06 347.24 445.96 339.13 442.82 331.95 437.94 326.25 431.51 320.94 425.03 317.32 417.05 315.94 407.83 315.19 398.61 316.82 389.06 320.39 379.69 324.47 370.34 330.29 361.18 337.33 352.71 344.64 344.3 352.96 336.65 361.71 330.32 370.56 324.19 379.69 319.54 388.56 316.93" stroke-dasharray="5 9" transform="rotate(80.80000000000001, 400, 400)" opacity="0.81"></path><path d="M384.53 327.62C395.07 325.77 411.39 331.16 417.12 337.56 420.8 342.41 423.67 348.3 425.65 354.84 428.08 361.44 429.84 368.59 430.75 375.91 432.23 383.23 432.69 390.02 432.15 396.08 431.19 404.95 423.22 419.53 416.07 425.21 410.87 429.1 404.41 432.29 396.88 434.49 389.34 437.07 381.48 438.32 373.77 438.31 366.12 438.45 358.67 437.16 351.9 434.53 345.27 431.9 339.41 427.87 334.79 422.57 330.47 417.25 327.52 410.68 326.38 403.05 325.68 395.42 326.91 387.48 329.7 379.68 332.85 371.9 337.44 364.27 343.04 357.23 348.85 350.26 355.52 343.93 362.6 338.7 369.76 333.65 377.22 329.8 384.53 327.62" stroke-dasharray="9 9" transform="rotate(84.84, 400, 400)" opacity="0.85"></path><path d="M381.28 338.3C392.89 335.44 402.17 338.42 408.21 345.33 414.8 352.71 419.18 363.36 420.31 375.06 422.89 386.76 421.61 397.28 416.93 405.26 412.52 413.77 403.91 420.53 391.99 423.8 380.07 428.02 367.33 427.65 356.67 423.27 346.44 418.98 338.91 410.26 336.82 398.15 335.9 386.03 340.79 372.95 349.15 361.74 358.07 350.76 369.67 342 381.28 338.3" stroke-dasharray="9 7" transform="rotate(88.88, 400, 400)" opacity="0.89"></path><path d="M378.97 348.99C387.62 346.72 394.89 348.68 399.9 353.57 405.25 358.71 408.91 366.4 409.87 375.18 411.64 383.95 410.33 392.16 406.53 398.57 402.92 405.27 396.35 410.61 387.51 413.12 378.67 416.15 369.35 415.67 361.64 412.24 354.2 408.89 348.76 402.34 347.25 393.32 346.43 384.29 349.78 374.59 355.71 366.32 361.96 358.2 370.31 351.74 378.97 348.99" stroke-dasharray="10 7" transform="rotate(92.92, 400, 400)" opacity="0.92"></path><path d="M377.71 359.68C389.22 356.71 398.36 364.52 399.44 376.25 401.9 387.97 395.34 399.26 383.66 402.43 371.97 406.52 359.9 400.69 357.69 388.74 356.72 376.79 366.2 363.51 377.71 359.68" stroke-dasharray="7 7" transform="rotate(96.96, 400, 400)" opacity="0.96"></path></g></svg>