<svg xmlns="http://www.w3.org/2000/svg" version="1.1" xmlns:xlink="http://www.w3.org/1999/xlink" xmlns:svgjs="http://svgjs.dev/svgjs" viewBox="0 0 800 800"><defs><linearGradient x1="50%" y1="0%" x2="50%" y2="100%" id="ccchaos-grad"><stop stop-color="hsl(19, 55%, 30%)" stop-opacity="1" offset="0%"></stop><stop stop-color="hsl(265, 55%, 60%)" stop-opacity="1" offset="100%"></stop></linearGradient></defs><g stroke-width="2" stroke="url(#ccchaos-grad)" fill="none" stroke-linecap="round"><path d="M378.95 100.56C388.32 99.72 397.66 100.98 406.94 104.19 416.23 108.63 425.49 114.35 434.69 120.85 443.94 127.29 453.17 133.6 462.39 139.41 471.68 144.05 480.99 147.8 490.33 150.65 499.78 152.24 509.3 153.24 518.88 153.93 528.61 154.11 538.43 154.61 548.32 155.72 558.36 157.23 568.47 159.82 578.61 163.61 588.85 168.29 599.07 174.24 609.19 181.37 619.3 189.35 629.2 198.29 638.78 207.98 648.16 218.17 657.07 228.8 665.36 239.7 673.22 250.7 680.29 261.75 686.43 272.73 691.93 283.59 696.35 294.3 699.59 304.83 702.06 315.17 703.3 325.36 703.28 335.43 702.53 345.33 700.6 355.19 697.55 365.05 694.04 374.82 689.64 384.67 684.49 394.63 679.33 404.55 673.76 414.64 667.96 424.88 662.67 435.12 657.59 445.27 652.88 455.3 649.02 465.3 645.65 475.11 642.8 484.63 640.89 494.04 639.45 503.04 638.43 511.51 638.19 519.72 638.19 527.25 638.3 533.97 639.6 549.27 638.06 562.15 635.27 564.26 632.88 566.21 629.71 568.52 625.75 571.58 621.46 576.12 616.4 582 610.61 589.47 604.52 598.82 597.75 609.79 590.4 622.18 582.79 635.68 574.67 649.68 566.11 663.46 557.39 676.4 548.3 687.6 538.91 696.25 529.44 702.1 519.72 704.45 509.83 703.13 499.9 698.93 489.84 691.87 479.68 682.76 469.52 673.34 459.28 664.16 449.01 656.43 438.75 651.75 428.46 650.27 418.16 652.36 407.85 658.32 397.78 666.83 387.95 676.79 378.1 687.57 368.47 697.24 359.06 704.67 349.63 709.56 340.39 710.74 331.36 708.06 322.28 702.08 313.38 692.85 304.67 681.14 295.88 667.97 287.27 654.04 278.82 640.23 270.29 627.38 261.92 615.94 253.72 606.27 245.44 598.75 237.32 593.16 229.38 589.25 221.37 587.16 213.55 586.1 205.96 585.58 198.32 585.79 190.93 585.75 183.82 585.1 176.71 584.22 169.91 582.25 163.47 579.1 157.09 575.27 151.11 570.18 145.56 563.95 140.13 557.04 135.18 549.16 130.74 540.49 126.46 531.37 122.72 521.69 119.55 511.64 116.58 501.36 114.18 490.88 112.4 480.34 110.8 469.72 109.81 459.14 109.44 448.68 109.22 438.2 109.6 427.88 110.6 417.74 111.69 407.61 113.33 397.88 115.46 388.56 117.62 379.19 120.22 370.17 123.24 361.44 126.2 352.61 129.53 343.99 133.19 335.52 136.72 326.84 140.56 318.19 144.67 309.49 148.61 300.48 152.8 291.3 157.23 281.92 161.47 272.15 165.94 262.13 170.64 251.86 175.16 241.3 179.91 230.61 184.9 219.89 189.74 209.21 194.83 198.79 200.18 188.86 205.43 179.47 210.96 170.94 216.76 163.5 222.51 157.04 228.56 151.89 234.9 148.16 241.22 145.4 247.86 143.87 254.79 143.43 261.72 143.29 268.96 143.63 276.49 144.1 284.03 143.85 291.85 143.06 299.94 141.47 308.03 138.5 316.38 134.57 324.96 129.8 333.55 124.04 342.35 118.07 351.36 112.37 360.36 107.03 369.56 102.94 378.94 100.56" stroke-dasharray="11 4" transform="rotate(0, 400, 400)" opacity="0.05"></path><path d="M380.79 111.17C389.84 110.31 398.89 111.46 407.92 114.46 416.96 118.69 426 124.19 435.02 130.52 444.07 136.9 453.15 143.27 462.22 149.27 471.37 154.26 480.56 158.44 489.78 161.77 499.11 163.88 508.5 165.32 517.94 166.32 527.51 166.67 537.14 167.13 546.82 167.96 556.61 168.96 566.43 170.82 576.23 173.68 586.09 177.25 595.87 182 605.5 187.88 615.07 194.58 624.39 202.29 633.33 210.84 642.06 219.99 650.27 229.74 657.86 239.91 665.02 250.36 671.4 261 676.88 271.71 681.75 282.45 685.61 293.14 688.35 303.73 690.41 314.22 691.33 324.58 691.08 334.81 690.2 344.94 688.24 354.96 685.26 364.91 681.89 374.79 677.71 384.65 672.84 394.48 667.97 404.3 662.72 414.14 657.24 423.97 652.22 433.8 647.37 443.4 642.82 452.71 639.04 461.99 635.67 470.92 632.76 479.44 630.7 487.85 629.05 495.73 627.78 503 627.07 513.22 627.09 529.42 627.21 535.25 626.37 543.6 619.34 555.63 614.41 562.25 610.6 568.44 606.09 575.96 600.89 584.91 595.43 595.41 589.32 607.16 582.64 619.88 575.72 633.2 568.3 646.54 560.41 659.22 552.38 670.71 543.95 680.25 535.2 687.16 526.36 691.39 517.24 692.36 507.92 690.03 498.55 685.27 489.01 678.09 479.35 669.27 469.67 660.43 459.88 651.98 450.02 644.99 440.17 640.87 430.26 639.69 420.3 641.75 410.35 647.35 400.59 655.29 391.03 664.61 381.47 674.81 372.09 684.15 362.91 691.6 353.7 696.92 344.67 698.95 335.82 697.47 326.93 692.94 318.2 685.25 309.65 675 301.03 663.08 292.56 650.03 284.26 636.65 275.89 623.73 267.66 611.72 259.61 601.06 251.48 592.16 243.51 584.96 235.73 579.38 227.9 575.58 220.26 572.97 212.84 571.18 205.39 570.39 198.2 569.74 191.28 568.88 184.38 568.15 177.79 566.71 171.56 564.39 165.4 561.68 159.62 557.92 154.28 553.11 149.06 547.79 144.3 541.49 140.05 534.36 135.95 526.8 132.39 518.58 129.38 509.83 126.55 500.84 124.3 491.49 122.64 481.9 121.15 472.22 120.26 462.41 119.97 452.56 119.83 442.69 120.28 432.82 121.32 423 122.45 413.18 124.11 403.63 126.26 394.35 128.42 385.03 131.02 375.92 134.02 366.99 136.96 357.97 140.25 349.03 143.87 340.14 147.37 331.07 151.15 321.94 155.2 312.72 159.09 303.23 163.22 293.57 167.57 283.71 171.75 273.6 176.14 263.31 180.75 252.9 185.18 242.38 189.84 231.88 194.7 221.54 199.43 211.44 204.38 201.78 209.58 192.78 214.66 184.44 220 177.06 225.61 170.82 231.13 165.52 236.94 161.48 243.03 158.74 249.08 156.77 255.42 155.85 262.04 155.77 268.65 155.79 275.55 156.07 282.72 156.31 289.89 155.72 297.35 154.52 305.06 152.51 312.77 149.17 320.73 144.95 328.94 140 337.14 134.2 345.57 128.27 354.22 122.67 362.86 117.47 371.72 113.5 380.78 111.17" stroke-dasharray="1 4" transform="rotate(4.04, 400, 400)" opacity="0.09"></path><path d="M383.29 121.78C392.04 120.9 400.81 121.93 409.58 124.74 418.37 128.73 427.18 134 435.99 140.13 444.85 146.41 453.73 152.79 462.64 158.93 471.61 164.2 480.63 168.79 489.69 172.59 498.83 175.21 508.04 177.15 517.28 178.56 526.62 179.21 536 179.78 545.4 180.52 554.87 181.2 564.33 182.53 573.73 184.64 583.14 187.28 592.43 190.94 601.52 195.64 610.51 201.06 619.21 207.49 627.51 214.81 635.56 222.76 643.09 231.41 649.99 240.61 656.47 250.19 662.18 260.12 667.03 270.25 671.33 280.54 674.66 290.89 676.96 301.22 678.64 311.56 679.27 321.83 678.83 331.98 677.85 342.09 675.88 352.09 672.99 361.96 669.77 371.8 665.8 381.53 661.21 391.15 656.64 400.76 651.7 410.27 646.52 419.65 641.77 429.03 637.14 438.05 632.77 446.66 629.07 455.25 625.73 463.38 622.77 471 620.58 478.53 618.75 485.48 617.25 491.8 616.11 500.7 615.24 514.8 614.98 520.12 614.85 524.97 612.74 533.86 610.39 539.06 608.49 543.6 605.97 548.92 602.8 555.25 599.42 562.91 595.38 571.78 590.71 581.84 585.8 593.08 580.29 605.18 574.23 617.8 567.96 630.57 561.18 642.94 553.94 654.29 546.56 664.22 538.78 672.07 530.66 677.31 522.44 680.05 513.93 679.81 505.17 676.65 496.37 671.48 487.37 664.3 478.2 655.85 469.02 647.61 459.7 639.89 450.28 633.61 440.85 630.02 431.33 629.11 421.75 631.14 412.16 636.39 402.73 643.78 393.47 652.47 384.2 662.08 375.09 671.05 366.15 678.45 357.19 684.09 348.38 686.84 339.74 686.44 331.05 683.26 322.52 677.06 314.13 668.31 305.7 657.75 297.41 645.78 289.27 633.11 281.08 620.45 273.02 608.25 265.13 596.97 257.19 587.03 249.4 578.51 241.8 571.43 234.16 565.99 226.72 561.78 219.5 558.56 212.27 556.48 205.29 554.84 198.58 553.33 191.92 552.24 185.56 550.79 179.55 548.79 173.62 546.66 168.07 543.73 162.94 539.94 157.95 535.81 153.4 530.8 149.34 524.96 145.44 518.79 142.05 511.89 139.21 504.38 136.54 496.65 134.43 488.43 132.89 479.84 131.52 471.14 130.73 462.17 130.52 452.99 130.46 443.79 130.96 434.44 132.04 424.99 133.21 415.53 134.89 406.2 137.03 396.98 139.19 387.74 141.78 378.59 144.75 369.49 147.66 360.32 150.92 351.14 154.49 341.92 157.95 332.56 161.68 323.09 165.67 313.51 169.5 303.75 173.57 293.83 177.85 283.79 181.97 273.62 186.29 263.38 190.81 253.15 195.17 242.98 199.73 232.99 204.49 223.34 209.11 214.07 213.95 205.4 219 197.51 223.94 190.32 229.12 184.15 234.54 179.11 239.88 174.92 245.47 171.89 251.33 169.99 257.13 168.67 263.21 168.18 269.55 168.33 275.86 168.36 282.46 168.48 289.31 168.4 296.15 167.42 303.26 165.78 310.63 163.35 317.99 159.67 325.6 155.2 333.46 150.1 341.3 144.28 349.39 138.42 357.7 132.94 366 127.9 374.53 124.05 383.28 121.78" stroke-dasharray="11 9" transform="rotate(8.08, 400, 400)" opacity="0.13"></path><path d="M386.38 132.39C394.83 131.5 403.31 132.41 411.83 135.02 420.35 138.77 428.92 143.78 437.51 149.68 446.13 155.82 454.8 162.16 463.51 168.38 472.26 173.89 481.07 178.83 489.91 183.06 498.82 186.21 507.77 188.67 516.75 190.55 525.8 191.6 534.87 192.43 543.92 193.25 553.01 193.82 562.05 194.82 570.99 196.4 579.91 198.29 588.66 201.04 597.18 204.69 605.57 208.94 613.63 214.13 621.27 220.2 628.66 226.87 635.51 234.3 641.73 242.36 647.56 250.86 652.65 259.81 656.91 269.1 660.66 278.63 663.51 288.34 665.4 298.12 666.75 308.02 667.14 317.9 666.55 327.71 665.49 337.55 663.53 347.29 660.74 356.89 657.67 366.49 653.92 375.95 649.6 385.24 645.31 394.53 640.67 403.64 635.81 412.54 631.31 421.44 626.91 429.89 622.71 437.87 619.11 445.82 615.8 453.27 612.82 460.17 609.53 470.14 605.32 487.01 604.1 493.91 603.6 500.26 602.52 511.23 601.5 516.55 600.77 520.66 599.6 525.09 597.94 530.06 596.19 535.98 593.88 542.74 591.01 550.45 587.97 559.31 584.33 569.16 580.11 579.93 575.71 591.47 570.73 603.5 565.22 615.63 559.54 627.53 553.37 638.68 546.74 648.54 539.98 656.86 532.81 663.04 525.3 666.72 517.69 668.11 509.76 666.84 501.58 663.02 493.34 657.58 484.87 650.51 476.22 642.5 467.54 634.88 458.7 627.89 449.72 622.29 440.74 619.19 431.64 618.54 422.44 620.53 413.24 625.44 404.15 632.3 395.21 640.38 386.26 649.4 377.44 657.96 368.76 665.24 360.07 671.09 351.51 674.43 343.08 674.98 334.63 673.04 326.31 668.27 318.12 660.99 309.9 651.87 301.81 641.13 293.85 629.4 285.86 617.32 278.01 605.28 270.31 593.76 262.57 583.15 254.99 573.64 247.6 565.32 240.18 558.42 232.96 552.71 225.96 548.01 218.97 544.5 212.22 541.63 205.76 539.14 199.34 537.28 193.22 535.37 187.45 533.2 181.77 531.15 176.46 528.56 171.57 525.33 166.8 521.94 162.47 517.81 158.62 512.94 154.93 507.85 151.72 502.05 149.05 495.61 146.55 488.98 144.58 481.81 143.16 474.15 141.91 466.4 141.22 458.25 141.08 449.77 141.09 441.25 141.65 432.46 142.76 423.42 143.96 414.38 145.64 405.32 147.78 396.25 149.94 387.16 152.5 378.04 155.43 368.88 158.32 359.68 161.54 350.39 165.05 341.01 168.46 331.55 172.14 321.96 176.06 312.26 179.85 302.49 183.86 292.62 188.07 282.69 192.12 272.78 196.37 262.91 200.81 253.18 205.1 243.66 209.58 234.47 214.24 225.76 218.77 217.52 223.5 209.98 228.43 203.29 233.24 197.31 238.28 192.32 243.53 188.41 251.41 184.14 268.26 180.9 277.28 181 283.33 180.92 289.64 180.77 296.21 180.31 302.75 178.9 309.55 176.83 316.61 173.98 323.64 169.99 330.93 165.3 338.45 160.1 345.97 154.29 353.73 148.52 361.72 143.19 369.7 138.32 377.92 134.6 386.37 132.39" stroke-dasharray="3 8" transform="rotate(12.12, 400, 400)" opacity="0.16"></path><path d="M389.93 143C398.09 142.09 406.29 142.89 414.53 145.3 422.79 148.8 431.1 153.54 439.44 159.19 447.81 165.14 456.23 171.4 464.69 177.64 473.19 183.32 481.73 188.55 490.31 193.18 498.93 196.82 507.59 199.8 516.24 202.2 524.94 203.73 533.64 204.93 542.28 205.97 550.94 206.63 559.51 207.51 567.94 208.77 576.33 210.15 584.51 212.19 592.43 214.98 600.2 218.21 607.62 222.28 614.61 227.16 621.33 232.58 627.53 238.76 633.1 245.6 638.3 252.89 642.8 260.72 646.51 268.96 649.76 277.5 652.18 286.33 653.71 295.33 654.77 304.49 654.94 313.74 654.23 322.97 653.12 332.29 651.19 341.55 648.51 350.69 645.6 359.86 642.08 368.89 638.02 377.73 634.01 386.59 629.66 395.24 625.09 403.64 620.85 412.04 616.67 419.97 612.64 427.41 609.15 434.84 605.9 441.75 602.91 448.15 599.48 457.43 594.69 473.43 593.09 480.28 592.18 486.94 590.42 499.69 589.19 506.5 588.37 511.73 587.17 517.41 585.56 523.7 583.9 530.87 581.76 538.83 579.11 547.63 576.35 557.31 573.05 567.74 569.22 578.77 565.24 590.2 560.73 601.75 555.72 613.05 550.57 623.81 544.94 633.57 538.88 641.85 532.7 648.56 526.11 653.16 519.17 655.4 512.14 655.62 504.79 653.49 497.16 649.19 489.48 643.62 481.54 636.77 473.4 629.25 465.23 622.27 456.87 615.98 448.35 611.03 439.82 608.4 431.15 607.97 422.35 609.92 413.55 614.5 404.83 620.85 396.23 628.33 387.62 636.76 379.11 644.88 370.71 651.98 362.31 657.94 354.01 661.76 345.84 663.12 337.64 662.29 329.56 658.84 321.6 653.01 313.61 645.34 305.74 635.95 298.01 625.34 290.25 614.1 282.61 602.55 275.13 591.13 267.63 580.25 260.29 570.11 253.13 560.89 245.96 552.81 238.98 545.78 232.23 539.72 225.5 534.78 219.01 530.58 212.8 526.93 206.65 524.01 200.8 521.29 195.29 518.56 187.34 514.79 173.59 505.38 167.9 499.28 164.42 494.89 161.41 489.88 158.9 484.25 156.57 478.5 154.74 472.18 153.45 465.33 152.32 458.4 151.72 451.01 151.66 443.19 151.74 435.34 152.34 427.11 153.47 418.53 154.7 409.94 156.39 401.22 158.51 392.38 160.65 383.55 163.19 374.59 166.07 365.53 168.92 356.45 172.09 347.24 175.54 337.93 178.9 328.59 182.53 319.14 186.38 309.62 190.11 300.12 194.05 290.59 198.19 281.1 202.18 271.74 206.37 262.53 210.73 253.6 214.95 244.98 219.35 236.79 223.93 229.19 228.37 222.11 233 215.77 237.81 210.3 244.97 203.56 260.17 195.65 268.26 194.2 273.65 193.67 279.28 193.56 285.15 193.68 290.96 193.38 297.03 192.88 303.33 191.99 309.6 190.14 316.13 187.63 322.89 184.4 329.63 180.13 336.61 175.27 343.84 170 351.04 164.23 358.49 158.59 366.18 153.42 373.85 148.72 381.77 145.15 389.92 143.01" stroke-dasharray="1 8" transform="rotate(16.16, 400, 400)" opacity="0.20"></path><path d="M393.84 153.62C401.69 152.7 409.61 153.38 417.57 155.58 425.54 158.83 433.57 163.28 441.64 168.65 449.73 174.39 457.87 180.5 466.04 186.71 474.24 192.5 482.48 197.95 490.74 202.91 499.03 207.01 507.33 210.5 515.61 213.42 523.92 215.48 532.19 217.14 540.38 218.54 548.55 219.44 556.62 220.39 564.51 221.55 572.33 222.65 579.93 224.22 587.23 226.37 594.38 228.79 601.16 231.92 607.49 235.77 613.58 240.04 619.13 245.04 624.09 250.68 628.71 256.74 632.65 263.37 635.86 270.47 638.66 277.89 640.68 285.67 641.9 293.7 642.69 301.94 642.69 310.34 641.89 318.81 640.74 327.39 638.87 335.98 636.3 344.5 633.56 353.07 630.25 361.54 626.46 369.85 622.72 378.18 618.66 386.32 614.37 394.22 610.38 402.13 606.43 409.59 602.57 416.61 599.2 423.61 596.01 430.16 593.04 436.26 589.51 445.2 584.21 461.17 582.27 468.43 580.98 475.78 578.56 490.91 577.1 499.31 576.16 505.62 574.91 512.45 573.3 519.88 571.69 528.05 569.66 536.89 567.18 546.38 564.63 556.48 561.6 567.06 558.09 577.92 554.47 588.86 550.37 599.6 545.8 609.79 541.12 619.22 535.99 627.47 530.44 634.16 524.78 639.3 518.74 642.44 512.34 643.41 505.86 642.63 499.05 639.82 491.96 635.19 484.81 629.63 477.4 623.08 469.76 616.1 462.1 609.77 454.23 604.17 446.17 599.83 438.1 597.63 429.87 597.41 421.49 599.31 413.1 603.58 404.77 609.43 396.52 616.33 388.27 624.18 380.09 631.83 372.01 638.68 363.92 644.67 355.92 648.83 348.01 650.87 340.1 651.02 332.28 648.79 324.58 644.32 316.86 638.09 309.24 630.1 301.75 620.75 294.25 610.56 286.87 599.78 279.64 588.8 272.41 578.01 265.32 567.63 258.42 557.87 251.53 548.95 244.82 540.88 238.34 533.66 231.89 527.43 225.69 521.94 219.75 517.07 213.89 512.98 208.31 509.24 203.07 505.68 195.53 500.97 182.54 490.95 177.19 485.1 172.51 478.76 165.78 463.36 163.77 454.29 162.76 448.02 162.25 441.26 162.26 434.04 162.4 426.79 163.04 419.1 164.19 411 165.43 402.89 167.12 394.57 169.21 386.09 171.34 377.61 173.83 368.96 176.67 360.18 179.47 351.4 182.58 342.49 185.97 333.49 189.27 324.51 192.83 315.47 196.61 306.41 200.28 297.45 204.16 288.54 208.22 279.78 212.15 271.22 216.27 262.92 220.55 254.99 224.7 247.43 229.03 240.39 233.52 233.99 237.88 228.1 242.42 222.96 247.13 218.66 254.12 213.47 268.93 207.82 276.77 206.92 284.72 206.44 301.63 205.2 310.61 203.39 316.64 201.1 322.9 198.17 329.4 194.59 335.86 190.09 342.57 185.1 349.51 179.8 356.42 174.11 363.58 168.62 370.97 163.63 378.35 159.12 385.97 155.69 393.83 153.62" stroke-dasharray="9 9" transform="rotate(20.200000000000003, 400, 400)" opacity="0.24"></path><path d="M397.96 164.23C405.51 163.3 413.13 163.87 420.79 165.88 428.47 168.87 436.19 173.02 443.96 178.09 451.74 183.57 459.57 189.5 467.41 195.61 475.28 201.43 483.18 207.03 491.07 212.26 498.98 216.75 506.89 220.71 514.75 224.14 522.61 226.75 530.42 228.92 538.11 230.77 545.78 232.05 553.3 233.24 560.63 234.49 567.87 235.53 574.86 236.87 581.55 238.62 588.07 240.47 594.22 242.9 599.92 245.91 605.39 249.22 610.34 253.18 614.72 257.74 618.79 262.64 622.22 268.11 624.97 274.07 627.36 280.33 629.03 286.99 629.97 293.98 630.55 301.18 630.4 308.61 629.53 316.19 628.38 323.89 626.56 331.68 624.13 339.47 621.55 347.32 618.46 355.14 614.93 362.85 611.44 370.59 607.66 378.2 603.65 385.63 599.91 393.06 596.17 400.12 592.5 406.82 589.26 413.51 586.14 419.85 583.2 425.84 580.74 431.86 578.45 437.58 576.33 443.03 573.89 451.28 570.02 467.52 568.34 475.95 567.47 482 566.45 488.34 565.25 495.05 564.19 502.29 562.85 510.03 561.22 518.29 559.62 527.11 557.65 536.44 555.3 546.22 552.9 556.32 550.08 566.63 546.84 576.94 543.52 587.05 539.76 596.71 535.58 605.59 531.3 613.58 526.61 620.29 521.52 625.42 516.34 629.09 510.79 630.91 504.89 630.79 498.93 629.2 492.64 625.9 486.05 621.1 479.42 615.65 472.52 609.48 465.38 603.07 458.21 597.39 450.82 592.45 443.22 588.7 435.62 586.89 427.83 586.86 419.88 588.69 411.92 592.66 404 598.05 396.12 604.38 388.25 611.65 380.42 618.82 372.67 625.37 364.92 631.3 357.23 635.7 349.63 638.28 342.02 639.26 334.5 638.11 327.08 634.91 319.65 630.07 312.32 623.49 305.11 615.48 297.9 606.5 290.8 596.7 283.85 586.45 276.91 576.09 270.12 565.83 263.5 555.91 256.9 546.53 250.5 537.76 244.31 529.68 238.17 522.39 232.26 515.79 226.62 509.8 221.05 504.53 215.78 499.71 210.82 495.2 203.71 489.22 191.5 477.71 186.49 471.61 182.14 465.32 175.92 450.71 174.11 442.26 173.21 436.45 172.8 430.18 172.87 423.45 173.07 416.7 173.75 409.52 174.91 401.9 176.16 394.28 177.83 386.44 179.89 378.4 181.99 370.37 184.44 362.17 187.22 353.84 189.97 345.54 193.01 337.14 196.32 328.67 199.57 320.28 203.05 311.88 206.75 303.54 210.35 295.34 214.15 287.28 218.14 279.45 222 271.87 226.05 264.64 230.25 257.85 234.33 251.43 238.58 245.58 242.98 240.37 249.49 233.62 263.18 224.46 270.37 222 277.61 220.48 292.94 219.25 301.05 218.67 306.47 217.66 312.1 216.3 317.95 214.47 323.75 211.75 329.78 208.44 336.02 204.56 342.24 199.87 348.68 194.79 355.35 189.5 361.99 183.94 368.87 178.61 375.97 173.82 383.06 169.51 390.39 166.23 397.95 164.23" stroke-dasharray="3 3" transform="rotate(24.24, 400, 400)" opacity="0.28"></path><path d="M402.14 174.84C409.4 173.91 416.7 174.38 424.05 176.18 431.41 178.91 438.81 182.76 446.24 187.51 453.69 192.7 461.17 198.4 468.66 204.35 476.16 210.13 483.67 215.81 491.16 221.23 498.66 226.04 506.13 230.4 513.53 234.3 520.92 237.45 528.23 240.16 535.4 242.52 542.53 244.26 549.49 245.83 556.24 247.34 562.89 248.52 569.28 249.85 575.35 251.44 584.03 253.96 598.96 261.51 604.99 266.74 610.03 272.86 616.56 287.94 617.94 296.69 618.34 302.82 618.08 309.25 617.17 315.91 616.02 322.67 614.28 329.6 611.98 336.61 609.57 343.68 606.7 350.79 603.41 357.89 600.18 365.01 596.67 372.08 592.93 379.07 589.43 386.06 585.91 392.79 582.43 399.26 579.31 405.73 576.29 411.97 573.4 417.98 570.93 424.04 568.59 429.93 566.38 435.69 564.58 441.58 562.87 447.42 561.23 453.29 559.93 459.39 558.64 465.63 557.31 472.08 556.22 478.87 555.02 485.99 553.68 493.47 552.47 501.38 551.04 509.71 549.36 518.44 547.73 527.53 545.79 536.94 543.52 546.57 541.23 556.29 538.58 565.97 535.55 575.39 532.47 584.42 528.99 592.8 525.14 600.26 519.05 609.35 504.92 618.3 496.93 617.61 491.44 615.4 485.63 611.77 479.53 606.95 473.39 601.71 466.97 595.98 460.31 590.17 453.62 585.13 446.7 580.82 439.57 577.62 432.44 576.18 425.1 576.31 417.58 578.08 410.06 581.76 402.55 586.69 395.07 592.48 387.59 599.17 380.14 605.85 372.74 612.06 365.35 617.85 358.01 622.38 350.73 625.37 343.47 627.04 336.27 626.84 329.16 624.79 322.05 621.25 315.04 616.04 308.13 609.39 301.24 601.71 294.45 593.07 287.81 583.77 281.19 574.14 274.71 564.34 268.4 554.61 262.13 545.15 256.05 536.06 250.17 527.46 244.35 519.44 238.76 511.98 233.44 505.07 228.19 498.77 223.22 492.94 218.56 487.48 214 482.52 209.77 477.76 205.9 473.12 200.48 466.6 191.8 453.27 188.62 446.11 186.1 438.7 183.53 422.06 183.5 412.75 183.75 406.41 184.46 399.67 185.63 392.53 186.88 385.4 188.53 378.06 190.56 370.55 192.61 363.06 195.01 355.43 197.72 347.7 200.41 340.02 203.39 332.28 206.61 324.54 209.78 316.9 213.19 309.32 216.8 301.87 220.33 294.6 224.05 287.53 227.95 280.77 231.74 274.27 235.7 268.16 239.82 262.54 245.91 254.9 258.7 243.2 265.39 239.26 272.09 236.4 286.18 233.46 293.59 232.84 301.08 231.9 316.9 228.41 325.26 225.2 330.86 222.07 336.66 218.43 342.67 214.29 348.65 209.47 354.84 204.35 361.24 199.12 367.63 193.7 374.23 188.57 381.05 183.98 387.85 179.88 394.88 176.76 402.13 174.84" stroke-dasharray="1 4" transform="rotate(28.28, 400, 400)" opacity="0.32"></path><path d="M406.26 185.45C413.2 184.52 420.18 184.89 427.2 186.49 434.22 188.97 441.28 192.5 448.35 196.92 455.44 201.8 462.54 207.21 469.64 212.95 476.75 218.63 483.84 224.31 490.89 229.83 497.95 234.87 504.95 239.56 511.86 243.87 518.75 247.51 525.54 250.74 532.17 253.62 538.75 255.89 545.14 257.93 551.31 259.81 560.27 262.06 576.42 266.81 583.42 269.77 589.67 273.16 599.3 282.35 602.54 288.19 604.78 294.71 605.9 309.94 604.8 318.44 603.68 324.3 602.02 330.38 599.87 336.62 597.62 342.92 594.96 349.33 591.92 355.83 588.94 362.34 585.69 368.9 582.21 375.49 578.95 382.07 575.64 388.52 572.35 394.82 569.37 401.14 566.45 407.34 563.62 413.45 561.16 419.6 558.79 425.71 556.52 431.81 554.62 438.04 552.78 444.33 550.99 450.73 549.52 457.34 548.04 464.15 546.53 471.2 545.26 478.54 543.89 486.17 542.4 494.11 541.05 502.35 539.52 510.89 537.77 519.68 536.1 528.65 534.16 537.75 531.93 546.86 529.72 555.85 527.18 564.59 524.32 572.89 521.42 580.66 518.18 587.65 514.6 593.64 508.98 600.56 495.95 605.84 488.58 603.97 483.52 601.32 478.15 597.52 472.5 592.79 466.82 587.86 460.87 582.62 454.67 577.41 448.45 573 441.99 569.29 435.32 566.59 428.64 565.49 421.75 565.76 414.68 567.47 407.6 570.87 400.51 575.36 393.44 580.64 386.36 586.76 379.31 592.94 372.29 598.77 365.27 604.35 358.3 608.91 351.38 612.2 344.47 614.41 337.63 615 330.86 613.97 324.1 611.61 317.43 607.7 310.86 602.39 304.31 596.05 297.87 588.66 291.56 580.49 285.28 571.82 279.14 562.76 273.17 553.56 267.24 544.38 261.5 535.34 255.96 526.58 250.48 518.19 245.23 510.2 240.23 502.65 235.3 495.58 230.65 488.93 226.3 482.66 222.05 476.82 218.11 471.26 214.52 465.89 209.49 458.35 201.49 443.64 198.6 436.14 196.32 428.57 194.08 412.21 194.15 403.3 194.45 397.26 195.18 390.9 196.35 384.23 197.59 377.56 199.22 370.74 201.2 363.81 203.21 356.9 205.55 349.91 208.18 342.89 210.8 335.92 213.69 328.96 216.83 322.07 219.92 315.28 223.23 308.62 226.75 302.17 230.19 295.88 233.82 289.86 237.62 284.2 241.33 278.77 245.21 273.76 249.23 269.24 255.2 263.15 267.72 254.14 274.26 251.22 280.82 249.04 294.57 246.53 301.78 245.67 309.05 244.24 324.37 239.42 332.45 235.54 337.85 232.06 343.44 228.12 349.22 223.79 354.97 218.89 360.92 213.79 367.07 208.66 373.19 203.42 379.53 198.5 386.06 194.14 392.58 190.25 399.31 187.29 406.25 185.45" stroke-dasharray="7 0" transform="rotate(32.32, 400, 400)" opacity="0.35"></path><path d="M410.16 196.06C416.77 195.14 423.41 195.41 430.08 196.82 436.75 199.04 443.44 202.26 450.14 206.33 456.84 210.87 463.54 215.97 470.22 221.45 476.9 226.95 483.56 232.54 490.15 238.08 496.73 243.25 503.24 248.19 509.65 252.82 516.02 256.88 522.27 260.6 528.35 263.97 534.38 266.79 540.2 269.33 545.79 271.68 553.88 274.52 568.32 279.82 574.51 282.7 584.15 289.61 592.88 303.79 593.65 309.96 593.57 316.63 590.58 331.64 587.79 339.84 585.71 345.42 583.26 351.19 580.46 357.13 577.71 363.08 574.71 369.17 571.49 375.38 568.46 381.6 565.37 387.8 562.26 393.97 559.43 400.15 556.62 406.33 553.87 412.52 551.44 418.76 549.07 425.06 546.77 431.43 544.78 437.92 542.84 444.54 540.94 451.32 539.31 458.26 537.68 465.42 536.02 472.81 534.58 480.39 533.06 488.21 531.43 496.26 529.95 504.46 528.31 512.84 526.49 521.32 524.75 529.8 522.79 538.24 520.58 546.5 518.41 554.5 515.95 562.1 513.22 569.11 508.95 578.31 498.84 590.55 492.98 592.98 486.77 592.69 472.81 585.1 465.1 578.67 459.84 574.12 454.33 569.4 448.57 564.8 442.79 560.99 436.78 557.85 430.56 555.63 424.33 554.82 417.89 555.22 411.26 556.86 404.63 559.99 397.98 564.07 391.32 568.84 384.67 574.42 378.02 580.08 371.4 585.52 364.78 590.83 358.19 595.33 351.66 598.78 345.13 601.4 338.66 602.64 332.26 602.47 325.87 601.16 319.57 598.44 313.36 594.41 307.18 589.39 301.1 583.3 295.15 576.35 289.24 568.81 283.46 560.72 277.85 552.3 272.29 543.72 266.9 535.08 261.71 526.52 256.59 518.13 251.68 509.98 247.02 502.12 242.44 494.6 238.11 487.41 234.08 480.55 230.14 474.03 226.5 467.8 223.18 461.8 219.98 456.09 217.12 450.52 214.62 445.05 211.24 437.12 206.57 421.27 205.32 413.13 204.75 407.7 204.57 402.07 204.82 396.25 205.16 390.44 205.91 384.41 207.07 378.17 208.3 371.92 209.89 365.62 211.82 359.29 213.77 352.98 216.04 346.66 218.59 340.39 221.13 334.16 223.93 328.02 226.97 322.02 229.97 316.11 233.18 310.4 236.59 304.93 241.7 297.12 252.67 283.53 258.48 277.95 264.31 273.15 276.53 266.2 282.92 263.95 289.33 262.13 302.72 259.49 309.73 258.19 316.8 256.16 331.63 249.96 339.42 245.47 344.63 241.69 350.02 237.53 355.57 233.07 361.1 228.15 366.81 223.11 372.7 218.12 378.58 213.08 384.63 208.4 390.88 204.28 397.11 200.61 403.54 197.82 410.15 196.06" stroke-dasharray="10 1" transform="rotate(36.36, 400, 400)" opacity="0.39"></path><path d="M413.7 206.67C419.98 205.76 426.27 205.94 432.57 207.17 438.87 209.14 445.18 212.04 451.48 215.74 464.07 224.47 476.6 234.95 488.84 246.01 501.01 256.1 512.8 265.37 523.92 273.49 534.8 279.61 544.79 284.85 553.61 289.62 561.9 293.22 568.75 297.25 573.89 302.09 578.29 306.77 580.84 312.74 581.42 320.03 581.32 327.49 579.4 336.25 575.74 346.13 573.84 351.1 571.59 356.32 569.02 361.77 566.5 367.23 563.75 372.9 560.78 378.78 557.97 384.66 555.08 390.62 552.17 396.64 549.48 402.68 546.8 408.8 544.14 415.01 539.66 427.56 535.29 440.69 531.06 454.43 527.82 468.6 524.43 483.56 520.78 499.08 517.7 514.72 514 530.32 509.54 544.99 505.26 558.24 499.98 569.05 493.65 576.28 487.28 580.36 479.78 580.11 471.21 575.61 462.53 569.25 452.81 560.9 442.15 552.35 436.79 549.12 431.22 546.51 425.43 544.72 419.63 544.18 413.64 544.68 407.45 546.25 401.27 549.11 395.05 552.8 388.82 557.1 382.6 562.14 376.37 567.3 370.16 572.31 357.77 582.05 345.46 588.43 333.43 590.35 321.47 588.54 309.81 581.84 298.65 571.16 287.63 557.96 277.17 542.72 267.47 526.72 258.02 510.71 249.43 495.23 241.9 480.71 234.74 467.15 228.75 454.5 224.09 442.58 219.88 431.31 217.07 420.24 215.79 409.13 215.26 400.87 216.26 383.93 217.78 375.21 219 369.36 220.55 363.54 222.41 357.79 224.31 352.05 226.5 346.39 228.95 340.85 233.85 329.89 239.7 319.61 246.33 310.39 252.75 301.62 259.87 294.22 267.55 288.45 274.94 283.18 282.89 279.45 291.34 277.1 299.49 274.47 308.19 272.37 317.39 270.21 326.38 266.3 335.96 261.31 346.1 254.98 356.1 246.46 366.75 237.02 378.03 227.51 383.64 222.71 389.42 218.29 395.37 214.41 401.31 210.97 407.42 208.35 413.69 206.68" stroke-dasharray="8 6" transform="rotate(40.400000000000006, 400, 400)" opacity="0.43"></path><path d="M416.77 217.29C428.62 216.2 440.49 219.02 452.24 225.18 464 233.17 475.61 243 486.87 253.65 498.06 263.75 508.8 273.37 518.84 282.12 528.63 289.19 537.55 295.4 545.32 301.03 552.62 305.42 558.58 309.92 562.96 314.89 566.72 319.44 568.82 324.96 569.15 331.58 568.94 338.19 567.11 346.01 563.74 354.98 560.26 363.97 555.63 374.05 550.06 385.19 545.04 396.33 539.75 408.05 534.44 420.25 530.04 432.59 525.67 445.58 521.36 459.14 517.9 472.92 514.3 487.22 510.46 501.69 507.16 515.9 503.32 529.58 498.85 541.9 494.59 552.63 489.46 560.79 483.45 565.56 477.43 567.67 470.42 566.09 462.45 561.09 454.41 554.95 445.41 547.44 435.54 540.06 425.62 535.56 414.87 533.84 403.39 535.64 391.91 541.9 380.28 550.28 368.7 559.16 357.15 568.31 345.69 574.82 334.47 577.66 323.33 577.5 312.49 573 302.12 564.75 291.9 554.02 282.22 540.94 273.27 526.6 264.57 511.75 256.68 496.86 249.8 482.5 243.27 468.66 237.82 455.56 233.63 443.19 229.85 431.33 227.36 419.89 226.3 408.73 225.61 397.74 226.32 386.74 228.5 375.77 230.92 364.79 234.58 354.33 239.27 344.55 243.98 334.88 249.6 326.09 255.96 318.44 262.15 311.07 269.02 305.01 276.44 300.36 283.6 295.89 291.31 292.62 299.48 290.3 307.4 287.39 315.84 284.65 324.73 281.6 333.42 276.83 342.66 271.02 352.39 264.08 362.01 255.34 372.2 245.99 382.94 236.84 393.62 227.94 404.91 221.07 416.76 217.29" stroke-dasharray="7 6" transform="rotate(44.44, 400, 400)" opacity="0.47"></path><path d="M419.26 227.9C430.38 226.77 441.46 229.18 452.36 234.66 463.25 241.88 473.92 250.98 484.21 261.07 494.4 270.96 504.11 280.7 513.1 289.86 521.86 297.68 529.75 304.77 536.55 311.25 542.94 316.55 548.09 321.73 551.8 327.11 555 331.92 556.71 337.4 556.85 343.74 556.58 349.93 554.86 357.16 551.78 365.48 548.63 373.77 544.43 383.17 539.34 393.71 534.73 404.24 529.79 415.45 524.75 427.22 520.47 439.05 516.15 451.5 511.82 464.37 508.22 477.24 504.46 490.35 500.48 503.25 496.99 515.61 493.04 527.08 488.56 536.92 484.3 545.19 479.31 550.93 473.55 553.59 467.83 554.15 461.25 551.66 453.82 546.49 446.36 540.77 438.03 534.18 428.91 527.94 419.75 524.38 409.82 523.23 399.21 525.02 388.6 530.67 377.85 538.12 367.13 546.09 356.45 554.57 345.84 561 335.46 564.48 325.18 565.64 315.17 563.04 305.62 557.04 296.22 548.74 287.34 537.97 279.16 525.63 271.21 512.42 264.03 498.71 257.8 485.1 251.88 471.65 246.98 458.65 243.25 446.29 239.87 434.25 237.7 422.71 236.84 411.65 236.32 400.73 237.09 390.09 239.22 379.78 241.57 369.47 245.07 359.94 249.55 351.3 254.05 342.71 259.41 335.12 265.48 328.65 271.43 322.31 278.02 317.13 285.13 313.12 292.04 309.02 299.47 305.78 307.34 303.14 314.99 299.7 323.13 296.18 331.68 292.21 340.06 286.64 348.93 280.15 358.24 272.76 367.44 263.95 377.16 254.83 387.34 246.11 397.48 237.8 408.14 231.42 419.26 227.9" stroke-dasharray="2 1" transform="rotate(48.48, 400, 400)" opacity="0.51"></path><path d="M421.08 238.51C431.45 237.36 441.71 239.37 451.74 244.18 461.75 250.61 471.49 258.91 480.8 268.32 490.02 277.81 498.71 287.43 506.7 296.75 514.47 305.08 521.41 312.86 527.32 320.08 532.88 326.26 537.3 332.21 540.43 338.16 543.15 343.48 544.54 349.22 544.54 355.57 544.23 361.67 542.65 368.63 539.85 376.52 537.03 384.34 533.24 393.19 528.62 403.11 524.4 413.03 519.82 423.59 515.07 434.64 510.96 445.71 506.73 457.23 502.43 468.94 498.75 480.52 494.9 492.03 490.83 503 487.2 513.31 483.17 522.47 478.69 529.9 472 537.73 455.48 538.44 445.45 531.89 438.5 526.76 430.8 521.14 422.38 516 413.94 513.29 404.81 512.63 395.05 514.41 385.3 519.47 375.42 526.04 365.57 533.11 355.76 540.84 346.03 547.02 336.52 550.88 327.1 553.02 317.95 552 309.24 547.99 300.67 541.97 292.6 533.51 285.18 523.33 277.98 512.11 271.51 500.02 265.92 487.67 260.61 475.16 256.24 462.83 252.95 450.93 249.97 439.19 248.09 427.91 247.43 417.17 247.05 406.54 247.87 396.33 249.94 386.66 252.21 376.98 255.54 368.25 259.78 360.5 264.05 352.76 269.14 346.02 274.9 340.34 280.56 334.64 286.84 329.92 293.62 326.11 300.25 322.01 307.36 318.47 314.89 315.24 322.24 311.14 330.04 306.79 338.21 301.95 346.25 295.71 354.72 288.71 363.57 281.04 372.34 272.33 381.55 263.55 391.14 255.34 400.71 247.65 410.71 241.78 421.08 238.51" stroke-dasharray="0 5" transform="rotate(52.52, 400, 400)" opacity="0.54"></path><path d="M422.17 249.12C431.77 247.95 441.19 249.6 450.34 253.75 459.47 259.39 468.28 266.83 476.64 275.45 484.91 284.35 492.64 293.63 499.67 302.85 506.52 311.42 512.58 319.62 517.67 327.39 522.49 334.31 526.27 340.96 528.89 347.5 531.19 353.44 532.33 359.6 532.24 366.13 531.93 372.38 530.49 379.27 527.98 386.88 525.46 394.41 522.07 402.8 517.9 412.07 514.07 421.35 509.84 431.12 505.4 441.21 501.49 451.28 497.39 461.57 493.18 471.82 489.49 481.84 485.6 491.51 481.51 500.41 477.8 508.63 473.73 515.58 469.29 520.82 462.67 525.86 446.85 523.67 437.45 517.4 430.99 512.98 423.86 508.34 416.12 504.24 408.36 502.3 399.99 502.06 391.07 503.8 382.15 508.3 373.14 514.04 364.16 520.23 355.22 527.17 346.37 532.96 337.73 536.95 329.18 539.75 320.89 539.97 313.02 537.63 305.29 533.63 298.02 527.37 291.38 519.34 284.92 510.26 279.14 500.08 274.18 489.34 269.46 478.25 265.6 467.04 262.73 456.04 260.13 445.05 258.54 434.39 258.05 424.24 257.81 414.13 258.66 404.49 260.66 395.44 262.83 386.38 265.98 378.31 269.97 371.21 274 364.08 278.79 357.89 284.21 352.61 289.56 347.22 295.5 342.6 301.92 338.63 308.21 334.26 314.98 330.22 322.12 326.27 329.13 321.47 336.55 316.35 344.31 310.77 351.96 304.03 359.99 296.71 368.35 288.97 376.64 280.5 385.31 272.17 394.3 264.54 403.26 257.48 412.57 252.14 422.17 249.12" stroke-dasharray="7 7" transform="rotate(56.56, 400, 400)" opacity="0.58"></path><path d="M422.49 259.73C431.29 258.56 439.88 259.86 448.15 263.38 456.4 268.24 464.3 274.79 471.73 282.53 479.08 290.7 485.9 299.41 492.04 308.28 498.04 316.78 503.28 325.13 507.65 333.17 511.8 340.59 515.02 347.78 517.21 354.79 519.17 361.31 520.09 367.88 519.96 374.64 519.66 381.14 518.38 388.05 516.14 395.45 513.93 402.77 510.92 410.72 507.18 419.32 503.72 427.91 499.86 436.77 495.75 445.73 492.05 454.64 488.14 463.54 484.07 472.15 480.43 480.5 476.57 488.29 472.51 495.17 466.75 503.92 453.85 512.68 446.47 512 441.48 510.31 435.96 507.22 429.93 503.12 423.91 499.47 417.33 495.8 410.24 492.65 403.13 491.39 395.5 491.5 387.4 493.19 379.29 497.16 371.13 502.12 363.02 507.46 354.95 513.58 346.96 518.86 339.2 522.78 331.51 525.94 324.09 527.05 317.06 526.04 310.14 523.74 303.67 519.42 297.78 513.43 292.05 506.46 286.95 498.29 282.6 489.36 278.45 479.98 275.09 470.24 272.62 460.48 270.38 450.61 269.05 440.9 268.72 431.56 268.6 422.22 269.47 413.27 271.38 404.86 273.44 396.45 276.39 388.93 280.11 382.28 283.88 375.58 288.35 369.68 293.41 364.52 298.43 359.17 304 354.4 310.01 350.05 315.95 345.27 322.31 340.63 329.03 335.97 335.66 330.53 342.65 324.78 349.95 318.64 357.17 311.61 364.72 304.18 372.55 296.56 380.33 288.49 388.42 280.72 396.76 273.72 405.09 267.32 413.69 262.49 422.49 259.73" stroke-dasharray="8 9" transform="rotate(60.599999999999994, 400, 400)" opacity="0.62"></path><path d="M422.03 270.34C430.03 269.19 437.77 270.17 445.17 273.1 452.56 277.19 459.57 282.83 466.11 289.64 472.59 296.95 478.55 304.91 483.88 313.19 489.08 321.35 493.59 329.52 497.32 337.54 500.88 345.16 503.61 352.61 505.44 359.88 507.09 366.78 507.86 373.65 507.7 380.57 507.43 387.26 506.31 394.18 504.35 401.35 502.42 408.46 499.78 415.96 496.46 423.82 493.37 431.69 489.87 439.56 486.1 447.31 482.65 455 478.96 462.44 475.08 469.42 471.55 476.14 467.78 482.17 463.82 487.24 458.14 493.49 445.57 498.49 438.51 497.02 433.76 495.28 428.58 492.54 422.97 489.12 417.39 486.29 411.34 483.53 404.86 481.25 398.39 480.57 391.47 480.97 384.16 482.58 376.85 486.06 369.52 490.28 362.26 494.81 355.03 500.1 347.91 504.8 341.02 508.47 334.18 511.74 327.6 513.4 321.39 513.37 315.28 512.4 309.59 509.71 304.43 505.51 299.41 500.49 294.96 494.26 291.19 487.17 287.59 479.62 284.7 471.53 282.61 463.2 280.71 454.72 279.63 446.19 279.44 437.84 279.42 429.47 280.29 421.34 282.09 413.6 284.03 405.85 286.78 398.82 290.22 392.49 293.71 386.11 297.84 380.34 302.51 375.1 307.17 369.68 312.34 364.62 317.92 359.82 323.44 354.61 329.37 349.42 335.63 344.15 341.82 338.24 348.34 332.06 355.13 325.6 361.87 318.51 368.9 311.2 376.15 303.88 383.38 296.34 390.85 289.21 398.52 282.88 406.17 277.15 414.04 272.84 422.03 270.34" stroke-dasharray="6 10" transform="rotate(64.64, 400, 400)" opacity="0.66"></path><path d="M420.81 280.96C427.98 279.83 434.88 280.53 441.44 282.89 447.97 286.25 454.13 291 459.84 296.84 465.49 303.2 470.65 310.27 475.22 317.76 479.7 325.31 483.56 333.01 486.71 340.7 489.75 348.17 492.06 355.57 493.59 362.82 495 369.83 495.64 376.78 495.49 383.66 495.27 390.4 494.31 397.19 492.62 404.05 490.96 410.87 488.66 417.84 485.74 424.93 483 432.02 479.87 438.89 476.45 445.44 473.28 451.93 469.84 457.99 466.21 463.46 461.03 470.98 449.91 481.13 443.9 483.22 437.83 483.63 424.24 479.26 416.64 475.49 411.49 473.46 405.96 471.54 400.09 470.02 394.23 469.83 388 470.45 381.47 471.97 374.94 474.97 368.42 478.52 362 482.29 355.59 486.77 349.32 490.81 343.26 494.11 334.37 498.22 318.29 499.06 311.37 495.61 307.03 492.26 303.2 487.78 299.98 482.4 296.9 476.63 294.45 470.21 292.72 463.39 291.13 456.39 290.27 449.18 290.2 441.94 290.27 434.66 291.12 427.44 292.81 420.4 294.61 413.35 297.14 406.81 300.28 400.76 303.47 394.65 307.25 388.95 311.52 383.6 315.79 378.07 320.52 372.75 325.63 367.55 330.72 362.01 336.17 356.42 341.92 350.74 347.62 344.58 353.63 338.23 359.87 331.72 366.08 324.8 372.54 317.82 379.17 310.97 385.8 304.08 392.62 297.66 399.58 292.05 406.53 286.99 413.64 283.19 420.81 280.96" stroke-dasharray="3 6" transform="rotate(68.68, 400, 400)" opacity="0.70"></path><path d="M418.87 291.57C431.57 290.36 443.1 295.07 452.98 304.2 462.68 315.35 470.5 328.83 475.91 342.95 480.97 356.85 483.54 370.72 483.34 384.03 482.98 396.99 480.2 409.93 475.02 422.49 470.4 435.05 464.33 445.98 457.43 454.53 451.32 462.52 444.22 467.35 436.38 468.47 429.01 468.97 420.49 466.53 410.99 462.3 401.6 460.44 390.98 459.77 379.42 461.35 367.87 467.54 356.52 474.33 346 479.81 335.62 485.33 326.27 486.78 318.61 483.95 311.3 479.39 305.89 471.14 302.93 460.53 300.45 449.31 300.51 436.89 303.53 424.3 306.91 411.7 312.77 400.1 320.43 389.45 328.13 378.25 337.5 367.08 347.91 355.79 358.24 343.24 369.66 330.27 381.63 317.91 393.57 305.8 406.17 296.31 418.87 291.57" stroke-dasharray="4 7" transform="rotate(72.72, 400, 400)" opacity="0.73"></path><path d="M416.27 302.18C427.31 300.89 437.23 304.47 445.61 311.81 453.87 320.93 460.45 332.36 464.96 344.69 469.24 357.19 471.4 369.91 471.25 382.13 471.02 394.2 468.71 405.96 464.31 416.86 460.31 427.76 454.94 436.68 448.74 443.21 443.11 449.42 436.54 452.87 429.3 453.43 422.43 453.92 414.62 452.34 406.05 449.6 397.58 448.93 388.17 449.11 378.09 450.74 368.02 455.86 358.25 461.25 349.3 465.63 340.45 470.46 332.58 472.31 326.2 470.82 320.07 468.3 315.61 462.59 313.28 454.5 311.29 445.93 311.5 435.77 314.25 424.74 317.28 413.71 322.49 402.89 329.26 392.44 336.1 381.62 344.41 370.57 353.64 359.46 362.85 347.64 372.99 335.73 383.57 324.76 394.15 314.3 405.22 306.24 416.27 302.18" stroke-dasharray="10 2" transform="rotate(76.76, 400, 400)" opacity="0.77"></path><path d="M413.11 312.79C422.51 311.48 430.86 314.06 437.85 319.71 444.75 326.84 450.21 336.08 453.92 346.33 457.5 356.96 459.33 367.99 459.24 378.66 459.12 389.33 457.26 399.59 453.59 408.83 450.21 418.06 445.57 425.31 440.12 430.39 435.07 435.34 429.16 438.05 422.65 438.62 416.41 439.43 409.4 438.83 401.83 437.43 394.33 437.73 386.14 438.53 377.52 440.13 368.89 444.26 360.66 448.38 353.2 451.69 342.57 456.5 327.32 453.5 323.74 445.53 322.2 439.18 322.51 431.08 324.97 421.67 327.64 412.26 332.15 402.48 338.01 392.68 343.93 382.68 351.13 372.33 359.13 362 367.12 351.4 375.92 340.96 385.06 331.59 394.2 322.84 403.71 316.18 413.11 312.79" stroke-dasharray="1 8" transform="rotate(80.80000000000001, 400, 400)" opacity="0.81"></path><path d="M409.49 323.4C417.26 322.14 424.1 323.86 429.79 327.99 435.43 333.23 439.86 340.28 442.87 348.32 445.81 356.79 447.34 365.77 447.31 374.55 447.3 383.42 445.84 391.95 442.87 399.54 440.1 407.12 436.2 413 431.57 417.1 424.62 422.41 407.85 425.94 398.3 425.83 391.85 426.83 384.91 428.02 377.72 429.52 370.53 432.75 363.77 435.74 357.73 438.05 343.09 440.83 333.37 426.44 335.69 415.52 337.97 407.74 341.77 399.3 346.68 390.62 351.66 381.88 357.7 372.77 364.41 363.79 371.14 354.79 378.52 346.1 386.16 338.48 393.81 331.45 401.72 326.14 409.49 323.4" stroke-dasharray="6 4" transform="rotate(84.84, 400, 400)" opacity="0.85"></path><path d="M405.55 334.01C417.86 332.71 427.07 339.77 431.85 351.1 436.52 363.87 436.87 378.34 432.15 390.31 427.93 402.29 419.97 409.24 410.46 411.59 401.39 415.29 390.23 417.42 378.7 418.91 362.26 426.41 344.03 422.85 346.4 407.16 350.23 394.87 358.8 379.75 369.52 365.23 380.35 351.14 393.23 339.12 405.55 334.01" stroke-dasharray="4 8" transform="rotate(88.88, 400, 400)" opacity="0.89"></path><path d="M401.41 344.63C410.55 343.24 417.36 347.56 420.93 355.05 424.47 363.49 424.85 373.59 421.43 382.47 418.29 391.34 412.19 397.19 404.84 400.15 397.72 404.04 389.1 406.77 380.41 408.3 368.14 413.1 355.13 409.36 357.12 397.78 360.04 388.69 366.49 377.41 374.52 366.78 382.64 356.65 392.26 348.2 401.41 344.63" stroke-dasharray="0 7" transform="rotate(92.92, 400, 400)" opacity="0.92"></path><path d="M397.22 355.24C409.29 353.89 415.21 365.37 410.71 377.11 406.69 388.85 394.46 396.24 382.81 397.68 371.15 403.34 364.22 400.66 367.84 388.71 371.89 376.76 385.14 360.53 397.22 355.24" stroke-dasharray="10 7" transform="rotate(96.96, 400, 400)" opacity="0.96"></path></g></svg>