<svg width="36" height="36" viewBox="0 0 36 36" fill="none" xmlns="http://www.w3.org/2000/svg">
<circle cx="18" cy="18" r="17" stroke="#CDD1D7" stroke-width="2"/>
<mask id="path-2-inside-1_639_346" fill="white">
<path fill-rule="evenodd" clip-rule="evenodd" d="M29.6759 19.7318C31.0093 18.962 31.0093 17.0375 29.676 16.2677L11.999 6.06195C10.6657 5.29215 8.99902 6.2544 8.99902 7.794V28.2056C8.99902 29.7452 10.6657 30.7074 11.999 29.9376L29.6759 19.7318ZM11.919 20.4922H12.3961C12.7163 20.4922 13.0083 20.4392 13.2723 20.3331C13.5384 20.225 13.7666 20.0725 13.957 19.8756C14.1496 19.6765 14.2978 19.4386 14.4016 19.1616C14.5076 18.8847 14.5606 18.5786 14.5606 18.2432V18.0193C14.5606 17.6818 14.5076 17.3757 14.4016 17.1009C14.2978 16.824 14.1496 16.586 13.957 16.387C13.7645 16.188 13.5362 16.0354 13.2723 15.9294C13.0105 15.8212 12.7217 15.7672 12.4058 15.7672H11.919H11.3479H10.9455V20.4922H11.3674H11.919ZM11.919 19.7328H12.3961C12.6514 19.7328 12.8666 19.6755 13.0419 19.5608C13.2171 19.444 13.3491 19.2741 13.4378 19.0513C13.5287 18.8285 13.5741 18.5591 13.5741 18.2432V18.0128C13.5741 17.7705 13.5481 17.5574 13.4962 17.3735C13.4464 17.1896 13.3718 17.035 13.2723 16.9095C13.1728 16.784 13.0505 16.6899 12.9056 16.6271C12.7606 16.5622 12.594 16.5298 12.4058 16.5298H11.919V19.7328ZM16.0924 20.4273C16.3087 20.5138 16.5532 20.5571 16.8258 20.5571C17.0529 20.5571 17.2552 20.5268 17.4326 20.4662C17.61 20.4035 17.7615 20.3234 17.8869 20.2261C18.0146 20.1287 18.1152 20.027 18.1887 19.921L17.7344 19.4277C17.6284 19.5619 17.5018 19.6625 17.3547 19.7295C17.2098 19.7944 17.0529 19.8269 16.8842 19.8269C16.7479 19.8269 16.6256 19.8031 16.5175 19.7555C16.4115 19.7079 16.3206 19.6408 16.2449 19.5543C16.1713 19.4678 16.114 19.365 16.0729 19.246C16.05 19.1762 16.0339 19.1026 16.0244 19.0253H18.2666V18.6359C18.2666 18.3785 18.2331 18.1448 18.166 17.935C18.099 17.7229 17.9994 17.5412 17.8675 17.3898C17.7377 17.2383 17.5765 17.1215 17.3839 17.0393C17.1914 16.9571 16.9707 16.916 16.7219 16.916C16.4666 16.916 16.2373 16.9603 16.0339 17.049C15.8306 17.1356 15.6575 17.26 15.5147 17.4222C15.3741 17.5845 15.2659 17.7759 15.1902 17.9966C15.1145 18.2173 15.0766 18.4607 15.0766 18.7268V18.8566C15.0766 19.0902 15.1166 19.3109 15.1967 19.5186C15.2767 19.7241 15.3914 19.9048 15.5407 20.0606C15.6921 20.2163 15.876 20.3386 16.0924 20.4273ZM16.0358 18.4023C16.0408 18.3668 16.0467 18.3322 16.0534 18.2984C16.0815 18.1664 16.1226 18.0518 16.1767 17.9544C16.233 17.8571 16.3055 17.7813 16.3942 17.7273C16.4829 17.6732 16.5889 17.6461 16.7122 17.6461C16.8571 17.6461 16.9761 17.6764 17.0692 17.737C17.1622 17.7976 17.2314 17.8798 17.2768 17.9836C17.3244 18.0853 17.3482 18.2011 17.3482 18.3309V18.4023H16.0358ZM19.7335 20.4922V18.0017C19.7465 17.9774 19.7606 17.954 19.7756 17.9317C19.8341 17.843 19.9076 17.7738 19.9963 17.724C20.0872 17.6743 20.1932 17.6494 20.3143 17.6494C20.4247 17.6494 20.5188 17.6667 20.5967 17.7013C20.6767 17.7359 20.7384 17.7965 20.7817 17.883C20.8249 17.9696 20.8466 18.0929 20.8466 18.253V20.4922H21.7812V18.1491C21.7812 18.1141 21.7805 18.08 21.7792 18.0466C21.8022 17.9932 21.8299 17.9441 21.8623 17.8993C21.9186 17.8214 21.9889 17.7608 22.0732 17.7175C22.1576 17.6721 22.2561 17.6494 22.3686 17.6494C22.4767 17.6494 22.5698 17.6667 22.6476 17.7013C22.7277 17.7337 22.7883 17.7932 22.8294 17.8798C22.8726 17.9642 22.8943 18.0875 22.8943 18.2497V20.4922H23.8321V18.2497C23.8321 18.0053 23.8051 17.7987 23.751 17.6299C23.6991 17.4612 23.6234 17.3249 23.5238 17.221C23.4265 17.115 23.3086 17.0382 23.1701 16.9906C23.0317 16.9408 22.8781 16.916 22.7093 16.916C22.4886 16.916 22.2939 16.9581 22.1252 17.0425C21.9564 17.1247 21.8147 17.2405 21.7 17.3898C21.6835 17.4117 21.6676 17.4341 21.6522 17.4571C21.6065 17.3578 21.55 17.2737 21.4826 17.2048C21.3896 17.1053 21.2782 17.0328 21.1484 16.9874C21.0186 16.9398 20.8758 16.916 20.72 16.916C20.495 16.916 20.297 16.9581 20.1261 17.0425C19.9614 17.1238 19.8218 17.2373 19.7074 17.3829L19.675 16.9809H18.7956V20.4922H19.7335ZM24.4065 18.7041V18.7722C24.4065 19.0275 24.4433 19.2644 24.5169 19.4829C24.5904 19.6993 24.6975 19.8886 24.8381 20.0508C24.9809 20.2109 25.1551 20.3353 25.3606 20.424C25.5683 20.5127 25.8052 20.5571 26.0713 20.5571C26.3374 20.5571 26.5732 20.5127 26.7788 20.424C26.9843 20.3353 27.1574 20.2109 27.298 20.0508C27.4408 19.8886 27.549 19.6993 27.6225 19.4829C27.6961 19.2644 27.7329 19.0275 27.7329 18.7722V18.7041C27.7329 18.4466 27.6961 18.2097 27.6225 17.9934C27.549 17.7749 27.4408 17.5856 27.298 17.4255C27.1574 17.2654 26.9832 17.141 26.7755 17.0523C26.5678 16.9614 26.3309 16.916 26.0648 16.916C25.7987 16.916 25.5629 16.9614 25.3574 17.0523C25.1518 17.141 24.9788 17.2654 24.8381 17.4255C24.6975 17.5856 24.5904 17.7749 24.5169 17.9934C24.4433 18.2097 24.4065 18.4466 24.4065 18.7041ZM25.3412 18.7722V18.7041C25.3412 18.5613 25.3541 18.4271 25.3801 18.3017C25.4061 18.174 25.4472 18.0615 25.5034 17.9642C25.5618 17.8646 25.6365 17.7868 25.7273 17.7305C25.8204 17.6743 25.9329 17.6461 26.0648 17.6461C26.1968 17.6461 26.3093 17.6743 26.4023 17.7305C26.4954 17.7868 26.57 17.8646 26.6262 17.9642C26.6847 18.0615 26.7268 18.174 26.7528 18.3017C26.7809 18.4271 26.795 18.5613 26.795 18.7041V18.7722C26.795 18.9193 26.7809 19.0567 26.7528 19.1844C26.7268 19.312 26.6857 19.4245 26.6295 19.5218C26.5732 19.617 26.4986 19.6917 26.4056 19.7458C26.3125 19.7999 26.2011 19.8269 26.0713 19.8269C25.9372 19.8269 25.8236 19.7999 25.7306 19.7458C25.6375 19.6917 25.5618 19.617 25.5034 19.5218C25.4472 19.4245 25.4061 19.312 25.3801 19.1844C25.3541 19.0567 25.3412 18.9193 25.3412 18.7722Z"/>
</mask>
<path fill-rule="evenodd" clip-rule="evenodd" d="M29.6759 19.7318C31.0093 18.962 31.0093 17.0375 29.676 16.2677L11.999 6.06195C10.6657 5.29215 8.99902 6.2544 8.99902 7.794V28.2056C8.99902 29.7452 10.6657 30.7074 11.999 29.9376L29.6759 19.7318ZM11.919 20.4922H12.3961C12.7163 20.4922 13.0083 20.4392 13.2723 20.3331C13.5384 20.225 13.7666 20.0725 13.957 19.8756C14.1496 19.6765 14.2978 19.4386 14.4016 19.1616C14.5076 18.8847 14.5606 18.5786 14.5606 18.2432V18.0193C14.5606 17.6818 14.5076 17.3757 14.4016 17.1009C14.2978 16.824 14.1496 16.586 13.957 16.387C13.7645 16.188 13.5362 16.0354 13.2723 15.9294C13.0105 15.8212 12.7217 15.7672 12.4058 15.7672H11.919H11.3479H10.9455V20.4922H11.3674H11.919ZM11.919 19.7328H12.3961C12.6514 19.7328 12.8666 19.6755 13.0419 19.5608C13.2171 19.444 13.3491 19.2741 13.4378 19.0513C13.5287 18.8285 13.5741 18.5591 13.5741 18.2432V18.0128C13.5741 17.7705 13.5481 17.5574 13.4962 17.3735C13.4464 17.1896 13.3718 17.035 13.2723 16.9095C13.1728 16.784 13.0505 16.6899 12.9056 16.6271C12.7606 16.5622 12.594 16.5298 12.4058 16.5298H11.919V19.7328ZM16.0924 20.4273C16.3087 20.5138 16.5532 20.5571 16.8258 20.5571C17.0529 20.5571 17.2552 20.5268 17.4326 20.4662C17.61 20.4035 17.7615 20.3234 17.8869 20.2261C18.0146 20.1287 18.1152 20.027 18.1887 19.921L17.7344 19.4277C17.6284 19.5619 17.5018 19.6625 17.3547 19.7295C17.2098 19.7944 17.0529 19.8269 16.8842 19.8269C16.7479 19.8269 16.6256 19.8031 16.5175 19.7555C16.4115 19.7079 16.3206 19.6408 16.2449 19.5543C16.1713 19.4678 16.114 19.365 16.0729 19.246C16.05 19.1762 16.0339 19.1026 16.0244 19.0253H18.2666V18.6359C18.2666 18.3785 18.2331 18.1448 18.166 17.935C18.099 17.7229 17.9994 17.5412 17.8675 17.3898C17.7377 17.2383 17.5765 17.1215 17.3839 17.0393C17.1914 16.9571 16.9707 16.916 16.7219 16.916C16.4666 16.916 16.2373 16.9603 16.0339 17.049C15.8306 17.1356 15.6575 17.26 15.5147 17.4222C15.3741 17.5845 15.2659 17.7759 15.1902 17.9966C15.1145 18.2173 15.0766 18.4607 15.0766 18.7268V18.8566C15.0766 19.0902 15.1166 19.3109 15.1967 19.5186C15.2767 19.7241 15.3914 19.9048 15.5407 20.0606C15.6921 20.2163 15.876 20.3386 16.0924 20.4273ZM16.0358 18.4023C16.0408 18.3668 16.0467 18.3322 16.0534 18.2984C16.0815 18.1664 16.1226 18.0518 16.1767 17.9544C16.233 17.8571 16.3055 17.7813 16.3942 17.7273C16.4829 17.6732 16.5889 17.6461 16.7122 17.6461C16.8571 17.6461 16.9761 17.6764 17.0692 17.737C17.1622 17.7976 17.2314 17.8798 17.2768 17.9836C17.3244 18.0853 17.3482 18.2011 17.3482 18.3309V18.4023H16.0358ZM19.7335 20.4922V18.0017C19.7465 17.9774 19.7606 17.954 19.7756 17.9317C19.8341 17.843 19.9076 17.7738 19.9963 17.724C20.0872 17.6743 20.1932 17.6494 20.3143 17.6494C20.4247 17.6494 20.5188 17.6667 20.5967 17.7013C20.6767 17.7359 20.7384 17.7965 20.7817 17.883C20.8249 17.9696 20.8466 18.0929 20.8466 18.253V20.4922H21.7812V18.1491C21.7812 18.1141 21.7805 18.08 21.7792 18.0466C21.8022 17.9932 21.8299 17.9441 21.8623 17.8993C21.9186 17.8214 21.9889 17.7608 22.0732 17.7175C22.1576 17.6721 22.2561 17.6494 22.3686 17.6494C22.4767 17.6494 22.5698 17.6667 22.6476 17.7013C22.7277 17.7337 22.7883 17.7932 22.8294 17.8798C22.8726 17.9642 22.8943 18.0875 22.8943 18.2497V20.4922H23.8321V18.2497C23.8321 18.0053 23.8051 17.7987 23.751 17.6299C23.6991 17.4612 23.6234 17.3249 23.5238 17.221C23.4265 17.115 23.3086 17.0382 23.1701 16.9906C23.0317 16.9408 22.8781 16.916 22.7093 16.916C22.4886 16.916 22.2939 16.9581 22.1252 17.0425C21.9564 17.1247 21.8147 17.2405 21.7 17.3898C21.6835 17.4117 21.6676 17.4341 21.6522 17.4571C21.6065 17.3578 21.55 17.2737 21.4826 17.2048C21.3896 17.1053 21.2782 17.0328 21.1484 16.9874C21.0186 16.9398 20.8758 16.916 20.72 16.916C20.495 16.916 20.297 16.9581 20.1261 17.0425C19.9614 17.1238 19.8218 17.2373 19.7074 17.3829L19.675 16.9809H18.7956V20.4922H19.7335ZM24.4065 18.7041V18.7722C24.4065 19.0275 24.4433 19.2644 24.5169 19.4829C24.5904 19.6993 24.6975 19.8886 24.8381 20.0508C24.9809 20.2109 25.1551 20.3353 25.3606 20.424C25.5683 20.5127 25.8052 20.5571 26.0713 20.5571C26.3374 20.5571 26.5732 20.5127 26.7788 20.424C26.9843 20.3353 27.1574 20.2109 27.298 20.0508C27.4408 19.8886 27.549 19.6993 27.6225 19.4829C27.6961 19.2644 27.7329 19.0275 27.7329 18.7722V18.7041C27.7329 18.4466 27.6961 18.2097 27.6225 17.9934C27.549 17.7749 27.4408 17.5856 27.298 17.4255C27.1574 17.2654 26.9832 17.141 26.7755 17.0523C26.5678 16.9614 26.3309 16.916 26.0648 16.916C25.7987 16.916 25.5629 16.9614 25.3574 17.0523C25.1518 17.141 24.9788 17.2654 24.8381 17.4255C24.6975 17.5856 24.5904 17.7749 24.5169 17.9934C24.4433 18.2097 24.4065 18.4466 24.4065 18.7041ZM25.3412 18.7722V18.7041C25.3412 18.5613 25.3541 18.4271 25.3801 18.3017C25.4061 18.174 25.4472 18.0615 25.5034 17.9642C25.5618 17.8646 25.6365 17.7868 25.7273 17.7305C25.8204 17.6743 25.9329 17.6461 26.0648 17.6461C26.1968 17.6461 26.3093 17.6743 26.4023 17.7305C26.4954 17.7868 26.57 17.8646 26.6262 17.9642C26.6847 18.0615 26.7268 18.174 26.7528 18.3017C26.7809 18.4271 26.795 18.5613 26.795 18.7041V18.7722C26.795 18.9193 26.7809 19.0567 26.7528 19.1844C26.7268 19.312 26.6857 19.4245 26.6295 19.5218C26.5732 19.617 26.4986 19.6917 26.4056 19.7458C26.3125 19.7999 26.2011 19.8269 26.0713 19.8269C25.9372 19.8269 25.8236 19.7999 25.7306 19.7458C25.6375 19.6917 25.5618 19.617 25.5034 19.5218C25.4472 19.4245 25.4061 19.312 25.3801 19.1844C25.3541 19.0567 25.3412 18.9193 25.3412 18.7722Z" fill="#CDD1D7"/>
<path d="M29.676 16.2677L30.176 15.4017L30.176 15.4017L29.676 16.2677ZM29.6759 19.7318L29.1759 18.8658L29.1759 18.8658L29.6759 19.7318ZM11.999 6.06195L11.499 6.92797L11.999 6.06195ZM11.999 29.9376L12.499 30.8036L12.499 30.8036L11.999 29.9376ZM13.2723 20.3331L13.645 21.2611L13.6489 21.2595L13.2723 20.3331ZM13.957 19.8756L13.2383 19.1803L13.2382 19.1804L13.957 19.8756ZM14.4016 19.1616L13.4677 18.8041L13.4653 18.8105L14.4016 19.1616ZM14.4016 17.1009L13.4652 17.4521L13.4686 17.4609L14.4016 17.1009ZM13.957 16.387L13.2383 17.0823L13.2383 17.0823L13.957 16.387ZM13.2723 15.9294L12.8904 16.8537L12.8996 16.8574L13.2723 15.9294ZM10.9455 15.7672V14.7672H9.94548V15.7672H10.9455ZM10.9455 20.4922H9.94548V21.4922H10.9455V20.4922ZM11.919 19.7328H10.919V20.7328H11.919V19.7328ZM13.0419 19.5608L13.5894 20.3976L13.5966 20.3928L13.0419 19.5608ZM13.4378 19.0513L12.5118 18.6737L12.5087 18.6815L13.4378 19.0513ZM13.4962 17.3735L12.5309 17.6347L12.5338 17.6453L13.4962 17.3735ZM12.9056 16.6271L12.4969 17.5399L12.5084 17.5449L12.9056 16.6271ZM11.919 16.5298V15.5298H10.919V16.5298H11.919ZM16.0924 20.4273L15.713 21.3525L15.721 21.3557L16.0924 20.4273ZM17.4326 20.4662L17.7558 21.4126L17.766 21.409L17.4326 20.4662ZM17.8869 20.2261L17.2805 19.4309L17.2739 19.436L17.8869 20.2261ZM18.1887 19.921L19.0103 20.4911L19.4671 19.8328L18.9243 19.2435L18.1887 19.921ZM17.7344 19.4277L18.47 18.7503L17.6763 17.8885L16.9499 18.8077L17.7344 19.4277ZM17.3547 19.7295L17.7634 20.6422L17.7695 20.6395L17.3547 19.7295ZM16.5175 19.7555L16.1079 20.6678L16.1147 20.6708L16.5175 19.7555ZM16.2449 19.5543L15.4829 20.202L15.4876 20.2074L15.4923 20.2128L16.2449 19.5543ZM16.0729 19.246L15.1225 19.5571L15.125 19.5648L15.1277 19.5725L16.0729 19.246ZM16.0244 19.0253V18.0253H14.8948L15.0318 19.1466L16.0244 19.0253ZM18.2666 19.0253V20.0253H19.2666V19.0253H18.2666ZM18.166 17.935L17.2126 18.2365L17.2135 18.2394L18.166 17.935ZM17.8675 17.3898L17.1082 18.0406L17.1136 18.0467L17.8675 17.3898ZM17.3839 17.0393L17.7766 16.1196L17.7766 16.1196L17.3839 17.0393ZM16.0339 17.049L16.4255 17.9692L16.4337 17.9656L16.0339 17.049ZM15.5147 17.4222L14.764 16.7616L14.759 16.7673L15.5147 17.4222ZM15.1902 17.9966L16.1361 18.3212L16.1361 18.3212L15.1902 17.9966ZM15.1967 19.5186L14.2636 19.8782L14.2649 19.8815L15.1967 19.5186ZM15.5407 20.0606L14.8187 20.7525L14.8237 20.7576L15.5407 20.0606ZM16.0534 18.2984L15.0753 18.09L15.0728 18.1023L16.0534 18.2984ZM16.0358 18.4023L15.0456 18.2629L14.8852 19.4023H16.0358V18.4023ZM16.1767 17.9544L15.3109 17.4541L15.3067 17.4614L15.3026 17.4688L16.1767 17.9544ZM16.3942 17.7273L15.8735 16.8735L15.8735 16.8735L16.3942 17.7273ZM17.0692 17.737L17.6148 16.899L17.6148 16.899L17.0692 17.737ZM17.2768 17.9836L16.3607 18.3844L16.3658 18.3961L16.3712 18.4076L17.2768 17.9836ZM17.3482 18.4023V19.4023H18.3482V18.4023H17.3482ZM19.7335 18.0017L18.8522 17.5291L18.7335 17.7505V18.0017H19.7335ZM19.7335 20.4922V21.4922H20.7335V20.4922H19.7335ZM19.7756 17.9317L20.6045 18.4912L20.6108 18.4817L19.7756 17.9317ZM19.9963 17.724L19.516 16.8469L19.5071 16.8519L19.9963 17.724ZM20.5967 17.7013L20.1905 18.6152L20.1998 18.6192L20.5967 17.7013ZM20.7817 17.883L21.6761 17.4358L21.6761 17.4358L20.7817 17.883ZM20.8466 20.4922H19.8466V21.4922H20.8466V20.4922ZM21.7812 20.4922V21.4922H22.7812V20.4922H21.7812ZM21.7792 18.0466L20.8611 17.6503L20.7709 17.8591L20.78 18.0864L21.7792 18.0466ZM21.8623 17.8993L21.0516 17.3138L21.0516 17.3138L21.8623 17.8993ZM22.0732 17.7175L22.5296 18.6073L22.5385 18.6028L22.5473 18.598L22.0732 17.7175ZM22.6476 17.7013L22.2415 18.6151L22.2566 18.6218L22.2719 18.628L22.6476 17.7013ZM22.8294 17.8798L21.9261 18.3088L21.9326 18.3226L21.9396 18.3361L22.8294 17.8798ZM22.8943 20.4922H21.8943V21.4922H22.8943V20.4922ZM23.8321 20.4922V21.4922H24.8321V20.4922H23.8321ZM23.751 17.6299L22.7952 17.924L22.7987 17.9351L23.751 17.6299ZM23.5238 17.221L22.7873 17.8974L22.7945 17.9052L22.8019 17.9129L23.5238 17.221ZM23.1701 16.9906L22.8319 17.9318L22.845 17.9363L23.1701 16.9906ZM22.1252 17.0425L22.5632 17.9416L22.5724 17.937L22.1252 17.0425ZM21.7 17.3898L20.907 16.7806L20.9014 16.7879L21.7 17.3898ZM21.6522 17.4571L20.7439 17.8753L21.4905 19.497L22.4834 18.0131L21.6522 17.4571ZM21.4826 17.2048L20.7521 17.8877L20.7598 17.8959L20.7676 17.9039L21.4826 17.2048ZM21.1484 16.9874L20.8041 17.9262L20.811 17.9288L20.818 17.9312L21.1484 16.9874ZM20.1261 17.0425L19.6835 16.1458L19.6835 16.1458L20.1261 17.0425ZM19.7074 17.3829L18.7106 17.463L18.9151 20.0085L20.4935 18.001L19.7074 17.3829ZM19.675 16.9809L20.6718 16.9008L20.5979 15.9809H19.675V16.9809ZM18.7956 16.9809V15.9809H17.7956V16.9809H18.7956ZM18.7956 20.4922H17.7956V21.4922H18.7956V20.4922ZM24.5169 19.4829L23.5691 19.802L23.5701 19.8048L24.5169 19.4829ZM24.8381 20.0508L24.0825 20.7057L24.0871 20.7111L24.0919 20.7164L24.8381 20.0508ZM25.3606 20.424L24.9644 21.3422L24.9679 21.3437L25.3606 20.424ZM27.298 20.0508L26.5473 19.3902L26.5467 19.3909L27.298 20.0508ZM27.6225 19.4829L28.5693 19.8048L28.5703 19.8019L27.6225 19.4829ZM27.6225 17.9934L26.6748 18.3124L26.6757 18.3153L27.6225 17.9934ZM27.298 17.4255L26.5467 18.0854L26.5517 18.0911L27.298 17.4255ZM26.7755 17.0523L26.3747 17.9685L26.3828 17.9719L26.7755 17.0523ZM25.3574 17.0523L25.7536 17.9704L25.7617 17.9669L25.3574 17.0523ZM24.5169 17.9934L25.4637 18.3153L25.4646 18.3124L24.5169 17.9934ZM25.3801 18.3017L26.3594 18.5043L26.36 18.501L25.3801 18.3017ZM25.5034 17.9642L24.641 17.4579L24.6375 17.4639L25.5034 17.9642ZM25.7273 17.7305L25.2099 16.8747L25.201 16.8802L25.7273 17.7305ZM26.4023 17.7305L26.9198 16.8748L26.9197 16.8748L26.4023 17.7305ZM26.6262 17.9642L25.7557 18.4562L25.7621 18.4675L25.7688 18.4786L26.6262 17.9642ZM26.7528 18.3017L25.7729 18.501L25.7749 18.5107L25.777 18.5204L26.7528 18.3017ZM26.7528 19.1844L25.7762 18.9692L25.7745 18.9771L25.7729 18.985L26.7528 19.1844ZM26.6295 19.5218L27.4905 20.0306L27.4954 20.0221L26.6295 19.5218ZM25.5034 19.5218L24.6375 20.0221L24.6442 20.0336L24.6511 20.0449L25.5034 19.5218ZM25.3801 19.1844L24.4002 19.3837L24.4002 19.3837L25.3801 19.1844ZM29.176 17.1338C29.8426 17.5187 29.8426 18.4809 29.1759 18.8658L30.1759 20.5979C32.1759 19.4432 32.176 16.5564 30.176 15.4017L29.176 17.1338ZM11.499 6.92797L29.176 17.1338L30.176 15.4017L12.499 5.19592L11.499 6.92797ZM9.99902 7.794C9.99902 7.0242 10.8324 6.54307 11.499 6.92797L12.499 5.19592C10.499 4.04122 7.99902 5.48459 7.99902 7.794H9.99902ZM9.99902 28.2056V7.794H7.99902V28.2056H9.99902ZM11.499 29.0716C10.8324 29.4565 9.99902 28.9754 9.99902 28.2056H7.99902C7.99902 30.515 10.499 31.9583 12.499 30.8036L11.499 29.0716ZM29.1759 18.8658L11.499 29.0716L12.499 30.8036L30.1759 20.5979L29.1759 18.8658ZM12.3961 19.4922H11.919V21.4922H12.3961V19.4922ZM12.8996 19.4052C12.7681 19.458 12.6046 19.4922 12.3961 19.4922V21.4922C12.828 21.4922 13.2486 21.4203 13.645 21.2611L12.8996 19.4052ZM13.2382 19.1804C13.1492 19.2724 13.0393 19.3484 12.8957 19.4068L13.6489 21.2595C14.0375 21.1016 14.384 20.8725 14.6759 20.5707L13.2382 19.1804ZM13.4653 18.8105C13.4063 18.9679 13.3291 19.0864 13.2383 19.1803L14.6757 20.5709C14.97 20.2667 15.1893 19.9093 15.3379 19.5128L13.4653 18.8105ZM13.5606 18.2432C13.5606 18.4722 13.5247 18.6553 13.4677 18.8041L15.3355 19.5191C15.4906 19.1142 15.5606 18.6849 15.5606 18.2432H13.5606ZM13.5606 18.0193V18.2432H15.5606V18.0193H13.5606ZM13.4686 17.4609C13.5244 17.6053 13.5606 17.7871 13.5606 18.0193H15.5606C15.5606 17.5765 15.4909 17.1461 15.3346 16.741L13.4686 17.4609ZM13.2383 17.0823C13.3291 17.1762 13.4063 17.2947 13.4653 17.4521L15.3379 16.7498C15.1893 16.3533 14.97 15.9959 14.6757 15.6917L13.2383 17.0823ZM12.8996 16.8574C13.0367 16.9125 13.1461 16.987 13.2383 17.0823L14.6757 15.6917C14.3828 15.3889 14.0357 15.1584 13.645 15.0015L12.8996 16.8574ZM12.4058 16.7672C12.6057 16.7672 12.7629 16.801 12.8904 16.8536L13.6542 15.0052C13.2581 14.8415 12.8376 14.7672 12.4058 14.7672V16.7672ZM11.919 16.7672H12.4058V14.7672H11.919V16.7672ZM11.3479 16.7672H11.919V14.7672H11.3479V16.7672ZM10.9455 16.7672H11.3479V14.7672H10.9455V16.7672ZM11.9455 20.4922V15.7672H9.94548V20.4922H11.9455ZM11.3674 19.4922H10.9455V21.4922H11.3674V19.4922ZM11.919 19.4922H11.3674V21.4922H11.919V19.4922ZM12.3961 18.7328H11.919V20.7328H12.3961V18.7328ZM12.4943 18.724C12.5015 18.7194 12.5028 18.7205 12.4916 18.7235C12.4791 18.7268 12.4492 18.7328 12.3961 18.7328V20.7328C12.8029 20.7328 13.2189 20.64 13.5894 20.3976L12.4943 18.724ZM12.5087 18.6815C12.4952 18.7154 12.4847 18.7296 12.4827 18.7322C12.4815 18.7337 12.4816 18.7334 12.483 18.7321C12.4844 18.7308 12.4859 18.7296 12.4872 18.7287L13.5966 20.3928C13.9633 20.1483 14.2139 19.8054 14.3669 19.4211L12.5087 18.6815ZM12.5741 18.2432C12.5741 18.4681 12.5411 18.6018 12.5118 18.6737L14.3638 19.4289C14.5162 19.0551 14.5741 18.6502 14.5741 18.2432H12.5741ZM12.5741 18.0128V18.2432H14.5741V18.0128H12.5741ZM12.5338 17.6453C12.5552 17.7208 12.5741 17.8391 12.5741 18.0128H14.5741C14.5741 17.702 14.5411 17.3941 14.4586 17.1018L12.5338 17.6453ZM12.4888 17.5309C12.4894 17.5317 12.51 17.5576 12.5309 17.6347L14.4615 17.1123C14.3828 16.8217 14.2542 16.5382 14.0558 16.2881L12.4888 17.5309ZM12.5084 17.5449C12.5068 17.5442 12.5018 17.5417 12.4959 17.5371C12.49 17.5326 12.4877 17.5295 12.4888 17.5309L14.0558 16.2881C13.8554 16.0354 13.6011 15.8385 13.3028 15.7094L12.5084 17.5449ZM12.4058 17.5298C12.4789 17.5298 12.5021 17.5421 12.4969 17.5398L13.3142 15.7145C13.0192 15.5823 12.7092 15.5298 12.4058 15.5298V17.5298ZM11.919 17.5298H12.4058V15.5298H11.919V17.5298ZM12.919 19.7328V16.5298H10.919V19.7328H12.919ZM16.8258 19.5571C16.6591 19.5571 16.5437 19.5308 16.4637 19.4988L15.721 21.3557C16.0737 21.4968 16.4472 21.5571 16.8258 21.5571V19.5571ZM17.1095 19.5199C17.0555 19.5383 16.9655 19.5571 16.8258 19.5571V21.5571C17.1403 21.5571 17.455 21.5153 17.7558 21.4126L17.1095 19.5199ZM17.2739 19.436C17.2468 19.457 17.194 19.4899 17.0992 19.5234L17.766 21.409C18.0261 21.317 18.2761 21.1898 18.4999 21.0161L17.2739 19.436ZM17.3672 19.3509C17.3656 19.3532 17.3445 19.3821 17.2805 19.4309L18.4934 21.0212C18.6847 20.8753 18.8648 20.7009 19.0103 20.4911L17.3672 19.3509ZM16.9989 20.1052L17.4532 20.5985L18.9243 19.2435L18.47 18.7503L16.9989 20.1052ZM17.7695 20.6395C18.0695 20.5027 18.3203 20.2992 18.519 20.0478L16.9499 18.8077C16.9457 18.8129 16.9426 18.8163 16.9407 18.8182C16.9388 18.8201 16.9378 18.8209 16.9377 18.821C16.9377 18.821 16.9381 18.8207 16.9388 18.8203C16.9395 18.8198 16.94 18.8196 16.9399 18.8196L17.7695 20.6395ZM16.8842 20.8269C17.1848 20.8269 17.482 20.7682 17.7634 20.6422L16.9461 18.8169C16.9376 18.8206 16.921 18.8269 16.8842 18.8269V20.8269ZM16.1147 20.6708C16.3678 20.7822 16.6303 20.8269 16.8842 20.8269V18.8269C16.8742 18.8269 16.8739 18.826 16.8814 18.8275C16.8892 18.829 16.9029 18.8326 16.9202 18.8402L16.1147 20.6708ZM15.4923 20.2128C15.6638 20.4088 15.872 20.5619 16.1079 20.6678L16.9271 18.8432C16.9373 18.8478 16.9501 18.8549 16.9637 18.8649C16.9773 18.875 16.9887 18.8858 16.9975 18.8958L15.4923 20.2128ZM15.1277 19.5725C15.205 19.7963 15.3206 20.0109 15.4829 20.202L17.0068 18.9067C17.0138 18.9149 17.018 18.9216 17.02 18.9251C17.0219 18.9285 17.0208 18.9272 17.0181 18.9195L15.1277 19.5725ZM15.0318 19.1466C15.0487 19.2845 15.0783 19.4219 15.1225 19.5571L17.0233 18.935C17.0218 18.9304 17.0191 18.9207 17.0171 18.9041L15.0318 19.1466ZM18.2666 18.0253H16.0244V20.0253H18.2666V18.0253ZM17.2666 18.6359V19.0253H19.2666V18.6359H17.2666ZM17.2135 18.2394C17.2443 18.3358 17.2666 18.4648 17.2666 18.6359H19.2666C19.2666 18.2921 19.2219 17.9538 19.1186 17.6305L17.2135 18.2394ZM17.1136 18.0467C17.1461 18.0841 17.1825 18.1414 17.2126 18.2365L19.1195 17.6334C19.0154 17.3045 18.8528 16.9983 18.6214 16.7328L17.1136 18.0467ZM16.9913 17.959C17.0498 17.9839 17.0833 18.0115 17.1082 18.0406L18.6267 16.739C18.392 16.4651 18.1032 16.259 17.7766 16.1196L16.9913 17.959ZM16.7219 17.916C16.8607 17.916 16.9439 17.9387 16.9913 17.959L17.7766 16.1196C17.4389 15.9754 17.0807 15.916 16.7219 15.916V17.916ZM16.4337 17.9656C16.4934 17.9396 16.5836 17.916 16.7219 17.916V15.916C16.3496 15.916 15.9812 15.981 15.6341 16.1324L16.4337 17.9656ZM16.2654 18.0828C16.3071 18.0354 16.3565 17.9985 16.4255 17.9692L15.6424 16.1289C15.3046 16.2726 15.0079 16.4845 14.764 16.7616L16.2654 18.0828ZM16.1361 18.3212C16.1738 18.2112 16.2208 18.1344 16.2704 18.0771L14.759 16.7673C14.5274 17.0345 14.358 17.3406 14.2443 17.6721L16.1361 18.3212ZM16.0766 18.7268C16.0766 18.5558 16.1008 18.4238 16.1361 18.3212L14.2443 17.672C14.1281 18.0107 14.0766 18.3655 14.0766 18.7268H16.0766ZM16.0766 18.8566V18.7268H14.0766V18.8566H16.0766ZM16.1298 19.159C16.0961 19.0717 16.0766 18.9735 16.0766 18.8566H14.0766C14.0766 19.207 14.1371 19.5502 14.2636 19.8782L16.1298 19.159ZM16.2627 19.3686C16.2063 19.3098 16.162 19.2416 16.1285 19.1557L14.2649 19.8815C14.3915 20.2066 14.5765 20.4997 14.8187 20.7525L16.2627 19.3686ZM16.4717 19.502C16.3726 19.4614 16.3063 19.4135 16.2577 19.3635L14.8237 20.7576C15.0779 21.0192 15.3795 21.2158 15.713 21.3525L16.4717 19.502ZM15.0728 18.1023C15.0622 18.1556 15.0531 18.2092 15.0456 18.2629L17.026 18.5416C17.0285 18.5243 17.0312 18.5087 17.034 18.4945L15.0728 18.1023ZM15.3026 17.4688C15.1914 17.6689 15.12 17.8807 15.0754 18.09L17.0314 18.5068C17.0431 18.4521 17.0539 18.4346 17.0509 18.4401L15.3026 17.4688ZM15.8735 16.8735C15.6304 17.0217 15.4437 17.2242 15.3109 17.4541L17.0426 18.4547C17.0336 18.4703 17.0186 18.4921 16.9957 18.5161C16.9725 18.5403 16.9451 18.5626 16.9148 18.5811L15.8735 16.8735ZM16.7122 16.6461C16.4399 16.6461 16.1462 16.7072 15.8735 16.8735L16.9148 18.5811C16.8195 18.6392 16.7379 18.6461 16.7122 18.6461V16.6461ZM17.6148 16.899C17.3166 16.7048 16.9926 16.6461 16.7122 16.6461V18.6461C16.7217 18.6461 16.6356 18.648 16.5235 18.575L17.6148 16.899ZM18.193 17.5828C18.0711 17.3042 17.875 17.0684 17.6148 16.899L16.5235 18.575C16.4905 18.5535 16.4566 18.5246 16.4259 18.4882C16.3954 18.452 16.3743 18.4157 16.3607 18.3844L18.193 17.5828ZM18.3482 18.3309C18.3482 18.0773 18.3012 17.8133 18.1825 17.5597L16.3712 18.4076C16.3476 18.3573 16.3482 18.3248 16.3482 18.3309H18.3482ZM18.3482 18.4023V18.3309H16.3482V18.4023H18.3482ZM16.0358 19.4023H17.3482V17.4023H16.0358V19.4023ZM18.7335 18.0017V20.4922H20.7335V18.0017H18.7335ZM18.9468 17.3722C18.9123 17.4233 18.8808 17.4757 18.8522 17.5291L20.6147 18.4743C20.6122 18.479 20.6088 18.4847 20.6045 18.4912L18.9468 17.3722ZM19.5071 16.8519C19.2727 16.9833 19.0828 17.1656 18.9405 17.3817L20.6108 18.4817C20.5853 18.5204 20.5425 18.5642 20.4856 18.5962L19.5071 16.8519ZM20.3143 16.6494C20.0539 16.6494 19.7773 16.7038 19.516 16.8469L20.4766 18.6011C20.3971 18.6447 20.3325 18.6494 20.3143 18.6494V16.6494ZM21.0028 16.7875C20.7653 16.6819 20.5251 16.6494 20.3143 16.6494V18.6494C20.3243 18.6494 20.2723 18.6514 20.1905 18.6151L21.0028 16.7875ZM21.6761 17.4358C21.5398 17.1633 21.3137 16.9219 20.9936 16.7834L20.1998 18.6192C20.1278 18.588 20.06 18.5428 20.0021 18.486C19.9454 18.4303 19.9092 18.3741 19.8872 18.3302L21.6761 17.4358ZM21.8466 18.253C21.8466 18.0271 21.82 17.7237 21.6761 17.4358L19.8872 18.3302C19.855 18.2658 19.8467 18.2205 19.8454 18.2132C19.8439 18.2046 19.8466 18.2157 19.8466 18.253H21.8466ZM21.8466 20.4922V18.253H19.8466V20.4922H21.8466ZM21.7812 19.4922H20.8466V21.4922H21.7812V19.4922ZM20.7812 18.1491V20.4922H22.7812V18.1491H20.7812ZM20.78 18.0864C20.7808 18.1059 20.7812 18.1268 20.7812 18.1491H22.7812C22.7812 18.1015 22.7803 18.054 22.7784 18.0067L20.78 18.0864ZM21.0516 17.3138C20.9745 17.4206 20.9114 17.5336 20.8611 17.6503L22.6973 18.4429C22.693 18.4528 22.6854 18.4676 22.673 18.4847L21.0516 17.3138ZM21.6169 16.8277C21.3901 16.944 21.199 17.1096 21.0516 17.3138L22.673 18.4847C22.6381 18.5331 22.5876 18.5776 22.5296 18.6073L21.6169 16.8277ZM22.3686 16.6494C22.1194 16.6494 21.8527 16.7005 21.5991 16.837L22.5473 18.598C22.4626 18.6436 22.3927 18.6494 22.3686 18.6494V16.6494ZM23.0538 16.7875C22.8185 16.6829 22.5803 16.6494 22.3686 16.6494V18.6494C22.3731 18.6494 22.321 18.6504 22.2415 18.6151L23.0538 16.7875ZM23.7326 17.4507C23.5968 17.1648 23.3613 16.9116 23.0233 16.7746L22.2719 18.628C22.1929 18.596 22.1171 18.5472 22.0524 18.4837C21.989 18.4214 21.9495 18.358 21.9261 18.3088L23.7326 17.4507ZM23.8943 18.2497C23.8943 18.0269 23.8693 17.7161 23.7192 17.4235L21.9396 18.3361C21.9209 18.2997 21.9098 18.2693 21.9033 18.2486C21.8968 18.2279 21.894 18.2138 21.8931 18.2083C21.8915 18.1991 21.8943 18.2105 21.8943 18.2497H23.8943ZM23.8943 20.4922V18.2497H21.8943V20.4922H23.8943ZM23.8321 19.4922H22.8943V21.4922H23.8321V19.4922ZM22.8321 18.2497V20.4922H24.8321V18.2497H22.8321ZM22.7987 17.9351C22.8117 17.9757 22.8321 18.0725 22.8321 18.2497H24.8321C24.8321 17.938 24.7984 17.6216 24.7033 17.3247L22.7987 17.9351ZM22.8019 17.9129C22.7875 17.8979 22.7815 17.8874 22.7811 17.8868C22.7811 17.8867 22.7871 17.8975 22.7952 17.924L24.7068 17.3358C24.6193 17.0514 24.475 16.7682 24.2458 16.5291L22.8019 17.9129ZM22.845 17.9363C22.8397 17.9345 22.8292 17.9301 22.8166 17.9218C22.8039 17.9135 22.7939 17.9046 22.7873 17.8974L24.2604 16.5446C24.0484 16.3138 23.7883 16.1456 23.4952 16.0449L22.845 17.9363ZM22.7093 17.916C22.7795 17.916 22.8166 17.9262 22.8319 17.9317L23.5083 16.0495C23.2467 15.9555 22.9766 15.916 22.7093 15.916V17.916ZM22.5724 17.937C22.5805 17.9329 22.6176 17.916 22.7093 17.916V15.916C22.3597 15.916 22.0073 15.9834 21.678 16.1481L22.5724 17.937ZM22.4931 17.9989C22.5137 17.9721 22.534 17.9557 22.5631 17.9415L21.6872 16.1435C21.3788 16.2938 21.1157 16.5089 20.907 16.7806L22.4931 17.9989ZM22.4834 18.0131C22.4885 18.0055 22.4936 17.9984 22.4987 17.9916L20.9014 16.7879C20.8735 16.825 20.8467 16.8627 20.8211 16.901L22.4834 18.0131ZM20.7676 17.9039C20.745 17.8808 20.7397 17.8663 20.7439 17.8753L22.5606 17.0389C22.4733 16.8493 22.355 16.6666 22.1976 16.5057L20.7676 17.9039ZM20.818 17.9312C20.8099 17.9284 20.7977 17.923 20.784 17.914C20.7702 17.9051 20.7594 17.8955 20.7521 17.8877L22.2131 16.5219C22.0087 16.3032 21.7595 16.1418 21.4787 16.0435L20.818 17.9312ZM20.72 17.916C20.7731 17.916 20.7976 17.9239 20.8041 17.9262L21.4926 16.0485C21.2395 15.9557 20.9785 15.916 20.72 15.916V17.916ZM20.5688 17.9392C20.5793 17.934 20.621 17.916 20.72 17.916V15.916C20.369 15.916 20.0148 15.9823 19.6835 16.1458L20.5688 17.9392ZM20.4935 18.001C20.5165 17.9717 20.5391 17.9539 20.5688 17.9392L19.6835 16.1458C19.3838 16.2938 19.1272 16.5029 18.9212 16.7648L20.4935 18.001ZM18.6783 17.061L18.7106 17.463L20.7041 17.3028L20.6718 16.9008L18.6783 17.061ZM18.7956 17.9809H19.675V15.9809H18.7956V17.9809ZM19.7956 20.4922V16.9809H17.7956V20.4922H19.7956ZM19.7335 19.4922H18.7956V21.4922H19.7335V19.4922ZM25.4065 18.7722V18.7041H23.4065V18.7722H25.4065ZM25.4646 19.1639C25.4292 19.0586 25.4065 18.9306 25.4065 18.7722H23.4065C23.4065 19.1244 23.4575 19.4702 23.5691 19.8019L25.4646 19.1639ZM25.5938 19.3959C25.5432 19.3374 25.4983 19.263 25.4636 19.161L23.5701 19.8048C23.6825 20.1355 23.8519 20.4397 24.0825 20.7057L25.5938 19.3959ZM25.7569 19.5059C25.6791 19.4723 25.6261 19.4319 25.5844 19.3852L24.0919 20.7164C24.3358 20.9899 24.6311 21.1983 24.9644 21.3422L25.7569 19.5059ZM26.0713 19.5571C25.9165 19.5571 25.8168 19.5315 25.7534 19.5044L24.9679 21.3437C25.3198 21.494 25.6939 21.5571 26.0713 21.5571V19.5571ZM26.3825 19.5059C26.3234 19.5314 26.2264 19.5571 26.0713 19.5571V21.5571C26.4484 21.5571 26.8231 21.4941 27.175 21.3422L26.3825 19.5059ZM26.5467 19.3909C26.5088 19.434 26.4591 19.4728 26.3825 19.5059L27.175 21.3422C27.5095 21.1978 27.806 20.9878 28.0493 20.7108L26.5467 19.3909ZM26.6757 19.161C26.6421 19.2599 26.5981 19.3324 26.5473 19.3902L28.0487 20.7114C28.2834 20.4447 28.4558 20.1386 28.5693 19.8048L26.6757 19.161ZM26.7329 18.7722C26.7329 18.9306 26.7102 19.0586 26.6748 19.1639L28.5703 19.8019C28.6819 19.4702 28.7329 19.1244 28.7329 18.7722H26.7329ZM26.7329 18.7041V18.7722H28.7329V18.7041H26.7329ZM26.6757 18.3153C26.7099 18.4157 26.7329 18.5424 26.7329 18.7041H28.7329C28.7329 18.3508 28.6823 18.0037 28.5693 17.6715L26.6757 18.3153ZM26.5517 18.0911C26.5981 18.1431 26.641 18.2122 26.6748 18.3124L28.5703 17.6743C28.4569 17.3376 28.2835 17.028 28.0443 16.7598L26.5517 18.0911ZM26.3828 17.9719C26.4615 18.0055 26.5105 18.0442 26.5467 18.0854L28.0493 16.7655C27.8042 16.4865 27.505 16.2764 27.1683 16.1326L26.3828 17.9719ZM26.0648 17.916C26.2167 17.916 26.3134 17.9416 26.3747 17.9684L27.1763 16.1361C26.8222 15.9812 26.4452 15.916 26.0648 15.916V17.916ZM25.7617 17.9669C25.8186 17.9417 25.9127 17.916 26.0648 17.916V15.916C25.6848 15.916 25.3072 15.9811 24.953 16.1377L25.7617 17.9669ZM25.5895 18.0854C25.6274 18.0422 25.6771 18.0034 25.7536 17.9704L24.9611 16.1341C24.6266 16.2785 24.3302 16.4885 24.0868 16.7655L25.5895 18.0854ZM25.4646 18.3124C25.4994 18.209 25.5432 18.1381 25.5895 18.0854L24.0868 16.7655C23.8518 17.033 23.6814 17.3407 23.5691 17.6743L25.4646 18.3124ZM25.4065 18.7041C25.4065 18.5424 25.4295 18.4157 25.4636 18.3153L23.5701 17.6715C23.4571 18.0037 23.4065 18.3508 23.4065 18.7041H25.4065ZM24.3412 18.7041V18.7722H26.3412V18.7041H24.3412ZM24.4008 18.0991C24.3596 18.2983 24.3412 18.5008 24.3412 18.7041H26.3412C26.3412 18.6217 26.3486 18.556 26.3594 18.5043L24.4008 18.0991ZM24.6375 17.4639C24.5195 17.6682 24.4443 17.8853 24.4002 18.1024L26.36 18.501C26.3678 18.4627 26.3748 18.4548 26.3693 18.4644L24.6375 17.4639ZM25.201 16.8802C24.9609 17.0289 24.775 17.2296 24.641 17.458L26.3658 18.4704C26.3583 18.4831 26.3454 18.502 26.3252 18.523C26.3048 18.5443 26.2806 18.5641 26.2537 18.5808L25.201 16.8802ZM26.0648 16.6461C25.7895 16.6461 25.4894 16.7058 25.2099 16.8748L26.2447 18.5862C26.1513 18.6427 26.0762 18.6461 26.0648 18.6461V16.6461ZM26.9197 16.8748C26.6403 16.7058 26.3401 16.6461 26.0648 16.6461V18.6461C26.0535 18.6461 25.9783 18.6427 25.8849 18.5862L26.9197 16.8748ZM27.4968 17.4721C27.3606 17.231 27.1674 17.0245 26.9198 16.8748L25.8849 18.5862C25.8569 18.5693 25.83 18.5479 25.8061 18.523C25.7824 18.4983 25.7661 18.4747 25.7557 18.4562L27.4968 17.4721ZM27.7327 18.1023C27.6874 17.8796 27.6085 17.6576 27.4837 17.4497L25.7688 18.4786C25.7608 18.4655 25.7663 18.4684 25.7729 18.501L27.7327 18.1023ZM27.795 18.7041C27.795 18.4957 27.7745 18.2876 27.7286 18.083L25.777 18.5204C25.7874 18.5667 25.795 18.6269 25.795 18.7041H27.795ZM27.795 18.7722V18.7041H25.795V18.7722H27.795ZM27.7294 19.3995C27.7749 19.193 27.795 18.9828 27.795 18.7722H25.795C25.795 18.8558 25.787 18.9204 25.7762 18.9692L27.7294 19.3995ZM27.4954 20.0221C27.6134 19.8178 27.6886 19.6007 27.7327 19.3837L25.7729 18.985C25.7651 19.0233 25.7581 19.0312 25.7636 19.0216L27.4954 20.0221ZM26.9082 20.6103C27.1533 20.4678 27.3496 20.2688 27.4904 20.0306L25.7686 19.0131C25.7812 18.9918 25.7994 18.967 25.8242 18.9421C25.8492 18.9172 25.8763 18.8968 25.903 18.8813L26.9082 20.6103ZM26.0713 20.8269C26.3413 20.8269 26.6339 20.7698 26.9082 20.6103L25.903 18.8813C25.9912 18.8299 26.061 18.8269 26.0713 18.8269V20.8269ZM25.228 20.6103C25.507 20.7725 25.8037 20.8269 26.0713 20.8269V18.8269C26.0713 18.8269 26.0724 18.8269 26.0743 18.827C26.0763 18.8271 26.0792 18.8273 26.0831 18.8277C26.0908 18.8286 26.1024 18.8303 26.1172 18.8338C26.1475 18.841 26.1883 18.8552 26.2332 18.8813L25.228 20.6103ZM24.6511 20.0449C24.7926 20.2755 24.9864 20.4698 25.228 20.6103L26.2332 18.8813C26.2584 18.8959 26.2833 18.9147 26.306 18.937C26.3285 18.9593 26.3448 18.981 26.3557 18.9988L24.6511 20.0449ZM24.4002 19.3837C24.4443 19.6007 24.5195 19.8178 24.6375 20.0221L26.3693 19.0216C26.3748 19.0312 26.3678 19.0233 26.36 18.985L24.4002 19.3837ZM24.3412 18.7722C24.3412 18.9778 24.3593 19.1826 24.4002 19.3837L26.36 18.985C26.349 18.9308 26.3412 18.8608 26.3412 18.7722H24.3412Z" fill="#CDD1D7" mask="url(#path-2-inside-1_639_346)"/>
</svg>
