<svg width="113" height="54" viewBox="0 0 113 54" fill="none" xmlns="http://www.w3.org/2000/svg">
<path d="M30.4885 23.8014H18.6989V27.1449H27.0609C26.6465 31.8249 22.5663 33.8337 18.713 33.8337C17.4923 33.8388 16.2827 33.6115 15.155 33.1649C14.0272 32.7184 13.0038 32.0616 12.1445 31.2329C11.2852 30.4042 10.6073 29.4202 10.1503 28.3383C9.6933 27.2564 9.46637 26.0984 9.48276 24.9318C9.48276 19.8702 13.5828 15.9732 18.7243 15.9732C22.6906 15.9732 25.0278 18.3897 25.0278 18.3897L27.4761 15.9651C27.4761 15.9651 24.331 12.6198 18.5962 12.6198C11.2936 12.6198 5.64453 18.5103 5.64453 24.8724C5.64453 31.1067 10.9584 37.1862 18.7808 37.1862C25.6615 37.1862 30.6985 32.6808 30.6985 26.019C30.6985 24.6132 30.4848 23.8014 30.4848 23.8014H30.4885Z" fill="white"/>
<path d="M40.1468 21.3795C35.3085 21.3795 31.8413 24.9948 31.8413 29.2095C31.8413 33.4881 35.2031 37.17 40.2033 37.17C44.729 37.17 48.4363 33.8643 48.4363 29.3013C48.4363 24.0813 44.1235 21.3786 40.1468 21.3786V21.3795ZM40.1939 24.4809C42.5725 24.4809 44.8269 26.3196 44.8269 29.2815C44.8269 32.1795 42.582 34.0713 40.1826 34.0713C37.5459 34.0713 35.4743 32.0535 35.4743 29.2581C35.4743 26.5221 37.5271 24.4809 40.2014 24.4809H40.1939Z" fill="white"/>
<path d="M58.2093 21.3795C53.371 21.3795 49.9038 24.9948 49.9038 29.2095C49.9038 33.4881 53.2656 37.17 58.2658 37.17C62.7915 37.17 66.4988 33.8643 66.4988 29.3013C66.4988 24.0813 62.186 21.3786 58.2093 21.3786V21.3795ZM58.2564 24.4809C60.635 24.4809 62.8894 26.3196 62.8894 29.2815C62.8894 32.1795 60.6445 34.0713 58.2451 34.0713C55.6084 34.0713 53.5368 32.0535 53.5368 29.2581C53.5368 26.5221 55.5896 24.4809 58.2639 24.4809H58.2564Z" fill="white"/>
<path d="M75.9249 21.3885C71.484 21.3885 67.9941 25.1055 67.9941 29.2779C67.9941 34.0299 72.0405 37.1817 75.8476 37.1817C78.2018 37.1817 79.4542 36.288 80.3676 35.2629V36.8199C80.3676 39.5442 78.6369 41.1759 76.0247 41.1759C73.501 41.1759 72.2354 39.3822 71.7872 38.3652L68.6119 39.6252C69.7381 41.9022 72.0056 44.2755 76.051 44.2755C80.4769 44.2755 83.8311 41.6178 83.8311 36.0432V21.8628H80.3808V23.2002C79.3167 22.1022 77.859 21.3885 75.9267 21.3885H75.9249ZM76.245 24.4845C78.4222 24.4845 80.6577 26.2611 80.6577 29.295C80.6577 32.3793 78.4259 34.0785 76.197 34.0785C73.8296 34.0785 71.6271 32.2425 71.6271 29.3238C71.6271 26.2926 73.9153 24.4845 76.245 24.4845Z" fill="white"/>
<path d="M99.2516 21.3696C95.063 21.3696 91.5459 24.5556 91.5459 29.2536C91.5459 34.227 95.4661 37.1763 99.6442 37.1763C103.14 37.1763 105.294 35.3493 106.565 33.7113L103.709 31.8951C102.968 32.9931 101.729 34.0686 99.6621 34.0686C97.34 34.0686 96.2721 32.8536 95.6101 31.6746L106.687 27.2826L106.122 25.9956C105.052 23.4756 102.555 21.3696 99.2516 21.3696ZM99.3956 24.4062C100.905 24.4062 101.991 25.173 102.452 26.0928L95.0545 29.0475C94.7344 26.7597 97.0038 24.4062 99.3862 24.4062H99.3956Z" fill="white"/>
<path d="M86.2568 36.7083H89.8954V13.437H86.2568V36.7083Z" fill="white"/>
</svg>
