<svg width="261" height="273" viewBox="0 0 261 273" fill="none" xmlns="http://www.w3.org/2000/svg">
<path d="M136.898 63.8623C154.533 63.8623 168.829 49.5663 168.829 31.9312C168.829 14.2961 154.533 0 136.898 0C119.262 0 104.966 14.2961 104.966 31.9312C104.966 49.5663 119.262 63.8623 136.898 63.8623Z" fill="#7F00FF" fill-opacity="0.54"/>
<path d="M136.898 273C147.477 273 156.054 264.423 156.054 253.843C156.054 243.263 147.477 234.687 136.898 234.687C126.318 234.687 117.741 243.263 117.741 253.843C117.741 264.423 126.318 273 136.898 273Z" fill="#7F00FF" fill-opacity="0.54"/>
<path d="M58.4373 93.1619C74.31 93.1619 87.1774 80.2945 87.1774 64.4218C87.1774 48.549 74.31 35.6816 58.4373 35.6816C42.5645 35.6816 29.6971 48.549 29.6971 64.4218C29.6971 80.2945 42.5645 93.1619 58.4373 93.1619Z" fill="#7F00FF" fill-opacity="0.54"/>
<path d="M215.358 237.297C224.175 237.297 231.323 230.149 231.323 221.332C231.323 212.514 224.175 205.366 215.358 205.366C206.54 205.366 199.392 212.514 199.392 221.332C199.392 230.149 206.54 237.297 215.358 237.297Z" fill="#7F00FF" fill-opacity="0.54"/>
<path d="M25.9363 168.431C40.0409 168.431 51.475 156.997 51.475 142.892C51.475 128.788 40.0409 117.354 25.9363 117.354C11.8317 117.354 0.397583 128.788 0.397583 142.892C0.397583 156.997 11.8317 168.431 25.9363 168.431Z" fill="#7F00FF" fill-opacity="0.54"/>
<path d="M247.849 155.647C254.898 155.647 260.613 149.932 260.613 142.882C260.613 135.833 254.898 130.118 247.849 130.118C240.799 130.118 235.084 135.833 235.084 142.882C235.084 149.932 240.799 155.647 247.849 155.647Z" fill="#7F00FF" fill-opacity="0.54"/>
<path d="M42.6375 205.553C33.9036 214.287 33.9036 228.418 42.6375 237.152C51.361 245.886 65.5135 245.886 74.2371 237.152C82.971 228.418 82.971 214.287 74.2371 205.553C65.5135 196.808 51.3714 196.726 42.6375 205.553Z" fill="#7F00FF" fill-opacity="0.54"/>
<path d="M215.348 73.9949C220.635 73.9949 224.921 69.7089 224.921 64.4218C224.921 59.1347 220.635 54.8486 215.348 54.8486C210.06 54.8486 205.774 59.1347 205.774 64.4218C205.774 69.7089 210.06 73.9949 215.348 73.9949Z" fill="#7F00FF" fill-opacity="0.54"/>
</svg>
