<svg xmlns="http://www.w3.org/2000/svg" version="1.1" xmlns:xlink="http://www.w3.org/1999/xlink" xmlns:svgjs="http://svgjs.dev/svgjs" viewBox="0 0 1422 800"><defs><linearGradient x1="50%" y1="0%" x2="50%" y2="100%" id="oooscillate-grad"><stop stop-color="hsl(206, 75%, 49%)" stop-opacity="1" offset="0%"></stop><stop stop-color="hsl(331, 90%, 56%)" stop-opacity="1" offset="100%"></stop></linearGradient></defs><g stroke-width="1" stroke="url(#oooscillate-grad)" fill="none" stroke-linecap="round"><path d="M 0 2225 Q 355.5 -100 711 400 Q 1066.5 900 1422 2225" stroke-dasharray="18 51" opacity="0.05"></path><path d="M 0 2200 Q 355.5 -100 711 400 Q 1066.5 900 1422 2200" stroke-dasharray="55 4" opacity="0.06"></path><path d="M 0 2175 Q 355.5 -100 711 400 Q 1066.5 900 1422 2175" stroke-dasharray="56 28" opacity="0.07"></path><path d="M 0 2150 Q 355.5 -100 711 400 Q 1066.5 900 1422 2150" stroke-dasharray="28 57" opacity="0.08"></path><path d="M 0 2125 Q 355.5 -100 711 400 Q 1066.5 900 1422 2125" stroke-dasharray="56 40" opacity="0.09"></path><path d="M 0 2100 Q 355.5 -100 711 400 Q 1066.5 900 1422 2100" stroke-dasharray="6 17" opacity="0.10"></path><path d="M 0 2075 Q 355.5 -100 711 400 Q 1066.5 900 1422 2075" stroke-dasharray="3 58" opacity="0.11"></path><path d="M 0 2050 Q 355.5 -100 711 400 Q 1066.5 900 1422 2050" stroke-dasharray="58 53" opacity="0.13"></path><path d="M 0 2025 Q 355.5 -100 711 400 Q 1066.5 900 1422 2025" stroke-dasharray="27 33" opacity="0.14"></path><path d="M 0 2000 Q 355.5 -100 711 400 Q 1066.5 900 1422 2000" stroke-dasharray="43 10" opacity="0.15"></path><path d="M 0 1975 Q 355.5 -100 711 400 Q 1066.5 900 1422 1975" stroke-dasharray="50 51" opacity="0.16"></path><path d="M 0 1950 Q 355.5 -100 711 400 Q 1066.5 900 1422 1950" stroke-dasharray="56 30" opacity="0.17"></path><path d="M 0 1925 Q 355.5 -100 711 400 Q 1066.5 900 1422 1925" stroke-dasharray="37 36" opacity="0.18"></path><path d="M 0 1900 Q 355.5 -100 711 400 Q 1066.5 900 1422 1900" stroke-dasharray="1 43" opacity="0.19"></path><path d="M 0 1875 Q 355.5 -100 711 400 Q 1066.5 900 1422 1875" stroke-dasharray="9 48" opacity="0.20"></path><path d="M 0 1850 Q 355.5 -100 711 400 Q 1066.5 900 1422 1850" stroke-dasharray="49 41" opacity="0.21"></path><path d="M 0 1825 Q 355.5 -100 711 400 Q 1066.5 900 1422 1825" stroke-dasharray="3 61" opacity="0.22"></path><path d="M 0 1800 Q 355.5 -100 711 400 Q 1066.5 900 1422 1800" stroke-dasharray="60 18" opacity="0.23"></path><path d="M 0 1775 Q 355.5 -100 711 400 Q 1066.5 900 1422 1775" stroke-dasharray="10 54" opacity="0.24"></path><path d="M 0 1750 Q 355.5 -100 711 400 Q 1066.5 900 1422 1750" stroke-dasharray="29 57" opacity="0.26"></path><path d="M 0 1725 Q 355.5 -100 711 400 Q 1066.5 900 1422 1725" stroke-dasharray="49 57" opacity="0.27"></path><path d="M 0 1700 Q 355.5 -100 711 400 Q 1066.5 900 1422 1700" stroke-dasharray="48 14" opacity="0.28"></path><path d="M 0 1675 Q 355.5 -100 711 400 Q 1066.5 900 1422 1675" stroke-dasharray="37 26" opacity="0.29"></path><path d="M 0 1650 Q 355.5 -100 711 400 Q 1066.5 900 1422 1650" stroke-dasharray="26 53" opacity="0.30"></path><path d="M 0 1625 Q 355.5 -100 711 400 Q 1066.5 900 1422 1625" stroke-dasharray="34 26" opacity="0.31"></path><path d="M 0 1600 Q 355.5 -100 711 400 Q 1066.5 900 1422 1600" stroke-dasharray="51 22" opacity="0.32"></path><path d="M 0 1575 Q 355.5 -100 711 400 Q 1066.5 900 1422 1575" stroke-dasharray="28 4" opacity="0.33"></path><path d="M 0 1550 Q 355.5 -100 711 400 Q 1066.5 900 1422 1550" stroke-dasharray="9 12" opacity="0.34"></path><path d="M 0 1525 Q 355.5 -100 711 400 Q 1066.5 900 1422 1525" stroke-dasharray="56 21" opacity="0.35"></path><path d="M 0 1500 Q 355.5 -100 711 400 Q 1066.5 900 1422 1500" stroke-dasharray="19 29" opacity="0.36"></path><path d="M 0 1475 Q 355.5 -100 711 400 Q 1066.5 900 1422 1475" stroke-dasharray="2 25" opacity="0.37"></path><path d="M 0 1450 Q 355.5 -100 711 400 Q 1066.5 900 1422 1450" stroke-dasharray="21 59" opacity="0.38"></path><path d="M 0 1425 Q 355.5 -100 711 400 Q 1066.5 900 1422 1425" stroke-dasharray="11 20" opacity="0.40"></path><path d="M 0 1400 Q 355.5 -100 711 400 Q 1066.5 900 1422 1400" stroke-dasharray="15 18" opacity="0.41"></path><path d="M 0 1375 Q 355.5 -100 711 400 Q 1066.5 900 1422 1375" stroke-dasharray="28 13" opacity="0.42"></path><path d="M 0 1350 Q 355.5 -100 711 400 Q 1066.5 900 1422 1350" stroke-dasharray="60 52" opacity="0.43"></path><path d="M 0 1325 Q 355.5 -100 711 400 Q 1066.5 900 1422 1325" stroke-dasharray="44 49" opacity="0.44"></path><path d="M 0 1300 Q 355.5 -100 711 400 Q 1066.5 900 1422 1300" stroke-dasharray="39 23" opacity="0.45"></path><path d="M 0 1275 Q 355.5 -100 711 400 Q 1066.5 900 1422 1275" stroke-dasharray="12 60" opacity="0.46"></path><path d="M 0 1250 Q 355.5 -100 711 400 Q 1066.5 900 1422 1250" stroke-dasharray="54 6" opacity="0.47"></path><path d="M 0 1225 Q 355.5 -100 711 400 Q 1066.5 900 1422 1225" stroke-dasharray="43 10" opacity="0.48"></path><path d="M 0 1200 Q 355.5 -100 711 400 Q 1066.5 900 1422 1200" stroke-dasharray="51 17" opacity="0.49"></path><path d="M 0 1175 Q 355.5 -100 711 400 Q 1066.5 900 1422 1175" stroke-dasharray="57 18" opacity="0.50"></path><path d="M 0 1150 Q 355.5 -100 711 400 Q 1066.5 900 1422 1150" stroke-dasharray="48 15" opacity="0.51"></path><path d="M 0 1125 Q 355.5 -100 711 400 Q 1066.5 900 1422 1125" stroke-dasharray="3 33" opacity="0.53"></path><path d="M 0 1100 Q 355.5 -100 711 400 Q 1066.5 900 1422 1100" stroke-dasharray="35 58" opacity="0.54"></path><path d="M 0 1075 Q 355.5 -100 711 400 Q 1066.5 900 1422 1075" stroke-dasharray="42 0" opacity="0.55"></path><path d="M 0 1050 Q 355.5 -100 711 400 Q 1066.5 900 1422 1050" stroke-dasharray="39 54" opacity="0.56"></path><path d="M 0 1025 Q 355.5 -100 711 400 Q 1066.5 900 1422 1025" stroke-dasharray="23 19" opacity="0.57"></path><path d="M 0 1000 Q 355.5 -100 711 400 Q 1066.5 900 1422 1000" stroke-dasharray="54 20" opacity="0.58"></path><path d="M 0 975 Q 355.5 -100 711 400 Q 1066.5 900 1422 975" stroke-dasharray="33 59" opacity="0.59"></path><path d="M 0 950 Q 355.5 -100 711 400 Q 1066.5 900 1422 950" stroke-dasharray="34 7" opacity="0.60"></path><path d="M 0 925 Q 355.5 -100 711 400 Q 1066.5 900 1422 925" stroke-dasharray="42 32" opacity="0.61"></path><path d="M 0 900 Q 355.5 -100 711 400 Q 1066.5 900 1422 900" stroke-dasharray="5 22" opacity="0.62"></path><path d="M 0 875 Q 355.5 -100 711 400 Q 1066.5 900 1422 875" stroke-dasharray="57 10" opacity="0.63"></path><path d="M 0 850 Q 355.5 -100 711 400 Q 1066.5 900 1422 850" stroke-dasharray="36 56" opacity="0.64"></path><path d="M 0 825 Q 355.5 -100 711 400 Q 1066.5 900 1422 825" stroke-dasharray="24 37" opacity="0.65"></path><path d="M 0 800 Q 355.5 -100 711 400 Q 1066.5 900 1422 800" stroke-dasharray="3 6" opacity="0.67"></path><path d="M 0 775 Q 355.5 -100 711 400 Q 1066.5 900 1422 775" stroke-dasharray="8 45" opacity="0.68"></path><path d="M 0 750 Q 355.5 -100 711 400 Q 1066.5 900 1422 750" stroke-dasharray="47 19" opacity="0.69"></path><path d="M 0 725 Q 355.5 -100 711 400 Q 1066.5 900 1422 725" stroke-dasharray="53 18" opacity="0.70"></path><path d="M 0 700 Q 355.5 -100 711 400 Q 1066.5 900 1422 700" stroke-dasharray="52 27" opacity="0.71"></path><path d="M 0 675 Q 355.5 -100 711 400 Q 1066.5 900 1422 675" stroke-dasharray="46 34" opacity="0.72"></path><path d="M 0 650 Q 355.5 -100 711 400 Q 1066.5 900 1422 650" stroke-dasharray="11 25" opacity="0.73"></path><path d="M 0 625 Q 355.5 -100 711 400 Q 1066.5 900 1422 625" stroke-dasharray="9 40" opacity="0.74"></path><path d="M 0 600 Q 355.5 -100 711 400 Q 1066.5 900 1422 600" stroke-dasharray="44 16" opacity="0.75"></path><path d="M 0 575 Q 355.5 -100 711 400 Q 1066.5 900 1422 575" stroke-dasharray="35 30" opacity="0.76"></path><path d="M 0 550 Q 355.5 -100 711 400 Q 1066.5 900 1422 550" stroke-dasharray="13 24" opacity="0.77"></path><path d="M 0 525 Q 355.5 -100 711 400 Q 1066.5 900 1422 525" stroke-dasharray="15 24" opacity="0.78"></path><path d="M 0 500 Q 355.5 -100 711 400 Q 1066.5 900 1422 500" stroke-dasharray="49 46" opacity="0.79"></path><path d="M 0 475 Q 355.5 -100 711 400 Q 1066.5 900 1422 475" stroke-dasharray="55 13" opacity="0.81"></path><path d="M 0 450 Q 355.5 -100 711 400 Q 1066.5 900 1422 450" stroke-dasharray="34 20" opacity="0.82"></path><path d="M 0 425 Q 355.5 -100 711 400 Q 1066.5 900 1422 425" stroke-dasharray="37 1" opacity="0.83"></path><path d="M 0 400 Q 355.5 -100 711 400 Q 1066.5 900 1422 400" stroke-dasharray="26 21" opacity="0.84"></path><path d="M 0 375 Q 355.5 -100 711 400 Q 1066.5 900 1422 375" stroke-dasharray="55 52" opacity="0.85"></path><path d="M 0 350 Q 355.5 -100 711 400 Q 1066.5 900 1422 350" stroke-dasharray="10 50" opacity="0.86"></path><path d="M 0 325 Q 355.5 -100 711 400 Q 1066.5 900 1422 325" stroke-dasharray="37 24" opacity="0.87"></path><path d="M 0 300 Q 355.5 -100 711 400 Q 1066.5 900 1422 300" stroke-dasharray="14 25" opacity="0.88"></path><path d="M 0 275 Q 355.5 -100 711 400 Q 1066.5 900 1422 275" stroke-dasharray="52 24" opacity="0.89"></path><path d="M 0 250 Q 355.5 -100 711 400 Q 1066.5 900 1422 250" stroke-dasharray="46 9" opacity="0.90"></path><path d="M 0 225 Q 355.5 -100 711 400 Q 1066.5 900 1422 225" stroke-dasharray="33 49" opacity="0.91"></path><path d="M 0 200 Q 355.5 -100 711 400 Q 1066.5 900 1422 200" stroke-dasharray="6 58" opacity="0.92"></path><path d="M 0 175 Q 355.5 -100 711 400 Q 1066.5 900 1422 175" stroke-dasharray="43 50" opacity="0.94"></path><path d="M 0 150 Q 355.5 -100 711 400 Q 1066.5 900 1422 150" stroke-dasharray="39 4" opacity="0.95"></path><path d="M 0 125 Q 355.5 -100 711 400 Q 1066.5 900 1422 125" stroke-dasharray="45 55" opacity="0.96"></path><path d="M 0 100 Q 355.5 -100 711 400 Q 1066.5 900 1422 100" stroke-dasharray="28 37" opacity="0.97"></path><path d="M 0 75 Q 355.5 -100 711 400 Q 1066.5 900 1422 75" stroke-dasharray="49 23" opacity="0.98"></path><path d="M 0 50 Q 355.5 -100 711 400 Q 1066.5 900 1422 50" stroke-dasharray="28 42" opacity="0.99"></path></g></svg>