<svg width="23" height="24" viewBox="0 0 23 24" fill="none" xmlns="http://www.w3.org/2000/svg">
<g clip-path="url(#clip0_241_74)">
<path fill-rule="evenodd" clip-rule="evenodd" d="M4.79171 3C4.02921 3 3.29794 3.31607 2.75878 3.87868C2.21961 4.44129 1.91671 5.20435 1.91671 6V16C1.91671 16.7956 2.21961 17.5587 2.75878 18.1213C3.29794 18.6839 4.02921 19 4.79171 19H15.9726L19.1667 21.5C19.9564 22.118 21.0834 21.53 21.0834 20.5V6C21.0834 5.20435 20.7805 4.44129 20.2413 3.87868C19.7021 3.31607 18.9709 3 18.2084 3H4.79171ZM12.4584 12H15.3334C15.5875 12 15.8313 12.1054 16.011 12.2929C16.1907 12.4804 16.2917 12.7348 16.2917 13C16.2917 13.2652 16.1907 13.5196 16.011 13.7071C15.8313 13.8946 15.5875 14 15.3334 14H12.4584C12.2042 14 11.9605 13.8946 11.7807 13.7071C11.601 13.5196 11.5 13.2652 11.5 13C11.5 12.7348 11.601 12.4804 11.7807 12.2929C11.9605 12.1054 12.2042 12 12.4584 12ZM7.66671 8H15.3334C15.5776 8.00028 15.8126 8.09788 15.9902 8.27285C16.1678 8.44782 16.2747 8.68695 16.289 8.94139C16.3033 9.19584 16.224 9.44638 16.0672 9.64183C15.9104 9.83729 15.688 9.9629 15.4455 9.993L15.3334 10H7.66671C7.42245 9.99972 7.18751 9.90212 7.0099 9.72715C6.83228 9.55218 6.7254 9.31305 6.71109 9.05861C6.69677 8.80416 6.7761 8.55362 6.93288 8.35817C7.08965 8.16271 7.31203 8.0371 7.55458 8.007L7.66671 8Z" fill="white"/>
</g>
<defs>
<clipPath id="clip0_241_74">
<rect width="23" height="24" fill="white" transform="matrix(-1 0 0 1 23 0)"/>
</clipPath>
</defs>
</svg>
