<svg width="140" height="44" viewBox="0 0 140 44" fill="none" xmlns="http://www.w3.org/2000/svg">
<g clip-path="url(#clip0_46_2)">
<path d="M21 43H8.11111C4.18375 43 1 39.5811 1 35.3637V8.63637C1 4.41892 4.18375 1 8.11111 1H21" fill="white"/>
<path d="M21 43H8.11111C4.18375 43 1 39.5811 1 35.3637V8.63637C1 4.41892 4.18375 1 8.11111 1H21" stroke="white" stroke-width="2"/>
</g>
<g clip-path="url(#clip1_46_2)">
<path d="M119 43H124.028H131.24C135.526 43 139 39.5811 139 35.3637V16.8585C139 14.5929 137.978 12.4443 136.209 10.9934L126.187 2.77111C124.792 1.62675 123.034 1 121.217 1H119" fill="white"/>
<path d="M119 43H124.028H131.24C135.526 43 139 39.5811 139 35.3637V16.8585C139 14.5929 137.978 12.4442 136.209 10.9934L126.187 2.77111C124.792 1.62675 123.034 1 121.217 1H119" stroke="white" stroke-width="2"/>
</g>
<path d="M36.5723 21.752V24.875C36.4668 25.0312 36.2988 25.207 36.0684 25.4023C35.8379 25.5938 35.5195 25.7617 35.1133 25.9062C34.7109 26.0469 34.1914 26.1172 33.5547 26.1172C33.0352 26.1172 32.5566 26.0273 32.1191 25.8477C31.6855 25.6641 31.3086 25.3984 30.9883 25.0508C30.6719 24.6992 30.4258 24.2734 30.25 23.7734C30.0781 23.2695 29.9922 22.6992 29.9922 22.0625V21.4004C29.9922 20.7637 30.0664 20.1953 30.2148 19.6953C30.3672 19.1953 30.5898 18.7715 30.8828 18.4238C31.1758 18.0723 31.5352 17.8066 31.9609 17.627C32.3867 17.4434 32.875 17.3516 33.4258 17.3516C34.0781 17.3516 34.623 17.4648 35.0605 17.6914C35.502 17.9141 35.8457 18.2227 36.0918 18.6172C36.3418 19.0117 36.502 19.4609 36.5723 19.9648H35.4414C35.3906 19.6562 35.2891 19.375 35.1367 19.1211C34.9883 18.8672 34.7754 18.6641 34.498 18.5117C34.2207 18.3555 33.8633 18.2773 33.4258 18.2773C33.0312 18.2773 32.6895 18.3496 32.4004 18.4941C32.1113 18.6387 31.873 18.8457 31.6855 19.1152C31.498 19.3848 31.3574 19.7109 31.2637 20.0938C31.1738 20.4766 31.1289 20.9082 31.1289 21.3887V22.0625C31.1289 22.5547 31.1855 22.9941 31.2988 23.3809C31.416 23.7676 31.582 24.0977 31.7969 24.3711C32.0117 24.6406 32.2676 24.8457 32.5645 24.9863C32.8652 25.127 33.1973 25.1973 33.5605 25.1973C33.9629 25.1973 34.2891 25.1641 34.5391 25.0977C34.7891 25.0273 34.9844 24.9453 35.125 24.8516C35.2656 24.7539 35.373 24.6621 35.4473 24.5762V22.666H33.4727V21.752H36.5723ZM44.4672 25.0801V26H39.9496V25.0801H44.4672ZM40.1781 17.4688V26H39.0473V17.4688H40.1781ZM43.8695 21.1367V22.0566H39.9496V21.1367H43.8695ZM44.4086 17.4688V18.3945H39.9496V17.4688H44.4086ZM49.7371 17.4688V26H48.6238V17.4688H49.7371ZM52.4793 17.4688V18.3945H45.8875V17.4688H52.4793ZM62.234 23.8438C62.234 23.6445 62.2027 23.4688 62.1402 23.3164C62.0816 23.1602 61.9762 23.0195 61.8238 22.8945C61.6754 22.7695 61.4684 22.6504 61.2027 22.5371C60.941 22.4238 60.609 22.3086 60.2066 22.1914C59.7848 22.0664 59.4039 21.9277 59.0641 21.7754C58.7242 21.6191 58.4332 21.4414 58.191 21.2422C57.9488 21.043 57.7633 20.8145 57.6344 20.5566C57.5055 20.2988 57.441 20.0039 57.441 19.6719C57.441 19.3398 57.5094 19.0332 57.6461 18.752C57.7828 18.4707 57.9781 18.2266 58.232 18.0195C58.4898 17.8086 58.7965 17.6445 59.152 17.5273C59.5074 17.4102 59.9039 17.3516 60.3414 17.3516C60.982 17.3516 61.525 17.4746 61.9703 17.7207C62.4195 17.9629 62.7613 18.2812 62.9957 18.6758C63.2301 19.0664 63.3473 19.4844 63.3473 19.9297H62.2223C62.2223 19.6094 62.1539 19.3262 62.0172 19.0801C61.8805 18.8301 61.6734 18.6348 61.3961 18.4941C61.1187 18.3496 60.7672 18.2773 60.3414 18.2773C59.9391 18.2773 59.607 18.3379 59.3453 18.459C59.0836 18.5801 58.8883 18.7441 58.7594 18.9512C58.6344 19.1582 58.5719 19.3945 58.5719 19.6602C58.5719 19.8398 58.609 20.0039 58.6832 20.1523C58.7613 20.2969 58.8805 20.4316 59.0406 20.5566C59.2047 20.6816 59.4117 20.7969 59.6617 20.9023C59.9156 21.0078 60.2184 21.1094 60.5699 21.207C61.0543 21.3438 61.4723 21.4961 61.8238 21.6641C62.1754 21.832 62.4645 22.0215 62.691 22.2324C62.9215 22.4395 63.0914 22.6758 63.2008 22.9414C63.3141 23.2031 63.3707 23.5 63.3707 23.832C63.3707 24.1797 63.3004 24.4941 63.1598 24.7754C63.0191 25.0566 62.818 25.2969 62.5562 25.4961C62.2945 25.6953 61.9801 25.8496 61.6129 25.959C61.2496 26.0645 60.8434 26.1172 60.3941 26.1172C59.9996 26.1172 59.6109 26.0625 59.2281 25.9531C58.8492 25.8438 58.5035 25.6797 58.191 25.4609C57.8824 25.2422 57.6344 24.9727 57.4469 24.6523C57.2633 24.3281 57.1715 23.9531 57.1715 23.5273H58.2965C58.2965 23.8203 58.3531 24.0723 58.4664 24.2832C58.5797 24.4902 58.734 24.6621 58.9293 24.7988C59.1285 24.9355 59.3531 25.0371 59.6031 25.1035C59.857 25.166 60.1207 25.1973 60.3941 25.1973C60.7887 25.1973 61.1227 25.1426 61.3961 25.0332C61.6695 24.9238 61.8766 24.7676 62.0172 24.5645C62.1617 24.3613 62.234 24.1211 62.234 23.8438ZM68.5645 17.4688V26H67.4512V17.4688H68.5645ZM71.3066 17.4688V18.3945H64.7148V17.4688H71.3066ZM75.8617 18.2246L73.0375 26H71.8832L75.1352 17.4688H75.8793L75.8617 18.2246ZM78.2289 26L75.3988 18.2246L75.3812 17.4688H76.1254L79.3891 26H78.2289ZM78.0824 22.8418V23.7676H73.2895V22.8418H78.0824ZM81.1316 17.4688H83.9559C84.5965 17.4688 85.1375 17.5664 85.5789 17.7617C86.0242 17.957 86.3621 18.2461 86.5926 18.6289C86.827 19.0078 86.9441 19.4746 86.9441 20.0293C86.9441 20.4199 86.8641 20.7773 86.7039 21.1016C86.5477 21.4219 86.3211 21.6953 86.0242 21.9219C85.7313 22.1445 85.3797 22.3105 84.9695 22.4199L84.6531 22.543H81.9988L81.9871 21.623H83.991C84.3973 21.623 84.7352 21.5527 85.0047 21.4121C85.2742 21.2676 85.4773 21.0742 85.6141 20.832C85.7508 20.5898 85.8191 20.3223 85.8191 20.0293C85.8191 19.7012 85.7547 19.4141 85.6258 19.168C85.4969 18.9219 85.2938 18.7324 85.0164 18.5996C84.743 18.4629 84.3895 18.3945 83.9559 18.3945H82.2625V26H81.1316V17.4688ZM86.118 26L84.0438 22.1328L85.2215 22.127L87.325 25.9297V26H86.118ZM91.8098 17.4688V26H90.6965V17.4688H91.8098ZM94.552 17.4688V18.3945H87.9602V17.4688H94.552ZM101.838 25.0801V26H97.3199V25.0801H101.838ZM97.5484 17.4688V26H96.4176V17.4688H97.5484ZM101.24 21.1367V22.0566H97.3199V21.1367H101.24ZM101.779 17.4688V18.3945H97.3199V17.4688H101.779ZM106.146 26H104.365L104.377 25.0801H106.146C106.756 25.0801 107.264 24.9531 107.67 24.6992C108.076 24.4414 108.381 24.082 108.584 23.6211C108.791 23.1562 108.895 22.6133 108.895 21.9922V21.4707C108.895 20.9824 108.836 20.5488 108.719 20.1699C108.602 19.7871 108.43 19.4648 108.203 19.2031C107.977 18.9375 107.699 18.7363 107.371 18.5996C107.047 18.4629 106.674 18.3945 106.252 18.3945H104.33V17.4688H106.252C106.811 17.4688 107.32 17.5625 107.781 17.75C108.242 17.9336 108.639 18.2012 108.971 18.5527C109.307 18.9004 109.564 19.3223 109.744 19.8184C109.924 20.3105 110.014 20.8652 110.014 21.4824V21.9922C110.014 22.6094 109.924 23.166 109.744 23.6621C109.564 24.1543 109.305 24.5742 108.965 24.9219C108.629 25.2695 108.223 25.5371 107.746 25.7246C107.273 25.9082 106.74 26 106.146 26ZM104.969 17.4688V26H103.838V17.4688H104.969Z" fill="#0E0C15"/>
<g clip-path="url(#clip2_46_2)">
<path d="M119 0V44H21V0H119Z" fill="white"/>
</g>
<defs>
<clipPath id="clip0_46_2">
<rect width="21" height="44" fill="white"/>
</clipPath>
<clipPath id="clip1_46_2">
<rect width="21" height="44" fill="white" transform="translate(119)"/>
</clipPath>
<clipPath id="clip2_46_2">
<rect width="98" height="44" fill="white" transform="translate(21)"/>
</clipPath>
</defs>
</svg>
