<svg width="24" height="24" viewBox="0 0 24 24" fill="none" xmlns="http://www.w3.org/2000/svg">
<path d="M4 14.136C4 14.5603 4.16857 14.9673 4.46863 15.2674C4.76869 15.5674 5.17565 15.736 5.6 15.736C6.02435 15.736 6.43131 15.5674 6.73137 15.2674C7.03143 14.9673 7.2 14.5603 7.2 14.136V12.536H5.6C5.17565 12.536 4.76869 12.7046 4.46863 13.0046C4.16857 13.3047 4 13.7117 4 14.136ZM14.112 11.464C14.5363 11.464 14.9433 11.2954 15.2434 10.9954C15.5434 10.6953 15.712 10.2883 15.712 9.864V5.6C15.712 5.17565 15.5434 4.76869 15.2434 4.46863C14.9433 4.16857 14.5363 4 14.112 4C13.6877 4 13.2807 4.16857 12.9806 4.46863C12.6806 4.76869 12.512 5.17565 12.512 5.6V9.864C12.512 10.0755 12.5539 10.2848 12.6353 10.48C12.7167 10.6752 12.836 10.8523 12.9863 11.0011C13.1365 11.1499 13.3148 11.2674 13.5108 11.3468C13.7068 11.4263 13.9165 11.4661 14.128 11.464H14.112ZM19.968 9.864C19.968 9.43965 19.7994 9.03269 19.4994 8.73263C19.1993 8.43257 18.7923 8.264 18.368 8.264C17.9437 8.264 17.5367 8.43257 17.2366 8.73263C16.9366 9.03269 16.768 9.43965 16.768 9.864V11.464H18.368C18.5808 11.4683 18.7923 11.43 18.9901 11.3515C19.188 11.273 19.3681 11.1558 19.5201 11.0068C19.6721 10.8578 19.7928 10.68 19.8752 10.4838C19.9576 10.2875 20 10.0768 20 9.864H19.968ZM9.872 12.536C9.44765 12.536 9.04069 12.7046 8.74063 13.0046C8.44057 13.3047 8.272 13.7117 8.272 14.136V18.4C8.272 18.8243 8.44057 19.2313 8.74063 19.5314C9.04069 19.8314 9.44765 20 9.872 20C10.2963 20 10.7033 19.8314 11.0034 19.5314C11.3034 19.2313 11.472 18.8243 11.472 18.4V14.136C11.472 13.7117 11.3034 13.3047 11.0034 13.0046C10.7033 12.7046 10.2963 12.536 9.872 12.536ZM14.128 16.8H12.528V18.4C12.528 18.7164 12.6218 19.0258 12.7976 19.2889C12.9735 19.552 13.2233 19.7571 13.5157 19.8782C13.8081 19.9993 14.1298 20.031 14.4401 19.9693C14.7505 19.9075 15.0356 19.7551 15.2594 19.5314C15.4831 19.3076 15.6355 19.0225 15.6973 18.7121C15.759 18.4018 15.7273 18.0801 15.6062 17.7877C15.4851 17.4953 15.28 17.2455 15.0169 17.0696C14.7538 16.8938 14.4445 16.8 14.128 16.8ZM18.4 12.536H14.128C13.7037 12.536 13.2967 12.7046 12.9966 13.0046C12.6966 13.3047 12.528 13.7117 12.528 14.136C12.528 14.5603 12.6966 14.9673 12.9966 15.2674C13.2967 15.5674 13.7037 15.736 14.128 15.736H18.4C18.8243 15.736 19.2313 15.5674 19.5314 15.2674C19.8314 14.9673 20 14.5603 20 14.136C20 13.7117 19.8314 13.3047 19.5314 13.0046C19.2313 12.7046 18.8243 12.536 18.4 12.536ZM9.872 8.264H5.6C5.17565 8.264 4.76869 8.43257 4.46863 8.73263C4.16857 9.03269 4 9.43965 4 9.864C4 10.2883 4.16857 10.6953 4.46863 10.9954C4.76869 11.2954 5.17565 11.464 5.6 11.464H9.872C10.2963 11.464 10.7033 11.2954 11.0034 10.9954C11.3034 10.6953 11.472 10.2883 11.472 9.864C11.472 9.43965 11.3034 9.03269 11.0034 8.73263C10.7033 8.43257 10.2963 8.264 9.872 8.264ZM9.872 4C9.44765 4 9.04069 4.16857 8.74063 4.46863C8.44057 4.76869 8.272 5.17565 8.272 5.6C8.272 6.02435 8.44057 6.43131 8.74063 6.73137C9.04069 7.03143 9.44765 7.2 9.872 7.2H11.472V5.6C11.472 5.17565 11.3034 4.76869 11.0034 4.46863C10.7033 4.16857 10.2963 4 9.872 4Z" fill="#CDD1D7"/>
</svg>
